<?xml version="1.0" encoding="UTF-8" standalone="no"?>
<svg
   xmlns:dc="http://purl.org/dc/elements/1.1/"
   xmlns:cc="http://creativecommons.org/ns#"
   xmlns:rdf="http://www.w3.org/1999/02/22-rdf-syntax-ns#"
   xmlns:svg="http://www.w3.org/2000/svg"
   xmlns="http://www.w3.org/2000/svg"
   xmlns:sodipodi="http://sodipodi.sourceforge.net/DTD/sodipodi-0.dtd"
   xmlns:inkscape="http://www.inkscape.org/namespaces/inkscape"
   width="590.33099pt"
   zoomAndPan="magnify"
   viewBox="0 0 590.33099 135.9268"
   height="135.9268pt"
   preserveAspectRatio="xMidYMid meet"
   version="1.2"
   id="svg112"
   sodipodi:docname="30-years-logo-white.svg"
   inkscape:version="0.92.5 (2060ec1f9f, 2020-04-08)"
   inkscape:export-filename="/home/ken/Downloads/30-years-logo-white.png"
   inkscape:export-xdpi="131.89452"
   inkscape:export-ydpi="131.89452">
  <metadata
     id="metadata116">
    <rdf:RDF>
      <cc:Work
         rdf:about="">
        <dc:format>image/svg+xml</dc:format>
        <dc:type
           rdf:resource="http://purl.org/dc/dcmitype/StillImage" />
        <dc:title></dc:title>
      </cc:Work>
    </rdf:RDF>
  </metadata>
  <sodipodi:namedview
     pagecolor="#ffffff"
     bordercolor="#666666"
     borderopacity="1"
     objecttolerance="10"
     gridtolerance="10"
     guidetolerance="10"
     inkscape:pageopacity="0"
     inkscape:pageshadow="2"
     inkscape:window-width="1872"
     inkscape:window-height="1016"
     id="namedview114"
     showgrid="false"
     inkscape:zoom="1"
     inkscape:cx="-37.93711"
     inkscape:cy="-33.660553"
     inkscape:window-x="48"
     inkscape:window-y="27"
     inkscape:window-maximized="1"
     inkscape:current-layer="svg112"
     fit-margin-top="0"
     fit-margin-left="0"
     fit-margin-right="0"
     fit-margin-bottom="0" />
  <defs
     id="defs13">
    <g
       id="g2" />
    <clipPath
       xml:id="clip1"
       id="clip1">
      <path
         d="M 153.85547,269 H 369 V 641 H 153.85547 Z m 0,0"
         id="path4"
         inkscape:connector-curvature="0" />
    </clipPath>
    <clipPath
       xml:id="clip2"
       id="clip2">
      <path
         d="m 1412,396 h 181.8555 V 589 H 1412 Z m 0,0"
         id="path7"
         inkscape:connector-curvature="0" />
    </clipPath>
    <clipPath
       xml:id="clip3"
       id="clip3">
      <path
         d="m 1519,241 h 74.8555 V 346 H 1519 Z m 0,0"
         id="path10"
         inkscape:connector-curvature="0" />
    </clipPath>
  </defs>
  <g
     id="g1107">
    <path
       style="fill:#ffffff;fill-opacity:1;fill-rule:nonzero;stroke:none;stroke-width:0.298888"
       d="m 101.86222,102.69876 c 0.0584,-0.56975 0.0759,-1.14068 0.0537,-1.71393 -0.0222,-0.57209 -0.0841,-1.140684 -0.18681,-1.703433 -0.10157,-0.563918 -0.24401,-1.117327 -0.42381,-1.661396 -0.18097,-0.544069 -0.3993,-1.071794 -0.65382,-1.585508 -0.25569,-0.512545 -0.54524,-1.005244 -0.869811,-1.476928 -0.32574,-0.47285 -0.681838,-0.918845 -1.069457,-1.341493 -0.387622,-0.421477 -0.803261,-0.813768 -1.246925,-1.176872 -0.44366,-0.363101 -0.909504,-0.693512 -1.399868,-0.990066 -0.489196,-0.297719 -0.998239,-0.558078 -1.524795,-0.783412 -0.526557,-0.225335 -1.067123,-0.413306 -1.619367,-0.56275 -0.553409,-0.148278 -1.114992,-0.258024 -1.683579,-0.328077 -0.568589,-0.07005 -1.13951,-0.09924 -1.711603,-0.08873 -0.573255,0.01049 -1.14301,0.06188 -1.708097,0.152944 -0.566252,0.09107 -1.121999,0.220666 -1.66957,0.391125 -0.547572,0.16929 -1.079966,0.375944 -1.598349,0.621125 -0.517216,0.245184 -1.015753,0.525391 -1.49444,0.840622 -0.453003,0.29422 -0.914178,0.575593 -1.382357,0.84296 -0.469349,0.267364 -0.946868,0.520717 -1.431395,0.76006 -0.483356,0.239347 -0.974886,0.464679 -1.472257,0.674836 -0.497367,0.210154 -1.000572,0.406299 -1.509617,0.587267 -0.509042,0.179799 -1.022756,0.345589 -1.542307,0.496202 -0.518385,0.149444 -1.041439,0.284876 -1.567996,0.403965 -0.526557,0.120254 -1.056614,0.222997 -1.590177,0.311731 -0.532394,0.08756 -1.067123,0.15995 -1.604189,0.21716 -0.538231,0.05604 -1.076463,0.0969 -1.615863,0.121423 -0.5394,0.02451 -1.078797,0.03386 -1.619366,0.02684 -0.540566,-0.0082 -1.079966,-0.03036 -1.618197,-0.07005 -0.539401,-0.03853 -1.076463,-0.0934 -1.611192,-0.164622 -0.535897,-0.07122 -1.068291,-0.157618 -1.59952,-0.259192 -0.530057,-0.102743 -1.056614,-0.220663 -1.580837,-0.353761 -0.523054,-0.133101 -1.042605,-0.282545 -1.556318,-0.445998 -0.514883,-0.163456 -1.025093,-0.343255 -1.528298,-0.537066 -0.504374,-0.193808 -1.00291,-0.402796 -1.49444,-0.626962 -0.49153,-0.223 -0.976058,-0.461175 -1.453576,-0.713362 C 54.800205,92.311224 54.32969,92.045026 53.868515,91.765987 53.406174,91.485779 52.95317,91.192729 52.508341,90.885669 52.063512,90.578607 51.628023,90.259872 51.201875,89.927126 50.776892,89.59438 50.361252,89.249957 49.95495,88.892693 49.549816,88.536595 49.155192,88.167656 48.772241,87.787041 48.388125,87.407593 48.015681,87.015303 47.654914,86.613672 47.295316,86.210873 46.946224,85.798736 46.609975,85.376087 46.273726,84.953442 45.95032,84.521456 45.639755,84.078961 45.329192,83.637635 45.031473,83.186969 44.747762,82.72696 44.464052,82.266953 44.193185,81.79994 43.937495,81.324756 43.68064,80.849569 43.438959,80.366214 43.21129,79.877018 42.982455,79.386653 42.769964,78.89162 42.571484,78.388415 c -0.199648,-0.502039 -0.38295,-1.009916 -0.551074,-1.522461 -0.169294,-0.513713 -0.322241,-1.03093 -0.460007,-1.553984 -0.02218,-0.136601 -0.0502,-0.273202 -0.08523,-0.407468 -0.03619,-0.134267 -0.07823,-0.266199 -0.128429,-0.396962 -0.04904,-0.129595 -0.105077,-0.256856 -0.168125,-0.380613 -0.06188,-0.123761 -0.131929,-0.245184 -0.206651,-0.361936 -0.07589,-0.116754 -0.15645,-0.228837 -0.244015,-0.337417 -0.08757,-0.10858 -0.179799,-0.211323 -0.277873,-0.310563 -0.09807,-0.09807 -0.200814,-0.191476 -0.308228,-0.280207 -0.10858,-0.08756 -0.220663,-0.169293 -0.336249,-0.245181 -0.116752,-0.07706 -0.23701,-0.145941 -0.360767,-0.210157 -0.123758,-0.06305 -0.249853,-0.120255 -0.379447,-0.170459 -0.129595,-0.0502 -0.261527,-0.0934 -0.395794,-0.129595 -0.134266,-0.03736 -0.270867,-0.06655 -0.407468,-0.08873 -0.137769,-0.02218 -0.275539,-0.03736 -0.414474,-0.04437 -0.138935,-0.0082 -0.277873,-0.0082 -0.416808,-0.0012 -0.138935,0.0058 -0.276705,0.01985 -0.414474,0.04203 -0.136601,0.02101 -0.273202,0.04904 -0.407468,0.08523 -0.134266,0.03503 -0.267364,0.07706 -0.396962,0.127261 -0.129595,0.04903 -0.256855,0.105077 -0.380613,0.168124 -0.124926,0.06305 -0.245184,0.131933 -0.361935,0.206655 -0.116755,0.07589 -0.230004,0.156446 -0.337418,0.244012 -0.10858,0.08756 -0.212489,0.179799 -0.310563,0.277873 -0.09924,0.09807 -0.192642,0.200814 -0.280207,0.308228 -0.08756,0.107411 -0.170459,0.219494 -0.24635,0.336249 -0.07589,0.116752 -0.145941,0.237009 -0.208988,0.359598 -0.06421,0.123761 -0.121423,0.251021 -0.171628,0.380616 -0.0502,0.129598 -0.0934,0.261527 -0.129594,0.395794 -0.03736,0.134266 -0.06655,0.269698 -0.08873,0.407468 -0.02218,0.1366 -0.03736,0.275538 -0.04437,0.414474 -0.0082,0.137769 -0.0082,0.276704 -0.0024,0.415642 0.007,0.138935 0.02101,0.27787 0.04203,0.414471 0.02218,0.13777 0.0502,0.27437 0.08523,0.408637 0.03619,0.134266 0.07823,0.266198 0.127261,0.396962 0.17863,0.673664 0.375944,1.341493 0.593104,2.003482 0.218329,0.661992 0.455338,1.316975 0.711028,1.964955 0.255689,0.647981 0.531225,1.287786 0.825445,1.919423 0.29305,0.631634 0.605947,1.253928 0.936359,1.866881 0.330412,0.614123 0.679504,1.216567 1.046108,1.809675 0.365438,0.593104 0.749554,1.174534 1.150019,1.744289 0.400462,0.569755 0.818439,1.127836 1.251594,1.673073 0.433154,0.545238 0.882652,1.077632 1.34733,1.597183 0.465844,0.518385 0.9457,1.023925 1.440733,1.514289 0.493867,0.490362 1.002909,0.965549 1.525963,1.426721 0.523054,0.46001 1.058952,0.904839 1.608858,1.333321 0.54874,0.429652 1.110324,0.841792 1.683582,1.237585 0.573255,0.395793 1.158191,0.774072 1.75363,1.134839 0.59661,0.361935 1.202557,0.70519 1.819014,1.029762 0.615288,0.325743 1.241085,0.632806 1.875056,0.921186 0.633968,0.28838 1.276111,0.55808 1.926426,0.8091 0.650314,0.24985 1.307635,0.48102 1.971961,0.69351 0.663158,0.21133 1.333318,0.40397 2.008154,0.5756 0.674832,0.17279 1.354336,0.32457 2.038508,0.4565 0.684173,0.13193 1.371848,0.24402 2.063027,0.33508 0.690013,0.0922 1.383526,0.16346 2.078207,0.21366 0.694681,0.0502 1.390528,0.0806 2.087544,0.0899 0.697016,0.009 1.392866,-10e-4 2.089882,-0.0327 0.69585,-0.0327 1.390528,-0.0841 2.082876,-0.15645 0.693512,-0.0735 1.383525,-0.16579 2.071201,-0.28021 0.687675,-0.11325 1.370682,-0.24635 2.050183,-0.40046 0.680673,-0.15411 1.354336,-0.32691 2.0245,-0.52072 0.668995,-0.19381 1.332153,-0.40747 1.988304,-0.63981 0.657321,-0.23233 1.30647,-0.48452 1.948613,-0.75539 0.64214,-0.27203 1.274942,-0.56158 1.89957,-0.86981 0.624631,-0.308233 1.239919,-0.635142 1.84587,-0.980731 0.604779,-0.34442 1.20022,-0.706356 1.783987,-1.086969 0.332746,-0.220666 0.688842,-0.389956 1.069457,-0.509045 0.379448,-0.119089 0.769404,-0.182133 1.167532,-0.190308 0.399296,-0.0093 0.790418,0.03853 1.175703,0.141273 0.385287,0.103908 0.748388,0.258024 1.089309,0.464678 0.340917,0.206651 0.645643,0.456503 0.91651,0.749554 0.269701,0.293051 0.493867,0.617622 0.671332,0.974889 0.177465,0.357264 0.301223,0.730879 0.372442,1.123169 0.07122,0.39229 0.0864,0.78691 0.04553,1.18271 -0.02801,0.30706 -0.0899,0.60595 -0.185636,0.89783 -0.09574,0.29188 -0.222998,0.56976 -0.381782,0.83362 -0.158784,0.26269 -0.344423,0.50554 -0.55808,0.7262 -0.213661,0.22183 -0.449501,0.41564 -0.706356,0.58377 -0.915345,0.59427 -1.850539,1.15468 -2.806747,1.68008 -0.957374,0.52538 -1.931097,1.01458 -2.924664,1.46758 -0.992404,0.45184 -2.001151,0.86748 -3.025075,1.24576 -1.022756,0.37711 -2.059524,0.71686 -3.107969,1.01808 -1.049608,0.30006 -2.108559,0.56159 -3.17685,0.78342 -1.068292,0.223 -2.143589,0.40513 -3.224721,0.5464 -1.082303,0.14244 -2.168106,0.24402 -3.257413,0.3059 -1.089306,0.0607 -2.179781,0.0817 -3.271421,0.0619 -1.090475,-0.0199 -2.179782,-0.0794 -3.266754,-0.18097 -1.085803,-0.10041 -2.166937,-0.24051 -3.2434,-0.42265 -1.076466,-0.18097 -2.143589,-0.40163 -3.203706,-0.66199 -1.06012,-0.26036 -2.108562,-0.56042 -3.14533,-0.899 -1.037936,-0.33742 -2.060692,-0.71453 -3.070608,-1.129 -1.008747,-0.41447 -2.002316,-0.86631 -2.977205,-1.35434 -0.976055,-0.48919 -1.932263,-1.01225 -2.869791,-1.57266 -0.936359,-0.55925 -1.851704,-1.15235 -2.743699,-1.78049 -0.213657,-0.14711 -0.438992,-0.2732 -0.677167,-0.37594 -0.238178,-0.10391 -0.483358,-0.18331 -0.736714,-0.23935 -0.253352,-0.0549 -0.509042,-0.0852 -0.7694,-0.0911 -0.259193,-0.005 -0.516051,0.0152 -0.771741,0.0595 -0.255687,0.0444 -0.504374,0.11442 -0.746051,0.20782 -0.241678,0.0934 -0.47285,0.20899 -0.691179,0.34793 -0.219494,0.13893 -0.423814,0.29655 -0.611785,0.47518 -0.187973,0.17863 -0.357266,0.37361 -0.507876,0.58493 -0.149444,0.21133 -0.277873,0.43549 -0.384119,0.6725 -0.106246,0.23584 -0.189139,0.48103 -0.247515,0.73321 -0.05838,0.25219 -0.09224,0.50904 -0.101577,0.76824 -0.0082,0.25919 0.0082,0.51604 0.0502,0.77173 0.04203,0.25686 0.10858,0.50555 0.19848,0.74956 0.09107,0.24285 0.204319,0.47402 0.339751,0.69585 0.135436,0.22066 0.291883,0.42615 0.468182,0.61646 0.17513,0.1903 0.368938,0.36193 0.577926,0.51488 1.055449,0.74138 2.136583,1.44306 3.24457,2.10506 1.107987,0.66199 2.238157,1.28078 3.391679,1.85871 1.15352,0.57675 2.326888,1.11032 3.520106,1.60068 1.194383,0.49036 2.403947,0.93519 3.629854,1.33565 1.227076,0.3993 2.465826,0.75423 3.718588,1.06129 1.252759,0.30823 2.51603,0.56976 3.78747,0.78342 1.272611,0.21365 2.551057,0.38061 3.835339,0.4997 1.284286,0.11909 2.572072,0.19031 3.862195,0.21249 1.288955,0.0233 2.577909,-0.001 3.866864,-0.0735 1.287785,-0.0724 2.570903,-0.19265 3.850517,-0.36077 1.278448,-0.16813 2.549888,-0.38412 3.813156,-0.64682 1.263271,-0.26269 2.513696,-0.57092 3.75478,-0.92701 1.239919,-0.3561 2.464661,-0.75657 3.67539,-1.20373 1.209561,-0.44716 2.401613,-0.93753 3.574981,-1.47342 1.174535,-0.5359 2.325723,-1.11383 3.457058,-1.73496 1.130171,-0.62112 2.236992,-1.28311 3.318126,-1.98713 0.751889,-0.4927 1.439564,-1.06129 2.064196,-1.7081 0.624628,-0.64681 1.168696,-1.3555 1.634536,-2.12374 0.46585,-0.7694 0.84063,-1.57967 1.12433,-2.43313 0.28371,-0.8523 0.46935,-1.72679 0.55808,-2.62111"
       id="path19"
       inkscape:connector-curvature="0" />
    <path
       style="fill:#ffffff;fill-opacity:1;fill-rule:nonzero;stroke:none;stroke-width:0.298888"
       d="m 60.79898,58.890654 c 0.259193,-0.201982 0.526557,-0.39229 0.802096,-0.570921 0.27437,-0.179802 0.556912,-0.346758 0.84646,-0.503207 0.288379,-0.155282 0.583764,-0.300054 0.884989,-0.430818 0.301222,-0.131932 0.607116,-0.251021 0.917679,-0.357266 0.310562,-0.106243 0.624628,-0.199646 0.943365,-0.280208 0.318734,-0.08056 0.639806,-0.148275 0.96438,-0.201982 0.323406,-0.05371 0.649149,-0.09457 0.976058,-0.121424 0.328074,-0.02684 0.656151,-0.04086 0.984226,-0.04086 0.328077,0 0.656155,0.01402 0.984229,0.04086 0.326909,0.02687 0.652652,0.06772 0.976058,0.121424 0.324574,0.05371 0.645642,0.121423 0.96438,0.201982 0.318737,0.08056 0.632802,0.173965 0.943365,0.280208 0.310562,0.106245 0.616456,0.225334 0.917679,0.357266 0.301225,0.130764 0.59661,0.275536 0.884989,0.430818 0.289548,0.156449 0.570924,0.323405 0.84646,0.503207 0.275539,0.178631 0.542903,0.368939 0.802096,0.570921 0.205485,0.169293 0.426148,0.316403 0.66082,0.441329 0.235844,0.124924 0.481024,0.225332 0.735545,0.301223 0.25569,0.07589 0.516048,0.124926 0.781078,0.148275 0.26503,0.02451 0.53006,0.02101 0.79509,-0.0082 0.263862,-0.0292 0.523054,-0.08523 0.776407,-0.166959 0.253355,-0.08172 0.496202,-0.186805 0.728539,-0.317568 0.232341,-0.130763 0.449501,-0.282542 0.651483,-0.456504 0.201983,-0.172793 0.384119,-0.365438 0.547572,-0.575592 0.162287,-0.210157 0.30356,-0.435489 0.42148,-0.673667 0.11792,-0.238175 0.211323,-0.486858 0.280207,-0.743717 0.06772,-0.256855 0.109749,-0.518382 0.126092,-0.784581 0.01635,-0.266195 0.0058,-0.53006 -0.03152,-0.793921 -0.03736,-0.263861 -0.100409,-0.521885 -0.189143,-0.771738 -0.08873,-0.251018 -0.201982,-0.49153 -0.338583,-0.719199 C 81.245955,53.541 81.087171,53.328509 80.907372,53.132364 80.72757,52.93505 80.531425,52.758754 80.315433,52.601135 79.828572,52.222857 79.324198,51.867927 78.803478,51.536347 78.282762,51.204769 77.746865,50.89771 77.198124,50.616334 c -0.54874,-0.281376 -1.110321,-0.537066 -1.683579,-0.767069 -0.573258,-0.230004 -1.155857,-0.431986 -1.747795,-0.607117 -0.59077,-0.176296 -1.189715,-0.323405 -1.795663,-0.44366 -0.605947,-0.119089 -1.215401,-0.210157 -1.82952,-0.273202 -0.614122,-0.06305 -1.229413,-0.09807 -1.847035,-0.103911 -0.617625,-0.0058 -1.234082,0.01751 -1.84937,0.06888 -0.61529,0.05137 -1.225907,0.131929 -1.834191,0.240512 -0.607117,0.10858 -1.208396,0.244012 -1.803837,0.408634 -0.595439,0.164621 -1.18154,0.356098 -1.758302,0.575592 -0.577926,0.218329 -1.143013,0.463513 -1.697591,0.735545 -0.554577,0.270868 -1.095143,0.567421 -1.6217,0.889659 -0.526557,0.32224 -1.037934,0.667829 -1.532967,1.036767 -0.493867,0.368942 -0.97022,0.761232 -1.429058,1.174537 -0.457672,0.413306 -0.896664,0.847629 -1.314641,1.301798 -0.416808,0.454169 -0.81377,0.927019 -1.18738,1.418549 -0.37361,0.491534 -0.723868,0.999407 -1.050777,1.522461 -0.326909,0.524223 -0.628134,1.061289 -0.904838,1.613529 -0.276705,0.552243 -0.527723,1.114993 -0.751889,1.690585 -0.224166,0.575593 -0.42148,1.15936 -0.59077,1.753633 -0.170462,0.593104 -0.311731,1.193217 -0.426152,1.799165 -0.114417,0.607116 -0.199645,1.217735 -0.256855,1.833023 -0.05721,0.614122 -0.0864,1.230579 -0.0864,1.848204 0,0.616456 0.02917,1.232913 0.0864,1.847032 0.05721,0.615291 0.142438,1.22591 0.256855,1.833026 0.114421,0.605948 0.25569,1.206058 0.426152,1.799166 0.16929,0.594273 0.366604,1.178037 0.59077,1.753632 0.224166,0.575593 0.475184,1.138342 0.751889,1.690585 0.276704,0.552241 0.577929,1.089307 0.904838,1.613526 0.326909,0.523054 0.677167,1.030931 1.050777,1.522461 0.37361,0.49153 0.770572,0.964383 1.18738,1.418552 0.417977,0.45417 0.856969,0.88849 1.314641,1.301798 0.458838,0.413305 0.935191,0.805596 1.429058,1.174534 0.495033,0.368941 1.00641,0.714531 1.532967,1.036768 0.526557,0.32224 1.067123,0.618794 1.6217,0.889661 0.554578,0.272033 1.119665,0.517214 1.697591,0.735542 0.576762,0.219498 1.162863,0.410971 1.758302,0.575593 0.595441,0.164624 1.19672,0.300056 1.803837,0.408636 0.608284,0.108581 1.218901,0.18914 1.834191,0.240513 0.615288,0.05137 1.231745,0.07472 1.84937,0.06888 0.617622,-0.0058 1.232913,-0.04086 1.847035,-0.103911 0.614119,-0.06305 1.223573,-0.154113 1.82952,-0.273202 0.605948,-0.120254 1.204893,-0.267364 1.795663,-0.443663 0.591938,-0.175127 1.174537,-0.37711 1.747795,-0.607116 0.573258,-0.230003 1.134839,-0.485693 1.683579,-0.767066 0.548741,-0.281376 1.084638,-0.588436 1.605354,-0.920016 0.52072,-0.331578 1.025094,-0.686507 1.511955,-1.064789 0.215992,-0.157615 0.412137,-0.333912 0.591939,-0.531225 0.179799,-0.196146 0.338583,-0.408637 0.475184,-0.637472 0.136601,-0.227669 0.249852,-0.468181 0.338583,-0.718033 0.08873,-0.251018 0.151782,-0.509042 0.189143,-0.772904 0.03736,-0.262695 0.04787,-0.527725 0.03152,-0.793921 -0.01635,-0.266199 -0.05837,-0.527726 -0.126092,-0.784581 -0.06888,-0.256858 -0.162287,-0.505542 -0.280207,-0.74372 -0.11792,-0.238175 -0.259193,-0.463509 -0.42148,-0.673664 -0.163453,-0.210157 -0.345589,-0.402799 -0.547572,-0.575592 -0.201982,-0.173962 -0.419142,-0.325743 -0.651483,-0.456507 -0.232337,-0.130763 -0.475184,-0.23584 -0.728539,-0.317568 -0.253353,-0.08172 -0.512545,-0.137767 -0.776407,-0.166956 -0.26503,-0.0292 -0.53006,-0.03269 -0.79509,-0.0082 -0.26503,0.02334 -0.525388,0.07239 -0.781078,0.148276 -0.254521,0.07589 -0.499701,0.176296 -0.735545,0.301222 -0.234672,0.124926 -0.455335,0.272036 -0.66082,0.441326 -0.308229,0.240512 -0.6293,0.463513 -0.959712,0.672498 -0.33158,0.207823 -0.672498,0.399296 -1.02159,0.574427 -0.350261,0.17513 -0.707525,0.331577 -1.07296,0.471681 -0.365438,0.140104 -0.736714,0.261527 -1.114993,0.36427 -0.377113,0.102743 -0.758897,0.187973 -1.144182,0.253355 -0.385284,0.06538 -0.772906,0.112083 -1.164028,0.140104 -0.389956,0.02684 -0.779909,0.03619 -1.171034,0.02451 -0.391122,-0.01049 -0.781078,-0.0397 -1.168697,-0.0899 -0.388791,-0.04904 -0.772907,-0.116751 -1.154691,-0.203151 -0.381782,-0.08756 -0.757726,-0.192642 -1.129002,-0.3164 -0.371275,-0.123757 -0.735545,-0.26503 -1.09164,-0.424983 -0.357267,-0.15995 -0.706356,-0.336249 -1.046108,-0.530057 -0.339752,-0.193811 -0.668995,-0.403968 -0.987732,-0.630468 -0.319903,-0.2265 -0.626966,-0.467012 -0.922351,-0.723868 -0.295385,-0.256858 -0.577927,-0.526557 -0.846459,-0.811436 -0.268533,-0.28371 -0.523054,-0.580261 -0.762398,-0.889658 -0.240512,-0.309397 -0.464678,-0.6293 -0.672498,-0.959711 -0.20782,-0.331578 -0.399296,-0.672498 -0.574427,-1.02159 -0.175127,-0.350258 -0.332746,-0.708691 -0.471681,-1.074129 -0.140104,-0.36427 -0.261527,-0.736711 -0.36427,-1.113824 -0.103911,-0.377113 -0.187973,-0.758895 -0.253355,-1.144179 -0.06538,-0.385288 -0.112083,-0.774075 -0.140104,-1.164029 -0.02801,-0.389956 -0.03619,-0.781081 -0.02567,-1.172202 0.01169,-0.389957 0.04086,-0.77991 0.0899,-1.1687 0.04904,-0.387619 0.117921,-0.772904 0.204317,-1.15352 0.0864,-0.381781 0.192642,-0.757728 0.3164,-1.129001 0.12376,-0.371276 0.26503,-0.735546 0.424983,-1.092809 0.159953,-0.356099 0.336249,-0.705191 0.53006,-1.044943 0.193808,-0.339752 0.403965,-0.668995 0.630465,-0.988897 0.2265,-0.318738 0.467013,-0.625797 0.723871,-0.921182 0.25569,-0.295385 0.526557,-0.57793 0.810264,-0.84646 0.284879,-0.268533 0.581433,-0.523054 0.890827,-0.763566"
       id="path21"
       inkscape:connector-curvature="0" />
    <path
       style="fill:#ffffff;fill-opacity:1;fill-rule:nonzero;stroke:none;stroke-width:0.298888"
       d="m 85.199215,46.810208 c 1.335656,1.058952 2.560397,2.23232 3.67539,3.522443 0.166956,0.208989 0.352592,0.400462 0.559246,0.573258 0.205486,0.171628 0.426149,0.322238 0.661989,0.449501 0.235844,0.127261 0.482193,0.230003 0.739049,0.308228 0.256858,0.07822 0.519551,0.129595 0.785749,0.154113 0.267365,0.02451 0.534729,0.02218 0.800924,-0.007 0.267368,-0.02917 0.528895,-0.08406 0.783416,-0.165787 0.25569,-0.08173 0.50087,-0.189143 0.734377,-0.319906 0.234674,-0.131929 0.453,-0.284876 0.656151,-0.461175 0.201983,-0.175128 0.385285,-0.370107 0.549909,-0.582596 0.163453,-0.212491 0.303557,-0.438991 0.421477,-0.680672 0.117921,-0.240512 0.210157,-0.491531 0.277874,-0.750723 0.06655,-0.260359 0.107411,-0.52422 0.121423,-0.791584 0.01285,-0.268533 0,-0.534732 -0.0397,-0.800927 -0.04086,-0.26503 -0.107414,-0.523054 -0.199648,-0.775241 -0.09224,-0.252187 -0.208988,-0.492699 -0.350261,-0.720368 -0.141269,-0.228834 -0.303556,-0.440157 -0.486858,-0.636303 -0.552244,-0.635136 -1.126668,-1.250427 -1.722109,-1.845869 -0.595442,-0.595439 -1.211898,-1.167531 -1.84937,-1.718606 -0.636305,-0.551075 -1.292457,-1.078797 -1.966124,-1.583171 -0.674832,-0.504373 -1.36601,-0.984229 -2.074701,-1.439567 -0.708693,-0.455335 -1.432561,-0.883821 -2.171609,-1.287786 -0.739046,-0.402799 -1.492106,-0.779912 -2.258006,-1.129001 -0.765901,-0.350261 -1.543476,-0.672498 -2.332726,-0.966718 -0.789252,-0.294216 -1.587842,-0.559246 -2.395775,-0.796255 -0.80793,-0.238178 -1.622869,-0.445998 -2.445977,-0.624631 -0.82311,-0.179799 -1.65089,-0.329243 -2.484506,-0.449498 C 72.355202,33.16411 71.51808,33.07421 70.678626,33.0135 69.839172,32.95279 68.997381,32.92243 68.15559,32.92243 c -0.841788,0 -1.683579,0.0292 -2.523033,0.08873 -0.840623,0.05954 -1.676577,0.148275 -2.510193,0.267364 -0.833617,0.120255 -1.662565,0.26853 -2.485675,0.447163 -0.823108,0.177465 -1.638044,0.385285 -2.447146,0.622294 l -0.191473,0.05954 c -0.403965,0.120255 -0.809099,0.24635 -1.208395,0.382951 l -0.442495,0.152947 -0.929353,0.338583 c -0.245184,0.09224 -0.490365,0.190308 -0.739049,0.295385 l -0.611785,0.258024 c -0.356098,0.152947 -0.711027,0.316403 -1.067125,0.481024 l -0.267365,0.130764 c -1.153519,0.554578 -2.274349,1.171034 -3.361321,1.847035 -1.085803,0.676001 -2.13308,1.410378 -3.140658,2.200796 -1.006413,0.78925 -1.968459,1.632209 -2.883803,2.527705 -0.915344,0.894329 -1.779319,1.836526 -2.593086,2.824258 -0.812602,0.988898 -1.570331,2.01866 -2.27085,3.090454 -0.701687,1.070626 -1.342661,2.176278 -1.922923,3.316957 -0.581432,1.140676 -1.098646,2.309376 -1.552818,3.507263 -0.45417,1.19672 -0.841788,2.414456 -1.16286,3.653206 -0.06538,0.253355 -0.105077,0.511379 -0.120255,0.772906 -0.01402,0.260359 -0.0024,0.520717 0.03386,0.77991 0.03736,0.259192 0.09924,0.512548 0.185636,0.758894 0.0864,0.24635 0.196145,0.483359 0.329243,0.707525 0.133101,0.225334 0.287213,0.435489 0.461175,0.630468 0.175131,0.194977 0.366604,0.371273 0.576761,0.527723 0.208989,0.157618 0.43082,0.29305 0.666661,0.406302 0.235841,0.113249 0.481021,0.201983 0.734377,0.267364 0.253355,0.06421 0.51021,0.103909 0.771737,0.119089 0.261527,0.01402 0.521886,0.0024 0.781078,-0.03503 0.258025,-0.0362 0.51138,-0.09807 0.757729,-0.184471 0.247515,-0.08756 0.483359,-0.197314 0.708691,-0.330412 0.225334,-0.133098 0.434323,-0.287213 0.629299,-0.462341 0.194977,-0.173961 0.371276,-0.366607 0.527726,-0.575592 0.157616,-0.208989 0.291882,-0.431989 0.405131,-0.667829 0.113251,-0.235841 0.201985,-0.481022 0.267367,-0.734377 0.431986,-1.661396 1.016919,-3.267919 1.754798,-4.817235 0.06538,-0.109748 0.131932,-0.213657 0.191474,-0.329243 1.067126,-2.185618 2.402781,-4.192603 4.005801,-6.022127 1.60302,-1.82952 3.417363,-3.416197 5.444197,-4.761193 1.387029,-0.922347 2.845273,-1.712765 4.37474,-2.373589 l 0.234675,-0.0934 0.804427,-0.32224 0.513714,-0.185637 0.547572,-0.185636 c 0.254524,-0.08757 0.511379,-0.170462 0.770572,-0.246349 l 0.295385,-0.08757 c 0.328077,-0.0934 0.661989,-0.185639 0.990066,-0.268533 h 0.09807 c 0.99707,-0.244015 2.003482,-0.433154 3.02157,-0.563917 1.018087,-0.13193 2.039677,-0.205486 3.065936,-0.222998 1.026262,-0.01635 2.050186,0.02451 3.070608,0.122589 1.02159,0.09924 2.035005,0.254524 3.039084,0.467013 1.004075,0.212491 1.992976,0.479855 2.966696,0.803261 0.97372,0.323409 1.926426,0.700519 2.858117,1.131339 0.93169,0.43082 1.83536,0.91301 2.713344,1.445404 0.876814,0.532395 1.72094,1.11149 2.533542,1.739621 0.114417,0.08756 0.240512,0.14711 0.354929,0.224166"
       id="path23"
       inkscape:connector-curvature="0" />
    <path
       style="fill:#ffffff;fill-opacity:1;fill-rule:nonzero;stroke:none;stroke-width:0.298888"
       d="m 60.69974,25.144332 c 0.253356,-0.04903 0.498536,-0.122589 0.736714,-0.219494 0.239344,-0.09691 0.465844,-0.215995 0.681839,-0.356098 0.215991,-0.14127 0.415639,-0.301223 0.60011,-0.481022 0.184471,-0.179802 0.349092,-0.374778 0.496199,-0.58727 0.145944,-0.211323 0.270867,-0.435489 0.374778,-0.671329 0.102743,-0.235841 0.182137,-0.479856 0.238178,-0.730874 0.05487,-0.251021 0.0864,-0.505542 0.09223,-0.762397 0.007,-0.258027 -0.01169,-0.513714 -0.05487,-0.76707 -0.0432,-0.254521 -0.109748,-0.50087 -0.200817,-0.742551 -0.09107,-0.240509 -0.204316,-0.470512 -0.340917,-0.688841 C 63.18775,18.917889 63.032468,18.714737 62.857338,18.525598 62.682207,18.337627 62.489565,18.167166 62.281745,18.016556 62.073926,17.864775 61.853263,17.73518 61.619756,17.6266 61.38625,17.51802 61.144569,17.432789 60.89472,17.37091 c -0.249853,-0.06188 -0.504374,-0.09924 -0.761232,-0.112083 -0.256855,-0.01169 -0.512545,0 -0.768235,0.03736 -1.072963,0.184471 -2.140086,0.401631 -3.200202,0.652649 -1.06012,0.251021 -2.110897,0.535897 -3.153502,0.853466 -1.041439,0.317568 -2.07237,0.667829 -3.092791,1.050779 -1.019256,0.381782 -2.026834,0.796256 -3.020404,1.243419 -0.993569,0.445998 -1.973127,0.923519 -2.936341,1.431396 -0.963212,0.507876 -1.91008,1.046108 -2.839436,1.613525 -0.930522,0.567421 -1.841195,1.164032 -2.73319,1.789828 -0.891993,0.625797 -1.762973,1.278446 -2.614102,1.959116 -0.851131,0.679503 -1.67891,1.387028 -2.485675,2.119071 -0.805595,0.733208 -1.587842,1.489768 -2.346737,2.272015 -0.757728,0.782246 -1.490937,1.587842 -2.198461,2.415621 -0.707525,0.828948 -1.388194,1.678911 -2.042012,2.549888 -0.653817,0.870978 -1.279614,1.762973 -1.87739,2.673646 -0.59661,0.910676 -1.165197,1.840029 -1.704597,2.786898 -0.538232,0.945699 -1.047274,1.908913 -1.524795,2.887305 -0.478687,0.979558 -0.924685,1.971959 -1.340325,2.97954 -0.415642,1.007578 -0.798592,2.025666 -1.150019,3.057765 -0.350261,1.03093 -0.668995,2.072366 -0.953874,3.123146 -0.286045,1.051945 -0.537063,2.110896 -0.755392,3.178019 -0.218328,1.068292 -0.402799,2.141252 -0.553409,3.220052 -0.150612,1.078797 -0.267364,2.161098 -0.350261,3.24807 -0.08173,1.085806 -0.129594,2.173943 -0.143606,3.26325 -0.01285,1.089306 0.007,2.177447 0.06305,3.265584 0.05487,1.088141 0.144776,2.172775 0.268533,3.255079 0.122589,1.0823 0.281373,2.159932 0.47285,3.232892 0.191474,1.071794 0.416808,2.137751 0.676001,3.195534 0.259193,1.057782 0.551075,2.107393 0.875649,3.146495 0.32574,1.040271 0.683004,2.067698 1.074129,3.085786 0.389953,1.016921 0.811433,2.019831 1.265602,3.011063 0.453004,0.990066 0.937528,1.964955 1.45241,2.925832 0.51488,0.959712 1.060117,1.901911 1.634544,2.827762 0.575593,0.925853 1.178037,1.831857 1.81084,2.719181 0.184471,0.258024 0.395793,0.490362 0.636305,0.697016 0.24051,0.20782 0.500871,0.384119 0.783413,0.528891 0.281376,0.144775 0.576761,0.254521 0.884989,0.329243 0.308228,0.07472 0.621125,0.112083 0.937528,0.113252 0.366604,0 0.725037,-0.0502 1.077629,-0.148276 0.352595,-0.09924 0.685341,-0.244015 0.997072,-0.435491 0.3129,-0.190305 0.593108,-0.419143 0.842957,-0.687676 0.248687,-0.26853 0.457672,-0.565083 0.624631,-0.890826 0.166956,-0.325741 0.287214,-0.667827 0.360767,-1.026259 0.07239,-0.358433 0.09574,-0.720368 0.06888,-1.085804 C 33.129643,95.359661 33.05377,95.004731 32.928844,94.660308 32.803917,94.315887 32.635793,93.995984 32.422136,93.698262 31.887404,92.947542 31.378362,92.180473 30.892669,91.39706 30.406976,90.613645 29.945801,89.816221 29.510312,89.004788 29.074823,88.192186 28.666187,87.366741 28.282068,86.529622 27.899118,85.691334 27.543023,84.84254 27.212611,83.982068 26.883368,83.121599 26.580977,82.250619 26.306607,81.37147 26.031068,80.492317 25.784721,79.604994 25.566393,78.709498 25.346895,77.814 25.156587,76.913833 24.9943,76.006663 24.833181,75.09949 24.700084,74.187649 24.595007,73.272304 24.491095,72.35696 24.415205,71.439281 24.368503,70.518099 c -0.04553,-0.920016 -0.06304,-1.841197 -0.05137,-2.762379 0.01169,-0.921182 0.05254,-1.841198 0.121424,-2.760045 0.07005,-0.918845 0.168124,-1.834189 0.296553,-2.747199 0.127261,-0.913011 0.283711,-1.820183 0.468178,-2.722685 0.184471,-0.902501 0.398128,-1.799165 0.639809,-2.688823 0.240512,-0.888492 0.510211,-1.769979 0.806765,-2.642122 0.297719,-0.872146 0.621125,-1.733786 0.972551,-2.586084 0.351427,-0.851128 0.729708,-1.69175 1.133673,-2.519533 0.405134,-0.827779 0.834786,-1.642715 1.290123,-2.443642 0.456504,-0.800924 0.93636,-1.586674 1.441902,-2.357246 0.505539,-0.7694 1.03443,-1.523626 1.587842,-2.26034 0.552241,-0.73788 1.129002,-1.457079 1.726778,-2.157598 0.598944,-0.700519 1.217735,-1.381188 1.859878,-2.043177 0.640974,-0.661992 1.302964,-1.302967 1.984802,-1.922926 0.681838,-0.61996 1.382357,-1.217736 2.101556,-1.793328 0.719199,-0.575593 1.455913,-1.127833 2.211305,-1.656727 0.754226,-0.528892 1.523629,-1.034431 2.310544,-1.514286 0.785747,-0.481025 1.586674,-0.93636 2.40161,-1.366011 0.814939,-0.43082 1.642719,-0.83362 2.483341,-1.211898 0.840622,-0.378282 1.691751,-0.72854 2.554557,-1.053114 0.862806,-0.323406 1.734952,-0.61996 2.616438,-0.889658 0.880318,-0.268533 1.769976,-0.509045 2.66664,-0.722702 0.896664,-0.212492 1.798,-0.396963 2.706338,-0.552244"
       id="path25"
       inkscape:connector-curvature="0" />
    <g
       transform="matrix(0.29888799,0,0,0.29888799,-45.986926,-55.386132)"
       clip-path="url(#clip1)"
       id="g29"
       style="clip-rule:nonzero;fill:#ffffff">
      <path
         style="fill:#ffffff;fill-opacity:1;fill-rule:nonzero;stroke:none"
         d="m 356.94531,613.57031 c -5.5039,-0.66406 -10.97265,-1.55469 -16.40625,-2.67578 -5.42969,-1.11719 -10.80469,-2.46094 -16.125,-4.03125 -5.3164,-1.56641 -10.5625,-3.35547 -15.73047,-5.35937 -5.17187,-2.00782 -10.25,-4.22657 -15.23437,-6.65625 -4.98438,-2.42969 -9.85938,-5.0625 -14.6211,-7.90235 -4.76562,-2.83594 -9.40625,-5.86719 -13.91796,-9.08984 -4.51172,-3.22656 -8.87891,-6.63281 -13.10547,-10.22266 -4.22657,-3.58984 -8.29688,-7.34765 -12.21094,-11.27734 -2.14453,-2.14063 -4.24219,-4.32813 -6.28906,-6.56641 -2.04688,-2.23437 -4.03907,-4.51562 -5.98438,-6.84375 -1.94531,-2.32422 -3.83203,-4.69531 -5.67187,-7.10547 -1.83594,-2.41015 -3.61719,-4.86328 -5.33985,-7.35547 -1.72656,-2.49218 -3.39453,-5.02343 -5.00781,-7.58984 -1.61328,-2.56641 -3.16406,-5.16797 -4.66016,-7.80469 -1.49218,-2.64062 -2.92578,-5.30859 -4.30078,-8.01172 -1.37109,-2.70312 -2.68359,-5.43359 -3.93359,-8.19531 -1.25,-2.76172 -2.4375,-5.55078 -3.5625,-8.36328 -1.125,-2.81641 -2.18359,-5.65625 -3.17969,-8.51953 -0.99609,-2.86328 -1.92969,-5.74609 -2.79297,-8.64844 -0.86718,-2.90625 -1.66797,-5.82812 -2.40234,-8.76953 -0.73047,-2.94141 -1.39844,-5.89844 -2,-8.87109 -0.60156,-2.96875 -1.13281,-5.95313 -1.59766,-8.94922 -0.46875,-2.9961 -0.86328,-6 -1.19531,-9.01172 -0.32812,-3.01172 -0.58984,-6.03125 -0.78516,-9.05859 -0.19531,-3.02344 -0.32031,-6.05079 -0.375,-9.08204 -0.0586,-3.03125 -0.0469,-6.0625 0.0352,-9.09375 0.0781,-3.02734 0.22656,-6.05468 0.44141,-9.07812 0.21875,-3.02344 0.5039,-6.04297 0.85547,-9.05078 0.35156,-3.01172 0.77343,-6.01172 1.26171,-9.00391 0.48829,-2.99219 1.04297,-5.97265 1.66797,-8.9375 0.6211,-2.96875 1.3125,-5.91797 2.06641,-8.85547 0.75781,-2.93359 1.57812,-5.85156 2.46484,-8.75 0.89063,-2.89843 1.84375,-5.77343 2.85938,-8.6289 1.01953,-2.85547 2.10156,-5.6875 3.24609,-8.49219 1.14453,-2.80859 2.35156,-5.58594 3.625,-8.33984 1.26953,-2.75 2.60156,-5.47266 3.9961,-8.16407 1.39453,-2.6914 2.84765,-5.35156 4.36328,-7.97656 1.51172,-2.625 3.08593,-5.21484 4.71484,-7.77344 1.63281,-2.55468 3.32031,-5.07031 5.06641,-7.55078 1.74218,-2.47656 3.54297,-4.91406 5.39843,-7.3125 0.53516,-0.6914 1,-1.42969 1.39063,-2.21094 0.39062,-0.78125 0.70312,-1.59375 0.93359,-2.4375 0.23047,-0.84375 0.37891,-1.70312 0.44141,-2.57421 0.0625,-0.8711 0.0391,-1.74219 -0.0703,-2.60938 -0.10938,-0.86719 -0.30078,-1.71875 -0.57813,-2.54687 -0.27734,-0.82813 -0.63281,-1.625 -1.0664,-2.38282 -0.42969,-0.76172 -0.9336,-1.47265 -1.50782,-2.13281 -0.57031,-0.66016 -1.20312,-1.25781 -1.89453,-1.79687 -0.6914,-0.53516 -1.42578,-1 -2.21094,-1.39063 -0.78125,-0.39062 -1.59375,-0.70312 -2.4375,-0.93359 -0.84375,-0.23047 -1.69921,-0.37891 -2.57421,-0.44141 -0.8711,-0.0625 -1.74219,-0.0391 -2.60938,0.0703 -0.86719,0.10938 -1.71484,0.30469 -2.54687,0.57813 -0.82813,0.27734 -1.625,0.63281 -2.38282,1.0664 -0.76172,0.42969 -1.47265,0.9336 -2.13281,1.50782 -0.66016,0.57422 -1.25781,1.20312 -1.79687,1.89453 -2.09766,2.71484 -4.13672,5.47656 -6.11329,8.28515 -1.97656,2.8086 -3.88671,5.65625 -5.73437,8.55079 -1.84766,2.89453 -3.62891,5.82812 -5.34375,8.80078 -1.71484,2.97656 -3.35938,5.98828 -4.9375,9.03515 -1.58203,3.05078 -3.08984,6.13282 -4.52734,9.25 -1.44141,3.11328 -2.8086,6.26172 -4.10547,9.44141 -1.29688,3.17969 -2.52344,6.38281 -3.67578,9.61719 -1.15235,3.23437 -2.23047,6.49218 -3.23829,9.77343 -1.0039,3.28516 -1.93359,6.58594 -2.79296,9.91407 -0.85547,3.32422 -1.63672,6.66406 -2.33985,10.02343 -0.70703,3.35938 -1.33594,6.73438 -1.88672,10.125 -0.55468,3.38672 -1.03125,6.78516 -1.42968,10.19532 -0.39844,3.41015 -0.72266,6.82812 -0.96875,10.25 -0.24219,3.42578 -0.41016,6.85156 -0.50391,10.28515 -0.0898,3.4336 -0.10156,6.86328 -0.0352,10.29688 0.0625,3.43359 0.20703,6.85937 0.42578,10.28906 0.21875,3.42578 0.51563,6.84375 0.89063,10.25781 0.37109,3.41016 0.82422,6.8125 1.35156,10.20703 0.52735,3.39063 1.12891,6.76954 1.8125,10.13282 0.67969,3.36718 1.4336,6.71484 2.26563,10.04687 0.83203,3.32813 1.73828,6.64063 2.71875,9.92969 0.98047,3.28906 2.03515,6.55469 3.16406,9.79687 1.12891,3.24219 2.32812,6.46094 3.60156,9.64844 1.27344,3.1875 2.61719,6.34375 4.03516,9.47266 1.41406,3.125 2.90234,6.21875 4.45703,9.28125 1.55469,3.05859 3.17969,6.08203 4.87109,9.07031 1.69532,2.98828 3.45313,5.93359 5.27735,8.83984 1.82812,2.91016 3.71484,5.77344 5.67187,8.59766 1.95313,2.82031 3.97266,5.59766 6.05078,8.32813 2.08203,2.73046 4.22266,5.41406 6.42578,8.04687 2.19922,2.63672 4.46094,5.21875 6.77735,7.75 2.3164,2.53516 4.6914,5.01172 7.12109,7.4375 4.4336,4.44922 9.04688,8.70313 13.83594,12.76953 4.78516,4.0625 9.73828,7.91797 14.84766,11.57031 5.10937,3.64844 10.36328,7.08204 15.76171,10.29297 5.39454,3.21094 10.91797,6.19141 16.5625,8.94532 5.64844,2.75 11.39844,5.26171 17.25391,7.53125 5.85547,2.26953 11.79297,4.29296 17.82031,6.07031 6.02344,1.77344 12.10938,3.29687 18.26172,4.5625 6.15235,1.26953 12.34375,2.27734 18.58203,3.02734 0.54688,0.0352 1.09766,0.0352 1.64453,0 0.83594,-0.008 1.66407,-0.0937 2.48438,-0.2539 0.82031,-0.16407 1.62109,-0.40235 2.39453,-0.71485 0.77734,-0.3164 1.51563,-0.69922 2.21875,-1.14844 0.70313,-0.45312 1.35938,-0.96875 1.96484,-1.54296 0.60547,-0.57813 1.15235,-1.20313 1.64063,-1.88282 0.48828,-0.67968 0.91016,-1.39843 1.26172,-2.15625 0.35156,-0.75781 0.63281,-1.54297 0.83594,-2.35547 0.20703,-0.80859 0.33593,-1.63281 0.38281,-2.46875 0.0508,-0.83203 0.0234,-1.66406 -0.082,-2.49609 -0.10938,-0.82812 -0.29297,-1.64062 -0.55078,-2.4375 -0.25782,-0.79297 -0.58985,-1.55859 -0.9961,-2.28906 -0.40234,-0.73438 -0.87109,-1.42188 -1.40234,-2.06641 -0.53516,-0.64453 -1.125,-1.23437 -1.76563,-1.76562 -0.64453,-0.53516 -1.33593,-1.00391 -2.0664,-1.40625 -0.73438,-0.40235 -1.4961,-0.73438 -2.29297,-0.9961 -0.79297,-0.25781 -1.60547,-0.4414 -2.4336,-0.55078"
         id="path27"
         inkscape:connector-curvature="0" />
    </g>
    <path
       style="fill:#ffffff;fill-opacity:1;fill-rule:nonzero;stroke:none;stroke-width:0.298888"
       d="m 109.64965,117.32209 c -0.15645,-0.20899 -0.33274,-0.40163 -0.52655,-0.57559 -0.19498,-0.17513 -0.40397,-0.32925 -0.6293,-0.46351 -0.22417,-0.1331 -0.46001,-0.24285 -0.70636,-0.33041 -0.24635,-0.0864 -0.4997,-0.14945 -0.75773,-0.18681 -0.25919,-0.0374 -0.51838,-0.049 -0.77991,-0.035 -0.26152,0.014 -0.51838,0.0537 -0.77173,0.11792 -0.25336,0.0642 -0.49737,0.15294 -0.73322,0.26619 -0.23584,0.11208 -0.45883,0.24635 -0.66782,0.40397 -2.07237,1.54931 -4.236972,2.95852 -6.491475,4.22879 -2.254503,1.27028 -4.581394,2.38994 -6.981838,3.35899 -2.399276,0.96905 -4.851093,1.77932 -7.355445,2.43197 -2.504356,0.65148 -5.040232,1.13951 -7.607635,1.46408 -0.251018,0.0292 -0.496199,0.0817 -0.735543,0.15762 -0.240512,0.0759 -0.470515,0.17397 -0.692347,0.29422 -0.221831,0.11909 -0.429651,0.25919 -0.624628,0.41914 -0.194979,0.15879 -0.37361,0.33509 -0.534731,0.5289 -0.161119,0.19264 -0.303557,0.39929 -0.42498,0.61995 -0.122592,0.22067 -0.223001,0.4495 -0.301223,0.68885 -0.07823,0.23934 -0.134266,0.48452 -0.16579,0.73437 -0.03152,0.24986 -0.03969,0.49971 -0.02451,0.7519 0.01518,0.25101 0.05487,0.49853 0.117921,0.74254 0.06188,0.24402 0.147109,0.47986 0.254521,0.70753 0.107414,0.22767 0.23584,0.44366 0.384119,0.64681 0.148275,0.20315 0.315231,0.39112 0.498536,0.56275 0.184468,0.17163 0.38295,0.32457 0.596607,0.45884 0.212492,0.13427 0.436658,0.24635 0.67133,0.33858 0.234674,0.0911 0.475187,0.15996 0.722702,0.20549 0.248683,0.0455 0.497367,0.0677 0.749554,0.0666 0.166959,0.001 0.332749,-0.008 0.497371,-0.028 2.907152,-0.3666 5.779277,-0.92001 8.614044,-1.65789 2.835933,-0.73905 5.612321,-1.65673 8.328,-2.75537 2.716844,-1.09748 5.351963,-2.36542 7.90419,-3.80499 2.55222,-1.4384 5.0017,-3.03558 7.34727,-4.79155 0.21016,-0.15645 0.40163,-0.33158 0.57676,-0.52539 0.17396,-0.1938 0.32808,-0.40396 0.46234,-0.62813 0.1331,-0.22416 0.24285,-0.46 0.33042,-0.70635 0.0876,-0.24635 0.14944,-0.49854 0.1868,-0.75656 0.0374,-0.2592 0.049,-0.51839 0.035,-0.77875 -0.014,-0.26152 -0.0525,-0.51838 -0.11792,-0.77174 -0.0642,-0.25218 -0.15295,-0.49736 -0.26503,-0.7332 -0.11325,-0.23468 -0.24752,-0.45768 -0.40397,-0.66666"
       id="path31"
       inkscape:connector-curvature="0" />
    <path
       style="fill:#ffffff;fill-opacity:1;fill-rule:nonzero;stroke:none;stroke-width:0.298888"
       d="m 31.07714,20.88985 c 0.607116,-0.475187 1.222404,-0.936359 1.847032,-1.387029 0.624631,-0.450666 1.258599,-0.888489 1.899574,-1.314638 0.642143,-0.426151 1.291291,-0.840622 1.948609,-1.241087 0.65732,-0.401631 1.322815,-0.790418 1.995313,-1.165197 0.67133,-0.375944 1.350834,-0.73788 2.03734,-1.088138 0.68651,-0.349092 1.378854,-0.685341 2.078207,-1.008747 0.699351,-0.32224 1.404541,-0.631634 2.115566,-0.928187 0.711027,-0.295385 1.427892,-0.577927 2.149426,-0.84646 0.722702,-0.267364 1.448904,-0.521885 2.180946,-0.762398 0.732043,-0.240512 1.467588,-0.467012 2.207802,-0.678335 0.740214,-0.212491 1.4851,-0.410971 2.23232,-0.5942728 0.748389,-0.183305 1.500277,-0.3525952 2.254503,-0.5067108 0.754226,-0.1552812 1.511952,-0.295385 2.270849,-0.4203112 0.760064,-0.1260919 1.522461,-0.2370092 2.286024,-0.332746 0.764735,-0.096906 1.530636,-0.1786304 2.297702,-0.2451808 0.767069,-0.067716 1.535304,-0.119089 2.304707,-0.15645 0.769404,-0.037361 1.538807,-0.06071 2.309376,-0.067716 0.769404,-0.00816 1.539976,-0.0012 2.309379,0.019846 0.770569,0.022177 1.539973,0.058376 2.308207,0.1097457 0.768238,0.051373 1.535304,0.1179203 2.301205,0.1984826 0.7659,0.080559 1.530635,0.1762961 2.293033,0.2860447 0.761228,0.1097457 1.521292,0.234672 2.279021,0.3747757 0.757725,0.1389381 1.511951,0.2930507 2.263843,0.4611752 0.751889,0.1681245 1.499108,0.3502609 2.243994,0.5475717 0.744886,0.197314 1.4851,0.408637 2.221811,0.633971 0.736714,0.225332 1.467588,0.464676 2.194959,0.718031 0.727373,0.253355 1.450073,0.52072 2.166938,0.802093 0.716864,0.281376 1.427892,0.576761 2.134248,0.884989 0.705187,0.309397 1.40454,0.630469 2.098053,0.966718 0.693513,0.33508 1.380023,0.684172 2.059524,1.046108 0.679504,0.361932 1.35317,0.736711 2.018662,1.124333 0.665492,0.387618 1.322813,0.78808 1.973127,1.20022 0.2627,0.169293 0.50321,0.36427 0.7227,0.587267 0.2195,0.221832 0.41097,0.465847 0.5756,0.732043 0.16462,0.26503 0.29772,0.545237 0.40046,0.840622 0.10157,0.295385 0.16929,0.597776 0.20432,0.908342 0.035,0.303556 0.035,0.608282 10e-4,0.913007 -0.0339,0.303559 -0.10157,0.600113 -0.20315,0.889661 -0.10158,0.288379 -0.2335,0.562749 -0.39696,0.820773 -0.16345,0.259193 -0.35376,0.496202 -0.57209,0.712193 l -0.1366,0.136601 c -0.16929,0.16579 -0.35143,0.316403 -0.54641,0.450669 -0.19497,0.135433 -0.39929,0.252187 -0.614116,0.352593 -0.214826,0.09924 -0.436658,0.179802 -0.665495,0.242846 -0.228835,0.06188 -0.461173,0.103912 -0.697016,0.126095 -0.235841,0.02218 -0.471681,0.02451 -0.70869,0.007 -0.235841,-0.01751 -0.469347,-0.05488 -0.698185,-0.112083 -0.230003,-0.05838 -0.454169,-0.134266 -0.670163,-0.230006 -0.217161,-0.09574 -0.42498,-0.208986 -0.622294,-0.339749 -2.910655,-1.84937 -5.97776,-3.389345 -9.200146,-4.618755 -3.222386,-1.228242 -6.535838,-2.122571 -9.939192,-2.68182 -0.258024,-0.04203 -0.518385,-0.05954 -0.778743,-0.0502 -0.261527,0.0082 -0.519551,0.04203 -0.774075,0.101574 -0.254521,0.05954 -0.500871,0.142438 -0.739046,0.251018 -0.238178,0.107415 -0.463509,0.23701 -0.676001,0.389957 -0.212491,0.151778 -0.408636,0.323405 -0.587267,0.513713 -0.178633,0.191477 -0.337417,0.396962 -0.475187,0.61996 -0.138935,0.221831 -0.253352,0.455338 -0.345589,0.69935 -0.09223,0.245184 -0.15995,0.496202 -0.201983,0.754226 -0.0432,0.258024 -0.06071,0.517216 -0.05254,0.778743 0.0093,0.261527 0.0432,0.518383 0.101574,0.774073 0.05954,0.254524 0.142441,0.50087 0.251021,0.739048 0.107412,0.238175 0.237009,0.463509 0.389953,0.676001 0.151782,0.212491 0.323409,0.408637 0.513714,0.587267 0.190308,0.178633 0.396962,0.337418 0.618794,0.475187 0.221829,0.138935 0.455335,0.253352 0.69935,0.346755 0.245181,0.09224 0.496202,0.158784 0.754226,0.201982 2.877962,0.471685 5.678872,1.227076 8.405056,2.263844 2.725018,1.037936 5.319274,2.337397 7.781597,3.899556 0.986563,0.630465 2.040843,1.111489 3.165176,1.441901 1.123164,0.330409 2.26968,0.496199 3.440714,0.499702 0.79509,0.0024 1.582006,-0.07355 2.361913,-0.2265 0.77992,-0.154116 1.53648,-0.382951 2.27085,-0.687676 0.73438,-0.30356 1.4314,-0.67717 2.09105,-1.119664 0.65966,-0.442495 1.26911,-0.9457 1.82952,-1.509618 l 0.1366,-0.137769 c 0.15879,-0.15995 0.3129,-0.323406 0.46235,-0.49153 0.14944,-0.169291 0.29421,-0.342087 0.43432,-0.518383 0.1401,-0.176299 0.27553,-0.357264 0.40513,-0.540569 0.1296,-0.184467 0.25452,-0.372441 0.37361,-0.563915 0.11909,-0.190308 0.23351,-0.385287 0.34209,-0.582598 0.10858,-0.197314 0.21132,-0.398128 0.30823,-0.601279 0.0981,-0.203151 0.18914,-0.408637 0.27553,-0.617625 0.0852,-0.20782 0.16463,-0.417977 0.23935,-0.631634 0.0735,-0.212492 0.14127,-0.427317 0.20432,-0.644477 0.0619,-0.215995 0.11792,-0.43432 0.16695,-0.653818 0.0502,-0.220663 0.0934,-0.441326 0.13077,-0.663158 0.0374,-0.221831 0.0689,-0.445997 0.0934,-0.668995 0.0257,-0.224166 0.0444,-0.448332 0.056,-0.673666 0.0129,-0.225332 0.0187,-0.450666 0.0187,-0.676001 0,-0.225332 -0.007,-0.450666 -0.0198,-0.674832 -0.0129,-0.225332 -0.0315,-0.449498 -0.0572,-0.673664 -0.0245,-0.224166 -0.0572,-0.447166 -0.0946,-0.668998 -0.0374,-0.221829 -0.0817,-0.44366 -0.13193,-0.663158 -0.0502,-0.219494 -0.10624,-0.437823 -0.16929,-0.653817 -0.0619,-0.21716 -0.13076,-0.431986 -0.20432,-0.644477 -0.0747,-0.212489 -0.15528,-0.422646 -0.24168,-0.631634 -0.0864,-0.20782 -0.17746,-0.413306 -0.27553,-0.616457 -0.0981,-0.203148 -0.20082,-0.402796 -0.3094,-0.60011 -0.10975,-0.197314 -0.223,-0.392291 -0.34325,-0.582599 -0.12026,-0.191473 -0.24519,-0.378278 -0.37478,-0.562749 -0.13076,-0.183302 -0.26503,-0.363101 -0.4063,-0.540566 -0.14011,-0.176299 -0.28488,-0.347926 -0.43549,-0.516051 -0.14945,-0.168124 -0.30356,-0.332746 -0.46351,-0.49153 -0.15879,-0.15995 -0.32224,-0.315234 -0.4892,-0.465844 -0.16812,-0.150613 -0.33975,-0.295385 -0.51605,-0.436657 -0.17629,-0.141273 -0.35609,-0.276705 -0.5394,-0.407468 -0.1833,-0.130764 -0.3701,-0.25569 -0.56041,-0.377113 -0.73671,-0.467013 -1.4816,-0.9200136 -2.23582,-1.3590053 C 101.6626,9.0067031 100.9002,8.5817202 100.1308,8.1719179 99.360229,7.7621125 98.582654,7.3674877 97.798073,6.9880405 97.012324,6.6085932 96.220737,6.2431548 95.420978,5.8940626 94.622388,5.5449704 93.81679,5.2110587 93.004188,4.8923216 92.192755,4.5735844 91.374316,4.2711965 90.551205,3.983983 89.726929,3.6967696 88.897981,3.4259024 88.064364,3.1713813 87.230748,2.9156916 86.391291,2.6763481 85.548334,2.4533478 84.705377,2.2303504 83.857749,2.0236963 83.006618,1.8333913 82.155489,1.6430833 81.300855,1.4691216 80.443889,1.311503 79.585752,1.1538874 78.725283,1.012615 77.861309,0.88768877 76.998503,0.76393121 76.133363,0.65535118 75.265888,0.564283 74.39841,0.47321482 73.529767,0.39849282 72.65879,0.34011701 71.788978,0.28290985 70.918,0.24087723 70.045854,0.21635945 c -0.872146,-0.0245088 -1.744289,-0.0315237 -2.616435,-0.0233432 -0.872147,0.009325 -1.743124,0.0350267 -2.614105,0.078225 -0.872146,0.0420326 -1.741955,0.10157708 -2.610598,0.17746474 -0.868643,0.0758906 -1.736121,0.1681245 -2.601261,0.27787318 -0.86514,0.10858003 -1.727946,0.23467489 -2.588415,0.37711293 -0.860471,0.1424381 -1.718606,0.3012223 -2.57324,0.4763528 -0.853466,0.1751304 -1.704594,0.3677727 -2.552223,0.5755925 -0.846459,0.2078198 -1.689416,0.4319858 -2.527704,0.672498 -0.838288,0.2405121 -1.671905,0.4962018 -2.500853,0.7694034 -0.828948,0.2720359 -1.65089,0.560415 -2.469329,0.8639716 -0.81727,0.3035596 -1.628706,0.6234624 -2.434302,0.9585457 -0.80443,0.3350804 -1.60302,0.6865069 -2.394607,1.0519453 -0.791587,0.3654354 -1.576168,0.74722 -2.353743,1.1430134 -0.777575,0.3957905 -1.546978,0.8067615 -2.308207,1.2317443 -0.761232,0.4261485 -1.514289,0.8663089 -2.258006,1.3204779 -0.744886,0.45417 -1.480431,0.922351 -2.206634,1.405706 -0.726205,0.48219 -1.44307,0.979561 -2.150594,1.489772 -0.707522,0.51021 -1.404541,1.033264 -2.092216,1.570327 -0.205486,0.162288 -0.393456,0.34209 -0.563918,0.540569 -0.16929,0.19848 -0.318734,0.412137 -0.447163,0.639806 -0.127261,0.227669 -0.232338,0.467012 -0.314066,0.71453 -0.08056,0.248684 -0.136601,0.503205 -0.168124,0.762398 -0.03152,0.260358 -0.03619,0.52072 -0.01635,0.781078 0.01985,0.260358 0.06538,0.517217 0.135435,0.768235 0.07122,0.252186 0.165788,0.495033 0.283711,0.728539 0.11792,0.232341 0.258024,0.451835 0.419143,0.658489 0.162287,0.205486 0.342086,0.393456 0.540565,0.56275 0.198483,0.170458 0.41214,0.319902 0.639809,0.448331 0.227669,0.12843 0.465844,0.232338 0.714528,0.314066 0.248683,0.08173 0.503207,0.137769 0.762397,0.169293 0.259193,0.03152 0.519554,0.03619 0.781081,0.01635 0.260358,-0.01985 0.516048,-0.06422 0.768235,-0.135435 0.252187,-0.07005 0.495033,-0.164621 0.727371,-0.282542 0.233506,-0.11792 0.453003,-0.258024 0.658489,-0.419145"
       id="path33"
       inkscape:connector-curvature="0" />
    <path
       style="fill:#ffffff;fill-opacity:1;fill-rule:nonzero;stroke:none;stroke-width:0.298888"
       d="m 177.10377,63.954238 c -0.25802,-0.267364 -0.55808,-0.474018 -0.90133,-0.617625 -0.34326,-0.142438 -0.70052,-0.212488 -1.07297,-0.20782 h -34.29272 c -0.37244,-0.0047 -0.72971,0.06538 -1.07296,0.20782 -0.34326,0.143607 -0.64331,0.350261 -0.90134,0.617625 -0.26619,0.260359 -0.47168,0.561584 -0.61529,0.906004 -0.1436,0.343255 -0.21366,0.701688 -0.21015,1.074129 v 51.874579 c 0.001,0.1833 0.0198,0.36544 0.0572,0.54524 0.0362,0.1798 0.0899,0.35376 0.16112,0.52305 0.0712,0.17046 0.15761,0.33041 0.25919,0.48336 0.10274,0.15295 0.21833,0.29422 0.34792,0.42381 0.1296,0.1296 0.27087,0.24635 0.42382,0.34793 0.15178,0.10274 0.31289,0.19031 0.48219,0.26152 0.16929,0.0712 0.34325,0.12493 0.52305,0.16229 0.1798,0.0374 0.36194,0.056 0.54524,0.0584 h 6.50782 c 0.1833,-0.002 0.36543,-0.0222 0.54524,-0.0596 0.17863,-0.0374 0.35376,-0.0922 0.52305,-0.16345 0.16929,-0.0712 0.33041,-0.15762 0.48219,-0.26036 0.15295,-0.10158 0.29305,-0.21833 0.42381,-0.34793 0.1296,-0.12959 0.24518,-0.27086 0.34793,-0.42381 0.10274,-0.15178 0.18914,-0.3129 0.26036,-0.48219 0.0712,-0.16929 0.12609,-0.34325 0.16345,-0.52305 0.0374,-0.1798 0.0572,-0.36194 0.0584,-0.54524 v -17.75114 h 23.3728 c 0.18448,-0.002 0.36544,-0.0222 0.54524,-0.05955 0.1798,-0.03736 0.35493,-0.09107 0.52422,-0.162287 0.1693,-0.07122 0.32925,-0.158785 0.48219,-0.260359 0.15178,-0.102742 0.29305,-0.219497 0.42265,-0.349092 0.13076,-0.129598 0.24635,-0.270867 0.34909,-0.422646 0.10275,-0.152946 0.18914,-0.314068 0.26036,-0.483358 0.0712,-0.169293 0.12493,-0.343255 0.16229,-0.523054 0.0374,-0.179799 0.0572,-0.361936 0.0595,-0.545238 v -5.703389 c -0.002,-0.183302 -0.0222,-0.365439 -0.0595,-0.545238 -0.0374,-0.179799 -0.0911,-0.35376 -0.16229,-0.523054 -0.0712,-0.169293 -0.15761,-0.330411 -0.26036,-0.48219 -0.10274,-0.152947 -0.21833,-0.294219 -0.34909,-0.423814 -0.1296,-0.129595 -0.27087,-0.246349 -0.42265,-0.347923 -0.15294,-0.102743 -0.31289,-0.190308 -0.48219,-0.261527 -0.16929,-0.07122 -0.34442,-0.124927 -0.52422,-0.162288 -0.1798,-0.03736 -0.36076,-0.05721 -0.54524,-0.05954 h -23.3728 v -14.30576 h 24.98049 c 0.18447,-0.0012 0.36661,-0.02101 0.54641,-0.05721 0.1798,-0.03736 0.35493,-0.09107 0.52422,-0.162287 0.16929,-0.07122 0.33041,-0.157616 0.48336,-0.260358 0.15294,-0.101574 0.29422,-0.218329 0.42381,-0.347924 0.1296,-0.129598 0.24635,-0.270867 0.34909,-0.423814 0.10158,-0.152947 0.18914,-0.314066 0.2592,-0.483359 0.0712,-0.169293 0.12492,-0.34442 0.16228,-0.524222 0.0374,-0.180965 0.056,-0.361933 0.0572,-0.546403 v -5.697553 c 0.004,-0.372441 -0.0665,-0.730874 -0.21132,-1.074129 -0.14361,-0.342086 -0.35026,-0.643308 -0.61996,-0.900166 z m 0,0"
       id="path35"
       inkscape:connector-curvature="0" />
    <path
       style="fill:#ffffff;fill-opacity:1;fill-rule:nonzero;stroke:none;stroke-width:0.298888"
       d="m 202.06325,85.161274 c 0.20199,-3.614677 1.39404,-6.46929 3.53762,-8.486784 2.14359,-2.01866 5.03673,-3.035581 8.59653,-3.035581 3.55981,0 6.45295,1.022758 8.60237,3.035581 2.14943,2.011656 3.3298,4.872107 3.53295,8.50313 0.10391,1.32865 0.15762,3.581987 0.15762,6.693456 0,3.111472 -0.0537,5.468718 -0.16346,6.786858 -0.19731,3.614676 -1.38935,6.458786 -3.52711,8.443586 -2.13891,1.9848 -5.04256,3.00756 -8.60237,3.00756 -3.5598,0 -6.45878,-1.01225 -8.60237,-3.00756 -2.14358,-1.99648 -3.32979,-4.82891 -3.53178,-8.433077 -0.10391,-2.640956 -0.15878,-4.921143 -0.15878,-6.797367 0,-1.875053 0.0549,-4.073515 0.15878,-6.709802 m 29.77088,-16.618639 c -4.06885,-4.123719 -9.99757,-6.212432 -17.63673,-6.212432 -7.63915,0 -13.57254,2.105057 -17.64139,6.25563 -4.06885,4.150574 -6.25097,9.55391 -6.60589,16.110765 -0.10391,2.44948 -0.16463,4.621087 -0.16463,6.452944 0,2.416791 0.0607,5.102111 0.16463,7.98358 0.32807,6.562688 2.55339,11.960188 6.60589,16.072238 4.0525,4.11321 10.00224,6.21243 17.64139,6.21243 7.63916,0 13.56788,-2.08871 17.63673,-6.21243 4.06768,-4.12256 6.27782,-9.52005 6.61056,-16.082747 0.10391,-2.919996 0.15879,-5.599479 0.15879,-7.973071 0,-1.815511 -0.0549,-3.926407 -0.16346,-6.458781 -0.32807,-6.605894 -2.54872,-12.030241 -6.60589,-16.153963"
       id="path37"
       inkscape:connector-curvature="0" />
    <path
       style="fill:#ffffff;fill-opacity:1;fill-rule:nonzero;stroke:none;stroke-width:0.298888"
       d="m 358.85219,63.954238 c -0.25919,-0.268533 -0.56041,-0.474018 -0.90485,-0.617625 -0.34324,-0.143607 -0.70167,-0.212488 -1.07528,-0.20782 h -6.42493 c -0.37127,-0.0047 -0.72737,0.06538 -1.06945,0.208989 -0.34327,0.143606 -0.64216,0.349092 -0.89902,0.616456 -0.26852,0.259193 -0.47401,0.561584 -0.61879,0.904836 -0.14359,0.343255 -0.21481,0.701687 -0.21248,1.075297 v 32.521581 c 0,4.024478 -1.03911,6.999348 -3.08461,8.841718 -2.04553,1.84353 -4.96552,2.80557 -8.56386,2.80557 -3.59831,0 -6.47511,-0.9457 -8.48211,-2.80557 -2.00698,-1.85871 -3.01223,-4.82307 -3.01223,-8.847555 V 65.934371 c 0,-0.18447 -0.0197,-0.365438 -0.0572,-0.546406 -0.0362,-0.179799 -0.0899,-0.353761 -0.16113,-0.52422 -0.07,-0.169293 -0.15644,-0.330411 -0.25917,-0.483358 -0.10159,-0.151779 -0.21834,-0.293051 -0.34794,-0.423814 -0.12959,-0.129595 -0.27088,-0.24635 -0.42265,-0.347924 -0.15294,-0.102743 -0.31407,-0.189139 -0.48336,-0.260358 -0.16929,-0.07122 -0.34325,-0.124927 -0.52306,-0.162288 -0.18095,-0.03736 -0.36192,-0.05604 -0.5464,-0.05721 h -6.50664 c -0.18447,0.0012 -0.36661,0.01985 -0.54639,0.05721 -0.17982,0.03736 -0.35493,0.09107 -0.52422,0.162288 -0.16932,0.07005 -0.33043,0.157615 -0.48337,0.259189 -0.15297,0.102743 -0.29422,0.219498 -0.42382,0.349093 -0.1296,0.129597 -0.24634,0.270867 -0.3491,0.423814 -0.10156,0.152947 -0.18914,0.314065 -0.2592,0.483358 -0.0712,0.169291 -0.1249,0.344421 -0.16226,0.52422 -0.0374,0.179802 -0.056,0.361936 -0.0572,0.546406 v 32.920877 c 0,6.944482 2.03384,12.500762 6.04779,16.514732 4.01398,4.01397 9.92051,6.04781 17.55967,6.04781 7.63916,0 13.48033,-2.05018 17.55384,-6.09218 4.07468,-4.04082 6.1307,-9.58076 6.1307,-16.470362 V 65.934371 c 0.004,-0.372441 -0.0665,-0.730874 -0.21131,-1.074129 -0.14478,-0.342086 -0.35144,-0.643308 -0.61996,-0.900166 z m 0,0"
       id="path39"
       inkscape:connector-curvature="0" />
    <g
       transform="matrix(0.29888799,0,0,0.29888799,-45.986926,-55.386132)"
       clip-path="url(#clip2)"
       id="g43"
       style="clip-rule:nonzero;fill:#ffffff">
      <path
         style="fill:#ffffff;fill-opacity:1;fill-rule:nonzero;stroke:none"
         d="m 1590.8359,399.28125 c -0.8632,-0.89453 -1.8671,-1.58594 -3.0156,-2.06641 -1.1484,-0.47656 -2.3437,-0.71093 -3.5859,-0.69531 h -18.2969 c -1.4844,-0.10156 -2.9414,0.0703 -4.3633,0.50781 -1.4219,0.4375 -2.7187,1.11719 -3.8906,2.03516 -1.8516,1.66016 -3.5156,3.48828 -4.9922,5.48828 l -49.4023,85.68359 -49.3985,-85.68359 c -1.4765,-1.99609 -3.1367,-3.82422 -4.9765,-5.48828 -1.1758,-0.91797 -2.4766,-1.59766 -3.9024,-2.03516 -1.4258,-0.4375 -2.8828,-0.60547 -4.3711,-0.50781 h -18.2929 c -1.2422,-0.0156 -2.4375,0.21875 -3.5821,0.69922 -1.1445,0.48047 -2.1484,1.16797 -3.0078,2.0625 -0.8945,0.86719 -1.582,1.87891 -2.0664,3.02734 -0.4844,1.14844 -0.7187,2.34766 -0.7148,3.59766 v 173.55859 c 0.01,0.61328 0.07,1.22266 0.1953,1.82422 0.1211,0.60156 0.3008,1.1836 0.539,1.75 0.2344,0.57031 0.5274,1.10547 0.8672,1.61719 0.3438,0.51172 0.7305,0.98437 1.1641,1.41797 0.4336,0.43359 0.9062,0.82422 1.4141,1.16797 0.5117,0.33984 1.0468,0.63281 1.6132,0.87109 0.5664,0.23828 1.1524,0.41797 1.7539,0.54297 0.6016,0.125 1.2071,0.1875 1.8243,0.19531 h 21.7695 c 0.6172,-0.008 1.2226,-0.0742 1.8242,-0.19922 0.6016,-0.125 1.1875,-0.30859 1.7539,-0.54687 0.5664,-0.23828 1.1016,-0.52735 1.6133,-0.8711 0.5078,-0.33984 0.9805,-0.73046 1.4141,-1.16406 0.4375,-0.43359 0.8242,-0.90625 1.1679,-1.41797 0.3438,-0.50781 0.6328,-1.04687 0.8711,-1.61328 0.2383,-0.5664 0.418,-1.14844 0.543,-1.75 0.125,-0.60156 0.1914,-1.21094 0.1992,-1.82422 v -97.13672 l 31.1055,53.64454 c 3.2578,5.10546 7.207,7.70312 11.7109,7.70312 h 13.9961 c 4.5,0 8.4531,-2.59766 11.7617,-7.77344 l 31.0157,-53.57422 v 97.10157 c 0,0.61328 0.066,1.22265 0.1914,1.82422 0.1211,0.60156 0.3046,1.1875 0.539,1.7539 0.2383,0.56641 0.5313,1.10547 0.8711,1.61719 0.3438,0.51172 0.7305,0.98437 1.168,1.41797 0.4336,0.4375 0.9062,0.82422 1.418,1.16797 0.5117,0.33984 1.0507,0.63281 1.6171,0.87109 0.5664,0.23438 1.1524,0.41797 1.7539,0.53906 0.6016,0.125 1.211,0.1875 1.8243,0.19141 h 21.7578 c 0.6133,-0.004 1.2187,-0.0703 1.8203,-0.19531 0.6016,-0.125 1.1875,-0.3086 1.7539,-0.54688 0.5664,-0.23828 1.1016,-0.52734 1.6133,-0.87109 0.5078,-0.34375 0.9804,-0.73047 1.4179,-1.16406 0.4336,-0.4375 0.8204,-0.91016 1.1641,-1.41797 0.3438,-0.51172 0.6328,-1.04688 0.8711,-1.61328 0.2383,-0.56641 0.4219,-1.15235 0.5469,-1.75391 0.125,-0.60156 0.1914,-1.20703 0.1953,-1.82031 V 405.90625 c 0.01,-1.25 -0.2305,-2.44922 -0.7109,-3.59766 -0.4844,-1.14843 -1.1719,-2.16015 -2.0704,-3.02734"
         id="path41"
         inkscape:connector-curvature="0" />
    </g>
    <path
       style="fill:#ffffff;fill-opacity:1;fill-rule:nonzero;stroke:none;stroke-width:0.298888"
       d="m 146.50745,24.246503 c 1.09397,-1.09281 2.63628,-1.683583 4.64327,-1.683583 2.00699,0 3.54346,0.420312 4.5989,1.251594 0.49504,0.364269 0.90718,0.805599 1.23292,1.326315 0.32691,0.52072 0.5464,1.083469 0.65849,1.687085 0.0327,0.21716 0.10507,0.420312 0.21716,0.609451 0.11091,0.189139 0.25452,0.351426 0.42848,0.484524 0.31757,0.261527 0.68184,0.394625 1.09398,0.399297 h 3.5166 c 0.21599,0.0058 0.42615,-0.03036 0.6293,-0.10858 0.20315,-0.07706 0.38295,-0.190308 0.54057,-0.339752 0.16579,-0.154116 0.28721,-0.337418 0.3666,-0.548741 0.0782,-0.211322 0.10625,-0.429651 0.0817,-0.654983 -0.0654,-0.889661 -0.23701,-1.758304 -0.51488,-2.607098 -0.27788,-0.847629 -0.65265,-1.65089 -1.1255,-2.40745 -0.54057,-0.847629 -1.18622,-1.605355 -1.93927,-2.272015 -0.75306,-0.665492 -1.58317,-1.215401 -2.49035,-1.648556 -1.13951,-0.532394 -2.32455,-0.92585 -3.5563,-1.179206 -1.23174,-0.253352 -2.47633,-0.359598 -3.73376,-0.318734 -3.98595,0 -7.1523,1.141845 -9.42782,3.401017 -2.27435,2.258006 -3.53762,5.277241 -3.77346,8.995829 -0.0584,1.458245 -0.0864,2.679483 -0.0864,3.663712 0,0.984229 0.028,2.207802 0.0864,3.66955 0.23584,3.708079 1.50962,6.731985 3.77346,8.98532 2.26385,2.252169 5.44187,3.406857 9.42782,3.406857 1.25743,0.0397 2.50202,-0.06772 3.73376,-0.321072 1.23175,-0.254521 2.41796,-0.649146 3.5563,-1.182709 0.90601,-0.433154 1.73612,-0.98306 2.48918,-1.647387 0.75306,-0.665492 1.39987,-1.422052 1.94044,-2.268512 0.47285,-0.755391 0.84879,-1.557487 1.12667,-2.403947 0.2767,-0.847628 0.44833,-1.716271 0.51371,-2.605929 0.028,-0.225335 0.004,-0.444829 -0.0736,-0.658486 -0.0771,-0.213661 -0.19848,-0.399297 -0.36427,-0.554578 -0.15878,-0.148278 -0.34091,-0.261527 -0.54407,-0.338586 -0.20315,-0.07822 -0.4133,-0.114418 -0.63163,-0.109746 h -3.51544 c -0.4168,-0.0024 -0.78224,0.134266 -1.09397,0.409802 -0.34676,0.284879 -0.55108,0.649149 -0.61296,1.093978 -0.11091,0.608282 -0.33274,1.173369 -0.66315,1.695254 -0.33158,0.521888 -0.74839,0.963214 -1.25043,1.322812 -1.09398,0.831283 -2.62461,1.252762 -4.62109,1.252762 -1.99648,0 -3.56564,-0.547571 -4.64327,-1.684747 -0.56042,-0.604782 -0.99591,-1.288955 -1.30647,-2.052521 -0.31056,-0.763563 -0.47635,-1.557484 -0.49737,-2.382929 -0.0607,-1.437233 -0.0876,-2.640957 -0.0876,-3.619349 0,-0.979557 0.0268,-2.187952 0.0876,-3.620514 0.0199,-0.825444 0.18564,-1.620531 0.49737,-2.385266 0.31056,-0.764732 0.74605,-1.448905 1.30647,-2.054855"
       id="path45"
       inkscape:connector-curvature="0" />
    <path
       style="fill:#ffffff;fill-opacity:1;fill-rule:nonzero;stroke:none;stroke-width:0.298888"
       d="m 180.74063,16.689072 h -3.5166 c -0.21483,0 -0.42148,0.04086 -0.61996,0.124926 -0.19848,0.08289 -0.37245,0.201983 -0.52306,0.356098 -0.15411,0.149444 -0.2732,0.322237 -0.35493,0.519551 -0.0829,0.19848 -0.12375,0.403965 -0.12025,0.618791 V 46.32335 c 0,0.10858 0.0105,0.214826 0.0315,0.319903 0.021,0.106245 0.0525,0.208988 0.0934,0.308228 0.0409,0.09924 0.0911,0.193811 0.15178,0.28371 0.0596,0.0899 0.12726,0.172793 0.20432,0.248684 0.0759,0.07589 0.15878,0.143607 0.24752,0.204317 0.0899,0.05954 0.18447,0.109749 0.28371,0.150613 0.1004,0.04203 0.20198,0.07239 0.30822,0.0934 0.10508,0.02101 0.2125,0.03152 0.31991,0.03152 h 3.5166 c 0.10742,0 0.21366,-0.01052 0.31991,-0.03152 0.10508,-0.02101 0.20782,-0.05137 0.30822,-0.0934 0.0992,-0.04086 0.19381,-0.09107 0.28255,-0.150613 0.0899,-0.06071 0.17279,-0.128426 0.24868,-0.204317 0.0771,-0.07589 0.14477,-0.158784 0.20432,-0.248684 0.0595,-0.0899 0.11091,-0.18447 0.15178,-0.28371 0.0409,-0.09924 0.0724,-0.201983 0.0934,-0.308228 0.021,-0.105077 0.0315,-0.211323 0.0315,-0.319903 V 18.308438 c 0,-0.10858 -0.0105,-0.214826 -0.0315,-0.319903 -0.021,-0.106245 -0.0525,-0.208988 -0.0934,-0.308228 -0.0409,-0.09924 -0.0922,-0.193811 -0.15178,-0.28371 -0.0596,-0.0899 -0.12726,-0.172797 -0.20432,-0.248684 -0.0759,-0.07589 -0.15878,-0.143607 -0.24868,-0.20432 -0.0887,-0.05954 -0.18331,-0.109746 -0.28255,-0.15061 -0.1004,-0.04203 -0.20314,-0.07239 -0.30822,-0.0934 -0.10625,-0.02101 -0.21249,-0.03152 -0.31991,-0.03152"
       id="path47"
       inkscape:connector-curvature="0" />
    <path
       style="fill:#ffffff;fill-opacity:1;fill-rule:nonzero;stroke:none;stroke-width:0.298888"
       d="m 216.00708,16.689072 h -21.4744 c -0.10742,0 -0.21483,0.01052 -0.31991,0.03152 -0.10624,0.02101 -0.20899,0.05254 -0.30823,0.0934 -0.0992,0.04203 -0.19381,0.09223 -0.28371,0.151778 -0.0899,0.05954 -0.17162,0.12843 -0.24868,0.20432 -0.0759,0.07589 -0.14361,0.158784 -0.20315,0.248684 -0.0607,0.0899 -0.11092,0.183302 -0.15178,0.28371 -0.042,0.09924 -0.0724,0.201983 -0.0934,0.30706 -0.021,0.106246 -0.0315,0.212491 -0.0315,0.319903 v 3.078779 c 0,0.10858 0.0105,0.214826 0.0315,0.321072 0.021,0.105077 0.0514,0.20782 0.0934,0.307062 0.0409,0.09924 0.0911,0.193808 0.15061,0.283708 0.0607,0.0899 0.12843,0.172796 0.20432,0.248687 0.0771,0.07589 0.15878,0.144772 0.24868,0.204316 0.0899,0.05954 0.18447,0.109749 0.28371,0.151779 0.0992,0.04086 0.20199,0.07239 0.30823,0.0934 0.10508,0.02101 0.21249,0.03152 0.31991,0.03152 h 7.35544 v 23.27358 c 0,0.10858 0.0105,0.214826 0.0315,0.319903 0.021,0.106245 0.0514,0.208988 0.0934,0.308228 0.0409,0.09924 0.0911,0.193811 0.15061,0.28371 0.0607,0.0899 0.12843,0.172793 0.20432,0.248684 0.0759,0.07589 0.15878,0.143607 0.24868,0.204317 0.0899,0.05954 0.18447,0.109749 0.28371,0.150613 0.0992,0.04203 0.20199,0.07239 0.30823,0.0934 0.10508,0.02101 0.21249,0.03152 0.3199,0.03152 h 3.51077 c 0.21483,0.0035 0.42148,-0.03736 0.61996,-0.119089 0.19848,-0.08289 0.37361,-0.201983 0.52305,-0.356095 0.15645,-0.148279 0.27671,-0.32224 0.3596,-0.52072 0.0841,-0.199648 0.12493,-0.406302 0.12143,-0.622294 V 23.005415 h 7.34377 c 0.10858,0 0.21482,-0.01049 0.32107,-0.03152 0.10508,-0.02101 0.20782,-0.05137 0.30706,-0.0934 0.0992,-0.04086 0.19381,-0.09107 0.28371,-0.151779 0.0899,-0.05954 0.1728,-0.12726 0.24868,-0.203151 0.0759,-0.07706 0.14478,-0.15995 0.20432,-0.248684 0.0595,-0.0899 0.10975,-0.184467 0.15178,-0.28371 0.0409,-0.09924 0.0724,-0.201982 0.0934,-0.308228 0.021,-0.105077 0.0315,-0.212489 0.0315,-0.319903 v -3.056596 c 0.002,-0.214826 -0.0374,-0.420311 -0.12026,-0.618791 -0.0829,-0.197314 -0.20081,-0.370107 -0.3561,-0.519551 -0.14944,-0.155284 -0.3234,-0.27437 -0.52188,-0.358432 -0.19848,-0.0829 -0.40514,-0.123761 -0.62113,-0.122592"
       id="path49"
       inkscape:connector-curvature="0" />
    <path
       style="fill:#ffffff;fill-opacity:1;fill-rule:nonzero;stroke:none;stroke-width:0.298888"
       d="m 252.87655,16.689072 h -3.24808 c -0.5499,-0.01868 -1.04377,0.137769 -1.48159,0.470515 -0.30473,0.228835 -0.54874,0.509042 -0.73321,0.841791 l -6.63392,11.588913 -6.62223,-11.572569 c -0.18564,-0.346755 -0.43549,-0.640975 -0.74839,-0.880318 -0.43666,-0.333915 -0.92819,-0.490362 -1.47693,-0.469347 h -3.24807 c -0.10858,0 -0.21482,0.01052 -0.3199,0.03152 -0.10625,0.02101 -0.20899,0.05137 -0.30823,0.0934 -0.0992,0.04086 -0.19381,0.09107 -0.28371,0.15061 -0.0899,0.06071 -0.17279,0.128429 -0.24868,0.20432 -0.0759,0.07589 -0.14361,0.158784 -0.20432,0.248684 -0.0596,0.0899 -0.10975,0.18447 -0.15178,0.28371 -0.0409,0.09924 -0.0712,0.201983 -0.0934,0.308228 -0.0198,0.105077 -0.0303,0.211323 -0.0303,0.319903 -0.002,0.214826 0.0444,0.419143 0.14127,0.611785 l 10.22057,17.981149 v 9.421978 c 0,0.10858 0.0105,0.214826 0.0315,0.319903 0.021,0.106245 0.0525,0.208988 0.0934,0.308228 0.042,0.09924 0.0922,0.193811 0.15177,0.28371 0.0607,0.0899 0.12843,0.172793 0.20432,0.248684 0.0759,0.07589 0.15879,0.143607 0.24869,0.204317 0.0899,0.05954 0.18447,0.109749 0.28371,0.150613 0.0992,0.04203 0.20198,0.07239 0.30706,0.0934 0.10624,0.02101 0.21249,0.03152 0.32107,0.03152 h 3.4664 c 0.21482,0.0035 0.42265,-0.03736 0.62113,-0.119089 0.19848,-0.08289 0.37244,-0.201983 0.52188,-0.356095 0.15295,-0.150613 0.27087,-0.324575 0.35376,-0.523054 0.0829,-0.198483 0.12376,-0.405134 0.12259,-0.61996 V 36.90136 l 10.23693,-18.002164 c 0.0899,-0.186805 0.13426,-0.384116 0.13076,-0.59077 0.004,-0.214826 -0.0374,-0.42148 -0.12027,-0.619959 -0.0841,-0.197314 -0.20432,-0.370107 -0.36076,-0.518383 -0.14944,-0.155284 -0.32339,-0.27437 -0.52189,-0.358432 -0.19849,-0.0829 -0.40514,-0.123761 -0.62112,-0.122592"
       id="path51"
       inkscape:connector-curvature="0" />
    <path
       style="fill:#ffffff;fill-opacity:1;fill-rule:nonzero;stroke:none;stroke-width:0.298888"
       d="m 301.13178,38.388806 c 0.0221,0.447167 -0.0537,0.875649 -0.22766,1.287789 -0.17398,0.413305 -0.42732,0.767066 -0.7624,1.06362 -0.67833,0.584933 -1.73962,0.886155 -3.15584,0.886155 h -7.57377 v -6.518326 h 7.57377 c 0.55691,-0.0397 1.10331,0.01985 1.63805,0.177465 0.53471,0.15645 1.02626,0.401631 1.47343,0.735545 0.34674,0.293051 0.61176,0.647981 0.79274,1.06362 0.18214,0.415643 0.26269,0.851132 0.24168,1.304132 m -11.71967,-9.602942 v -5.780449 h 7.22936 c 1.36131,0 2.37359,0.246349 2.99704,0.733211 0.15644,0.133098 0.29539,0.282542 0.4168,0.448332 0.12027,0.166956 0.2195,0.345589 0.29772,0.535897 0.077,0.190308 0.13076,0.387619 0.16113,0.59077 0.0303,0.203151 0.035,0.407468 0.0152,0.611785 0.0338,0.409805 -0.0281,0.803262 -0.18564,1.182712 -0.15763,0.379447 -0.39229,0.701684 -0.70519,0.966714 -0.62345,0.481025 -1.64039,0.727371 -2.99704,0.727371 z m 15.18606,2.783394 c 0.62464,-0.553412 1.16171,-1.181543 1.60771,-1.88673 0.37828,-0.597776 0.66082,-1.237585 0.84762,-1.919423 0.18681,-0.681838 0.26852,-1.37652 0.24634,-2.082876 -0.014,-1.448904 -0.35376,-2.816083 -1.02276,-4.101535 -0.37827,-0.726205 -0.85111,-1.384694 -1.41739,-1.976633 -0.56624,-0.59077 -1.20371,-1.09164 -1.9124,-1.501443 -0.892,-0.50087 -1.83419,-0.87098 -2.82892,-1.110324 -0.99359,-0.239343 -2.00114,-0.339752 -3.02274,-0.301222 h -12.81249 c -0.10859,0 -0.21484,0.01052 -0.3199,0.03152 -0.10626,0.02101 -0.20899,0.05254 -0.30825,0.0934 -0.0992,0.04203 -0.19379,0.09223 -0.2837,0.151778 -0.0899,0.05954 -0.17279,0.12843 -0.24868,0.20432 -0.0759,0.07589 -0.14361,0.158784 -0.20431,0.248684 -0.0595,0.0899 -0.10976,0.183302 -0.15178,0.28371 -0.0409,0.09924 -0.0724,0.201983 -0.0934,0.30706 -0.0197,0.106246 -0.0304,0.212491 -0.0304,0.319903 V 46.32335 c 0,0.10858 0.0105,0.214826 0.0304,0.319903 0.0209,0.106245 0.0525,0.208988 0.0934,0.308228 0.042,0.09924 0.0922,0.193811 0.15178,0.28371 0.0607,0.0899 0.12843,0.172793 0.20431,0.248684 0.0759,0.07589 0.15877,0.143607 0.24868,0.204317 0.0899,0.05954 0.18447,0.109749 0.2837,0.150613 0.0993,0.04203 0.20199,0.07239 0.30825,0.0934 0.10506,0.02101 0.21131,0.03152 0.3199,0.03152 h 13.78621 c 0.92586,0.02334 1.83768,-0.08406 2.73434,-0.319903 0.89667,-0.235844 1.74198,-0.591939 2.53705,-1.068291 0.71689,-0.436658 1.36251,-0.96088 1.93811,-1.571497 0.5756,-0.610619 1.05896,-1.285454 1.45242,-2.026834 0.76473,-1.43373 1.14767,-2.963196 1.14883,-4.5884 0.0152,-0.753057 -0.0689,-1.49444 -0.2545,-2.224145 -0.18564,-0.729708 -0.46584,-1.420886 -0.83945,-2.074704 -0.57211,-0.978392 -1.30181,-1.822517 -2.18798,-2.531208"
       id="path53"
       inkscape:connector-curvature="0" />
    <path
       style="fill:#ffffff;fill-opacity:1;fill-rule:nonzero;stroke:none;stroke-width:0.298888"
       d="m 324.43805,16.689072 h -3.51546 c -0.21598,0 -0.42263,0.04086 -0.62112,0.124926 -0.19849,0.08289 -0.37244,0.201983 -0.52189,0.356098 -0.15527,0.149444 -0.27318,0.322237 -0.35609,0.519551 -0.0829,0.19848 -0.12258,0.403965 -0.12024,0.618791 V 46.32335 c 0,0.10858 0.0105,0.214826 0.0315,0.319903 0.0209,0.106245 0.0525,0.208988 0.0934,0.308228 0.0409,0.09924 0.0922,0.193811 0.15178,0.28371 0.0596,0.0899 0.12843,0.172793 0.20432,0.248684 0.0759,0.07589 0.15879,0.143607 0.2487,0.204317 0.0887,0.05954 0.18331,0.109749 0.2837,0.150613 0.0992,0.04203 0.20199,0.07239 0.30705,0.0934 0.10626,0.02101 0.21251,0.03152 0.3199,0.03152 h 3.51663 c 0.10739,0 0.21481,-0.01052 0.3199,-0.03152 0.10625,-0.02101 0.20898,-0.05137 0.30821,-0.0934 0.0993,-0.04086 0.19383,-0.09107 0.28374,-0.150613 0.0899,-0.06071 0.17278,-0.128426 0.24867,-0.204317 0.0759,-0.07589 0.14362,-0.158784 0.20316,-0.248684 0.0607,-0.0899 0.11091,-0.18447 0.15177,-0.28371 0.042,-0.09924 0.0724,-0.201983 0.0934,-0.308228 0.0209,-0.105077 0.0315,-0.211323 0.0315,-0.319903 V 18.308438 c 0,-0.10858 -0.0105,-0.214826 -0.0315,-0.319903 -0.0209,-0.106245 -0.0514,-0.208988 -0.0934,-0.308228 -0.0409,-0.09924 -0.0911,-0.193811 -0.15177,-0.28371 -0.0595,-0.0899 -0.12727,-0.172797 -0.20316,-0.248684 -0.0759,-0.07589 -0.1588,-0.143607 -0.24867,-0.20432 -0.0899,-0.05954 -0.18448,-0.109746 -0.28374,-0.15061 -0.0992,-0.04203 -0.20196,-0.07239 -0.30821,-0.0934 -0.10509,-0.02101 -0.21251,-0.03152 -0.3199,-0.03152"
       id="path55"
       inkscape:connector-curvature="0" />
    <path
       style="fill:#ffffff;fill-opacity:1;fill-rule:nonzero;stroke:none;stroke-width:0.298888"
       d="m 357.24451,38.388806 c 0.0209,0.447167 -0.0549,0.876818 -0.23003,1.288955 -0.17395,0.412139 -0.42965,0.7659 -0.76473,1.062454 -0.67833,0.584933 -1.73962,0.886155 -3.14998,0.886155 h -7.57496 v -6.518326 h 7.57496 c 0.55575,-0.03853 1.10215,0.02218 1.63686,0.178634 0.53474,0.157615 1.02626,0.40163 1.47459,0.734376 0.34677,0.293051 0.61063,0.647981 0.7916,1.06362 0.18215,0.415643 0.2627,0.851132 0.24169,1.304132 m -11.7197,-9.602942 v -5.780449 h 7.22469 c 1.36134,0 2.37359,0.246349 2.99707,0.733211 0.1576,0.131929 0.29653,0.281373 0.41796,0.448332 0.12141,0.16579 0.22067,0.344421 0.29773,0.534729 0.0782,0.190308 0.13192,0.387621 0.1611,0.591938 0.0293,0.203151 0.0339,0.407468 0.014,0.611785 0.035,0.409805 -0.0269,0.80443 -0.18447,1.183878 -0.15644,0.379447 -0.39229,0.700518 -0.70633,0.965548 -0.62348,0.481025 -1.64155,0.727371 -2.99707,0.727371 z m 15.18142,2.783394 c 0.62461,-0.553412 1.16052,-1.181543 1.60768,-1.88673 0.37828,-0.597776 0.66082,-1.237585 0.84646,-1.919423 0.1868,-0.681838 0.26855,-1.37652 0.24753,-2.082876 -0.0197,-1.447738 -0.36078,-2.814918 -1.02276,-4.101535 -0.3806,-0.725039 -0.85581,-1.383526 -1.42205,-1.975464 -0.56744,-0.59077 -1.20491,-1.091641 -1.9136,-1.502612 -0.89081,-0.50087 -1.83302,-0.869812 -2.82542,-1.110324 -0.99356,-0.239343 -1.99998,-0.339752 -3.02041,-0.301222 h -12.79731 c -0.21481,-0.0012 -0.42146,0.0397 -0.61995,0.123757 -0.19846,0.08406 -0.37245,0.203152 -0.52306,0.357267 -0.1541,0.149444 -0.27318,0.322237 -0.35609,0.519551 -0.0817,0.19848 -0.12258,0.403965 -0.11908,0.618791 V 46.32335 c 0,0.10858 0.0105,0.214826 0.0315,0.319903 0.0209,0.106245 0.0526,0.208988 0.0934,0.308228 0.0409,0.09924 0.0911,0.193811 0.1518,0.28371 0.0595,0.0899 0.12724,0.172793 0.20313,0.248684 0.0771,0.07589 0.15996,0.143607 0.2487,0.204317 0.0899,0.05954 0.18447,0.109749 0.28371,0.150613 0.10039,0.04203 0.20198,0.07239 0.30821,0.0934 0.10509,0.02101 0.21251,0.03152 0.31993,0.03152 h 13.79204 c 0.92583,0.02218 1.83651,-0.08406 2.73201,-0.319903 0.89433,-0.237009 1.73962,-0.593107 2.53356,-1.068291 0.71685,-0.436658 1.36251,-0.96088 1.93807,-1.571497 0.5756,-0.610619 1.06013,-1.285454 1.45242,-2.026834 0.76823,-1.425558 1.15469,-2.948019 1.15936,-4.566216 0.0152,-0.750723 -0.07,-1.490937 -0.25567,-2.218308 -0.18564,-0.727374 -0.46468,-1.417384 -0.83713,-2.068867 -0.57326,-0.979557 -1.3018,-1.823683 -2.18795,-2.532373"
       id="path57"
       inkscape:connector-curvature="0" />
    <path
       style="fill:#ffffff;fill-opacity:1;fill-rule:nonzero;stroke:none;stroke-width:0.298888"
       d="M 396.02172,41.62637 H 382.16429 V 18.308438 c 0,-0.10858 -0.0105,-0.214826 -0.0315,-0.319903 -0.0209,-0.106245 -0.0514,-0.208988 -0.0934,-0.308228 -0.0409,-0.09924 -0.0911,-0.193811 -0.15061,-0.28371 -0.0607,-0.0899 -0.12844,-0.172797 -0.20432,-0.248684 -0.0759,-0.07589 -0.15877,-0.143607 -0.24868,-0.20432 -0.0899,-0.05954 -0.18447,-0.109746 -0.2837,-0.15061 -0.0993,-0.04203 -0.20199,-0.07239 -0.30825,-0.0934 -0.10508,-0.02101 -0.21131,-0.03152 -0.3199,-0.03152 h -3.51543 c -0.216,-0.0012 -0.42265,0.03969 -0.62115,0.123758 -0.19846,0.08406 -0.37241,0.201982 -0.52185,0.357263 -0.15531,0.148279 -0.27438,0.321072 -0.35613,0.519551 -0.0829,0.197314 -0.12257,0.4028 -0.12024,0.617626 V 46.32335 c 0,0.10858 0.0105,0.214826 0.0315,0.319903 0.0209,0.106245 0.0525,0.208988 0.0934,0.308228 0.0409,0.09924 0.0922,0.193811 0.15178,0.28371 0.0595,0.0899 0.12727,0.172793 0.20432,0.248684 0.0759,0.07589 0.15877,0.143607 0.24867,0.204317 0.0887,0.05954 0.18331,0.109749 0.28254,0.150613 0.10043,0.04203 0.20316,0.07239 0.30825,0.0934 0.10622,0.02101 0.21248,0.03152 0.3199,0.03152 h 18.99223 c 0.21598,0.0035 0.42263,-0.03736 0.62112,-0.119089 0.19847,-0.08289 0.37245,-0.201983 0.52189,-0.356095 0.15644,-0.148279 0.27671,-0.32224 0.36076,-0.52072 0.0829,-0.199648 0.12377,-0.406302 0.12024,-0.622294 V 43.24457 c 0,-0.107414 -0.0105,-0.21366 -0.0315,-0.319905 -0.0209,-0.105077 -0.0514,-0.20782 -0.0934,-0.308229 -0.0409,-0.09924 -0.0911,-0.193808 -0.15061,-0.282541 -0.0607,-0.0899 -0.12843,-0.172794 -0.20432,-0.248684 -0.0759,-0.07706 -0.1588,-0.144773 -0.24871,-0.204317 -0.0899,-0.05954 -0.18444,-0.110917 -0.2837,-0.151781 -0.0992,-0.04086 -0.20199,-0.07238 -0.30821,-0.0934 -0.10509,-0.02101 -0.21135,-0.03152 -0.3199,-0.03152"
       id="path59"
       inkscape:connector-curvature="0" />
    <g
       transform="matrix(0.29888799,0,0,0.29888799,-45.986926,-55.386132)"
       clip-path="url(#clip3)"
       id="g63"
       style="clip-rule:nonzero;fill:#ffffff">
      <path
         style="fill:#ffffff;fill-opacity:1;fill-rule:nonzero;stroke:none"
         d="m 1592.2461,326.16797 c -0.5,-0.51563 -1.082,-0.91406 -1.7461,-1.1875 -0.6641,-0.27735 -1.3594,-0.41406 -2.0781,-0.40235 h -46.5274 V 303.5 h 42.1719 c 0.3633,0 0.7188,-0.0352 1.0703,-0.10547 0.3555,-0.0703 0.6992,-0.17578 1.0313,-0.3125 0.332,-0.13672 0.6484,-0.30859 0.9492,-0.50781 0.3008,-0.19922 0.5781,-0.42578 0.832,-0.6836 0.2539,-0.2539 0.4805,-0.53125 0.6836,-0.83203 0.1992,-0.29687 0.3672,-0.61328 0.5078,-0.94531 0.1367,-0.33594 0.2383,-0.67969 0.3086,-1.03125 0.07,-0.35547 0.1055,-0.71094 0.1094,-1.07031 v -10.2461 c 0,-0.35937 -0.039,-0.71875 -0.1055,-1.07031 -0.074,-0.35547 -0.1758,-0.69922 -0.3125,-1.03125 -0.1406,-0.33203 -0.3086,-0.64844 -0.5078,-0.94922 -0.2031,-0.30078 -0.4297,-0.57812 -0.6836,-0.83203 -0.2539,-0.2539 -0.5312,-0.48047 -0.832,-0.68359 -0.3008,-0.19922 -0.6172,-0.36719 -0.9492,-0.50391 -0.3321,-0.14062 -0.6758,-0.24219 -1.0313,-0.3125 -0.3515,-0.0703 -0.707,-0.10547 -1.0703,-0.10547 h -42.1719 v -20.1289 h 45.375 c 0.3594,0 0.7188,-0.0352 1.0703,-0.10547 0.3555,-0.0703 0.6954,-0.17188 1.0313,-0.3125 0.332,-0.13672 0.6484,-0.30469 0.9492,-0.50391 0.2969,-0.20312 0.5742,-0.42969 0.832,-0.68359 0.254,-0.25391 0.4805,-0.53125 0.6797,-0.83203 0.2032,-0.30078 0.3711,-0.61719 0.5078,-0.94922 0.1407,-0.33203 0.2422,-0.67578 0.3125,-1.03125 0.07,-0.35156 0.1055,-0.71094 0.1055,-1.07031 V 246.5625 c 0,-0.36328 -0.035,-0.71875 -0.1055,-1.07031 -0.07,-0.35547 -0.1718,-0.69922 -0.3125,-1.03125 -0.1367,-0.33203 -0.3046,-0.64844 -0.5078,-0.94922 -0.1992,-0.30078 -0.4257,-0.57813 -0.6797,-0.83203 -0.2578,-0.25391 -0.5351,-0.48047 -0.832,-0.6836 -0.3008,-0.19922 -0.6172,-0.36718 -0.9492,-0.5039 -0.3359,-0.14063 -0.6758,-0.24219 -1.0313,-0.3125 -0.3515,-0.0703 -0.7109,-0.10547 -1.0703,-0.10547 h -62.5351 c -0.7188,-0.004 -1.4102,0.13281 -2.0742,0.40625 -0.6641,0.27734 -1.2461,0.67187 -1.75,1.18359 -0.5196,0.5 -0.9141,1.08594 -1.1914,1.75 -0.2774,0.66406 -0.4102,1.35547 -0.4024,2.07422 v 93.80469 c 0,0.36328 0.035,0.71875 0.1055,1.07031 0.07,0.35547 0.1758,0.69922 0.3125,1.03125 0.1367,0.33203 0.3086,0.64844 0.5078,0.94922 0.1992,0.30078 0.4258,0.57812 0.6836,0.83203 0.2539,0.25391 0.5312,0.48047 0.832,0.68359 0.2969,0.19922 0.6133,0.36719 0.9492,0.50391 0.3321,0.14063 0.6758,0.24219 1.0274,0.3125 0.3554,0.0703 0.7109,0.10547 1.0703,0.10547 h 63.6914 c 0.3594,0 0.7148,-0.0352 1.0703,-0.10547 0.3516,-0.0703 0.6953,-0.17187 1.0313,-0.3125 0.332,-0.13672 0.6484,-0.30469 0.9453,-0.50391 0.3008,-0.20312 0.5781,-0.42968 0.832,-0.68359 0.2578,-0.25391 0.4844,-0.53125 0.6836,-0.83203 0.1992,-0.30078 0.3711,-0.61719 0.5078,-0.94922 0.1367,-0.33203 0.2422,-0.67578 0.3125,-1.03125 0.07,-0.35156 0.1055,-0.70703 0.1055,-1.07031 v -10.30078 c 0,-0.71875 -0.1328,-1.41407 -0.4141,-2.07813 -0.2773,-0.66406 -0.6758,-1.24609 -1.1953,-1.74609"
         id="path61"
         inkscape:connector-curvature="0" />
    </g>
    <path
       style="fill:#ffffff;fill-opacity:1;fill-rule:nonzero;stroke:none;stroke-width:0.298888"
       d="M 298.77454,117.0162 288.603,98.805044 c -0.0362,-0.06188 -0.0642,-0.12726 -0.0876,-0.196145 -0.0221,-0.06888 -0.0374,-0.138935 -0.0444,-0.211323 -0.008,-0.07122 -0.008,-0.142438 -0.003,-0.214826 0.007,-0.07122 0.0209,-0.142438 0.0432,-0.211322 0.0209,-0.06889 0.049,-0.134267 0.0841,-0.197314 0.0339,-0.06421 0.0747,-0.122589 0.12258,-0.177465 0.0467,-0.05487 0.0981,-0.103908 0.1553,-0.148275 0.0572,-0.04437 0.11791,-0.08173 0.18331,-0.114418 1.3123,-0.632802 2.51717,-1.427892 3.61699,-2.385266 1.09982,-0.956209 2.05369,-2.040846 2.86278,-3.252742 1.8809,-2.848776 2.83827,-6.326852 2.83827,-10.346662 0,-5.675369 -1.85403,-10.187878 -5.51774,-13.40793 -3.66371,-3.221217 -8.88609,-4.812563 -15.59589,-4.812563 h -20.72133 c -0.18331,0.0012 -0.36545,0.01985 -0.54523,0.05721 -0.17982,0.03736 -0.35493,0.09107 -0.52422,0.162288 -0.16932,0.07005 -0.33042,0.157615 -0.48337,0.259189 -0.15297,0.102743 -0.29422,0.219498 -0.42382,0.349093 -0.13076,0.129597 -0.24634,0.270867 -0.3491,0.423814 -0.10273,0.152947 -0.18914,0.314065 -0.26036,0.483358 -0.07,0.169291 -0.12491,0.344421 -0.1611,0.52422 -0.0374,0.179802 -0.056,0.361936 -0.0572,0.546406 v 51.825539 c -0.009,0.62113 0.17279,1.18155 0.5464,1.67891 0.1296,0.17863 0.27787,0.33976 0.446,0.48336 0.16812,0.14361 0.35027,0.2662 0.5464,0.36661 0.19732,0.0992 0.40281,0.17513 0.61762,0.2265 0.21484,0.0514 0.43315,0.077 0.65382,0.077 h 6.49148 c 0.18328,-0.002 0.36542,-0.0222 0.54524,-0.0595 0.17978,-0.0374 0.35376,-0.0911 0.52305,-0.16228 0.16929,-0.0712 0.33042,-0.15879 0.4822,-0.26037 0.15294,-0.10274 0.29419,-0.21949 0.42379,-0.34909 0.1296,-0.12959 0.24518,-0.27087 0.34793,-0.42264 0.10273,-0.15295 0.18914,-0.31407 0.26037,-0.48336 0.0712,-0.16929 0.1261,-0.34325 0.16346,-0.52306 0.0374,-0.1798 0.0572,-0.36193 0.0595,-0.54523 V 75.503456 c 0.004,-0.142439 0.0339,-0.279039 0.0911,-0.409803 0.056,-0.130763 0.13659,-0.246349 0.23815,-0.345589 0.10276,-0.09924 0.2195,-0.176296 0.35143,-0.230003 0.13193,-0.05371 0.26972,-0.08056 0.41214,-0.08056 h 9.93686 c 3.17685,0 5.58897,0.519551 7.16399,1.542307 1.57499,1.022759 2.24166,2.734359 2.24166,5.369478 0,2.636285 -0.74839,4.419104 -2.29071,5.468715 -1.44073,0.873315 -3.00173,1.370682 -4.68178,1.493274 -0.82547,0.08523 -1.61122,0.308228 -2.35844,0.670161 -0.74722,0.361935 -1.41036,0.840622 -1.98829,1.434898 -0.21368,0.220663 -0.40747,0.455335 -0.58259,0.706356 -0.17515,0.251018 -0.32926,0.51488 -0.46235,0.790419 -0.13193,0.275535 -0.24285,0.560415 -0.32926,0.853465 -0.0875,0.293051 -0.15061,0.591939 -0.18913,0.895496 -0.0397,0.303559 -0.0549,0.608284 -0.0444,0.914175 0.009,0.305894 0.0432,0.609454 0.10273,0.909508 0.0584,0.300056 0.14012,0.594273 0.24518,0.881486 0.10625,0.287213 0.23468,0.563918 0.38413,0.830117 l 11.76871,20.929164 c 0.0864,0.19031 0.18681,0.37361 0.30006,0.54991 0.11324,0.17629 0.23818,0.34325 0.37594,0.50087 0.13895,0.15761 0.28723,0.30355 0.446,0.44015 0.15996,0.13544 0.32809,0.2592 0.50554,0.37011 0.17748,0.11092 0.36312,0.20782 0.55458,0.29189 0.19147,0.0841 0.3888,0.15294 0.59076,0.20782 0.20198,0.056 0.40747,0.0957 0.61529,0.12025 0.20781,0.0245 0.41683,0.0339 0.62581,0.028 h 6.83004 c 0.15763,-0.001 0.3129,-0.0175 0.46701,-0.0502 0.15297,-0.0315 0.30241,-0.0782 0.44717,-0.13894 0.14478,-0.0607 0.28256,-0.13543 0.41333,-0.223 0.13076,-0.0876 0.251,-0.1868 0.36192,-0.29889 0.11092,-0.11091 0.21131,-0.23117 0.29889,-0.36193 0.0876,-0.13077 0.16113,-0.26737 0.223,-0.41214 0.0607,-0.14594 0.10742,-0.29422 0.13892,-0.44833 0.0315,-0.15412 0.049,-0.3094 0.0502,-0.46702 -0.0105,-0.42498 -0.11908,-0.82427 -0.32224,-1.19788"
       id="path65"
       inkscape:connector-curvature="0" />
    <path
       style="fill:#ffffff;stroke:#ffffff;stroke-width:6.95130348;stroke-linecap:round;stroke-linejoin:miter;stroke-miterlimit:4;stroke-opacity:1"
       d="M 460.96799,3.5251541 V 131.96994"
       id="path67"
       inkscape:connector-curvature="0" />
    <g
       transform="matrix(0.29888799,0,0,0.29888799,-45.986926,-55.386132)"
       style="fill:#ffffff;fill-opacity:1"
       id="g73">
      <g
         style="fill:#ffffff"
         transform="translate(1780.5576,429.88374)"
         id="g71">
        <path
           style="fill:#ffffff;stroke:none"
           d="m 87.765625,2.6875 c -17.53125,0 -32.25,-2.7265625 -44.15625,-8.1875 -11.898437,-5.457031 -20.664063,-12.210938 -26.296875,-20.265625 -5.636719,-8.050781 -8.632812,-16.101563 -8.984375,-24.15625 0,-1.613281 0.578125,-2.957031 1.734375,-4.03125 1.164062,-1.070313 2.550781,-1.609375 4.15625,-1.609375 h 37.046875 c 2.144531,0 3.84375,0.40625 5.09375,1.21875 1.257813,0.804688 2.425781,2.101562 3.5,3.890625 3.394531,8.761719 12.785156,13.140625 28.171875,13.140625 8.769531,0 15.57031,-2.054688 20.40625,-6.171875 4.83203,-4.113281 7.25,-9.660156 7.25,-16.640625 0,-13.414062 -8.94922,-20.125 -26.84375,-20.125 h -30.0625 c -1.96875,0 -3.625,-0.671875 -4.96875,-2.015625 -1.34375,-1.34375 -2.015625,-3 -2.015625,-4.96875 V -103.0625 c 0,-4.11328 1.519531,-7.15625 4.5625,-9.125 l 43.21875,-35.4375 H 25.5 c -1.792969,0 -3.359375,-0.67187 -4.703125,-2.01562 -1.34375,-1.34375 -2.015625,-2.90625 -2.015625,-4.6875 v -26.57813 c 0,-1.96875 0.625,-3.625 1.875,-4.96875 1.257812,-1.34375 2.875,-2.01562 4.84375,-2.01562 h 125.07812 c 1.96875,0 3.57813,0.67187 4.82813,2.01562 1.25,1.34375 1.875,3 1.875,4.96875 v 23.89063 c 0,3.76171 -1.43359,6.71484 -4.29688,8.85937 l -39.71874,36.23437 1.875,0.53125 c 16.10156,2.32422 28.89453,7.8711 38.37499,16.64063 9.48829,8.773438 14.23438,21.386719 14.23438,37.84375 0,11.992188 -3.44531,22.507812 -10.32813,31.546875 -6.88671,9.03125 -16.37109,15.964844 -28.45312,20.796875 -12.07422,4.832031 -25.80859,7.25 -41.203125,7.25 z m 0,0"
           id="path69"
           inkscape:connector-curvature="0" />
      </g>
    </g>
    <g
       transform="matrix(0.29888799,0,0,0.29888799,-45.986926,-55.386132)"
       style="fill:#ffffff;fill-opacity:1"
       id="g79">
      <g
         style="fill:#ffffff"
         transform="translate(1959.0449,429.88374)"
         id="g77">
        <path
           style="fill:#ffffff;stroke:none"
           d="m 91.53125,2.6875 c -24.699219,-0.179688 -43.492188,-6.707031 -56.375,-19.59375 -12.875,-12.882812 -19.945312,-29.882812 -21.203125,-51 -0.355469,-9.664062 -0.53125,-18.34375 -0.53125,-26.03125 0,-7.875 0.175781,-16.82031 0.53125,-26.84375 0.71875,-13.41406 4.070313,-25.35937 10.0625,-35.82812 6,-10.46875 14.675781,-18.74219 26.03125,-24.82813 11.363281,-6.08203 25.191406,-9.125 41.484375,-9.125 16.28125,0 30.14453,3.04297 41.59375,9.125 11.45703,6.08594 20.17969,14.35938 26.17187,24.82813 6,10.46875 9.35157,22.41406 10.0625,35.82812 0.36329,5.01172 0.54688,13.96094 0.54688,26.84375 0,12.523438 -0.18359,21.199219 -0.54688,26.03125 -1.25,21.117188 -8.32031,38.117188 -21.20312,51 -12.88672,12.886719 -31.76172,19.414062 -56.625,19.59375 z m 0,-40.53125 c 8.40625,0 14.66406,-2.726562 18.78125,-8.1875 4.11328,-5.457031 6.35156,-13.195312 6.71875,-23.21875 0.35156,-5.1875 0.53125,-13.597656 0.53125,-25.234375 0,-11.625005 -0.17969,-19.851565 -0.53125,-24.687505 -0.36719,-9.66406 -2.60547,-17.3164 -6.71875,-22.95312 -4.11719,-5.63281 -10.375,-8.45312 -18.78125,-8.45312 -16.105469,0 -24.605469,10.46875 -25.5,31.40624 -0.179688,4.83594 -0.265625,13.0625 -0.265625,24.687505 0,11.636719 0.08594,20.046875 0.265625,25.234375 0.894531,20.9375 9.394531,31.40625 25.5,31.40625 z m 0,0"
           id="path75"
           inkscape:connector-curvature="0" />
      </g>
    </g>
    <g
       transform="matrix(0.29888799,0,0,0.29888799,-45.986926,-55.386132)"
       style="fill:#ffffff;fill-opacity:1"
       id="g85">
      <g
         style="fill:#ffffff"
         transform="translate(1837.3935,499.23793)"
         id="g83">
        <path
           style="fill:#ffffff;stroke:none"
           d="m 68.25,-30.53125 c 1.40625,0.08594 1.644531,0.792969 0.71875,2.125 -0.929688,1.324219 -2.5,3.007812 -4.71875,5.046875 -2.210938,2.03125 -4.605469,4.15625 -7.1875,6.375 -3.46875,2.9375 -6.273438,5.476563 -8.40625,7.609375 -2.375,2.023438 -4.296875,4.824219 -5.765625,8.40625 -1.46875,3.582031 -2.203125,6.890625 -2.203125,9.921875 0,1.601563 0,3.515625 0,5.734375 0.07031,4.507812 0.06641,9.9375 -0.01563,16.28125 -0.07421,6.351562 -0.42187,12.914062 -1.04687,19.6875 -0.625,6.769531 -1.757812,13.125 -3.390625,19.0625 -1.625,5.945312 -3.953125,10.804688 -6.984375,14.578125 -3.023438,3.769531 -6.867188,5.832031 -11.53125,6.1875 -8.992188,0.25 -15.15625,-3.476563 -18.5,-11.171875 -2.582031,-6.492188 -3.445312,-13.140625 -2.59375,-19.953125 0.84375,-6.8125 2.746094,-13.464844 5.703125,-19.953125 2.957031,-6.480469 6.300781,-12.445312 10.03125,-17.890625 3.726563,-5.4375 7.234375,-10 10.515625,-13.6875 3.289062,-3.6875 5.640625,-6.15625 7.046875,-7.40625 0.601563,-2.007813 0.953125,-4.34375 1.046875,-7 0.101562,-2.664063 0.117188,-5.25 0.04687,-7.75 -0.125,-0.800781 -0.1875,-1.503906 -0.1875,-2.109375 -1.773437,2.742188 -3.605469,4.667969 -5.5,5.78125 -1.898437,1.105469 -3.804687,1.710938 -5.71875,1.8125 C 17.703125,-8.75 15.898438,-8.800781 14.203125,-9 c -0.15625,0 -0.320313,0 -0.484375,0 -3.90625,-0.53125 -6.992188,-2.363281 -9.25,-5.5 -2.25,-3.144531 -3.710938,-6.734375 -4.375,-10.765625 -0.664062,-4.03125 -0.5,-7.644531 0.5,-10.84375 1.007812,-3.207031 2.847656,-5.070313 5.515625,-5.59375 1.082031,-0.28125 2.289063,-0.421875 3.625,-0.421875 1.332031,0 2.441406,0.183594 3.328125,0.546875 0.882812,0.355469 1.1875,1.015625 0.90625,1.984375 -0.8125,3.304688 -1.28125,6.882812 -1.40625,10.734375 -0.117188,3.84375 0.21875,7.1875 1,10.03125 0.789062,2.84375 2.203125,4.375 4.234375,4.59375 2.039063,0.21875 4.753906,-1.625 8.140625,-5.53125 1.601562,-2.050781 2.707031,-4.15625 3.3125,-6.3125 0.601562,-2.15625 1.085938,-4.484375 1.453125,-6.984375 0.08203,-0.882812 0.222656,-1.769531 0.421875,-2.65625 0.08203,-0.882812 0.207031,-1.773438 0.375,-2.671875 0.113281,-1.164063 0.253906,-2.3125 0.421875,-3.4375 0.4375,-1.851563 1.472656,-3.140625 3.109375,-3.859375 1.632812,-0.726562 3.394531,-0.648438 5.28125,0.234375 0.96875,0.5625 1.535156,1.371094 1.703125,2.421875 0.195313,2.054688 0.296875,4.085938 0.296875,6.09375 -0.125,7.179688 -0.1875,16.007812 -0.1875,26.484375 0.125,-0.08203 1.015625,-0.828125 2.671875,-2.234375 2.132813,-1.976562 4.84375,-4.335938 8.125,-7.078125 3.28125,-2.738281 6.378906,-5.195313 9.296875,-7.375 2.925781,-2.175781 4.9375,-3.304687 6.03125,-3.390625 z M 28.828125,30.890625 c 0,-0.96875 0.0625,-1.980469 0.1875,-3.03125 0.08203,-3.824219 0.203125,-7.6875 0.359375,-11.59375 0,-0.167969 -0.0625,-0.382813 -0.1875,-0.640625 -0.117188,-0.261719 -0.273438,-0.453125 -0.46875,-0.578125 -0.449219,-0.324219 -0.824219,-0.375 -1.125,-0.15625 C 27.289062,15.117188 27,15.351562 26.71875,15.59375 23.007812,20.382812 19.507812,25.8125 16.21875,31.875 12.9375,37.945312 10.367188,44.265625 8.515625,50.828125 6.671875,57.398438 5.90625,63.832031 6.21875,70.125 c 0.289062,3.90625 1.539062,7.488281 3.75,10.75 2.664062,3.664062 4.992188,4.984375 6.984375,3.953125 C 18.953125,83.804688 20.632812,81.28125 22,77.25 23.375,73.21875 24.503906,68.472656 25.390625,63.015625 26.273438,57.554688 26.957031,52.21875 27.4375,47 c 0.488281,-5.21875 0.875,-9.5625 1.15625,-13.03125 0.08203,-1.167969 0.160156,-2.195312 0.234375,-3.078125 z m 0,0"
           id="path81"
           inkscape:connector-curvature="0" />
      </g>
    </g>
    <g
       transform="matrix(0.29888799,0,0,0.29888799,-45.986926,-55.386132)"
       style="fill:#ffffff;fill-opacity:1"
       id="g91">
      <g
         style="fill:#ffffff"
         transform="translate(1906.1693,499.23793)"
         id="g89">
        <path
           style="fill:#ffffff;stroke:none"
           d="m 58.265625,-29.203125 c 0.882813,-0.519531 1.75,-0.921875 2.59375,-1.203125 0.851563,-0.28125 1.410156,-0.257812 1.671875,0.0625 0.257812,0.324219 -0.09375,1.046875 -1.0625,2.171875 -3.023438,3.46875 -6.636719,6.648437 -10.84375,9.53125 -4.210938,2.875 -8.53125,5.304687 -12.96875,7.28125 -3.46875,1.574219 -7.125,2.824219 -10.96875,3.75 C 22.84375,-6.679688 19.035156,-6.476562 15.265625,-7 c -3.773437,-0.53125 -7.210937,-2.207031 -10.3125,-5.03125 -4.710937,-4.351562 -6.660156,-9.671875 -5.859375,-15.953125 0.6875,-5 2.628906,-9.238281 5.828125,-12.71875 3.207031,-3.488281 7.25,-5.859375 12.125,-7.109375 4.070313,-0.882812 8.140625,-0.984375 12.203125,-0.296875 1.851562,0.28125 3.546875,0.902344 5.078125,1.859375 1.414063,1.09375 2.191406,2.367188 2.328125,3.8125 0.144531,1.449219 -0.40625,2.839844 -1.65625,4.171875 -2.585938,2.304687 -5.570312,3.671875 -8.953125,4.109375 -3.78125,0.648438 -7.589844,1.054688 -11.421875,1.21875 -1.855469,0 -3.15625,0.386719 -3.90625,1.15625 -0.742188,0.761719 -1.167969,2.070312 -1.28125,3.921875 -0.617188,5.03125 0.992188,9.140625 4.828125,12.328125 2.375,1.898438 5.265625,2.703125 8.671875,2.421875 3.40625,-0.289063 7.019531,-1.207031 10.84375,-2.75 3.832031,-1.550781 7.582031,-3.363281 11.25,-5.4375 3.664062,-2.082031 6.972656,-4.050781 9.921875,-5.90625 1.25,-0.800781 2.351563,-1.46875 3.3125,-2 z m -42,-10.75 c 0,0.08594 -0.0625,0.125 -0.1875,0.125 -0.15625,0.15625 -0.371094,0.351563 -0.640625,0.578125 -0.261719,0.21875 -0.5,0.4375 -0.71875,0.65625 -0.21875,0.21875 -0.328125,0.371094 -0.328125,0.453125 0.07031,0.28125 0.796875,0.355469 2.171875,0.21875 1.375,-0.144531 2.882812,-0.390625 4.53125,-0.734375 1.65625,-0.34375 3.035156,-0.804688 4.140625,-1.390625 1.113281,-0.582031 1.445313,-1.273437 1,-2.078125 -0.199219,-0.25 -0.449219,-0.460938 -0.75,-0.640625 -0.304687,-0.175781 -0.636719,-0.304687 -1,-0.390625 -1.617187,0 -3.089844,0.3125 -4.421875,0.9375 -1.324219,0.625 -2.589844,1.382812 -3.796875,2.265625 z m 0,0"
           id="path87"
           inkscape:connector-curvature="0" />
      </g>
    </g>
    <g
       transform="matrix(0.29888799,0,0,0.29888799,-45.986926,-55.386132)"
       style="fill:#ffffff;fill-opacity:1"
       id="g97">
      <g
         style="fill:#ffffff"
         transform="translate(1969.5054,499.23793)"
         id="g95">
        <path
           style="fill:#ffffff;stroke:none"
           d="m 68.390625,-31.0625 c -1.105469,3.375 -3.304687,7.25 -6.59375,11.625 C 58.515625,-15.0625 54.414062,-12.25 49.5,-11 c -4.917969,1.25 -9.167969,1.078125 -12.75,-0.515625 -3.585938,-1.59375 -5.558594,-5.851563 -5.921875,-12.78125 C 26.753906,-16.398438 22.875,-11.34375 19.1875,-9.125 15.5,-6.90625 11.660156,-6.0625 7.671875,-6.59375 c -4.511719,-0.71875 -7.5625,-2.46875 -9.15625,-5.25 -1.59375,-2.78125 -2.125,-5.992188 -1.59375,-9.640625 0.523437,-3.644531 1.625,-7.144531 3.3125,-10.5 1.332031,-2.488281 3.175781,-4.800781 5.53125,-6.9375 2.363281,-2.132813 4.832031,-3.8125 7.40625,-5.03125 3.1875,-1.601563 6.390625,-2.363281 9.609375,-2.28125 3.226562,0.07422 6.675781,1.140625 10.34375,3.203125 0.08203,0.07422 0.125,-0.0078 0.125,-0.25 0,-0.363281 0.08594,-0.816406 0.265625,-1.359375 0.1875,-0.539063 0.5,-0.972656 0.9375,-1.296875 1.207031,-0.882812 2.632813,-1.328125 4.28125,-1.328125 1.65625,0 2.929687,0.824219 3.828125,2.46875 0.15625,2.136719 -0.07031,4.859375 -0.671875,8.171875 -1.335937,7.25 -1.335937,12.46875 0,15.65625 1.332031,3.179688 3.679687,4.65625 7.046875,4.4375 3.363281,-0.21875 7.722656,-3.539062 13.078125,-9.96875 5.363281,-6.425781 7.488281,-7.945312 6.375,-4.5625 z m -59.5,17.03125 c 1.851563,1.335938 3.976563,1.15625 6.375,-0.53125 2.394531,-1.695312 4.703125,-4.097656 6.921875,-7.203125 2.21875,-3.101563 4.082031,-6.203125 5.59375,-9.296875 1.507812,-3.101562 2.34375,-5.40625 2.5,-6.90625 -4.511719,-2.414062 -8.382812,-2.828125 -11.609375,-1.234375 -3.21875,1.59375 -5.789063,4.195313 -7.703125,7.796875 -1.917969,3.605469 -3.058594,7.109375 -3.421875,10.515625 -0.355469,3.40625 0.09375,5.695313 1.34375,6.859375 z m 0,0"
           id="path93"
           inkscape:connector-curvature="0" />
      </g>
    </g>
    <g
       transform="matrix(0.29888799,0,0,0.29888799,-45.986926,-55.386132)"
       style="fill:#ffffff;fill-opacity:1"
       id="g103">
      <g
         style="fill:#ffffff"
         transform="translate(2038.4021,499.23793)"
         id="g101">
        <path
           style="fill:#ffffff;stroke:none"
           d="m 38.5625,-28.953125 c 0.769531,-1.570313 1.296875,-2.296875 1.578125,-2.171875 0.28125,0.117188 0.347656,0.75 0.203125,1.90625 -0.136719,1.148438 -0.386719,2.445312 -0.75,3.890625 -0.523438,2.21875 -1.429688,4.792969 -2.71875,7.71875 -1.292969,2.917969 -2.726562,5.5625 -4.296875,7.9375 -2.335937,3.304687 -5.226563,5.792969 -8.671875,7.46875 -3.449219,1.667969 -6.574219,2.078125 -9.375,1.234375 -2.792969,-0.84375 -4.414062,-3.484375 -4.859375,-7.921875 -0.085937,-3.707031 0.238281,-7.773437 0.96875,-12.203125 0.238281,-1.851562 0.5,-3.664062 0.78125,-5.4375 0,-0.644531 -0.164063,-1.140625 -0.484375,-1.484375 -0.324219,-0.34375 -0.746094,-0.472656 -1.265625,-0.390625 -0.367187,0 -0.765625,0 -1.203125,0 -2.21875,0.367188 -4.480469,0.324219 -6.78125,-0.125 -2.738281,-0.800781 -4.328125,-2.160156 -4.765625,-4.078125 -0.445313,-1.914063 -0.410156,-4.425781 0.109375,-7.53125 0.292969,-2.21875 1.125,-3.878906 2.5,-4.984375 1.363281,-1.101562 2.972656,-1.554688 4.828125,-1.359375 2.570313,0.242187 3.816406,1.230469 3.734375,2.96875 -0.074219,1.730469 -0.554688,3.578125 -1.4375,5.546875 -0.8125,1.65625 -1.242188,3.042969 -1.28125,4.15625 -0.042969,1.105469 0.90625,1.496094 2.84375,1.171875 0.445312,-0.125 0.929688,-0.265625 1.453125,-0.421875 0.726563,-0.28125 1.554687,-0.53125 2.484375,-0.75 0.925781,-0.226562 2.132812,-0.28125 3.625,-0.15625 1.769531,0.08594 2.945312,0.902344 3.53125,2.453125 0.582031,1.542969 0.832031,3.484375 0.75,5.828125 -0.07422,2.335938 -0.292969,4.710938 -0.65625,7.125 -0.449219,3.023438 -0.671875,5.609375 -0.671875,7.765625 0,2.15625 0.625,3.417969 1.875,3.78125 1.65625,0.449219 4.125,-1.050781 7.40625,-4.5 3.28125,-3.445313 6.796875,-9.257813 10.546875,-17.4375 z m 0,0"
           id="path99"
           inkscape:connector-curvature="0" />
      </g>
    </g>
    <g
       transform="matrix(0.29888799,0,0,0.29888799,-45.986926,-55.386132)"
       style="fill:#ffffff;fill-opacity:1"
       id="g109">
      <g
         style="fill:#ffffff"
         transform="translate(2080.2208,499.23793)"
         id="g107">
        <path
           style="fill:#ffffff;stroke:none"
           d="m 36.6875,-33 c 0,0.929688 -1.953125,2.570312 -5.859375,4.921875 -3.90625,2.355469 -6.789063,4.132813 -8.640625,5.328125 -1.855469,1.1875 -2.78125,1.921875 -2.78125,2.203125 0.363281,0.804687 0.742188,2.152344 1.140625,4.046875 0.40625,1.898438 0.554687,3.953125 0.453125,6.171875 -0.09375,2.210937 -0.808594,4.183594 -2.140625,5.921875 -1.335937,1.730469 -3.554687,2.777344 -6.65625,3.140625 C 9.109375,-1.023438 6.335938,-1.5 3.890625,-2.6875 1.453125,-3.875 -0.0703125,-5.597656 -0.6875,-7.859375 c -0.625,-2.257813 0.132812,-4.898437 2.265625,-7.921875 1.40625,-1.6875 3.097656,-3.15625 5.078125,-4.40625 0.675781,-0.445312 1.378906,-0.929688 2.109375,-1.453125 C 6.390625,-24.222656 4.132812,-26.863281 2,-29.5625 c -2.132812,-2.695312 -3.503906,-5.113281 -4.109375,-7.25 -0.644531,-2.457031 -0.234375,-4.773438 1.234375,-6.953125 1.46875,-2.175781 4.015625,-3.445313 7.640625,-3.8125 1.78125,-0.15625 3.441406,-0.0625 4.984375,0.28125 1.550781,0.34375 2.992188,1.101563 4.328125,2.265625 0.28125,0.28125 0.476563,0.59375 0.59375,0.9375 0.125,0.34375 0.06641,0.777344 -0.171875,1.296875 -0.4375,0.804687 -1.105469,1.203125 -2,1.203125 -0.636719,0 -1.257812,-0.07813 -1.859375,-0.234375 -0.648437,-0.28125 -1.234375,-0.539063 -1.765625,-0.78125 C 10.519531,-42.816406 10.179688,-43 9.859375,-43.15625 c -1.179687,-0.445312 -2.078125,-0.382812 -2.703125,0.1875 -0.625,0.5625 -0.9375,1.429688 -0.9375,2.59375 0.082031,2.054688 0.929688,4.25 2.546875,6.59375 1.613281,2.335938 3.207031,4.484375 4.78125,6.453125 0.632813,0.6875 1.175781,1.355469 1.625,2 0.445313,0.449219 1.613281,0.382813 3.5,-0.203125 1.894531,-0.59375 5.367187,-2.21875 10.421875,-4.875 C 34.15625,-33.0625 36.6875,-33.925781 36.6875,-33 Z M 9.671875,-5.796875 c 1.164063,-0.082031 1.929687,-0.726563 2.296875,-1.9375 0.363281,-1.207031 0.492188,-2.535156 0.390625,-3.984375 -0.105469,-1.457031 -0.195313,-2.546875 -0.265625,-3.265625 -0.167969,-0.445313 -0.453125,-0.726563 -0.859375,-0.84375 -0.398437,-0.125 -0.777344,-0.109375 -1.140625,0.04687 -1.335938,1.054688 -2.3125,2.386719 -2.9375,4 -0.625,1.605469 -0.574219,3.011719 0.15625,4.21875 0.238281,0.449219 0.5625,0.835938 0.96875,1.15625 0.40625,0.324219 0.867188,0.527344 1.390625,0.609375 z m 0,0"
           id="path105"
           inkscape:connector-curvature="0" />
      </g>
    </g>
  </g>
</svg>
