<?xml version="1.0" encoding="UTF-8" standalone="no"?>
<svg
   xmlns:dc="http://purl.org/dc/elements/1.1/"
   xmlns:cc="http://creativecommons.org/ns#"
   xmlns:rdf="http://www.w3.org/1999/02/22-rdf-syntax-ns#"
   xmlns:svg="http://www.w3.org/2000/svg"
   xmlns="http://www.w3.org/2000/svg"
   xmlns:sodipodi="http://sodipodi.sourceforge.net/DTD/sodipodi-0.dtd"
   xmlns:inkscape="http://www.inkscape.org/namespaces/inkscape"
   width="590.33099pt"
   zoomAndPan="magnify"
   viewBox="0 0 590.33099 135.9268"
   height="135.9268pt"
   preserveAspectRatio="xMidYMid meet"
   version="1.2"
   id="svg112"
   sodipodi:docname="30-years-logo.svg"
   inkscape:version="0.92.5 (2060ec1f9f, 2020-04-08)"
   inkscape:export-filename="/home/ken/Downloads/30-years-logo.png"
   inkscape:export-xdpi="131.89452"
   inkscape:export-ydpi="131.89452">
  <metadata
     id="metadata116">
    <rdf:RDF>
      <cc:Work
         rdf:about="">
        <dc:format>image/svg+xml</dc:format>
        <dc:type
           rdf:resource="http://purl.org/dc/dcmitype/StillImage" />
        <dc:title></dc:title>
      </cc:Work>
    </rdf:RDF>
  </metadata>
  <sodipodi:namedview
     pagecolor="#ffffff"
     bordercolor="#666666"
     borderopacity="1"
     objecttolerance="10"
     gridtolerance="10"
     guidetolerance="10"
     inkscape:pageopacity="0"
     inkscape:pageshadow="2"
     inkscape:window-width="1872"
     inkscape:window-height="1016"
     id="namedview114"
     showgrid="false"
     inkscape:zoom="1"
     inkscape:cx="479.21598"
     inkscape:cy="-33.660553"
     inkscape:window-x="48"
     inkscape:window-y="27"
     inkscape:window-maximized="1"
     inkscape:current-layer="svg112"
     fit-margin-top="0"
     fit-margin-left="0"
     fit-margin-right="0"
     fit-margin-bottom="0" />
  <defs
     id="defs13">
    <g
       id="g2" />
    <clipPath
       xml:id="clip1"
       id="clip1">
      <path
         d="M 153.85547,269 H 369 V 641 H 153.85547 Z m 0,0"
         id="path4"
         inkscape:connector-curvature="0" />
    </clipPath>
    <clipPath
       xml:id="clip2"
       id="clip2">
      <path
         d="m 1412,396 h 181.8555 V 589 H 1412 Z m 0,0"
         id="path7"
         inkscape:connector-curvature="0" />
    </clipPath>
    <clipPath
       xml:id="clip3"
       id="clip3">
      <path
         d="m 1519,241 h 74.8555 V 346 H 1519 Z m 0,0"
         id="path10"
         inkscape:connector-curvature="0" />
    </clipPath>
  </defs>
  <rect
     id="rect308"
     width="590.33099"
     height="186.159"
     x="2.6405389e-06"
     y="-25.116083"
     style="fill:#000000;fill-opacity:0;stroke-width:0.75" />
  <g
     id="g306"
     transform="matrix(0.29888799,0,0,0.29888799,-45.986926,-55.386132)">
    <path
       style="fill:#199cd4;fill-opacity:1;fill-rule:nonzero;stroke:none"
       d="m 494.66406,528.91016 c 0.19531,-1.90625 0.25391,-3.81641 0.17969,-5.73438 -0.0742,-1.91406 -0.28125,-3.81641 -0.625,-5.69922 -0.33984,-1.88672 -0.81641,-3.73828 -1.41797,-5.55859 -0.60547,-1.82031 -1.33594,-3.58594 -2.1875,-5.30469 -0.85547,-1.71484 -1.82422,-3.36328 -2.91016,-4.94141 -1.08984,-1.58203 -2.28125,-3.07421 -3.57812,-4.48828 -1.29688,-1.41015 -2.6875,-2.72265 -4.17188,-3.9375 -1.48437,-1.21484 -3.04296,-2.32031 -4.68359,-3.3125 -1.63672,-0.99609 -3.33984,-1.86718 -5.10156,-2.62109 -1.76172,-0.75391 -3.57031,-1.38281 -5.41797,-1.88281 -1.85156,-0.4961 -3.73047,-0.86328 -5.63281,-1.09766 -1.90235,-0.23437 -3.8125,-0.33203 -5.72657,-0.29687 -1.91796,0.0351 -3.82421,0.20703 -5.71484,0.51171 -1.89453,0.30469 -3.75391,0.73829 -5.58594,1.3086 -1.83203,0.5664 -3.61328,1.25781 -5.34765,2.07812 -1.73047,0.82032 -3.39844,1.75782 -5,2.8125 -1.51563,0.98438 -3.0586,1.92578 -4.625,2.82032 -1.57032,0.89453 -3.16797,1.74218 -4.78907,2.54296 -1.61718,0.80079 -3.26171,1.55469 -4.92578,2.25782 -1.66406,0.70312 -3.34765,1.35937 -5.05078,1.96484 -1.70312,0.60156 -3.42187,1.15625 -5.16015,1.66016 -1.73438,0.5 -3.48438,0.95312 -5.2461,1.35156 -1.76172,0.40234 -3.53515,0.74609 -5.32031,1.04297 -1.78125,0.29297 -3.57031,0.53515 -5.36719,0.72656 -1.80078,0.1875 -3.60156,0.32422 -5.40625,0.40625 -1.80469,0.082 -3.60937,0.11328 -5.41797,0.0898 -1.80859,-0.0273 -3.61328,-0.10156 -5.41406,-0.23437 -1.80469,-0.12891 -3.60156,-0.3125 -5.39062,-0.55078 -1.79297,-0.23828 -3.57422,-0.52735 -5.35157,-0.86719 -1.77343,-0.34375 -3.53515,-0.73828 -5.28906,-1.18359 -1.75,-0.44532 -3.48828,-0.94532 -5.20703,-1.49219 -1.72266,-0.54688 -3.42969,-1.14844 -5.11328,-1.79688 -1.6875,-0.64843 -3.35547,-1.34765 -5,-2.09765 -1.64453,-0.7461 -3.26563,-1.54297 -4.86328,-2.38672 -1.59766,-0.84375 -3.17188,-1.73438 -4.71485,-2.66797 -1.54687,-0.9375 -3.0625,-1.91797 -4.55078,-2.94531 -1.48828,-1.02735 -2.94531,-2.09375 -4.37109,-3.20703 -1.42188,-1.11328 -2.8125,-2.26563 -4.17188,-3.46094 -1.35547,-1.19141 -2.67578,-2.42578 -3.95703,-3.69922 -1.28515,-1.26953 -2.53125,-2.58203 -3.73828,-3.92578 -1.20312,-1.34766 -2.37109,-2.72656 -3.49609,-4.14063 -1.125,-1.41406 -2.20703,-2.85937 -3.2461,-4.33984 -1.03906,-1.47656 -2.03515,-2.98437 -2.98437,-4.52344 -0.94922,-1.53906 -1.85547,-3.10156 -2.71094,-4.6914 -0.85937,-1.58985 -1.66797,-3.20703 -2.42969,-4.84375 -0.76562,-1.64063 -1.47656,-3.29688 -2.14062,-4.98047 -0.66797,-1.67969 -1.28125,-3.37891 -1.84375,-5.09375 -0.56641,-1.71875 -1.07813,-3.44922 -1.53906,-5.19922 -0.0742,-0.45703 -0.16797,-0.91406 -0.28516,-1.36328 -0.12109,-0.44922 -0.26172,-0.89063 -0.42969,-1.32813 -0.16406,-0.43359 -0.35156,-0.85937 -0.5625,-1.27343 -0.20703,-0.41407 -0.4414,-0.82032 -0.6914,-1.21094 -0.25391,-0.39063 -0.52344,-0.76563 -0.81641,-1.12891 -0.29297,-0.36328 -0.60156,-0.70703 -0.92969,-1.03906 -0.32812,-0.32813 -0.67187,-0.64063 -1.03125,-0.9375 -0.36328,-0.29297 -0.73828,-0.56641 -1.125,-0.82031 -0.39062,-0.25782 -0.79297,-0.48828 -1.20703,-0.70313 -0.41406,-0.21094 -0.83594,-0.40234 -1.26953,-0.57031 -0.43359,-0.16797 -0.875,-0.3125 -1.32422,-0.43359 -0.44922,-0.125 -0.90625,-0.22266 -1.36328,-0.29688 -0.46094,-0.0742 -0.92188,-0.125 -1.38672,-0.14844 -0.46484,-0.0273 -0.92969,-0.0273 -1.39453,-0.004 -0.46484,0.0195 -0.92578,0.0664 -1.38672,0.14062 -0.45703,0.0703 -0.91406,0.16406 -1.36328,0.28516 -0.44922,0.11719 -0.89453,0.25781 -1.32813,0.42578 -0.43359,0.16406 -0.85937,0.35156 -1.27343,0.5625 -0.41797,0.21094 -0.82032,0.44141 -1.21094,0.69141 -0.39063,0.2539 -0.76953,0.52343 -1.12891,0.8164 -0.36328,0.29297 -0.71093,0.60156 -1.03906,0.92969 -0.33203,0.32812 -0.64453,0.67187 -0.9375,1.03125 -0.29297,0.35937 -0.57031,0.73437 -0.82422,1.125 -0.2539,0.39062 -0.48828,0.79297 -0.69922,1.20312 -0.21484,0.41407 -0.40625,0.83985 -0.57422,1.27344 -0.16796,0.4336 -0.3125,0.875 -0.43359,1.32422 -0.125,0.44922 -0.22266,0.90234 -0.29687,1.36328 -0.0742,0.45703 -0.125,0.92188 -0.14844,1.38672 -0.0274,0.46094 -0.0274,0.92578 -0.008,1.39063 0.0234,0.46484 0.0703,0.92968 0.14062,1.38671 0.0742,0.46094 0.16797,0.91797 0.28516,1.36719 0.12109,0.44922 0.26172,0.89063 0.42578,1.32813 0.59765,2.2539 1.25781,4.48828 1.98437,6.70312 0.73047,2.21485 1.52344,4.40625 2.37891,6.57422 0.85547,2.16797 1.77734,4.30859 2.76172,6.42188 0.98047,2.11328 2.02734,4.19531 3.13281,6.24609 1.10547,2.05469 2.27344,4.07031 3.5,6.05469 1.22266,1.98437 2.50781,3.92968 3.84766,5.83593 1.33984,1.90625 2.73828,3.77344 4.1875,5.59766 1.44922,1.82422 2.95312,3.60547 4.50781,5.34375 1.55859,1.73438 3.16406,3.42578 4.82031,5.06641 1.65235,1.64062 3.35547,3.23047 5.10547,4.77343 1.75,1.53907 3.54297,3.02735 5.38281,4.46094 1.83594,1.4375 3.71485,2.81641 5.63282,4.14063 1.91796,1.32422 3.875,2.58984 5.86718,3.79687 1.9961,1.21094 4.02344,2.35938 6.08594,3.44531 2.05859,1.08985 4.15234,2.11719 6.27344,3.08204 2.12109,0.96484 4.26953,1.86718 6.44531,2.70703 2.17578,0.83593 4.375,1.60937 6.59766,2.32031 2.21875,0.70703 4.46093,1.35156 6.71875,1.92578 2.25781,0.57813 4.53125,1.08594 6.82031,1.52734 2.28906,0.44141 4.58984,0.81641 6.90234,1.1211 2.3086,0.30859 4.62891,0.54687 6.95313,0.71484 2.32422,0.16797 4.65234,0.26953 6.98437,0.30078 2.33203,0.0312 4.66016,-0.004 6.99219,-0.10937 2.32813,-0.10938 4.65234,-0.28125 6.96875,-0.52344 2.32031,-0.24609 4.62891,-0.55469 6.92969,-0.9375 2.30078,-0.37891 4.58594,-0.82422 6.85937,-1.33984 2.27735,-0.51563 4.53125,-1.09375 6.77344,-1.74219 2.23828,-0.64844 4.45703,-1.36328 6.65234,-2.14063 2.19922,-0.77734 4.3711,-1.62109 6.51954,-2.52734 2.14843,-0.91016 4.26562,-1.87891 6.35546,-2.91016 2.08985,-1.03125 4.14844,-2.125 6.17579,-3.28125 2.02343,-1.15234 4.01562,-2.36328 5.96875,-3.63671 1.11328,-0.73829 2.30468,-1.30469 3.57812,-1.70313 1.26953,-0.39844 2.57422,-0.60937 3.90625,-0.63672 1.33594,-0.0312 2.64453,0.12891 3.93359,0.47266 1.28907,0.34765 2.50391,0.86328 3.64454,1.55469 1.14062,0.6914 2.16015,1.52734 3.0664,2.50781 0.90235,0.98047 1.65235,2.0664 2.2461,3.26172 0.59375,1.19531 1.00781,2.44531 1.24609,3.75781 0.23828,1.3125 0.28906,2.63281 0.15234,3.95703 -0.0937,1.02734 -0.30078,2.02734 -0.62109,3.00391 -0.32031,0.97656 -0.74609,1.90625 -1.27734,2.78906 -0.53125,0.87891 -1.15235,1.69141 -1.86719,2.42969 -0.71485,0.74218 -1.50391,1.39062 -2.36328,1.95312 -3.0625,1.98828 -6.19141,3.86328 -9.39063,5.6211 -3.20312,1.75781 -6.46094,3.39453 -9.78515,4.91015 -3.32032,1.51172 -6.69532,2.90235 -10.1211,4.16797 -3.42187,1.26172 -6.89062,2.39844 -10.39844,3.40625 -3.51171,1.00391 -7.05468,1.87891 -10.6289,2.62109 -3.57422,0.7461 -7.17188,1.35547 -10.78906,1.82813 -3.6211,0.47656 -7.25391,0.81641 -10.89844,1.02344 -3.64453,0.20312 -7.29297,0.27343 -10.94531,0.20703 -3.64844,-0.0664 -7.29297,-0.26563 -10.92969,-0.60547 -3.63281,-0.33594 -7.25,-0.80469 -10.85156,-1.41406 -3.60157,-0.60547 -7.17188,-1.34375 -10.71875,-2.21485 -3.54688,-0.87109 -7.05469,-1.875 -10.52344,-3.00781 -3.47266,-1.12891 -6.89453,-2.39062 -10.27344,-3.77734 -3.375,-1.38672 -6.69922,-2.89844 -9.96094,-4.53125 -3.26562,-1.63672 -6.46484,-3.38672 -9.60156,-5.26172 -3.13281,-1.8711 -6.19531,-3.85547 -9.17969,-5.95703 -0.71484,-0.49219 -1.46875,-0.91407 -2.26562,-1.25782 -0.79688,-0.34765 -1.61719,-0.61328 -2.46485,-0.80078 -0.84765,-0.18359 -1.70312,-0.28515 -2.57421,-0.30468 -0.86719,-0.0156 -1.72657,0.0508 -2.58204,0.19921 -0.85546,0.14844 -1.6875,0.38282 -2.49609,0.69532 -0.80859,0.3125 -1.58203,0.69922 -2.3125,1.16406 -0.73437,0.46484 -1.41797,0.99219 -2.04687,1.58984 -0.62891,0.59766 -1.19532,1.25 -1.69922,1.95703 -0.5,0.70704 -0.92969,1.45704 -1.28516,2.25 -0.35547,0.78907 -0.63281,1.60938 -0.82812,2.45313 -0.19532,0.84375 -0.3086,1.70312 -0.33985,2.57031 -0.0273,0.86719 0.0274,1.72656 0.16797,2.58203 0.14063,0.85938 0.36328,1.69141 0.66406,2.50782 0.30469,0.8125 0.6836,1.58593 1.13672,2.32812 0.45313,0.73828 0.97656,1.42578 1.56641,2.0625 0.58594,0.63672 1.23437,1.21094 1.93359,1.72266 3.53125,2.48047 7.14844,4.82812 10.85547,7.04297 3.70703,2.21484 7.48828,4.28515 11.34766,6.21875 3.85937,1.92968 7.78515,3.71484 11.77734,5.35546 3.99609,1.64063 8.04297,3.12891 12.14453,4.46875 4.10547,1.33594 8.25,2.52344 12.44141,3.55079 4.1914,1.03125 8.41797,1.90625 12.67187,2.62109 4.25782,0.71484 8.53516,1.27344 12.83203,1.67187 4.29688,0.39844 8.60547,0.63672 12.92188,0.71094 4.3125,0.0781 8.625,-0.004 12.9375,-0.24609 4.30859,-0.24219 8.60156,-0.64453 12.88281,-1.20703 4.27735,-0.5625 8.53125,-1.28516 12.75781,-2.16407 4.22657,-0.8789 8.41016,-1.91015 12.5625,-3.10156 4.14844,-1.1914 8.2461,-2.53125 12.29688,-4.02734 4.04687,-1.4961 8.03516,-3.13672 11.96094,-4.92969 3.92968,-1.79297 7.78125,-3.72656 11.5664,-5.80469 3.78125,-2.07812 7.48438,-4.29297 11.10157,-6.64843 2.51562,-1.64844 4.8164,-3.55079 6.90625,-5.71485 2.08984,-2.16406 3.91015,-4.53515 5.46875,-7.10547 1.55859,-2.57422 2.8125,-5.28515 3.76171,-8.14062 0.94922,-2.85156 1.57032,-5.77735 1.86719,-8.76953"
       id="path19"
       inkscape:connector-curvature="0" />
    <path
       style="fill:#199cd4;fill-opacity:1;fill-rule:nonzero;stroke:none"
       d="m 357.27734,382.33984 c 0.86719,-0.67578 1.76172,-1.3125 2.6836,-1.91015 0.91797,-0.60157 1.86328,-1.16016 2.83203,-1.6836 0.96484,-0.51953 1.95312,-1.0039 2.96094,-1.4414 1.00781,-0.44141 2.03125,-0.83985 3.07031,-1.19532 1.03906,-0.35546 2.08984,-0.66796 3.15625,-0.9375 1.0664,-0.26953 2.14062,-0.49609 3.22656,-0.67578 1.08203,-0.17968 2.17188,-0.3164 3.26563,-0.40625 1.09765,-0.0898 2.19531,-0.13672 3.29296,-0.13672 1.09766,0 2.19532,0.0469 3.29297,0.13672 1.09375,0.0899 2.1836,0.22657 3.26563,0.40625 1.08594,0.17969 2.16015,0.40625 3.22656,0.67578 1.06641,0.26954 2.11719,0.58204 3.15625,0.9375 1.03906,0.35547 2.0625,0.75391 3.07031,1.19532 1.00782,0.4375 1.9961,0.92187 2.96094,1.4414 0.96875,0.52344 1.91016,1.08203 2.83203,1.6836 0.92188,0.59765 1.81641,1.23437 2.6836,1.91015 0.6875,0.56641 1.42578,1.0586 2.21093,1.47657 0.78907,0.41796 1.60938,0.7539 2.46094,1.00781 0.85547,0.2539 1.72656,0.41797 2.61328,0.49609 0.88672,0.082 1.77344,0.0703 2.66016,-0.0273 0.88281,-0.0977 1.75,-0.28516 2.59765,-0.5586 0.84766,-0.27343 1.66016,-0.625 2.4375,-1.0625 0.77735,-0.4375 1.50391,-0.94531 2.17969,-1.52734 0.67578,-0.57812 1.28516,-1.22266 1.83203,-1.92578 0.54297,-0.70313 1.01563,-1.45703 1.41016,-2.25391 0.39453,-0.79687 0.70703,-1.6289 0.9375,-2.48828 0.22656,-0.85937 0.36719,-1.73437 0.42187,-2.625 0.0547,-0.89062 0.0195,-1.77344 -0.10546,-2.65625 -0.125,-0.88281 -0.33594,-1.74609 -0.63282,-2.58203 -0.29687,-0.83984 -0.67578,-1.64453 -1.13281,-2.40625 -0.45703,-0.76562 -0.98828,-1.47656 -1.58984,-2.13281 -0.60157,-0.66016 -1.25782,-1.25 -1.98047,-1.77735 -1.62891,-1.26562 -3.31641,-2.45312 -5.0586,-3.5625 -1.74218,-1.10937 -3.53515,-2.13671 -5.37109,-3.07812 -1.83594,-0.94141 -3.71484,-1.79688 -5.63281,-2.56641 -1.91797,-0.76953 -3.86719,-1.44531 -5.84766,-2.03125 -1.97656,-0.58984 -3.98047,-1.08203 -6.00781,-1.48437 -2.02734,-0.39844 -4.06641,-0.70313 -6.12109,-0.91406 -2.05469,-0.21094 -4.11329,-0.32813 -6.17969,-0.34766 -2.06641,-0.0195 -4.12891,0.0586 -6.1875,0.23047 -2.0586,0.17187 -4.10156,0.4414 -6.13672,0.80469 -2.03125,0.36328 -4.04297,0.8164 -6.03516,1.36718 -1.99218,0.55078 -3.95312,1.19141 -5.88281,1.92578 -1.93359,0.73047 -3.82422,1.55079 -5.67969,2.46094 -1.85547,0.90625 -3.66406,1.89844 -5.42578,2.97656 -1.76172,1.07813 -3.47265,2.23438 -5.1289,3.46875 -1.65235,1.23438 -3.2461,2.54688 -4.78125,3.92969 -1.53125,1.38281 -3,2.83594 -4.39844,4.35547 -1.39453,1.51953 -2.72266,3.10156 -3.97266,4.74609 -1.25,1.64454 -2.42187,3.34375 -3.51562,5.09375 -1.09375,1.75391 -2.10157,3.55079 -3.02735,5.39844 -0.92578,1.84766 -1.76562,3.73047 -2.51562,5.65625 -0.75,1.92578 -1.41016,3.87891 -1.97656,5.86719 -0.57032,1.98437 -1.04297,3.99219 -1.42579,6.01953 -0.38281,2.03125 -0.66796,4.07422 -0.85937,6.13281 -0.19141,2.05469 -0.28906,4.11719 -0.28906,6.1836 0,2.0625 0.0976,4.125 0.28906,6.17968 0.19141,2.0586 0.47656,4.10157 0.85937,6.13282 0.38282,2.02734 0.85547,4.03515 1.42579,6.01953 0.5664,1.98828 1.22656,3.9414 1.97656,5.86719 0.75,1.92578 1.58984,3.80859 2.51562,5.65625 0.92578,1.84765 1.9336,3.64453 3.02735,5.39843 1.09375,1.75 2.26562,3.44922 3.51562,5.09375 1.25,1.64453 2.57813,3.22657 3.97266,4.7461 1.39844,1.51953 2.86719,2.97265 4.39844,4.35547 1.53515,1.38281 3.1289,2.69531 4.78125,3.92968 1.65625,1.23438 3.36718,2.39063 5.1289,3.46875 1.76172,1.07813 3.57031,2.07032 5.42578,2.97657 1.85547,0.91015 3.7461,1.73046 5.67969,2.46093 1.92969,0.73438 3.89063,1.375 5.88281,1.92578 1.99219,0.55079 4.00391,1.00391 6.03516,1.36719 2.03516,0.36328 4.07812,0.63281 6.13672,0.80469 2.05859,0.17187 4.12109,0.25 6.1875,0.23047 2.0664,-0.0195 4.125,-0.13672 6.17969,-0.34766 2.05468,-0.21094 4.09375,-0.51562 6.12109,-0.91406 2.02734,-0.40234 4.03125,-0.89453 6.00781,-1.48438 1.98047,-0.58593 3.92969,-1.26171 5.84766,-2.03125 1.91797,-0.76953 3.79687,-1.625 5.63281,-2.5664 1.83594,-0.94141 3.62891,-1.96875 5.37109,-3.07813 1.74219,-1.10937 3.42969,-2.29687 5.0586,-3.5625 0.72265,-0.52734 1.3789,-1.11718 1.98047,-1.77734 0.60156,-0.65625 1.13281,-1.36719 1.58984,-2.13281 0.45703,-0.76172 0.83594,-1.56641 1.13281,-2.40235 0.29688,-0.83984 0.50782,-1.70312 0.63282,-2.58593 0.125,-0.87891 0.16015,-1.76563 0.10546,-2.65625 -0.0547,-0.89063 -0.19531,-1.76563 -0.42187,-2.625 -0.23047,-0.85938 -0.54297,-1.69141 -0.9375,-2.48829 -0.39453,-0.79687 -0.86719,-1.55078 -1.41016,-2.2539 -0.54687,-0.70313 -1.15625,-1.34766 -1.83203,-1.92578 -0.67578,-0.58203 -1.40234,-1.08985 -2.17969,-1.52735 -0.77734,-0.4375 -1.58984,-0.78906 -2.4375,-1.0625 -0.84765,-0.27343 -1.71484,-0.46093 -2.59765,-0.55859 -0.88672,-0.0977 -1.77344,-0.10938 -2.66016,-0.0273 -0.88672,0.0781 -1.75781,0.24218 -2.61328,0.49609 -0.85156,0.25391 -1.67187,0.58984 -2.46094,1.00781 -0.78515,0.41797 -1.52343,0.91016 -2.21093,1.47656 -1.03125,0.80469 -2.10547,1.55079 -3.21094,2.25 -1.10938,0.69532 -2.25,1.33594 -3.41797,1.92188 -1.17188,0.58594 -2.36719,1.10937 -3.58984,1.57812 -1.22266,0.46875 -2.46485,0.875 -3.73047,1.21875 -1.26172,0.34375 -2.53907,0.62891 -3.82813,0.84766 -1.28906,0.21875 -2.58594,0.375 -3.89453,0.46875 -1.30469,0.0898 -2.60937,0.12109 -3.91797,0.082 -1.30859,-0.0351 -2.61328,-0.13281 -3.91015,-0.30078 -1.30079,-0.16406 -2.58594,-0.39062 -3.86329,-0.67969 -1.27734,-0.29297 -2.53515,-0.64453 -3.77734,-1.05859 -1.24219,-0.41406 -2.46094,-0.88672 -3.65234,-1.42188 -1.19532,-0.53515 -2.36328,-1.125 -3.5,-1.77343 -1.13672,-0.64844 -2.23828,-1.35157 -3.30469,-2.10938 -1.07031,-0.75781 -2.09766,-1.5625 -3.08594,-2.42187 -0.98828,-0.85938 -1.93359,-1.76172 -2.83203,-2.71485 -0.89844,-0.94922 -1.75,-1.9414 -2.55078,-2.97656 -0.80469,-1.03516 -1.55469,-2.10547 -2.25,-3.21094 -0.69531,-1.10937 -1.33594,-2.25 -1.92188,-3.41797 -0.58593,-1.17187 -1.11328,-2.37109 -1.57812,-3.59375 -0.46875,-1.21875 -0.875,-2.46484 -1.21875,-3.72656 -0.34766,-1.26172 -0.62891,-2.53906 -0.84766,-3.82812 -0.21875,-1.28907 -0.375,-2.58985 -0.46875,-3.89453 -0.0937,-1.30469 -0.12109,-2.61329 -0.0859,-3.92188 0.0391,-1.30469 0.13671,-2.60937 0.30078,-3.91016 0.16406,-1.29687 0.39453,-2.58593 0.68359,-3.85937 0.28906,-1.27734 0.64453,-2.53516 1.05859,-3.77734 0.41407,-1.24219 0.88672,-2.46094 1.42188,-3.65625 0.53516,-1.19141 1.125,-2.35938 1.77344,-3.4961 0.64843,-1.13672 1.35156,-2.23828 2.10937,-3.30859 0.75781,-1.06641 1.5625,-2.09375 2.42188,-3.08203 0.85547,-0.98828 1.76172,-1.9336 2.71093,-2.83203 0.95313,-0.89844 1.94532,-1.75 2.98047,-2.55469"
       id="path21"
       inkscape:connector-curvature="0" />
    <path
       style="fill:#199cd4;fill-opacity:1;fill-rule:nonzero;stroke:none"
       d="m 438.91406,341.92187 c 4.46875,3.54297 8.56641,7.46875 12.29688,11.78516 0.55859,0.69922 1.17968,1.33984 1.87109,1.91797 0.6875,0.57422 1.42578,1.07812 2.21484,1.50391 0.78907,0.42578 1.61329,0.76953 2.47266,1.03125 0.85938,0.26171 1.73828,0.43359 2.62891,0.51562 0.89453,0.082 1.78906,0.0742 2.67968,-0.0234 0.89454,-0.0976 1.76954,-0.28125 2.6211,-0.55468 0.85547,-0.27344 1.67578,-0.63282 2.45703,-1.07032 0.78516,-0.4414 1.51562,-0.95312 2.19531,-1.54297 0.67578,-0.58593 1.28906,-1.23828 1.83985,-1.94921 0.54687,-0.71094 1.01562,-1.46875 1.41015,-2.27735 0.39453,-0.80469 0.70313,-1.64453 0.92969,-2.51172 0.22266,-0.87109 0.35937,-1.7539 0.40625,-2.64843 0.043,-0.89844 0,-1.78907 -0.13281,-2.67969 -0.13672,-0.88672 -0.35938,-1.75 -0.66797,-2.59375 -0.3086,-0.84375 -0.69922,-1.64844 -1.17188,-2.41016 -0.47265,-0.76562 -1.01562,-1.47265 -1.6289,-2.1289 -1.84766,-2.125 -3.76953,-4.1836 -5.76172,-6.17579 -1.99219,-1.99218 -4.05469,-3.90625 -6.1875,-5.75 -2.12891,-1.84375 -4.32422,-3.60937 -6.57813,-5.29687 -2.25781,-1.6875 -4.57031,-3.29297 -6.9414,-4.81641 -2.3711,-1.52343 -4.79297,-2.95703 -7.26563,-4.30859 -2.47265,-1.34766 -4.99219,-2.60938 -7.55469,-3.77734 -2.5625,-1.17188 -5.16406,-2.25 -7.80468,-3.23438 -2.64063,-0.98437 -5.3125,-1.87109 -8.01563,-2.66406 -2.70312,-0.79688 -5.42969,-1.49219 -8.18359,-2.08985 -2.75391,-0.60156 -5.52344,-1.10156 -8.3125,-1.5039 -2.78906,-0.40235 -5.58985,-0.70313 -8.39844,-0.90625 -2.80859,-0.20313 -5.625,-0.30469 -8.44141,-0.30469 -2.8164,0 -5.63281,0.0977 -8.4414,0.29688 -2.8125,0.19921 -5.60938,0.49609 -8.39844,0.89453 -2.78906,0.40234 -5.5625,0.89843 -8.31641,1.49609 -2.7539,0.59375 -5.48046,1.28906 -8.1875,2.08203 l -0.64062,0.19922 c -1.35156,0.40234 -2.70703,0.82422 -4.04297,1.28125 l -1.48047,0.51172 -3.10937,1.13281 c -0.82032,0.3086 -1.64063,0.63672 -2.47266,0.98828 l -2.04687,0.86328 c -1.19141,0.51172 -2.37891,1.0586 -3.57032,1.60938 l -0.89453,0.4375 c -3.85937,1.85547 -7.60937,3.91797 -11.24609,6.17969 -3.63281,2.26172 -7.13672,4.71875 -10.50781,7.36328 -3.36719,2.64062 -6.58594,5.46094 -9.64844,8.45703 -3.0625,2.99219 -5.95313,6.14453 -8.67578,9.44922 -2.71875,3.30859 -5.25391,6.7539 -7.59766,10.33984 -2.34766,3.58203 -4.49219,7.28125 -6.43359,11.09766 -1.94532,3.8164 -3.67578,7.72656 -5.19532,11.73437 -1.51953,4.00391 -2.8164,8.07813 -3.89062,12.22266 -0.21875,0.84766 -0.35156,1.71094 -0.40234,2.58594 -0.0469,0.87109 -0.008,1.74218 0.11328,2.60937 0.125,0.86719 0.33203,1.71485 0.62109,2.53906 0.28906,0.82422 0.65625,1.61719 1.10156,2.36719 0.44532,0.75391 0.96094,1.45703 1.54297,2.10938 0.58594,0.65234 1.22656,1.24218 1.92969,1.76562 0.69922,0.52735 1.44141,0.98047 2.23047,1.35938 0.78906,0.3789 1.60937,0.67578 2.45703,0.89453 0.84766,0.21484 1.70703,0.34765 2.58203,0.39844 0.875,0.0469 1.74609,0.008 2.61328,-0.11719 0.86328,-0.1211 1.71094,-0.32813 2.53516,-0.61719 0.82812,-0.29297 1.61719,-0.66016 2.37109,-1.10547 0.75391,-0.44531 1.45313,-0.96094 2.10547,-1.54687 0.65234,-0.58203 1.24219,-1.22657 1.76563,-1.92578 0.52734,-0.69922 0.97656,-1.44532 1.35546,-2.23438 0.37891,-0.78906 0.67579,-1.60937 0.89454,-2.45703 1.44531,-5.55859 3.40234,-10.93359 5.87109,-16.11719 0.21875,-0.36719 0.44141,-0.71484 0.64062,-1.10156 3.57032,-7.3125 8.03907,-14.02734 13.40235,-20.14844 5.36328,-6.12109 11.43359,-11.42969 18.21484,-15.92969 4.64063,-3.08593 9.51953,-5.73046 14.63672,-7.9414 l 0.78516,-0.3125 2.6914,-1.07813 1.71875,-0.62109 1.83203,-0.62109 c 0.85157,-0.29297 1.71094,-0.57032 2.57813,-0.82422 l 0.98828,-0.29297 c 1.09766,-0.3125 2.21484,-0.6211 3.3125,-0.89844 h 0.32813 c 3.33593,-0.81641 6.70312,-1.44922 10.10937,-1.88672 3.40625,-0.4414 6.82422,-0.6875 10.25781,-0.74609 3.4336,-0.0547 6.85938,0.082 10.27344,0.41015 3.41797,0.33204 6.80859,0.85157 10.16797,1.5625 3.35937,0.71094 6.66797,1.60547 9.92578,2.6875 3.25781,1.08204 6.44531,2.34375 9.5625,3.78516 3.11719,1.44141 6.14063,3.05469 9.07813,4.83594 2.93359,1.78125 5.75781,3.71875 8.47656,5.82031 0.38281,0.29297 0.80469,0.49219 1.1875,0.75"
       id="path23"
       inkscape:connector-curvature="0" />
    <path
       style="fill:#199cd4;fill-opacity:1;fill-rule:nonzero;stroke:none"
       d="m 356.94531,269.43359 c 0.84766,-0.16406 1.66797,-0.41015 2.46485,-0.73437 0.80078,-0.32422 1.55859,-0.72266 2.28125,-1.19141 0.72265,-0.47265 1.39062,-1.00781 2.00781,-1.60937 0.61719,-0.60157 1.16797,-1.25391 1.66015,-1.96485 0.48829,-0.70703 0.90625,-1.45703 1.25391,-2.24609 0.34375,-0.78906 0.60938,-1.60547 0.79688,-2.44531 0.18359,-0.83985 0.28906,-1.69141 0.30859,-2.55078 0.0234,-0.86329 -0.0391,-1.71875 -0.18359,-2.56641 -0.14454,-0.85156 -0.36719,-1.67578 -0.67188,-2.48438 -0.30469,-0.80468 -0.68359,-1.57421 -1.14062,-2.30468 -0.45313,-0.73438 -0.97266,-1.41407 -1.5586,-2.04688 -0.58594,-0.6289 -1.23047,-1.19922 -1.92578,-1.70312 -0.69531,-0.50782 -1.43359,-0.94141 -2.21484,-1.30469 -0.78125,-0.36328 -1.58985,-0.64844 -2.42578,-0.85547 -0.83594,-0.20703 -1.6875,-0.33203 -2.54688,-0.375 -0.85937,-0.0391 -1.71484,0 -2.57031,0.125 -3.58985,0.61719 -7.16016,1.34375 -10.70703,2.18359 -3.54688,0.83985 -7.0625,1.79297 -10.55078,2.85547 -3.48438,1.0625 -6.9336,2.23438 -10.34766,3.51563 -3.41016,1.27734 -6.78125,2.66406 -10.10547,4.16015 -3.32422,1.49219 -6.60156,3.08985 -9.82422,4.78907 -3.22265,1.69922 -6.39062,3.5 -9.5,5.39843 -3.11328,1.89844 -6.16015,3.89454 -9.14453,5.98829 -2.98437,2.09375 -5.89844,4.27734 -8.74609,6.55468 -2.84766,2.27344 -5.61719,4.64063 -8.31641,7.08985 -2.69531,2.45312 -5.3125,4.98437 -7.85156,7.60156 -2.53516,2.61719 -4.98828,5.3125 -7.35547,8.08203 -2.36719,2.77344 -4.64453,5.61719 -6.83203,8.53125 -2.1875,2.91406 -4.28125,5.89844 -6.28125,8.94531 -1.9961,3.04688 -3.89844,6.15625 -5.70313,9.32422 -1.80078,3.16406 -3.5039,6.38672 -5.10156,9.66016 -1.60156,3.27734 -3.09375,6.59765 -4.48437,9.96875 -1.39063,3.37109 -2.67188,6.77734 -3.84766,10.23047 -1.17188,3.44922 -2.23828,6.93359 -3.19141,10.44922 -0.95703,3.51953 -1.79687,7.0625 -2.52734,10.63281 -0.73047,3.57422 -1.34766,7.16406 -1.85156,10.77344 -0.50391,3.60937 -0.89453,7.23046 -1.17188,10.86718 -0.27344,3.63282 -0.43359,7.27344 -0.48047,10.91797 -0.043,3.64453 0.0234,7.28516 0.21094,10.92578 0.18359,3.64063 0.48438,7.26953 0.89844,10.89063 0.41015,3.62109 0.9414,7.22656 1.58203,10.8164 0.64062,3.58594 1.39453,7.15235 2.26172,10.69141 0.86719,3.53906 1.84375,7.05078 2.92969,10.52734 1.08984,3.48047 2.28515,6.91797 3.59375,10.32422 1.30468,3.40235 2.71484,6.75782 4.23437,10.07422 1.51563,3.3125 3.13672,6.57422 4.85938,9.78906 1.72265,3.21094 3.54687,6.36329 5.46875,9.46094 1.92578,3.09766 3.9414,6.12891 6.05859,9.09766 0.61719,0.86328 1.32422,1.64062 2.12891,2.33203 0.80468,0.69531 1.67578,1.28516 2.62109,1.76953 0.94141,0.48438 1.92969,0.85156 2.96094,1.10156 1.03125,0.25 2.07812,0.375 3.13672,0.37891 1.22656,0 2.42578,-0.16797 3.60546,-0.49609 1.17969,-0.33204 2.29297,-0.81641 3.33594,-1.45704 1.04688,-0.63671 1.98438,-1.40234 2.82031,-2.30078 0.83204,-0.89843 1.53125,-1.89062 2.08985,-2.98047 0.55859,-1.08984 0.96094,-2.23437 1.20703,-3.43359 0.24219,-1.19922 0.32031,-2.41016 0.23047,-3.63281 -0.0899,-1.21875 -0.34375,-2.40625 -0.76172,-3.5586 -0.41797,-1.15234 -0.98047,-2.22265 -1.69531,-3.21875 -1.78907,-2.51171 -3.49219,-5.07812 -5.11719,-7.69921 -1.625,-2.6211 -3.16797,-5.28907 -4.625,-8.00391 -1.45703,-2.71875 -2.82422,-5.48047 -4.10938,-8.28125 -1.28125,-2.80469 -2.47265,-5.64453 -3.57812,-8.52344 -1.10156,-2.8789 -2.11328,-5.79297 -3.03125,-8.73437 -0.92188,-2.94141 -1.74609,-5.91016 -2.47656,-8.90625 -0.73438,-2.9961 -1.3711,-6.00782 -1.91407,-9.04297 -0.53906,-3.03516 -0.98437,-6.08594 -1.33593,-9.14844 -0.34766,-3.0625 -0.60157,-6.13281 -0.75782,-9.21484 -0.15234,-3.07813 -0.21093,-6.16016 -0.17187,-9.24219 0.0391,-3.08203 0.17578,-6.16016 0.40625,-9.23438 0.23437,-3.07421 0.5625,-6.13671 0.99219,-9.1914 0.42578,-3.05469 0.94922,-6.08985 1.5664,-9.10938 0.61719,-3.01953 1.33203,-6.01953 2.14063,-8.99609 0.80469,-2.97266 1.70703,-5.92188 2.69922,-8.83984 0.99609,-2.91797 2.07812,-5.80079 3.2539,-8.65235 1.17578,-2.84765 2.44141,-5.66015 3.79297,-8.42969 1.35547,-2.76953 2.79297,-5.49609 4.31641,-8.17578 1.52734,-2.67968 3.13281,-5.30859 4.82422,-7.88672 1.6914,-2.57421 3.46093,-5.09765 5.3125,-7.5625 1.84765,-2.46875 3.77734,-4.875 5.77734,-7.21875 2.00391,-2.34375 4.07422,-4.62109 6.22266,-6.83593 2.14453,-2.21485 4.35937,-4.35938 6.64062,-6.4336 2.28125,-2.07422 4.625,-4.07422 7.03125,-6 2.40625,-1.92578 4.8711,-3.77343 7.39844,-5.54297 2.52344,-1.76953 5.09766,-3.46093 7.73047,-5.0664 2.6289,-1.60938 5.30859,-3.13281 8.03515,-4.57031 2.72657,-1.44141 5.4961,-2.78907 8.3086,-4.05469 2.8125,-1.26563 5.66015,-2.4375 8.54687,-3.52344 2.88672,-1.08203 5.80469,-2.07422 8.75391,-2.97656 2.94531,-0.89844 5.92187,-1.70313 8.92187,-2.41797 3,-0.71094 6.01563,-1.32813 9.05469,-1.84766"
       id="path25"
       inkscape:connector-curvature="0" />
    <g
       clip-path="url(#clip1)"
       id="g29"
       style="clip-rule:nonzero">
      <path
         style="fill:#199cd4;fill-opacity:1;fill-rule:nonzero;stroke:none"
         d="m 356.94531,613.57031 c -5.5039,-0.66406 -10.97265,-1.55469 -16.40625,-2.67578 -5.42969,-1.11719 -10.80469,-2.46094 -16.125,-4.03125 -5.3164,-1.56641 -10.5625,-3.35547 -15.73047,-5.35937 -5.17187,-2.00782 -10.25,-4.22657 -15.23437,-6.65625 -4.98438,-2.42969 -9.85938,-5.0625 -14.6211,-7.90235 -4.76562,-2.83594 -9.40625,-5.86719 -13.91796,-9.08984 -4.51172,-3.22656 -8.87891,-6.63281 -13.10547,-10.22266 -4.22657,-3.58984 -8.29688,-7.34765 -12.21094,-11.27734 -2.14453,-2.14063 -4.24219,-4.32813 -6.28906,-6.56641 -2.04688,-2.23437 -4.03907,-4.51562 -5.98438,-6.84375 -1.94531,-2.32422 -3.83203,-4.69531 -5.67187,-7.10547 -1.83594,-2.41015 -3.61719,-4.86328 -5.33985,-7.35547 -1.72656,-2.49218 -3.39453,-5.02343 -5.00781,-7.58984 -1.61328,-2.56641 -3.16406,-5.16797 -4.66016,-7.80469 -1.49218,-2.64062 -2.92578,-5.30859 -4.30078,-8.01172 -1.37109,-2.70312 -2.68359,-5.43359 -3.93359,-8.19531 -1.25,-2.76172 -2.4375,-5.55078 -3.5625,-8.36328 -1.125,-2.81641 -2.18359,-5.65625 -3.17969,-8.51953 -0.99609,-2.86328 -1.92969,-5.74609 -2.79297,-8.64844 -0.86718,-2.90625 -1.66797,-5.82812 -2.40234,-8.76953 -0.73047,-2.94141 -1.39844,-5.89844 -2,-8.87109 -0.60156,-2.96875 -1.13281,-5.95313 -1.59766,-8.94922 -0.46875,-2.9961 -0.86328,-6 -1.19531,-9.01172 -0.32812,-3.01172 -0.58984,-6.03125 -0.78516,-9.05859 -0.19531,-3.02344 -0.32031,-6.05079 -0.375,-9.08204 -0.0586,-3.03125 -0.0469,-6.0625 0.0352,-9.09375 0.0781,-3.02734 0.22656,-6.05468 0.44141,-9.07812 0.21875,-3.02344 0.5039,-6.04297 0.85547,-9.05078 0.35156,-3.01172 0.77343,-6.01172 1.26171,-9.00391 0.48829,-2.99219 1.04297,-5.97265 1.66797,-8.9375 0.6211,-2.96875 1.3125,-5.91797 2.06641,-8.85547 0.75781,-2.93359 1.57812,-5.85156 2.46484,-8.75 0.89063,-2.89843 1.84375,-5.77343 2.85938,-8.6289 1.01953,-2.85547 2.10156,-5.6875 3.24609,-8.49219 1.14453,-2.80859 2.35156,-5.58594 3.625,-8.33984 1.26953,-2.75 2.60156,-5.47266 3.9961,-8.16407 1.39453,-2.6914 2.84765,-5.35156 4.36328,-7.97656 1.51172,-2.625 3.08593,-5.21484 4.71484,-7.77344 1.63281,-2.55468 3.32031,-5.07031 5.06641,-7.55078 1.74218,-2.47656 3.54297,-4.91406 5.39843,-7.3125 0.53516,-0.6914 1,-1.42969 1.39063,-2.21094 0.39062,-0.78125 0.70312,-1.59375 0.93359,-2.4375 0.23047,-0.84375 0.37891,-1.70312 0.44141,-2.57421 0.0625,-0.8711 0.0391,-1.74219 -0.0703,-2.60938 -0.10938,-0.86719 -0.30078,-1.71875 -0.57813,-2.54687 -0.27734,-0.82813 -0.63281,-1.625 -1.0664,-2.38282 -0.42969,-0.76172 -0.9336,-1.47265 -1.50782,-2.13281 -0.57031,-0.66016 -1.20312,-1.25781 -1.89453,-1.79687 -0.6914,-0.53516 -1.42578,-1 -2.21094,-1.39063 -0.78125,-0.39062 -1.59375,-0.70312 -2.4375,-0.93359 -0.84375,-0.23047 -1.69921,-0.37891 -2.57421,-0.44141 -0.8711,-0.0625 -1.74219,-0.0391 -2.60938,0.0703 -0.86719,0.10938 -1.71484,0.30469 -2.54687,0.57813 -0.82813,0.27734 -1.625,0.63281 -2.38282,1.0664 -0.76172,0.42969 -1.47265,0.9336 -2.13281,1.50782 -0.66016,0.57422 -1.25781,1.20312 -1.79687,1.89453 -2.09766,2.71484 -4.13672,5.47656 -6.11329,8.28515 -1.97656,2.8086 -3.88671,5.65625 -5.73437,8.55079 -1.84766,2.89453 -3.62891,5.82812 -5.34375,8.80078 -1.71484,2.97656 -3.35938,5.98828 -4.9375,9.03515 -1.58203,3.05078 -3.08984,6.13282 -4.52734,9.25 -1.44141,3.11328 -2.8086,6.26172 -4.10547,9.44141 -1.29688,3.17969 -2.52344,6.38281 -3.67578,9.61719 -1.15235,3.23437 -2.23047,6.49218 -3.23829,9.77343 -1.0039,3.28516 -1.93359,6.58594 -2.79296,9.91407 -0.85547,3.32422 -1.63672,6.66406 -2.33985,10.02343 -0.70703,3.35938 -1.33594,6.73438 -1.88672,10.125 -0.55468,3.38672 -1.03125,6.78516 -1.42968,10.19532 -0.39844,3.41015 -0.72266,6.82812 -0.96875,10.25 -0.24219,3.42578 -0.41016,6.85156 -0.50391,10.28515 -0.0898,3.4336 -0.10156,6.86328 -0.0352,10.29688 0.0625,3.43359 0.20703,6.85937 0.42578,10.28906 0.21875,3.42578 0.51563,6.84375 0.89063,10.25781 0.37109,3.41016 0.82422,6.8125 1.35156,10.20703 0.52735,3.39063 1.12891,6.76954 1.8125,10.13282 0.67969,3.36718 1.4336,6.71484 2.26563,10.04687 0.83203,3.32813 1.73828,6.64063 2.71875,9.92969 0.98047,3.28906 2.03515,6.55469 3.16406,9.79687 1.12891,3.24219 2.32812,6.46094 3.60156,9.64844 1.27344,3.1875 2.61719,6.34375 4.03516,9.47266 1.41406,3.125 2.90234,6.21875 4.45703,9.28125 1.55469,3.05859 3.17969,6.08203 4.87109,9.07031 1.69532,2.98828 3.45313,5.93359 5.27735,8.83984 1.82812,2.91016 3.71484,5.77344 5.67187,8.59766 1.95313,2.82031 3.97266,5.59766 6.05078,8.32813 2.08203,2.73046 4.22266,5.41406 6.42578,8.04687 2.19922,2.63672 4.46094,5.21875 6.77735,7.75 2.3164,2.53516 4.6914,5.01172 7.12109,7.4375 4.4336,4.44922 9.04688,8.70313 13.83594,12.76953 4.78516,4.0625 9.73828,7.91797 14.84766,11.57031 5.10937,3.64844 10.36328,7.08204 15.76171,10.29297 5.39454,3.21094 10.91797,6.19141 16.5625,8.94532 5.64844,2.75 11.39844,5.26171 17.25391,7.53125 5.85547,2.26953 11.79297,4.29296 17.82031,6.07031 6.02344,1.77344 12.10938,3.29687 18.26172,4.5625 6.15235,1.26953 12.34375,2.27734 18.58203,3.02734 0.54688,0.0352 1.09766,0.0352 1.64453,0 0.83594,-0.008 1.66407,-0.0937 2.48438,-0.2539 0.82031,-0.16407 1.62109,-0.40235 2.39453,-0.71485 0.77734,-0.3164 1.51563,-0.69922 2.21875,-1.14844 0.70313,-0.45312 1.35938,-0.96875 1.96484,-1.54296 0.60547,-0.57813 1.15235,-1.20313 1.64063,-1.88282 0.48828,-0.67968 0.91016,-1.39843 1.26172,-2.15625 0.35156,-0.75781 0.63281,-1.54297 0.83594,-2.35547 0.20703,-0.80859 0.33593,-1.63281 0.38281,-2.46875 0.0508,-0.83203 0.0234,-1.66406 -0.082,-2.49609 -0.10938,-0.82812 -0.29297,-1.64062 -0.55078,-2.4375 -0.25782,-0.79297 -0.58985,-1.55859 -0.9961,-2.28906 -0.40234,-0.73438 -0.87109,-1.42188 -1.40234,-2.06641 -0.53516,-0.64453 -1.125,-1.23437 -1.76563,-1.76562 -0.64453,-0.53516 -1.33593,-1.00391 -2.0664,-1.40625 -0.73438,-0.40235 -1.4961,-0.73438 -2.29297,-0.9961 -0.79297,-0.25781 -1.60547,-0.4414 -2.4336,-0.55078"
         id="path27"
         inkscape:connector-curvature="0" />
    </g>
    <path
       style="fill:#199cd4;fill-opacity:1;fill-rule:nonzero;stroke:none"
       d="m 520.71875,577.83594 c -0.52344,-0.69922 -1.11328,-1.34375 -1.76172,-1.92578 -0.65234,-0.58594 -1.35156,-1.10157 -2.10547,-1.55079 -0.75,-0.44531 -1.53906,-0.8125 -2.36328,-1.10546 -0.82422,-0.28907 -1.67187,-0.5 -2.53516,-0.625 -0.86718,-0.125 -1.73437,-0.16407 -2.60937,-0.11719 -0.875,0.0469 -1.73438,0.17969 -2.58203,0.39453 -0.84766,0.21484 -1.66406,0.51172 -2.45313,0.89062 -0.78906,0.375 -1.53515,0.82422 -2.23437,1.35157 -6.9336,5.18359 -14.17578,9.89843 -21.71875,14.14843 -7.54297,4.25 -15.32813,7.9961 -23.35938,11.23829 -8.02734,3.24218 -16.23047,5.95312 -24.60937,8.13671 -8.37891,2.17969 -16.86328,3.8125 -25.45313,4.89844 -0.83984,0.0977 -1.66015,0.27344 -2.46093,0.52735 -0.80469,0.2539 -1.57422,0.58203 -2.31641,0.98437 -0.74219,0.39844 -1.4375,0.86719 -2.08984,1.40234 -0.65235,0.53125 -1.25,1.1211 -1.78907,1.76954 -0.53906,0.64453 -1.01562,1.33593 -1.42187,2.07421 -0.41016,0.73829 -0.7461,1.50391 -1.00781,2.30469 -0.26172,0.80078 -0.44922,1.6211 -0.55469,2.45703 -0.10547,0.83594 -0.13281,1.67188 -0.082,2.51563 0.0508,0.83984 0.18359,1.66797 0.39453,2.48437 0.20703,0.81641 0.49219,1.60547 0.85156,2.36719 0.35938,0.76172 0.78906,1.48438 1.28516,2.16406 0.49609,0.67969 1.05468,1.3086 1.66797,1.88282 0.61718,0.57421 1.28125,1.08593 1.99609,1.53515 0.71094,0.44922 1.46094,0.82422 2.24609,1.13281 0.78516,0.30469 1.58985,0.53516 2.41797,0.6875 0.83203,0.15235 1.66406,0.22657 2.50781,0.22266 0.5586,0.004 1.11329,-0.0273 1.66407,-0.0937 9.72656,-1.22656 19.33593,-3.07812 28.82031,-5.54687 9.48828,-2.47266 18.77734,-5.54297 27.86328,-9.21875 9.08984,-3.67188 17.90625,-7.91407 26.44531,-12.73047 8.53907,-4.8125 16.73438,-10.15625 24.58203,-16.03125 0.70313,-0.52344 1.34375,-1.10938 1.92969,-1.75782 0.58203,-0.64843 1.09766,-1.35156 1.54688,-2.10156 0.44531,-0.75 0.8125,-1.53906 1.10547,-2.36328 0.29296,-0.82422 0.5,-1.66797 0.625,-2.53125 0.125,-0.86719 0.16406,-1.73437 0.11718,-2.60547 -0.0469,-0.875 -0.17578,-1.73437 -0.39453,-2.58203 -0.21484,-0.84375 -0.51172,-1.66406 -0.88672,-2.45312 -0.3789,-0.78516 -0.82812,-1.53125 -1.35156,-2.23047"
       id="path31"
       inkscape:connector-curvature="0" />
    <path
       style="fill:#199cd4;fill-opacity:1;fill-rule:nonzero;stroke:none"
       d="m 257.83594,255.19922 c 2.03125,-1.58985 4.08984,-3.13281 6.17968,-4.64063 2.08985,-1.50781 4.21094,-2.97265 6.35547,-4.39843 2.14844,-1.42579 4.32032,-2.8125 6.51953,-4.15235 2.19922,-1.34375 4.42579,-2.64453 6.67579,-3.89844 2.24609,-1.25781 4.51953,-2.46875 6.8164,-3.64062 2.29688,-1.16797 4.61328,-2.29297 6.95313,-3.375 2.33984,-1.07813 4.69922,-2.11328 7.07812,-3.10547 2.37891,-0.98828 4.77735,-1.93359 7.19141,-2.83203 2.41797,-0.89453 4.84765,-1.74609 7.29687,-2.55078 2.44922,-0.80469 4.91016,-1.5625 7.38672,-2.26953 2.47656,-0.71094 4.96875,-1.375 7.46875,-1.98828 2.50391,-0.61329 5.01953,-1.17969 7.54297,-1.69532 2.52344,-0.51953 5.05859,-0.98828 7.59766,-1.40625 2.54297,-0.42187 5.09375,-0.79297 7.64843,-1.11328 2.5586,-0.32422 5.1211,-0.59765 7.6875,-0.82031 2.56641,-0.22656 5.13672,-0.39844 7.71094,-0.52344 2.57422,-0.125 5.14844,-0.20312 7.72656,-0.22656 2.57422,-0.0273 5.15235,-0.004 7.72657,0.0664 2.57812,0.0742 5.15234,0.19531 7.72265,0.36718 2.57032,0.17188 5.13672,0.39453 7.69922,0.66407 2.5625,0.26953 5.1211,0.58984 7.67188,0.95703 2.54687,0.36718 5.08984,0.78515 7.625,1.2539 2.53515,0.46485 5.05859,0.98047 7.57422,1.54297 2.51562,0.5625 5.01562,1.17188 7.50781,1.83203 2.49219,0.66016 4.96875,1.36719 7.43359,2.1211 2.46485,0.7539 4.91016,1.55468 7.34375,2.40234 2.4336,0.84766 4.85156,1.74219 7.25,2.68359 2.39844,0.94141 4.77735,1.92969 7.14063,2.96094 2.35937,1.03516 4.69922,2.10938 7.01953,3.23438 2.32031,1.12109 4.61719,2.28906 6.89062,3.5 2.27344,1.21093 4.52735,2.46484 6.75391,3.76172 2.22656,1.29687 4.42578,2.63671 6.60156,4.01562 0.87891,0.56641 1.6836,1.21875 2.41797,1.96484 0.73438,0.74219 1.375,1.5586 1.92578,2.44922 0.55078,0.88672 0.9961,1.82422 1.33985,2.8125 0.33984,0.98828 0.5664,2 0.68359,3.03907 0.11719,1.01562 0.11719,2.03515 0.004,3.05468 -0.11329,1.01563 -0.33985,2.00782 -0.67969,2.97657 -0.33985,0.96484 -0.78125,1.88281 -1.32813,2.74609 -0.54687,0.86719 -1.18359,1.66016 -1.91406,2.38281 l -0.45703,0.45703 c -0.56641,0.55469 -1.17578,1.0586 -1.82813,1.50782 -0.65234,0.45312 -1.33593,0.84375 -2.05468,1.17968 -0.71875,0.33203 -1.46094,0.60157 -2.22657,0.8125 -0.76562,0.20703 -1.54296,0.34766 -2.33203,0.42188 -0.78906,0.0742 -1.57812,0.082 -2.37109,0.0234 -0.78906,-0.0586 -1.57031,-0.1836 -2.33594,-0.375 -0.76953,-0.19532 -1.51953,-0.44922 -2.24219,-0.76954 -0.72656,-0.32031 -1.42187,-0.69921 -2.08203,-1.13671 -9.73828,-6.1875 -20,-11.33985 -30.78125,-15.45313 -10.78125,-4.10937 -21.86718,-7.10156 -33.2539,-8.97266 -0.86328,-0.14062 -1.73438,-0.19921 -2.60547,-0.16796 -0.875,0.0273 -1.73828,0.14062 -2.58985,0.33984 -0.85156,0.19922 -1.67578,0.47656 -2.47265,0.83984 -0.79688,0.35938 -1.55078,0.79297 -2.26172,1.30469 -0.71094,0.50781 -1.36719,1.08203 -1.96484,1.71875 -0.59766,0.64063 -1.12891,1.32813 -1.58985,2.07422 -0.46484,0.74219 -0.84765,1.52344 -1.15625,2.33984 -0.30859,0.82032 -0.53515,1.66016 -0.67578,2.52344 -0.14453,0.86328 -0.20312,1.73047 -0.17578,2.60547 0.0312,0.875 0.14453,1.73437 0.33984,2.58984 0.19922,0.85157 0.47657,1.67578 0.83985,2.47266 0.35937,0.79687 0.79297,1.55078 1.30468,2.26172 0.50782,0.71094 1.08204,1.36719 1.71875,1.96484 0.63672,0.59766 1.32813,1.12891 2.07032,1.58985 0.74218,0.46484 1.52343,0.84765 2.33984,1.16015 0.82031,0.3086 1.66016,0.53125 2.52344,0.67578 9.6289,1.57813 19,4.10547 28.12109,7.57422 9.11719,3.47266 17.79688,7.82031 26.03516,13.04688 3.30078,2.10937 6.82812,3.71875 10.58984,4.82422 3.75781,1.10546 7.59375,1.66015 11.51172,1.67187 2.66016,0.008 5.29297,-0.24609 7.90234,-0.75781 2.60938,-0.51563 5.14063,-1.28125 7.59766,-2.30078 2.45703,-1.01563 4.78906,-2.26563 6.99609,-3.7461 2.20704,-1.48047 4.2461,-3.16406 6.1211,-5.05078 l 0.45703,-0.46094 c 0.53125,-0.53515 1.04687,-1.08203 1.54687,-1.64453 0.5,-0.5664 0.98438,-1.14453 1.45313,-1.73437 0.46875,-0.58985 0.92187,-1.19531 1.35547,-1.8086 0.43359,-0.61718 0.85156,-1.24609 1.25,-1.88671 0.39844,-0.63672 0.78125,-1.28907 1.14453,-1.94922 0.36328,-0.66016 0.70703,-1.33203 1.03125,-2.01172 0.32812,-0.67969 0.63281,-1.36719 0.92187,-2.06641 0.28516,-0.69531 0.55079,-1.39844 0.80079,-2.11328 0.24609,-0.71094 0.47265,-1.42969 0.68359,-2.15625 0.20703,-0.72266 0.39453,-1.45312 0.55859,-2.1875 0.16797,-0.73828 0.3125,-1.47656 0.4375,-2.21875 0.125,-0.74219 0.23047,-1.49219 0.3125,-2.23828 0.0859,-0.75 0.14844,-1.5 0.1875,-2.25391 0.043,-0.7539 0.0625,-1.50781 0.0625,-2.26172 0,-0.7539 -0.0234,-1.50781 -0.0664,-2.25781 -0.043,-0.7539 -0.10547,-1.5039 -0.19141,-2.2539 -0.082,-0.75 -0.19141,-1.4961 -0.31641,-2.23829 -0.125,-0.74218 -0.27343,-1.48437 -0.4414,-2.21875 -0.16797,-0.73437 -0.35547,-1.46484 -0.56641,-2.1875 -0.20703,-0.72656 -0.4375,-1.44531 -0.68359,-2.15625 -0.25,-0.71093 -0.51953,-1.41406 -0.8086,-2.11328 -0.28906,-0.69531 -0.59375,-1.38281 -0.92187,-2.0625 -0.32813,-0.67968 -0.67188,-1.34765 -1.03516,-2.00781 -0.36718,-0.66016 -0.74609,-1.3125 -1.14843,-1.94922 -0.40235,-0.64062 -0.82032,-1.26562 -1.25391,-1.88281 -0.4375,-0.61328 -0.88672,-1.21484 -1.35938,-1.80859 -0.46875,-0.58985 -0.95312,-1.16407 -1.45703,-1.72657 -0.5,-0.5625 -1.01562,-1.11328 -1.55078,-1.64453 -0.53125,-0.53515 -1.07812,-1.05469 -1.63672,-1.55859 -0.5625,-0.50391 -1.13672,-0.98828 -1.72656,-1.46094 -0.58984,-0.47266 -1.19141,-0.92578 -1.80469,-1.36328 -0.61328,-0.4375 -1.23828,-0.85547 -1.875,-1.26172 -2.46484,-1.5625 -4.95703,-3.07812 -7.48047,-4.54687 -2.51953,-1.46875 -5.07031,-2.89063 -7.64453,-4.26172 -2.57812,-1.3711 -5.17968,-2.69141 -7.80468,-3.96094 -2.62891,-1.26953 -5.27735,-2.49219 -7.95313,-3.66016 -2.67187,-1.16797 -5.36719,-2.28515 -8.08594,-3.35156 -2.71484,-1.06641 -5.45312,-2.07812 -8.20703,-3.03906 -2.75781,-0.96094 -5.53125,-1.86719 -8.32031,-2.71875 -2.78906,-0.85547 -5.59766,-1.65625 -8.41797,-2.40235 -2.82031,-0.74609 -5.65625,-1.4375 -8.50391,-2.07421 -2.84765,-0.63672 -5.70703,-1.21875 -8.57421,-1.7461 -2.8711,-0.52734 -5.75,-1 -8.64063,-1.41797 -2.88672,-0.41406 -5.78125,-0.77734 -8.68359,-1.08203 -2.90235,-0.30469 -5.8086,-0.55469 -8.72266,-0.75 -2.91016,-0.1914 -5.82422,-0.33203 -8.74219,-0.41406 -2.91797,-0.082 -5.83593,-0.10547 -8.7539,-0.0781 -2.91797,0.0312 -5.83203,0.11719 -8.7461,0.26172 -2.91797,0.14063 -5.82812,0.33985 -8.73437,0.59375 -2.90625,0.25391 -5.8086,0.5625 -8.70313,0.92969 -2.89453,0.36328 -5.78125,0.78516 -8.66015,1.26172 -2.87891,0.47656 -5.75,1.00781 -8.60938,1.59375 -2.85547,0.58594 -5.70312,1.23047 -8.53906,1.92578 -2.83203,0.69531 -5.65234,1.44531 -8.45703,2.25 -2.80469,0.80469 -5.59375,1.66016 -8.36719,2.57422 -2.77344,0.91016 -5.52344,1.875 -8.26172,2.89062 -2.73437,1.01563 -5.44922,2.08594 -8.14453,3.20704 -2.69141,1.12109 -5.36328,2.29687 -8.01172,3.51953 -2.64844,1.22265 -5.27344,2.5 -7.875,3.82422 -2.60156,1.32421 -5.17578,2.69921 -7.72265,4.12109 -2.54688,1.42578 -5.06641,2.89844 -7.55469,4.41797 -2.49219,1.51953 -4.95313,3.08594 -7.38281,4.70312 -2.42969,1.61328 -4.82813,3.27735 -7.19532,4.98438 -2.36718,1.70703 -4.69922,3.45703 -7,5.2539 -0.6875,0.54297 -1.3164,1.14454 -1.88672,1.8086 -0.5664,0.66406 -1.0664,1.3789 -1.49609,2.14062 -0.42578,0.76172 -0.77734,1.5625 -1.05078,2.39063 -0.26953,0.83203 -0.45703,1.68359 -0.5625,2.55078 -0.10547,0.87109 -0.12109,1.74219 -0.0547,2.61328 0.0664,0.87109 0.21875,1.73047 0.45313,2.57031 0.23828,0.84375 0.55468,1.65625 0.94922,2.4375 0.39453,0.77735 0.86328,1.51172 1.40234,2.20313 0.54297,0.6875 1.14453,1.3164 1.80859,1.88281 0.66407,0.57031 1.37891,1.07031 2.14063,1.5 0.76172,0.42969 1.55859,0.77734 2.39062,1.05078 0.83203,0.27344 1.6836,0.46094 2.55078,0.56641 0.86719,0.10547 1.73829,0.12109 2.61329,0.0547 0.87109,-0.0664 1.72656,-0.21485 2.57031,-0.45313 0.84375,-0.23437 1.65625,-0.55078 2.43359,-0.94531 0.78125,-0.39453 1.51563,-0.86328 2.20313,-1.40235"
       id="path33"
       inkscape:connector-curvature="0" />
    <path
       style="fill:#0c2e35;fill-opacity:1;fill-rule:nonzero;stroke:none"
       d="m 746.40234,399.28125 c -0.86328,-0.89453 -1.86718,-1.58594 -3.01562,-2.06641 -1.14844,-0.47656 -2.34375,-0.71093 -3.58985,-0.69531 H 625.0625 c -1.24609,-0.0156 -2.44141,0.21875 -3.58984,0.69531 -1.14844,0.48047 -2.15235,1.17188 -3.01563,2.06641 -0.89062,0.87109 -1.57812,1.87891 -2.05859,3.03125 -0.48047,1.14844 -0.71485,2.34766 -0.70313,3.59375 v 173.55859 c 0.004,0.61328 0.0664,1.22266 0.19141,1.82422 0.12109,0.60156 0.30078,1.1836 0.53906,1.75 0.23828,0.57031 0.52734,1.10547 0.86719,1.61719 0.34375,0.51172 0.73047,0.98437 1.16406,1.41797 0.43359,0.43359 0.90625,0.82422 1.41797,1.16406 0.50781,0.34375 1.04687,0.63672 1.61328,0.875 0.56641,0.23828 1.14844,0.41797 1.75,0.54297 0.60156,0.125 1.21094,0.1875 1.82422,0.19531 h 21.77344 c 0.61328,-0.008 1.22265,-0.0742 1.82422,-0.19922 0.59765,-0.125 1.18359,-0.30859 1.75,-0.54687 0.5664,-0.23828 1.10546,-0.52735 1.61328,-0.8711 0.51172,-0.33984 0.98047,-0.73046 1.41797,-1.16406 0.43359,-0.43359 0.82031,-0.90625 1.16406,-1.41797 0.34375,-0.50781 0.63281,-1.04687 0.87109,-1.61328 0.23828,-0.5664 0.42188,-1.14844 0.54688,-1.75 0.125,-0.60156 0.1914,-1.21094 0.19531,-1.82422 v -59.39062 h 78.19922 c 0.61719,-0.008 1.22265,-0.0742 1.82422,-0.19922 0.60156,-0.125 1.1875,-0.30469 1.7539,-0.54297 0.56641,-0.23828 1.10157,-0.53125 1.61328,-0.87109 0.50782,-0.34375 0.98047,-0.73438 1.41407,-1.16797 0.4375,-0.4336 0.82422,-0.90625 1.16797,-1.41406 0.34375,-0.51172 0.63281,-1.05079 0.87109,-1.61719 0.23828,-0.56641 0.41797,-1.14844 0.54297,-1.75 0.125,-0.60156 0.1914,-1.21094 0.19922,-1.82422 v -19.08203 c -0.008,-0.61328 -0.0742,-1.22266 -0.19922,-1.82422 -0.125,-0.60156 -0.30469,-1.18359 -0.54297,-1.75 -0.23828,-0.56641 -0.52734,-1.10547 -0.87109,-1.61328 -0.34375,-0.51172 -0.73047,-0.98438 -1.16797,-1.41797 -0.4336,-0.43359 -0.90625,-0.82422 -1.41407,-1.16406 -0.51171,-0.34375 -1.04687,-0.63672 -1.61328,-0.875 -0.5664,-0.23828 -1.15234,-0.41797 -1.7539,-0.54297 -0.60157,-0.125 -1.20703,-0.19141 -1.82422,-0.19922 h -78.19922 v -47.86328 h 83.57812 c 0.61719,-0.004 1.22657,-0.0703 1.82813,-0.19141 0.60156,-0.125 1.1875,-0.30469 1.75391,-0.54297 0.5664,-0.23828 1.10546,-0.52734 1.61718,-0.87109 0.51172,-0.33984 0.98438,-0.73047 1.41797,-1.16406 0.4336,-0.4336 0.82422,-0.90625 1.16797,-1.41797 0.33984,-0.51172 0.63281,-1.05078 0.86719,-1.61719 0.23828,-0.56641 0.41797,-1.15234 0.54297,-1.75391 0.125,-0.60546 0.1875,-1.21093 0.1914,-1.82812 v -19.0625 c 0.0117,-1.24609 -0.22265,-2.44531 -0.70703,-3.59375 -0.48047,-1.14453 -1.17187,-2.15234 -2.07422,-3.01172 z m 0,0"
       id="path35"
       inkscape:connector-curvature="0" />
    <path
       style="fill:#0c2e35;fill-opacity:1;fill-rule:nonzero;stroke:none"
       d="m 829.91016,470.23437 c 0.67578,-12.09375 4.66406,-21.64453 11.83593,-28.39453 7.17188,-6.7539 16.85157,-10.15625 28.76172,-10.15625 11.91016,0 21.58985,3.42188 28.78125,10.15625 7.19141,6.73047 11.14063,16.30078 11.82031,28.44922 0.34766,4.44531 0.52735,11.98438 0.52735,22.39453 0,10.41016 -0.17969,18.29688 -0.54688,22.70703 -0.66015,12.09375 -4.64843,21.60938 -11.80078,28.25 -7.15625,6.64063 -16.87109,10.0625 -28.78125,10.0625 -11.91015,0 -21.60937,-3.38671 -28.78125,-10.0625 -7.17187,-6.67968 -11.14062,-16.15625 -11.8164,-28.21484 -0.34766,-8.83594 -0.53125,-16.46484 -0.53125,-22.74219 0,-6.27343 0.18359,-13.6289 0.53125,-22.44922 m 99.60546,-55.60156 c -13.61328,-13.79687 -33.44921,-20.78515 -59.00781,-20.78515 -25.55859,0 -45.41015,7.04296 -59.02344,20.92968 -13.61328,13.88672 -20.91406,31.96485 -22.10156,53.90235 -0.34765,8.19531 -0.55078,15.46093 -0.55078,21.58984 0,8.08594 0.20313,17.07031 0.55078,26.71094 1.09766,21.95703 8.54297,40.01562 22.10156,53.77344 13.5586,13.76171 33.46485,20.78515 59.02344,20.78515 25.5586,0 45.39453,-6.98828 59.00781,-20.78515 13.60938,-13.79297 21.00391,-31.85157 22.11719,-53.8086 0.34766,-9.76953 0.53125,-18.73437 0.53125,-26.67578 0,-6.07422 -0.18359,-13.13672 -0.54687,-21.60937 -1.09766,-22.10157 -8.52735,-40.25 -22.10157,-54.04688"
       id="path37"
       inkscape:connector-curvature="0" />
    <path
       style="fill:#0c2e35;fill-opacity:1;fill-rule:nonzero;stroke:none"
       d="m 1354.4844,399.28125 c -0.8672,-0.89844 -1.875,-1.58594 -3.0274,-2.06641 -1.1484,-0.48047 -2.3476,-0.71093 -3.5976,-0.69531 h -21.4961 c -1.2422,-0.0156 -2.4336,0.21875 -3.5781,0.69922 -1.1485,0.48047 -2.1485,1.16797 -3.0079,2.0625 -0.8984,0.86719 -1.5859,1.87891 -2.0703,3.02734 -0.4804,1.14844 -0.7187,2.34766 -0.7109,3.59766 v 108.80859 c 0,13.46485 -3.4766,23.41797 -10.3203,29.58203 -6.8438,6.16797 -16.6133,9.38672 -28.6524,9.38672 -12.039,0 -21.664,-3.16406 -28.3789,-9.38672 -6.7148,-6.21875 -10.0781,-16.13671 -10.0781,-29.60156 V 405.90625 c 0,-0.61719 -0.066,-1.22266 -0.1914,-1.82813 -0.1211,-0.60156 -0.3008,-1.18359 -0.5391,-1.7539 -0.2343,-0.56641 -0.5234,-1.10547 -0.8671,-1.61719 -0.3399,-0.50781 -0.7305,-0.98047 -1.1641,-1.41797 -0.4336,-0.43359 -0.9063,-0.82422 -1.4141,-1.16406 -0.5117,-0.34375 -1.0508,-0.63281 -1.6172,-0.87109 -0.5664,-0.23829 -1.1484,-0.41797 -1.75,-0.54297 -0.6054,-0.125 -1.2109,-0.1875 -1.8281,-0.19141 h -21.7695 c -0.6172,0.004 -1.2266,0.0664 -1.8281,0.19141 -0.6016,0.125 -1.1875,0.30468 -1.7539,0.54297 -0.5665,0.23437 -1.1055,0.52734 -1.6172,0.86718 -0.5118,0.34375 -0.9844,0.73438 -1.418,1.16797 -0.4336,0.4336 -0.8242,0.90625 -1.168,1.41797 -0.3398,0.51172 -0.6328,1.05078 -0.8672,1.61719 -0.2382,0.5664 -0.4179,1.15234 -0.5429,1.7539 -0.125,0.60157 -0.1875,1.21094 -0.1914,1.82813 v 110.14453 c 0,23.23438 6.8047,41.82422 20.2343,55.25391 13.4297,13.42968 33.1914,20.23437 58.75,20.23437 25.5586,0 45.1016,-6.85937 58.7305,-20.38281 13.6328,-13.51953 20.5117,-32.05469 20.5117,-55.10547 V 405.90625 c 0.012,-1.24609 -0.2226,-2.44531 -0.707,-3.59375 -0.4844,-1.14453 -1.1758,-2.15234 -2.0742,-3.01172 z m 0,0"
       id="path39"
       inkscape:connector-curvature="0" />
    <g
       clip-path="url(#clip2)"
       id="g43"
       style="clip-rule:nonzero">
      <path
         style="fill:#0c2e35;fill-opacity:1;fill-rule:nonzero;stroke:none"
         d="m 1590.8359,399.28125 c -0.8632,-0.89453 -1.8671,-1.58594 -3.0156,-2.06641 -1.1484,-0.47656 -2.3437,-0.71093 -3.5859,-0.69531 h -18.2969 c -1.4844,-0.10156 -2.9414,0.0703 -4.3633,0.50781 -1.4219,0.4375 -2.7187,1.11719 -3.8906,2.03516 -1.8516,1.66016 -3.5156,3.48828 -4.9922,5.48828 l -49.4023,85.68359 -49.3985,-85.68359 c -1.4765,-1.99609 -3.1367,-3.82422 -4.9765,-5.48828 -1.1758,-0.91797 -2.4766,-1.59766 -3.9024,-2.03516 -1.4258,-0.4375 -2.8828,-0.60547 -4.3711,-0.50781 h -18.2929 c -1.2422,-0.0156 -2.4375,0.21875 -3.5821,0.69922 -1.1445,0.48047 -2.1484,1.16797 -3.0078,2.0625 -0.8945,0.86719 -1.582,1.87891 -2.0664,3.02734 -0.4844,1.14844 -0.7187,2.34766 -0.7148,3.59766 v 173.55859 c 0.01,0.61328 0.07,1.22266 0.1953,1.82422 0.1211,0.60156 0.3008,1.1836 0.539,1.75 0.2344,0.57031 0.5274,1.10547 0.8672,1.61719 0.3438,0.51172 0.7305,0.98437 1.1641,1.41797 0.4336,0.43359 0.9062,0.82422 1.4141,1.16797 0.5117,0.33984 1.0468,0.63281 1.6132,0.87109 0.5664,0.23828 1.1524,0.41797 1.7539,0.54297 0.6016,0.125 1.2071,0.1875 1.8243,0.19531 h 21.7695 c 0.6172,-0.008 1.2226,-0.0742 1.8242,-0.19922 0.6016,-0.125 1.1875,-0.30859 1.7539,-0.54687 0.5664,-0.23828 1.1016,-0.52735 1.6133,-0.8711 0.5078,-0.33984 0.9805,-0.73046 1.4141,-1.16406 0.4375,-0.43359 0.8242,-0.90625 1.1679,-1.41797 0.3438,-0.50781 0.6328,-1.04687 0.8711,-1.61328 0.2383,-0.5664 0.418,-1.14844 0.543,-1.75 0.125,-0.60156 0.1914,-1.21094 0.1992,-1.82422 v -97.13672 l 31.1055,53.64454 c 3.2578,5.10546 7.207,7.70312 11.7109,7.70312 h 13.9961 c 4.5,0 8.4531,-2.59766 11.7617,-7.77344 l 31.0157,-53.57422 v 97.10157 c 0,0.61328 0.066,1.22265 0.1914,1.82422 0.1211,0.60156 0.3046,1.1875 0.539,1.7539 0.2383,0.56641 0.5313,1.10547 0.8711,1.61719 0.3438,0.51172 0.7305,0.98437 1.168,1.41797 0.4336,0.4375 0.9062,0.82422 1.418,1.16797 0.5117,0.33984 1.0507,0.63281 1.6171,0.87109 0.5664,0.23438 1.1524,0.41797 1.7539,0.53906 0.6016,0.125 1.211,0.1875 1.8243,0.19141 h 21.7578 c 0.6133,-0.004 1.2187,-0.0703 1.8203,-0.19531 0.6016,-0.125 1.1875,-0.3086 1.7539,-0.54688 0.5664,-0.23828 1.1016,-0.52734 1.6133,-0.87109 0.5078,-0.34375 0.9804,-0.73047 1.4179,-1.16406 0.4336,-0.4375 0.8204,-0.91016 1.1641,-1.41797 0.3438,-0.51172 0.6328,-1.04688 0.8711,-1.61328 0.2383,-0.56641 0.4219,-1.15235 0.5469,-1.75391 0.125,-0.60156 0.1914,-1.20703 0.1953,-1.82031 V 405.90625 c 0.01,-1.25 -0.2305,-2.44922 -0.7109,-3.59766 -0.4844,-1.14843 -1.1719,-2.16015 -2.0704,-3.02734"
         id="path41"
         inkscape:connector-curvature="0" />
    </g>
    <path
       style="fill:#0c2e35;fill-opacity:1;fill-rule:nonzero;stroke:none"
       d="m 644.03516,266.42969 c 3.66015,-3.65625 8.82031,-5.63282 15.53515,-5.63282 6.71485,0 11.85547,1.40625 15.38672,4.1875 1.65625,1.21875 3.03516,2.69532 4.125,4.4375 1.09375,1.74219 1.82813,3.625 2.20313,5.64454 0.10937,0.72656 0.35156,1.40625 0.72656,2.03906 0.37109,0.63281 0.85156,1.17578 1.43359,1.62109 1.0625,0.875 2.28125,1.32031 3.66016,1.33594 h 11.76562 c 0.72266,0.0195 1.42578,-0.10156 2.10547,-0.36328 0.67969,-0.25781 1.28125,-0.63672 1.8086,-1.13672 0.55468,-0.51563 0.96093,-1.12891 1.22656,-1.83594 0.26172,-0.70703 0.35547,-1.4375 0.27344,-2.1914 -0.21875,-2.97657 -0.79297,-5.88282 -1.72266,-8.72266 -0.92969,-2.83594 -2.18359,-5.52344 -3.76563,-8.05469 -1.80859,-2.83594 -3.96875,-5.37109 -6.48828,-7.60156 -2.51953,-2.22656 -5.29687,-4.06641 -8.33203,-5.51563 -3.8125,-1.78125 -7.77734,-3.09765 -11.89844,-3.94531 -4.12109,-0.84765 -8.28515,-1.20312 -12.49218,-1.0664 -13.33594,0 -23.92969,3.82031 -31.54297,11.3789 -7.60938,7.55469 -11.83594,17.65625 -12.625,30.09766 -0.19531,4.8789 -0.28906,8.96484 -0.28906,12.25781 0,3.29297 0.0937,7.38672 0.28906,12.27734 0.78906,12.40625 5.05078,22.52344 12.625,30.0625 7.57422,7.53516 18.20703,11.39844 31.54297,11.39844 4.20703,0.13281 8.37109,-0.22656 12.49218,-1.07422 4.1211,-0.85156 8.08985,-2.17187 11.89844,-3.95703 3.03125,-1.44922 5.8086,-3.28906 8.32813,-5.51172 2.51953,-2.22656 4.68359,-4.75781 6.49218,-7.58984 1.58204,-2.52734 2.83985,-5.21094 3.76954,-8.04297 0.92578,-2.83594 1.5,-5.74219 1.71875,-8.71875 0.0937,-0.75391 0.0117,-1.48828 -0.2461,-2.20312 -0.25781,-0.71485 -0.66406,-1.33594 -1.21875,-1.85547 -0.53125,-0.4961 -1.14062,-0.875 -1.82031,-1.13282 -0.67969,-0.26171 -1.38281,-0.38281 -2.11328,-0.36718 H 687.125 c -1.39453,-0.008 -2.61719,0.44922 -3.66016,1.37109 -1.16015,0.95313 -1.84375,2.17188 -2.05078,3.66016 -0.37109,2.03515 -1.11328,3.92578 -2.21875,5.67187 -1.10937,1.7461 -2.5039,3.22266 -4.18359,4.42578 -3.66016,2.78125 -8.78125,4.19141 -15.46094,4.19141 -6.67969,0 -11.92969,-1.83203 -15.53516,-5.63672 -1.875,-2.02344 -3.33203,-4.3125 -4.37109,-6.86719 -1.03906,-2.55468 -1.59375,-5.21093 -1.66406,-7.97265 -0.20313,-4.8086 -0.29297,-8.83594 -0.29297,-12.10938 0,-3.27734 0.0898,-7.32031 0.29297,-12.11328 0.0664,-2.76172 0.62109,-5.42187 1.66406,-7.98047 1.03906,-2.55859 2.49609,-4.84765 4.37109,-6.875"
       id="path45"
       inkscape:connector-curvature="0" />
    <path
       style="fill:#0c2e35;fill-opacity:1;fill-rule:nonzero;stroke:none"
       d="m 758.57031,241.14453 h -11.76562 c -0.71875,0 -1.41016,0.13672 -2.07422,0.41797 -0.66406,0.27734 -1.2461,0.67578 -1.75,1.19141 -0.51563,0.5 -0.91406,1.07812 -1.1875,1.73828 -0.27735,0.66406 -0.41406,1.35156 -0.40235,2.07031 v 93.73047 c 0,0.36328 0.0352,0.71875 0.10547,1.07031 0.0703,0.35547 0.17578,0.69922 0.3125,1.03125 0.13672,0.33203 0.30469,0.64844 0.50782,0.94922 0.19921,0.30078 0.42578,0.57812 0.68359,0.83203 0.25391,0.25391 0.53125,0.48047 0.82812,0.68359 0.30079,0.19922 0.61719,0.36719 0.94922,0.50391 0.33594,0.14063 0.67578,0.24219 1.03125,0.3125 0.35157,0.0703 0.71094,0.10547 1.07032,0.10547 h 11.76562 c 0.35938,0 0.71484,-0.0352 1.07031,-0.10547 0.35157,-0.0703 0.69532,-0.17187 1.03125,-0.3125 0.33203,-0.13672 0.64844,-0.30469 0.94532,-0.50391 0.30078,-0.20312 0.57812,-0.42968 0.83203,-0.68359 0.25781,-0.25391 0.48437,-0.53125 0.68359,-0.83203 0.19922,-0.30078 0.37109,-0.61719 0.50781,-0.94922 0.13672,-0.33203 0.24219,-0.67578 0.3125,-1.03125 0.0703,-0.35156 0.10547,-0.70703 0.10547,-1.07031 V 246.5625 c 0,-0.36328 -0.0351,-0.71875 -0.10547,-1.07031 -0.0703,-0.35547 -0.17578,-0.69922 -0.3125,-1.03125 -0.13672,-0.33203 -0.30859,-0.64844 -0.50781,-0.94922 -0.19922,-0.30078 -0.42578,-0.57813 -0.68359,-0.83203 -0.25391,-0.25391 -0.53125,-0.48047 -0.83203,-0.6836 -0.29688,-0.19922 -0.61329,-0.36718 -0.94532,-0.5039 -0.33593,-0.14063 -0.67968,-0.24219 -1.03125,-0.3125 -0.35547,-0.0703 -0.71093,-0.10547 -1.07031,-0.10547"
       id="path47"
       inkscape:connector-curvature="0" />
    <path
       style="fill:#0c2e35;fill-opacity:1;fill-rule:nonzero;stroke:none"
       d="m 876.5625,241.14453 h -71.84766 c -0.35937,0 -0.71875,0.0352 -1.07031,0.10547 -0.35547,0.0703 -0.69922,0.17578 -1.03125,0.3125 -0.33203,0.14062 -0.64844,0.30859 -0.94922,0.50781 -0.30078,0.19922 -0.57422,0.42969 -0.83203,0.6836 -0.25391,0.2539 -0.48047,0.53125 -0.67969,0.83203 -0.20312,0.30078 -0.37109,0.61328 -0.50781,0.94922 -0.14062,0.33203 -0.24219,0.67578 -0.3125,1.02734 -0.0703,0.35547 -0.10547,0.71094 -0.10547,1.07031 v 10.30078 c 0,0.36328 0.0352,0.71875 0.10547,1.07422 0.0703,0.35156 0.17188,0.69531 0.3125,1.02735 0.13672,0.33203 0.30469,0.64843 0.50391,0.94921 0.20312,0.30079 0.42968,0.57813 0.68359,0.83204 0.25781,0.2539 0.53125,0.48437 0.83203,0.68359 0.30078,0.19922 0.61719,0.36719 0.94922,0.50781 0.33203,0.13672 0.67578,0.24219 1.03125,0.3125 0.35156,0.0703 0.71094,0.10547 1.07031,0.10547 h 24.60938 v 77.86719 c 0,0.36328 0.0352,0.71875 0.10547,1.07031 0.0703,0.35547 0.17187,0.69922 0.3125,1.03125 0.13672,0.33203 0.30468,0.64844 0.5039,0.94922 0.20313,0.30078 0.42969,0.57812 0.6836,0.83203 0.2539,0.25391 0.53125,0.48047 0.83203,0.68359 0.30078,0.19922 0.61719,0.36719 0.94922,0.50391 0.33203,0.14063 0.67578,0.24219 1.03125,0.3125 0.35156,0.0703 0.71093,0.10547 1.07031,0.10547 h 11.74609 c 0.71875,0.0117 1.41016,-0.125 2.07422,-0.39844 0.66406,-0.27734 1.25,-0.67578 1.75,-1.1914 0.52344,-0.4961 0.92578,-1.07813 1.20313,-1.74219 0.28125,-0.66797 0.41797,-1.35938 0.40625,-2.08203 v -78.08985 h 24.57031 c 0.36328,0 0.71875,-0.0351 1.07422,-0.10547 0.35156,-0.0703 0.69531,-0.17187 1.02734,-0.3125 0.33203,-0.13671 0.64844,-0.30468 0.94922,-0.50781 0.30078,-0.19922 0.57813,-0.42578 0.83203,-0.67969 0.25391,-0.25781 0.48438,-0.53515 0.6836,-0.83203 0.19921,-0.30078 0.36718,-0.61718 0.50781,-0.94922 0.13672,-0.33203 0.24219,-0.67578 0.3125,-1.03125 0.0703,-0.35156 0.10547,-0.71093 0.10547,-1.07031 V 246.5625 c 0.008,-0.71875 -0.125,-1.40625 -0.40235,-2.07031 -0.27734,-0.66016 -0.67187,-1.23828 -1.1914,-1.73828 -0.5,-0.51954 -1.08203,-0.91797 -1.7461,-1.19922 -0.66406,-0.27735 -1.35547,-0.41407 -2.07812,-0.41016"
       id="path49"
       inkscape:connector-curvature="0" />
    <path
       style="fill:#0c2e35;fill-opacity:1;fill-rule:nonzero;stroke:none"
       d="m 999.91797,241.14453 h -10.86719 c -1.83984,-0.0625 -3.49219,0.46094 -4.95703,1.57422 -1.01953,0.76562 -1.83594,1.70312 -2.45313,2.81641 l -22.19531,38.77343 -22.15625,-38.71875 c -0.62109,-1.16015 -1.45703,-2.14453 -2.5039,-2.94531 -1.46094,-1.11719 -3.10547,-1.64062 -4.94141,-1.57031 h -10.86719 c -0.36328,0 -0.71875,0.0352 -1.07031,0.10547 -0.35547,0.0703 -0.69922,0.17187 -1.03125,0.3125 -0.33203,0.13672 -0.64844,0.30468 -0.94922,0.5039 -0.30078,0.20313 -0.57812,0.42969 -0.83203,0.6836 -0.25391,0.2539 -0.48047,0.53125 -0.68359,0.83203 -0.19922,0.30078 -0.36719,0.61719 -0.50782,0.94922 -0.13672,0.33203 -0.23828,0.67578 -0.3125,1.03125 -0.0664,0.35156 -0.10156,0.70703 -0.10156,1.07031 -0.008,0.71875 0.14844,1.40234 0.47266,2.04687 l 34.19531,60.16016 v 31.52344 c 0,0.36328 0.0352,0.71875 0.10547,1.07031 0.0703,0.35547 0.17578,0.69922 0.3125,1.03125 0.14062,0.33203 0.30859,0.64844 0.50781,0.94922 0.20313,0.30078 0.42969,0.57812 0.68359,0.83203 0.25391,0.25391 0.53125,0.48047 0.83204,0.68359 0.30078,0.19922 0.61718,0.36719 0.94921,0.50391 0.33204,0.14063 0.67579,0.24219 1.02735,0.3125 0.35547,0.0703 0.71094,0.10547 1.07422,0.10547 h 11.59765 c 0.71875,0.0117 1.41407,-0.125 2.07813,-0.39844 0.66406,-0.27734 1.24609,-0.67578 1.74609,-1.1914 0.51172,-0.50391 0.90625,-1.08594 1.1836,-1.75 0.27734,-0.66407 0.41406,-1.35547 0.41015,-2.07422 v -31.59766 l 34.25004,-60.23047 c 0.3007,-0.625 0.4492,-1.28515 0.4375,-1.97656 0.012,-0.71875 -0.125,-1.41016 -0.4024,-2.07422 -0.2812,-0.66016 -0.6836,-1.23828 -1.207,-1.73437 -0.5,-0.51954 -1.082,-0.91797 -1.7461,-1.19922 -0.6641,-0.27735 -1.3555,-0.41407 -2.07813,-0.41016"
       id="path51"
       inkscape:connector-curvature="0" />
    <path
       style="fill:#0c2e35;fill-opacity:1;fill-rule:nonzero;stroke:none"
       d="m 1161.3672,313.74609 c 0.074,1.4961 -0.1797,2.92969 -0.7617,4.3086 -0.5821,1.38281 -1.4297,2.5664 -2.5508,3.55859 -2.2695,1.95703 -5.8203,2.96484 -10.5586,2.96484 h -25.3398 v -21.80859 h 25.3398 c 1.8633,-0.13281 3.6914,0.0664 5.4805,0.59375 1.789,0.52344 3.4336,1.34375 4.9297,2.46094 1.1601,0.98047 2.0468,2.16797 2.6523,3.55859 0.6094,1.39063 0.8789,2.84766 0.8086,4.36328 m -39.2109,-32.1289 v -19.33985 h 24.1875 c 4.5546,0 7.9414,0.82422 10.0273,2.45313 0.5234,0.44531 0.9883,0.94531 1.3945,1.5 0.4024,0.55859 0.7344,1.15625 0.9961,1.79297 0.2578,0.63672 0.4375,1.29687 0.5391,1.97656 0.1015,0.67969 0.1172,1.36328 0.051,2.04687 0.1132,1.3711 -0.094,2.6875 -0.6211,3.95704 -0.5274,1.26953 -1.3125,2.34765 -2.3594,3.23437 -2.0859,1.60938 -5.4883,2.43359 -10.0273,2.43359 z m 50.8085,9.3125 c 2.0899,-1.85157 3.8868,-3.95313 5.379,-6.3125 1.2656,-2 2.2109,-4.14063 2.8359,-6.42188 0.625,-2.28125 0.8984,-4.60547 0.8242,-6.96875 -0.047,-4.84765 -1.1836,-9.42187 -3.4219,-13.72265 -1.2656,-2.42969 -2.8476,-4.63282 -4.7422,-6.61329 -1.8945,-1.97656 -4.0273,-3.65234 -6.3984,-5.02343 -2.9844,-1.67578 -6.1367,-2.91407 -9.4648,-3.71485 -3.3243,-0.80078 -6.6953,-1.13672 -10.1133,-1.00781 h -42.8672 c -0.3633,0 -0.7188,0.0352 -1.0703,0.10547 -0.3555,0.0703 -0.6992,0.17578 -1.0313,0.3125 -0.332,0.14062 -0.6484,0.30859 -0.9492,0.50781 -0.3008,0.19922 -0.5781,0.42969 -0.832,0.6836 -0.2539,0.2539 -0.4805,0.53125 -0.6836,0.83203 -0.1992,0.30078 -0.3672,0.61328 -0.5078,0.94922 -0.1367,0.33203 -0.2422,0.67578 -0.3125,1.02734 -0.066,0.35547 -0.1016,0.71094 -0.1016,1.07031 v 93.66016 c 0,0.36328 0.035,0.71875 0.1016,1.07031 0.07,0.35547 0.1758,0.69922 0.3125,1.03125 0.1406,0.33203 0.3086,0.64844 0.5078,0.94922 0.2031,0.30078 0.4297,0.57812 0.6836,0.83203 0.2539,0.25391 0.5312,0.48047 0.832,0.68359 0.3008,0.19922 0.6172,0.36719 0.9492,0.50391 0.3321,0.14063 0.6758,0.24219 1.0313,0.3125 0.3515,0.0703 0.707,0.10547 1.0703,0.10547 h 46.125 c 3.0977,0.0781 6.1484,-0.28125 9.1484,-1.07031 3,-0.78907 5.8282,-1.98047 8.4883,-3.57422 2.3985,-1.46094 4.5586,-3.21485 6.4844,-5.25781 1.9258,-2.04297 3.543,-4.30079 4.8594,-6.78125 2.5586,-4.79688 3.8398,-9.91407 3.8437,-15.35157 0.051,-2.51953 -0.2305,-5 -0.8515,-7.4414 -0.6211,-2.44141 -1.5586,-4.75391 -2.8086,-6.94141 -1.9141,-3.27344 -4.3555,-6.09766 -7.3204,-8.46875"
       id="path53"
       inkscape:connector-curvature="0" />
    <path
       style="fill:#0c2e35;fill-opacity:1;fill-rule:nonzero;stroke:none"
       d="m 1239.3438,241.14453 h -11.7618 c -0.7226,0 -1.414,0.13672 -2.0781,0.41797 -0.6641,0.27734 -1.2461,0.67578 -1.7461,1.19141 -0.5195,0.5 -0.914,1.07812 -1.1914,1.73828 -0.2773,0.66406 -0.4101,1.35156 -0.4023,2.07031 v 93.73047 c 0,0.36328 0.035,0.71875 0.1054,1.07031 0.07,0.35547 0.1758,0.69922 0.3125,1.03125 0.1368,0.33203 0.3086,0.64844 0.5078,0.94922 0.1993,0.30078 0.4297,0.57812 0.6836,0.83203 0.2539,0.25391 0.5313,0.48047 0.8321,0.68359 0.2968,0.19922 0.6133,0.36719 0.9492,0.50391 0.332,0.14063 0.6758,0.24219 1.0273,0.3125 0.3555,0.0703 0.711,0.10547 1.0703,0.10547 h 11.7657 c 0.3593,0 0.7187,-0.0352 1.0703,-0.10547 0.3555,-0.0703 0.6992,-0.17187 1.0312,-0.3125 0.3321,-0.13672 0.6485,-0.30469 0.9493,-0.50391 0.3007,-0.20312 0.5781,-0.42968 0.832,-0.68359 0.2539,-0.25391 0.4805,-0.53125 0.6797,-0.83203 0.2031,-0.30078 0.3711,-0.61719 0.5078,-0.94922 0.1406,-0.33203 0.2422,-0.67578 0.3125,-1.03125 0.07,-0.35156 0.1055,-0.70703 0.1055,-1.07031 V 246.5625 c 0,-0.36328 -0.035,-0.71875 -0.1055,-1.07031 -0.07,-0.35547 -0.1719,-0.69922 -0.3125,-1.03125 -0.1367,-0.33203 -0.3047,-0.64844 -0.5078,-0.94922 -0.1992,-0.30078 -0.4258,-0.57813 -0.6797,-0.83203 -0.2539,-0.25391 -0.5313,-0.48047 -0.832,-0.6836 -0.3008,-0.19922 -0.6172,-0.36718 -0.9493,-0.5039 -0.332,-0.14063 -0.6757,-0.24219 -1.0312,-0.3125 -0.3516,-0.0703 -0.711,-0.10547 -1.0703,-0.10547"
       id="path55"
       inkscape:connector-curvature="0" />
    <path
       style="fill:#0c2e35;fill-opacity:1;fill-rule:nonzero;stroke:none"
       d="m 1349.1055,313.74609 c 0.07,1.4961 -0.1836,2.9336 -0.7696,4.3125 -0.582,1.37891 -1.4375,2.5625 -2.5586,3.55469 -2.2695,1.95703 -5.8203,2.96484 -10.539,2.96484 h -25.3438 v -21.80859 h 25.3438 c 1.8594,-0.12891 3.6875,0.0742 5.4765,0.59766 1.7891,0.52734 3.4336,1.34375 4.9336,2.45703 1.1602,0.98047 2.043,2.16797 2.6485,3.55859 0.6094,1.39063 0.8789,2.84766 0.8086,4.36328 m -39.211,-32.1289 v -19.33985 h 24.1719 c 4.5547,0 7.9414,0.82422 10.0274,2.45313 0.5273,0.4414 0.9921,0.9414 1.3984,1.5 0.4062,0.55469 0.7383,1.15234 0.9961,1.78906 0.2617,0.63672 0.4414,1.29688 0.539,1.98047 0.098,0.67969 0.1133,1.36328 0.047,2.04687 0.1172,1.3711 -0.09,2.69141 -0.6172,3.96094 -0.5234,1.26953 -1.3125,2.34375 -2.3632,3.23047 -2.086,1.60938 -5.4922,2.43359 -10.0274,2.43359 z m 50.793,9.3125 c 2.0898,-1.85157 3.8828,-3.95313 5.3789,-6.3125 1.2656,-2 2.2109,-4.14063 2.832,-6.42188 0.625,-2.28125 0.8985,-4.60547 0.8282,-6.96875 -0.066,-4.84375 -1.2071,-9.41797 -3.4219,-13.72265 -1.2734,-2.42579 -2.8633,-4.62891 -4.7578,-6.60938 -1.8985,-1.97656 -4.0313,-3.65234 -6.4024,-5.02734 -2.9804,-1.67578 -6.1328,-2.91016 -9.4531,-3.71485 -3.3242,-0.80078 -6.6914,-1.13672 -10.1055,-1.00781 h -42.8164 c -0.7187,-0.004 -1.4101,0.13281 -2.0742,0.41406 -0.664,0.28125 -1.2461,0.67969 -1.75,1.19532 -0.5156,0.5 -0.914,1.07812 -1.1914,1.73828 -0.2734,0.66406 -0.4101,1.35156 -0.3984,2.07031 v 93.73047 c 0,0.36328 0.035,0.71875 0.1054,1.07031 0.07,0.35547 0.1758,0.69922 0.3125,1.03125 0.1368,0.33203 0.3047,0.64844 0.5079,0.94922 0.1992,0.30078 0.4257,0.57812 0.6796,0.83203 0.2579,0.25391 0.5352,0.48047 0.8321,0.68359 0.3008,0.19922 0.6172,0.36719 0.9492,0.50391 0.3359,0.14063 0.6758,0.24219 1.0312,0.3125 0.3516,0.0703 0.711,0.10547 1.0704,0.10547 h 46.1445 c 3.0976,0.0742 6.1445,-0.28125 9.1406,-1.07031 2.9922,-0.79297 5.8203,-1.98438 8.4766,-3.57422 2.3984,-1.46094 4.5586,-3.21485 6.4843,-5.25781 1.9258,-2.04297 3.5469,-4.30079 4.8594,-6.78125 2.5703,-4.76954 3.8633,-9.86329 3.8789,-15.27735 0.051,-2.51172 -0.2343,-4.98828 -0.8554,-7.42187 -0.6211,-2.4336 -1.5547,-4.74219 -2.8008,-6.92188 -1.918,-3.27734 -4.3555,-6.10156 -7.3203,-8.47265"
       id="path57"
       inkscape:connector-curvature="0" />
    <path
       style="fill:#0c2e35;fill-opacity:1;fill-rule:nonzero;stroke:none"
       d="m 1478.8438,324.57812 h -46.3633 V 246.5625 c 0,-0.36328 -0.035,-0.71875 -0.1055,-1.07031 -0.07,-0.35547 -0.1719,-0.69922 -0.3125,-1.03125 -0.1367,-0.33203 -0.3047,-0.64844 -0.5039,-0.94922 -0.2031,-0.30078 -0.4297,-0.57813 -0.6836,-0.83203 -0.2539,-0.25391 -0.5312,-0.48047 -0.832,-0.6836 -0.3008,-0.19922 -0.6172,-0.36718 -0.9492,-0.5039 -0.3321,-0.14063 -0.6758,-0.24219 -1.0313,-0.3125 -0.3516,-0.0703 -0.707,-0.10547 -1.0703,-0.10547 h -11.7617 c -0.7227,-0.004 -1.4141,0.13281 -2.0782,0.41406 -0.664,0.28125 -1.246,0.67578 -1.746,1.19531 -0.5196,0.4961 -0.918,1.07422 -1.1915,1.73828 -0.2773,0.66016 -0.4101,1.34766 -0.4023,2.06641 v 93.80469 c 0,0.36328 0.035,0.71875 0.1055,1.07031 0.07,0.35547 0.1758,0.69922 0.3125,1.03125 0.1367,0.33203 0.3086,0.64844 0.5078,0.94922 0.1992,0.30078 0.4258,0.57812 0.6836,0.83203 0.2539,0.25391 0.5312,0.48047 0.832,0.68359 0.2969,0.19922 0.6133,0.36719 0.9453,0.50391 0.336,0.14063 0.6797,0.24219 1.0313,0.3125 0.3554,0.0703 0.7109,0.10547 1.0703,0.10547 h 63.543 c 0.7226,0.0117 1.414,-0.125 2.0781,-0.39844 0.664,-0.27734 1.2461,-0.67578 1.7461,-1.1914 0.5234,-0.4961 0.9258,-1.07813 1.207,-1.74219 0.2773,-0.66797 0.4141,-1.35938 0.4023,-2.08203 v -10.375 c 0,-0.35938 -0.035,-0.71485 -0.1054,-1.07032 -0.07,-0.35156 -0.1719,-0.69531 -0.3125,-1.03125 -0.1367,-0.33203 -0.3047,-0.64843 -0.5039,-0.94531 -0.2032,-0.30078 -0.4297,-0.57812 -0.6836,-0.83203 -0.2539,-0.25781 -0.5313,-0.48437 -0.8321,-0.68359 -0.3007,-0.19922 -0.6171,-0.3711 -0.9492,-0.50782 -0.332,-0.13671 -0.6758,-0.24218 -1.0312,-0.3125 -0.3516,-0.0703 -0.7071,-0.10546 -1.0703,-0.10546"
       id="path59"
       inkscape:connector-curvature="0" />
    <g
       clip-path="url(#clip3)"
       id="g63"
       style="clip-rule:nonzero">
      <path
         style="fill:#0c2e35;fill-opacity:1;fill-rule:nonzero;stroke:none"
         d="m 1592.2461,326.16797 c -0.5,-0.51563 -1.082,-0.91406 -1.7461,-1.1875 -0.6641,-0.27735 -1.3594,-0.41406 -2.0781,-0.40235 h -46.5274 V 303.5 h 42.1719 c 0.3633,0 0.7188,-0.0352 1.0703,-0.10547 0.3555,-0.0703 0.6992,-0.17578 1.0313,-0.3125 0.332,-0.13672 0.6484,-0.30859 0.9492,-0.50781 0.3008,-0.19922 0.5781,-0.42578 0.832,-0.6836 0.2539,-0.2539 0.4805,-0.53125 0.6836,-0.83203 0.1992,-0.29687 0.3672,-0.61328 0.5078,-0.94531 0.1367,-0.33594 0.2383,-0.67969 0.3086,-1.03125 0.07,-0.35547 0.1055,-0.71094 0.1094,-1.07031 v -10.2461 c 0,-0.35937 -0.039,-0.71875 -0.1055,-1.07031 -0.074,-0.35547 -0.1758,-0.69922 -0.3125,-1.03125 -0.1406,-0.33203 -0.3086,-0.64844 -0.5078,-0.94922 -0.2031,-0.30078 -0.4297,-0.57812 -0.6836,-0.83203 -0.2539,-0.2539 -0.5312,-0.48047 -0.832,-0.68359 -0.3008,-0.19922 -0.6172,-0.36719 -0.9492,-0.50391 -0.3321,-0.14062 -0.6758,-0.24219 -1.0313,-0.3125 -0.3515,-0.0703 -0.707,-0.10547 -1.0703,-0.10547 h -42.1719 v -20.1289 h 45.375 c 0.3594,0 0.7188,-0.0352 1.0703,-0.10547 0.3555,-0.0703 0.6954,-0.17188 1.0313,-0.3125 0.332,-0.13672 0.6484,-0.30469 0.9492,-0.50391 0.2969,-0.20312 0.5742,-0.42969 0.832,-0.68359 0.254,-0.25391 0.4805,-0.53125 0.6797,-0.83203 0.2032,-0.30078 0.3711,-0.61719 0.5078,-0.94922 0.1407,-0.33203 0.2422,-0.67578 0.3125,-1.03125 0.07,-0.35156 0.1055,-0.71094 0.1055,-1.07031 V 246.5625 c 0,-0.36328 -0.035,-0.71875 -0.1055,-1.07031 -0.07,-0.35547 -0.1718,-0.69922 -0.3125,-1.03125 -0.1367,-0.33203 -0.3046,-0.64844 -0.5078,-0.94922 -0.1992,-0.30078 -0.4257,-0.57813 -0.6797,-0.83203 -0.2578,-0.25391 -0.5351,-0.48047 -0.832,-0.6836 -0.3008,-0.19922 -0.6172,-0.36718 -0.9492,-0.5039 -0.3359,-0.14063 -0.6758,-0.24219 -1.0313,-0.3125 -0.3515,-0.0703 -0.7109,-0.10547 -1.0703,-0.10547 h -62.5351 c -0.7188,-0.004 -1.4102,0.13281 -2.0742,0.40625 -0.6641,0.27734 -1.2461,0.67187 -1.75,1.18359 -0.5196,0.5 -0.9141,1.08594 -1.1914,1.75 -0.2774,0.66406 -0.4102,1.35547 -0.4024,2.07422 v 93.80469 c 0,0.36328 0.035,0.71875 0.1055,1.07031 0.07,0.35547 0.1758,0.69922 0.3125,1.03125 0.1367,0.33203 0.3086,0.64844 0.5078,0.94922 0.1992,0.30078 0.4258,0.57812 0.6836,0.83203 0.2539,0.25391 0.5312,0.48047 0.832,0.68359 0.2969,0.19922 0.6133,0.36719 0.9492,0.50391 0.3321,0.14063 0.6758,0.24219 1.0274,0.3125 0.3554,0.0703 0.7109,0.10547 1.0703,0.10547 h 63.6914 c 0.3594,0 0.7148,-0.0352 1.0703,-0.10547 0.3516,-0.0703 0.6953,-0.17187 1.0313,-0.3125 0.332,-0.13672 0.6484,-0.30469 0.9453,-0.50391 0.3008,-0.20312 0.5781,-0.42968 0.832,-0.68359 0.2578,-0.25391 0.4844,-0.53125 0.6836,-0.83203 0.1992,-0.30078 0.3711,-0.61719 0.5078,-0.94922 0.1367,-0.33203 0.2422,-0.67578 0.3125,-1.03125 0.07,-0.35156 0.1055,-0.70703 0.1055,-1.07031 v -10.30078 c 0,-0.71875 -0.1328,-1.41407 -0.4141,-2.07813 -0.2773,-0.66406 -0.6758,-1.24609 -1.1953,-1.74609"
         id="path61"
         inkscape:connector-curvature="0" />
    </g>
    <path
       style="fill:#0c2e35;fill-opacity:1;fill-rule:nonzero;stroke:none"
       d="m 1153.4805,576.8125 -34.0313,-60.92969 c -0.1211,-0.20703 -0.2148,-0.42578 -0.2929,-0.65625 -0.074,-0.23047 -0.125,-0.46484 -0.1485,-0.70703 -0.027,-0.23828 -0.027,-0.47656 -0.01,-0.71875 0.023,-0.23828 0.07,-0.47656 0.1445,-0.70703 0.07,-0.23047 0.1641,-0.44922 0.2813,-0.66016 0.1133,-0.21484 0.25,-0.41015 0.4101,-0.59375 0.1563,-0.18359 0.3282,-0.34765 0.5196,-0.49609 0.1914,-0.14844 0.3945,-0.27344 0.6133,-0.38281 4.3906,-2.11719 8.4218,-4.77735 12.1015,-7.98047 3.6797,-3.19922 6.8711,-6.82813 9.5781,-10.88281 6.293,-9.53125 9.4961,-21.16797 9.4961,-34.61719 0,-18.98828 -6.2031,-34.08594 -18.4609,-44.85938 -12.2578,-10.77734 -29.7305,-16.10156 -52.1797,-16.10156 h -69.3281 c -0.6133,0.004 -1.2227,0.0664 -1.8242,0.19141 -0.6016,0.125 -1.1875,0.30468 -1.7539,0.54297 -0.5665,0.23437 -1.1055,0.52734 -1.6172,0.86718 -0.5118,0.34375 -0.9844,0.73438 -1.418,1.16797 -0.4375,0.4336 -0.8242,0.90625 -1.168,1.41797 -0.3437,0.51172 -0.6328,1.05078 -0.8711,1.61719 -0.2343,0.5664 -0.4179,1.15234 -0.539,1.7539 -0.125,0.60157 -0.1875,1.21094 -0.1914,1.82813 v 173.39453 c -0.031,2.07813 0.5781,3.95313 1.8281,5.61719 0.4336,0.59765 0.9297,1.13672 1.4922,1.61719 0.5625,0.48046 1.1719,0.89062 1.8281,1.22656 0.6602,0.33203 1.3477,0.58594 2.0664,0.75781 0.7188,0.17188 1.4492,0.25781 2.1875,0.25781 h 21.7188 c 0.6132,-0.008 1.2226,-0.0742 1.8242,-0.19922 0.6015,-0.125 1.1836,-0.30468 1.75,-0.54296 0.5664,-0.23829 1.1055,-0.53125 1.6133,-0.8711 0.5117,-0.34375 0.9843,-0.73437 1.4179,-1.16797 0.4336,-0.43359 0.8203,-0.90625 1.1641,-1.41406 0.3437,-0.51172 0.6328,-1.05078 0.8711,-1.61719 0.2383,-0.5664 0.4219,-1.14843 0.5469,-1.75 0.125,-0.60156 0.1914,-1.21093 0.1992,-1.82422 V 437.92187 c 0.012,-0.47656 0.1133,-0.93359 0.3047,-1.37109 0.1875,-0.4375 0.457,-0.82422 0.7968,-1.15625 0.3438,-0.33203 0.7344,-0.58984 1.1758,-0.76953 0.4414,-0.17969 0.9024,-0.26953 1.3789,-0.26953 h 33.2461 c 10.6289,0 18.6992,1.73828 23.9688,5.16015 5.2695,3.42188 7.5,9.14844 7.5,17.96485 0,8.82031 -2.5039,14.78515 -7.6641,18.29687 -4.8203,2.92188 -10.043,4.58594 -15.664,4.9961 -2.7618,0.28515 -5.3907,1.03125 -7.8907,2.24218 -2.5,1.21094 -4.7187,2.8125 -6.6523,4.80079 -0.7149,0.73828 -1.3633,1.52343 -1.9492,2.36328 -0.586,0.83984 -1.1016,1.72265 -1.5469,2.64453 -0.4414,0.92187 -0.8125,1.875 -1.1016,2.85547 -0.2929,0.98047 -0.5039,1.98047 -0.6328,2.99609 -0.1328,1.01563 -0.1836,2.03516 -0.1484,3.05859 0.031,1.02344 0.1445,2.03907 0.3437,3.04297 0.1953,1.00391 0.4688,1.98828 0.8203,2.94922 0.3555,0.96094 0.7852,1.88672 1.2852,2.77735 l 39.375,70.02343 c 0.2891,0.63672 0.625,1.25 1.0039,1.83985 0.3789,0.58984 0.7969,1.14843 1.2578,1.67578 0.4649,0.52734 0.961,1.01562 1.4922,1.47265 0.5352,0.45313 1.0977,0.86719 1.6914,1.23829 0.5938,0.37109 1.2149,0.69531 1.8555,0.97656 0.6406,0.28125 1.3008,0.51172 1.9765,0.69531 0.6758,0.1875 1.3633,0.32031 2.0586,0.40234 0.6953,0.082 1.3946,0.11329 2.0938,0.0937 h 22.8515 c 0.5274,-0.004 1.0469,-0.0586 1.5625,-0.16796 0.5118,-0.10547 1.0118,-0.26172 1.4961,-0.46485 0.4844,-0.20312 0.9454,-0.45312 1.3829,-0.74609 0.4375,-0.29297 0.8398,-0.625 1.2109,-1 0.3711,-0.3711 0.707,-0.77344 1,-1.21094 0.293,-0.4375 0.5391,-0.89453 0.7461,-1.37891 0.2031,-0.48828 0.3594,-0.98437 0.4648,-1.5 0.1055,-0.51562 0.1641,-1.03515 0.168,-1.5625 -0.035,-1.42187 -0.3984,-2.75781 -1.0781,-4.00781"
       id="path65"
       inkscape:connector-curvature="0" />
    <path
       style="fill:none;stroke:#199cd4;stroke-width:23.25721931;stroke-linecap:round;stroke-linejoin:miter;stroke-miterlimit:4;stroke-opacity:1"
       d="m 1696.1368,197.10155 v 429.7422"
       id="path67"
       inkscape:connector-curvature="0" />
    <g
       style="fill:#0c2e35;fill-opacity:1"
       id="g73">
      <g
         transform="translate(1780.5576,429.88374)"
         id="g71">
        <path
           style="stroke:none"
           d="m 87.765625,2.6875 c -17.53125,0 -32.25,-2.7265625 -44.15625,-8.1875 -11.898437,-5.457031 -20.664063,-12.210938 -26.296875,-20.265625 -5.636719,-8.050781 -8.632812,-16.101563 -8.984375,-24.15625 0,-1.613281 0.578125,-2.957031 1.734375,-4.03125 1.164062,-1.070313 2.550781,-1.609375 4.15625,-1.609375 h 37.046875 c 2.144531,0 3.84375,0.40625 5.09375,1.21875 1.257813,0.804688 2.425781,2.101562 3.5,3.890625 3.394531,8.761719 12.785156,13.140625 28.171875,13.140625 8.769531,0 15.57031,-2.054688 20.40625,-6.171875 4.83203,-4.113281 7.25,-9.660156 7.25,-16.640625 0,-13.414062 -8.94922,-20.125 -26.84375,-20.125 h -30.0625 c -1.96875,0 -3.625,-0.671875 -4.96875,-2.015625 -1.34375,-1.34375 -2.015625,-3 -2.015625,-4.96875 V -103.0625 c 0,-4.11328 1.519531,-7.15625 4.5625,-9.125 l 43.21875,-35.4375 H 25.5 c -1.792969,0 -3.359375,-0.67187 -4.703125,-2.01562 -1.34375,-1.34375 -2.015625,-2.90625 -2.015625,-4.6875 v -26.57813 c 0,-1.96875 0.625,-3.625 1.875,-4.96875 1.257812,-1.34375 2.875,-2.01562 4.84375,-2.01562 h 125.07812 c 1.96875,0 3.57813,0.67187 4.82813,2.01562 1.25,1.34375 1.875,3 1.875,4.96875 v 23.89063 c 0,3.76171 -1.43359,6.71484 -4.29688,8.85937 l -39.71874,36.23437 1.875,0.53125 c 16.10156,2.32422 28.89453,7.8711 38.37499,16.64063 9.48829,8.773438 14.23438,21.386719 14.23438,37.84375 0,11.992188 -3.44531,22.507812 -10.32813,31.546875 -6.88671,9.03125 -16.37109,15.964844 -28.45312,20.796875 -12.07422,4.832031 -25.80859,7.25 -41.203125,7.25 z m 0,0"
           id="path69"
           inkscape:connector-curvature="0" />
      </g>
    </g>
    <g
       style="fill:#0c2e35;fill-opacity:1"
       id="g79">
      <g
         transform="translate(1959.0449,429.88374)"
         id="g77">
        <path
           style="stroke:none"
           d="m 91.53125,2.6875 c -24.699219,-0.179688 -43.492188,-6.707031 -56.375,-19.59375 -12.875,-12.882812 -19.945312,-29.882812 -21.203125,-51 -0.355469,-9.664062 -0.53125,-18.34375 -0.53125,-26.03125 0,-7.875 0.175781,-16.82031 0.53125,-26.84375 0.71875,-13.41406 4.070313,-25.35937 10.0625,-35.82812 6,-10.46875 14.675781,-18.74219 26.03125,-24.82813 11.363281,-6.08203 25.191406,-9.125 41.484375,-9.125 16.28125,0 30.14453,3.04297 41.59375,9.125 11.45703,6.08594 20.17969,14.35938 26.17187,24.82813 6,10.46875 9.35157,22.41406 10.0625,35.82812 0.36329,5.01172 0.54688,13.96094 0.54688,26.84375 0,12.523438 -0.18359,21.199219 -0.54688,26.03125 -1.25,21.117188 -8.32031,38.117188 -21.20312,51 -12.88672,12.886719 -31.76172,19.414062 -56.625,19.59375 z m 0,-40.53125 c 8.40625,0 14.66406,-2.726562 18.78125,-8.1875 4.11328,-5.457031 6.35156,-13.195312 6.71875,-23.21875 0.35156,-5.1875 0.53125,-13.597656 0.53125,-25.234375 0,-11.625005 -0.17969,-19.851565 -0.53125,-24.687505 -0.36719,-9.66406 -2.60547,-17.3164 -6.71875,-22.95312 -4.11719,-5.63281 -10.375,-8.45312 -18.78125,-8.45312 -16.105469,0 -24.605469,10.46875 -25.5,31.40624 -0.179688,4.83594 -0.265625,13.0625 -0.265625,24.687505 0,11.636719 0.08594,20.046875 0.265625,25.234375 0.894531,20.9375 9.394531,31.40625 25.5,31.40625 z m 0,0"
           id="path75"
           inkscape:connector-curvature="0" />
      </g>
    </g>
    <g
       style="fill:#0c2e35;fill-opacity:1"
       id="g85">
      <g
         transform="translate(1837.3935,499.23793)"
         id="g83">
        <path
           style="stroke:none"
           d="m 68.25,-30.53125 c 1.40625,0.08594 1.644531,0.792969 0.71875,2.125 -0.929688,1.324219 -2.5,3.007812 -4.71875,5.046875 -2.210938,2.03125 -4.605469,4.15625 -7.1875,6.375 -3.46875,2.9375 -6.273438,5.476563 -8.40625,7.609375 -2.375,2.023438 -4.296875,4.824219 -5.765625,8.40625 -1.46875,3.582031 -2.203125,6.890625 -2.203125,9.921875 0,1.601563 0,3.515625 0,5.734375 0.07031,4.507812 0.06641,9.9375 -0.01563,16.28125 -0.07421,6.351562 -0.42187,12.914062 -1.04687,19.6875 -0.625,6.769531 -1.757812,13.125 -3.390625,19.0625 -1.625,5.945312 -3.953125,10.804688 -6.984375,14.578125 -3.023438,3.769531 -6.867188,5.832031 -11.53125,6.1875 -8.992188,0.25 -15.15625,-3.476563 -18.5,-11.171875 -2.582031,-6.492188 -3.445312,-13.140625 -2.59375,-19.953125 0.84375,-6.8125 2.746094,-13.464844 5.703125,-19.953125 2.957031,-6.480469 6.300781,-12.445312 10.03125,-17.890625 3.726563,-5.4375 7.234375,-10 10.515625,-13.6875 3.289062,-3.6875 5.640625,-6.15625 7.046875,-7.40625 0.601563,-2.007813 0.953125,-4.34375 1.046875,-7 0.101562,-2.664063 0.117188,-5.25 0.04687,-7.75 -0.125,-0.800781 -0.1875,-1.503906 -0.1875,-2.109375 -1.773437,2.742188 -3.605469,4.667969 -5.5,5.78125 -1.898437,1.105469 -3.804687,1.710938 -5.71875,1.8125 C 17.703125,-8.75 15.898438,-8.800781 14.203125,-9 c -0.15625,0 -0.320313,0 -0.484375,0 -3.90625,-0.53125 -6.992188,-2.363281 -9.25,-5.5 -2.25,-3.144531 -3.710938,-6.734375 -4.375,-10.765625 -0.664062,-4.03125 -0.5,-7.644531 0.5,-10.84375 1.007812,-3.207031 2.847656,-5.070313 5.515625,-5.59375 1.082031,-0.28125 2.289063,-0.421875 3.625,-0.421875 1.332031,0 2.441406,0.183594 3.328125,0.546875 0.882812,0.355469 1.1875,1.015625 0.90625,1.984375 -0.8125,3.304688 -1.28125,6.882812 -1.40625,10.734375 -0.117188,3.84375 0.21875,7.1875 1,10.03125 0.789062,2.84375 2.203125,4.375 4.234375,4.59375 2.039063,0.21875 4.753906,-1.625 8.140625,-5.53125 1.601562,-2.050781 2.707031,-4.15625 3.3125,-6.3125 0.601562,-2.15625 1.085938,-4.484375 1.453125,-6.984375 0.08203,-0.882812 0.222656,-1.769531 0.421875,-2.65625 0.08203,-0.882812 0.207031,-1.773438 0.375,-2.671875 0.113281,-1.164063 0.253906,-2.3125 0.421875,-3.4375 0.4375,-1.851563 1.472656,-3.140625 3.109375,-3.859375 1.632812,-0.726562 3.394531,-0.648438 5.28125,0.234375 0.96875,0.5625 1.535156,1.371094 1.703125,2.421875 0.195313,2.054688 0.296875,4.085938 0.296875,6.09375 -0.125,7.179688 -0.1875,16.007812 -0.1875,26.484375 0.125,-0.08203 1.015625,-0.828125 2.671875,-2.234375 2.132813,-1.976562 4.84375,-4.335938 8.125,-7.078125 3.28125,-2.738281 6.378906,-5.195313 9.296875,-7.375 2.925781,-2.175781 4.9375,-3.304687 6.03125,-3.390625 z M 28.828125,30.890625 c 0,-0.96875 0.0625,-1.980469 0.1875,-3.03125 0.08203,-3.824219 0.203125,-7.6875 0.359375,-11.59375 0,-0.167969 -0.0625,-0.382813 -0.1875,-0.640625 -0.117188,-0.261719 -0.273438,-0.453125 -0.46875,-0.578125 -0.449219,-0.324219 -0.824219,-0.375 -1.125,-0.15625 C 27.289062,15.117188 27,15.351562 26.71875,15.59375 23.007812,20.382812 19.507812,25.8125 16.21875,31.875 12.9375,37.945312 10.367188,44.265625 8.515625,50.828125 6.671875,57.398438 5.90625,63.832031 6.21875,70.125 c 0.289062,3.90625 1.539062,7.488281 3.75,10.75 2.664062,3.664062 4.992188,4.984375 6.984375,3.953125 C 18.953125,83.804688 20.632812,81.28125 22,77.25 23.375,73.21875 24.503906,68.472656 25.390625,63.015625 26.273438,57.554688 26.957031,52.21875 27.4375,47 c 0.488281,-5.21875 0.875,-9.5625 1.15625,-13.03125 0.08203,-1.167969 0.160156,-2.195312 0.234375,-3.078125 z m 0,0"
           id="path81"
           inkscape:connector-curvature="0" />
      </g>
    </g>
    <g
       style="fill:#0c2e35;fill-opacity:1"
       id="g91">
      <g
         transform="translate(1906.1693,499.23793)"
         id="g89">
        <path
           style="stroke:none"
           d="m 58.265625,-29.203125 c 0.882813,-0.519531 1.75,-0.921875 2.59375,-1.203125 0.851563,-0.28125 1.410156,-0.257812 1.671875,0.0625 0.257812,0.324219 -0.09375,1.046875 -1.0625,2.171875 -3.023438,3.46875 -6.636719,6.648437 -10.84375,9.53125 -4.210938,2.875 -8.53125,5.304687 -12.96875,7.28125 -3.46875,1.574219 -7.125,2.824219 -10.96875,3.75 C 22.84375,-6.679688 19.035156,-6.476562 15.265625,-7 c -3.773437,-0.53125 -7.210937,-2.207031 -10.3125,-5.03125 -4.710937,-4.351562 -6.660156,-9.671875 -5.859375,-15.953125 0.6875,-5 2.628906,-9.238281 5.828125,-12.71875 3.207031,-3.488281 7.25,-5.859375 12.125,-7.109375 4.070313,-0.882812 8.140625,-0.984375 12.203125,-0.296875 1.851562,0.28125 3.546875,0.902344 5.078125,1.859375 1.414063,1.09375 2.191406,2.367188 2.328125,3.8125 0.144531,1.449219 -0.40625,2.839844 -1.65625,4.171875 -2.585938,2.304687 -5.570312,3.671875 -8.953125,4.109375 -3.78125,0.648438 -7.589844,1.054688 -11.421875,1.21875 -1.855469,0 -3.15625,0.386719 -3.90625,1.15625 -0.742188,0.761719 -1.167969,2.070312 -1.28125,3.921875 -0.617188,5.03125 0.992188,9.140625 4.828125,12.328125 2.375,1.898438 5.265625,2.703125 8.671875,2.421875 3.40625,-0.289063 7.019531,-1.207031 10.84375,-2.75 3.832031,-1.550781 7.582031,-3.363281 11.25,-5.4375 3.664062,-2.082031 6.972656,-4.050781 9.921875,-5.90625 1.25,-0.800781 2.351563,-1.46875 3.3125,-2 z m -42,-10.75 c 0,0.08594 -0.0625,0.125 -0.1875,0.125 -0.15625,0.15625 -0.371094,0.351563 -0.640625,0.578125 -0.261719,0.21875 -0.5,0.4375 -0.71875,0.65625 -0.21875,0.21875 -0.328125,0.371094 -0.328125,0.453125 0.07031,0.28125 0.796875,0.355469 2.171875,0.21875 1.375,-0.144531 2.882812,-0.390625 4.53125,-0.734375 1.65625,-0.34375 3.035156,-0.804688 4.140625,-1.390625 1.113281,-0.582031 1.445313,-1.273437 1,-2.078125 -0.199219,-0.25 -0.449219,-0.460938 -0.75,-0.640625 -0.304687,-0.175781 -0.636719,-0.304687 -1,-0.390625 -1.617187,0 -3.089844,0.3125 -4.421875,0.9375 -1.324219,0.625 -2.589844,1.382812 -3.796875,2.265625 z m 0,0"
           id="path87"
           inkscape:connector-curvature="0" />
      </g>
    </g>
    <g
       style="fill:#0c2e35;fill-opacity:1"
       id="g97">
      <g
         transform="translate(1969.5054,499.23793)"
         id="g95">
        <path
           style="stroke:none"
           d="m 68.390625,-31.0625 c -1.105469,3.375 -3.304687,7.25 -6.59375,11.625 C 58.515625,-15.0625 54.414062,-12.25 49.5,-11 c -4.917969,1.25 -9.167969,1.078125 -12.75,-0.515625 -3.585938,-1.59375 -5.558594,-5.851563 -5.921875,-12.78125 C 26.753906,-16.398438 22.875,-11.34375 19.1875,-9.125 15.5,-6.90625 11.660156,-6.0625 7.671875,-6.59375 c -4.511719,-0.71875 -7.5625,-2.46875 -9.15625,-5.25 -1.59375,-2.78125 -2.125,-5.992188 -1.59375,-9.640625 0.523437,-3.644531 1.625,-7.144531 3.3125,-10.5 1.332031,-2.488281 3.175781,-4.800781 5.53125,-6.9375 2.363281,-2.132813 4.832031,-3.8125 7.40625,-5.03125 3.1875,-1.601563 6.390625,-2.363281 9.609375,-2.28125 3.226562,0.07422 6.675781,1.140625 10.34375,3.203125 0.08203,0.07422 0.125,-0.0078 0.125,-0.25 0,-0.363281 0.08594,-0.816406 0.265625,-1.359375 0.1875,-0.539063 0.5,-0.972656 0.9375,-1.296875 1.207031,-0.882812 2.632813,-1.328125 4.28125,-1.328125 1.65625,0 2.929687,0.824219 3.828125,2.46875 0.15625,2.136719 -0.07031,4.859375 -0.671875,8.171875 -1.335937,7.25 -1.335937,12.46875 0,15.65625 1.332031,3.179688 3.679687,4.65625 7.046875,4.4375 3.363281,-0.21875 7.722656,-3.539062 13.078125,-9.96875 5.363281,-6.425781 7.488281,-7.945312 6.375,-4.5625 z m -59.5,17.03125 c 1.851563,1.335938 3.976563,1.15625 6.375,-0.53125 2.394531,-1.695312 4.703125,-4.097656 6.921875,-7.203125 2.21875,-3.101563 4.082031,-6.203125 5.59375,-9.296875 1.507812,-3.101562 2.34375,-5.40625 2.5,-6.90625 -4.511719,-2.414062 -8.382812,-2.828125 -11.609375,-1.234375 -3.21875,1.59375 -5.789063,4.195313 -7.703125,7.796875 -1.917969,3.605469 -3.058594,7.109375 -3.421875,10.515625 -0.355469,3.40625 0.09375,5.695313 1.34375,6.859375 z m 0,0"
           id="path93"
           inkscape:connector-curvature="0" />
      </g>
    </g>
    <g
       style="fill:#0c2e35;fill-opacity:1"
       id="g103">
      <g
         transform="translate(2038.4021,499.23793)"
         id="g101">
        <path
           style="stroke:none"
           d="m 38.5625,-28.953125 c 0.769531,-1.570313 1.296875,-2.296875 1.578125,-2.171875 0.28125,0.117188 0.347656,0.75 0.203125,1.90625 -0.136719,1.148438 -0.386719,2.445312 -0.75,3.890625 -0.523438,2.21875 -1.429688,4.792969 -2.71875,7.71875 -1.292969,2.917969 -2.726562,5.5625 -4.296875,7.9375 -2.335937,3.304687 -5.226563,5.792969 -8.671875,7.46875 -3.449219,1.667969 -6.574219,2.078125 -9.375,1.234375 -2.792969,-0.84375 -4.414062,-3.484375 -4.859375,-7.921875 -0.085937,-3.707031 0.238281,-7.773437 0.96875,-12.203125 0.238281,-1.851562 0.5,-3.664062 0.78125,-5.4375 0,-0.644531 -0.164063,-1.140625 -0.484375,-1.484375 -0.324219,-0.34375 -0.746094,-0.472656 -1.265625,-0.390625 -0.367187,0 -0.765625,0 -1.203125,0 -2.21875,0.367188 -4.480469,0.324219 -6.78125,-0.125 -2.738281,-0.800781 -4.328125,-2.160156 -4.765625,-4.078125 -0.445313,-1.914063 -0.410156,-4.425781 0.109375,-7.53125 0.292969,-2.21875 1.125,-3.878906 2.5,-4.984375 1.363281,-1.101562 2.972656,-1.554688 4.828125,-1.359375 2.570313,0.242187 3.816406,1.230469 3.734375,2.96875 -0.074219,1.730469 -0.554688,3.578125 -1.4375,5.546875 -0.8125,1.65625 -1.242188,3.042969 -1.28125,4.15625 -0.042969,1.105469 0.90625,1.496094 2.84375,1.171875 0.445312,-0.125 0.929688,-0.265625 1.453125,-0.421875 0.726563,-0.28125 1.554687,-0.53125 2.484375,-0.75 0.925781,-0.226562 2.132812,-0.28125 3.625,-0.15625 1.769531,0.08594 2.945312,0.902344 3.53125,2.453125 0.582031,1.542969 0.832031,3.484375 0.75,5.828125 -0.07422,2.335938 -0.292969,4.710938 -0.65625,7.125 -0.449219,3.023438 -0.671875,5.609375 -0.671875,7.765625 0,2.15625 0.625,3.417969 1.875,3.78125 1.65625,0.449219 4.125,-1.050781 7.40625,-4.5 3.28125,-3.445313 6.796875,-9.257813 10.546875,-17.4375 z m 0,0"
           id="path99"
           inkscape:connector-curvature="0" />
      </g>
    </g>
    <g
       style="fill:#0c2e35;fill-opacity:1"
       id="g109">
      <g
         transform="translate(2080.2208,499.23793)"
         id="g107">
        <path
           style="stroke:none"
           d="m 36.6875,-33 c 0,0.929688 -1.953125,2.570312 -5.859375,4.921875 -3.90625,2.355469 -6.789063,4.132813 -8.640625,5.328125 -1.855469,1.1875 -2.78125,1.921875 -2.78125,2.203125 0.363281,0.804687 0.742188,2.152344 1.140625,4.046875 0.40625,1.898438 0.554687,3.953125 0.453125,6.171875 -0.09375,2.210937 -0.808594,4.183594 -2.140625,5.921875 -1.335937,1.730469 -3.554687,2.777344 -6.65625,3.140625 C 9.109375,-1.023438 6.335938,-1.5 3.890625,-2.6875 1.453125,-3.875 -0.0703125,-5.597656 -0.6875,-7.859375 c -0.625,-2.257813 0.132812,-4.898437 2.265625,-7.921875 1.40625,-1.6875 3.097656,-3.15625 5.078125,-4.40625 0.675781,-0.445312 1.378906,-0.929688 2.109375,-1.453125 C 6.390625,-24.222656 4.132812,-26.863281 2,-29.5625 c -2.132812,-2.695312 -3.503906,-5.113281 -4.109375,-7.25 -0.644531,-2.457031 -0.234375,-4.773438 1.234375,-6.953125 1.46875,-2.175781 4.015625,-3.445313 7.640625,-3.8125 1.78125,-0.15625 3.441406,-0.0625 4.984375,0.28125 1.550781,0.34375 2.992188,1.101563 4.328125,2.265625 0.28125,0.28125 0.476563,0.59375 0.59375,0.9375 0.125,0.34375 0.06641,0.777344 -0.171875,1.296875 -0.4375,0.804687 -1.105469,1.203125 -2,1.203125 -0.636719,0 -1.257812,-0.07813 -1.859375,-0.234375 -0.648437,-0.28125 -1.234375,-0.539063 -1.765625,-0.78125 C 10.519531,-42.816406 10.179688,-43 9.859375,-43.15625 c -1.179687,-0.445312 -2.078125,-0.382812 -2.703125,0.1875 -0.625,0.5625 -0.9375,1.429688 -0.9375,2.59375 0.082031,2.054688 0.929688,4.25 2.546875,6.59375 1.613281,2.335938 3.207031,4.484375 4.78125,6.453125 0.632813,0.6875 1.175781,1.355469 1.625,2 0.445313,0.449219 1.613281,0.382813 3.5,-0.203125 1.894531,-0.59375 5.367187,-2.21875 10.421875,-4.875 C 34.15625,-33.0625 36.6875,-33.925781 36.6875,-33 Z M 9.671875,-5.796875 c 1.164063,-0.082031 1.929687,-0.726563 2.296875,-1.9375 0.363281,-1.207031 0.492188,-2.535156 0.390625,-3.984375 -0.105469,-1.457031 -0.195313,-2.546875 -0.265625,-3.265625 -0.167969,-0.445313 -0.453125,-0.726563 -0.859375,-0.84375 -0.398437,-0.125 -0.777344,-0.109375 -1.140625,0.04687 -1.335938,1.054688 -2.3125,2.386719 -2.9375,4 -0.625,1.605469 -0.574219,3.011719 0.15625,4.21875 0.238281,0.449219 0.5625,0.835938 0.96875,1.15625 0.40625,0.324219 0.867188,0.527344 1.390625,0.609375 z m 0,0"
           id="path105"
           inkscape:connector-curvature="0" />
      </g>
    </g>
  </g>
</svg>
