<?xml version="1.0" encoding="UTF-8" standalone="no"?>
<svg
   xmlns:dc="http://purl.org/dc/elements/1.1/"
   xmlns:cc="http://creativecommons.org/ns#"
   xmlns:rdf="http://www.w3.org/1999/02/22-rdf-syntax-ns#"
   xmlns:svg="http://www.w3.org/2000/svg"
   xmlns="http://www.w3.org/2000/svg"
   id="svg51"
   version="1.1"
   viewBox="0 0 787.04 248.23">
  <metadata
     id="metadata55">
    <rdf:RDF>
      <cc:Work
         rdf:about="">
        <dc:format>image/svg+xml</dc:format>
        <dc:type
           rdf:resource="http://purl.org/dc/dcmitype/StillImage" />
        <dc:title>CBF</dc:title>
      </cc:Work>
    </rdf:RDF>
  </metadata>
  <defs
     id="defs4">
    <style
       id="style2">.cls-1{fill:#1c9cd6;}.cls-2{fill:#0f2e38;}</style>
  </defs>
  <title
     id="title6">CBF</title>
  <g
     id="g99">
    <path
       style="fill:#1c9cd6"
       id="path8"
       d="M 186.27,187.46 A 22.26,22.26 0 0 0 151.88,166.6 50.17,50.17 0 0 1 76,137.38 a 7.28,7.28 0 1 0 -14,3.7 64.73,64.73 0 0 0 97.88,37.72 7.69,7.69 0 0 1 11.9,7.2 7.44,7.44 0 0 1 -3.35,5.56 80.5,80.5 0 0 1 -90.18,-1.63 7.28,7.28 0 0 0 -8.43,11.87 95.16,95.16 0 0 0 106.61,1.92 22,22 0 0 0 9.84,-16.25"
       class="cls-1" />
    <path
       style="fill:#1c9cd6"
       id="path10"
       d="m 111.18,107.35 a 21.84,21.84 0 0 1 26.77,0 7.28,7.28 0 1 0 8.92,-11.5 36.41,36.41 0 1 0 0,57.53 7.28,7.28 0 1 0 -8.92,-11.5 21.841837,21.841837 0 0 1 -26.77,-34.52"
       class="cls-1" />
    <path
       style="fill:#1c9cd6"
       id="path12"
       d="m 155.8,85.26 a 49.71,49.71 0 0 1 6.72,6.44 7.28,7.28 0 1 0 11,-9.52 64.78,64.78 0 0 0 -67.11,-19.71 l -0.35,0.11 c -0.74,0.22 -1.48,0.45 -2.21,0.7 l -0.81,0.28 -1.7,0.62 q -0.67,0.25 -1.35,0.54 l -1.12,0.47 c -0.65,0.28 -1.3,0.58 -1.95,0.88 l -0.49,0.24 a 64.61,64.61 0 0 0 -34.54,42 7.283483,7.283483 0 1 0 14.11,3.62 49.61,49.61 0 0 1 3.21,-8.81 c 0.12,-0.2 0.24,-0.39 0.35,-0.6 a 50,50 0 0 1 17.28,-19.72 51,51 0 0 1 8,-4.34 l 0.43,-0.17 1.47,-0.59 0.94,-0.34 1,-0.34 q 0.7,-0.24 1.41,-0.45 l 0.54,-0.16 c 0.6,-0.17 1.21,-0.34 1.81,-0.49 h 0.18 a 50.06,50.06 0 0 1 42.55,9 c 0.21,0.16 0.44,0.27 0.65,0.41"
       class="cls-1" />
    <path
       style="fill:#1c9cd6"
       id="path14"
       d="M 111,45.64 A 7.28,7.28 0 0 0 108.56,31.29 94.64,94.64 0 0 0 47.44,179.47 7.3,7.3 0 0 0 53.37,182.52 7.28,7.28 0 0 0 59.29,171 80.09,80.09 0 0 1 111,45.64"
       class="cls-1" />
    <path
       style="fill:#1c9cd6"
       id="path16"
       d="m 111,233.73 a 108.89,108.89 0 0 1 -64.14,-31.27 110.07,110.07 0 0 1 -9.3,-145.25 7.2800223,7.2800223 0 0 0 -11.5,-8.93 124.65,124.65 0 0 0 10.54,164.5 123.38,123.38 0 0 0 72.65,35.4 6.79,6.79 0 0 0 0.9,0 7.28,7.28 0 0 0 0.87,-14.5"
       class="cls-1" />
    <path
       style="fill:#1c9cd6"
       id="path18"
       d="m 200.51,214.2 a 7.28,7.28 0 0 0 -10.19,-1.47 109.8,109.8 0 0 1 -52,21 7.27,7.27 0 0 0 0.9,14.49 6.94,6.94 0 0 0 0.91,-0.05 124.22,124.22 0 0 0 58.87,-23.79 7.27,7.27 0 0 0 1.47,-10.18"
       class="cls-1" />
    <path
       style="fill:#1c9cd6"
       id="path20"
       d="m 56.83,37.86 a 110,110 0 0 1 126.69,-6.16 7.67,7.67 0 0 1 3.48,5.61 7.4,7.4 0 0 1 -2.14,6.1 l -0.25,0.25 a 7.63,7.63 0 0 1 -9.55,0.91 93.49,93.49 0 0 0 -35,-13.35 7.2828789,7.2828789 0 0 0 -2.38,14.37 79.2,79.2 0 0 1 29.6,11.27 22.52,22.52 0 0 0 12.08,3.55 21.93,21.93 0 0 0 15.64,-6.48 l 0.25,-0.25 a 22.1,22.1 0 0 0 -3.88,-34.26 124.56,124.56 0 0 0 -143.47,7 7.2858013,7.2858013 0 0 0 9,11.46"
       class="cls-1" />
    <path
       style="fill:#ffffff"
       id="path22"
       d="m 323.86,116.61 a 4.93,4.93 0 0 0 -3.61,-1.51 h -62.71 a 4.93,4.93 0 0 0 -3.61,1.51 5,5 0 0 0 -1.51,3.62 v 94.86 a 5.17,5.17 0 0 0 5.12,5.13 h 11.9 a 5.19,5.19 0 0 0 5.13,-5.13 v -32.46 h 42.74 a 5.19,5.19 0 0 0 5.13,-5.13 v -10.43 a 5.19,5.19 0 0 0 -5.13,-5.13 h -42.74 v -26.16 h 45.68 a 5.17,5.17 0 0 0 5.13,-5.13 v -10.42 a 4.93,4.93 0 0 0 -1.52,-3.61 z"
       class="cls-2" />
    <path
       style="fill:#ffffff"
       id="path24"
       d="m 369.5,155.39 c 0.37,-6.61 2.55,-11.83 6.47,-15.52 3.92,-3.69 9.21,-5.55 15.72,-5.55 6.51,0 11.8,1.87 15.73,5.55 3.93,3.68 6.09,8.91 6.46,15.55 0.19,2.43 0.29,6.55 0.29,12.24 0,5.69 -0.1,10 -0.3,12.41 -0.36,6.61 -2.54,11.81 -6.45,15.44 -3.91,3.63 -9.22,5.5 -15.73,5.5 -6.51,0 -11.81,-1.85 -15.73,-5.5 -3.92,-3.65 -6.09,-8.83 -6.46,-15.42 -0.19,-4.83 -0.29,-9 -0.29,-12.43 0,-3.43 0.1,-7.45 0.29,-12.27 M 423.94,125 v 0 c -7.44,-7.54 -18.28,-11.36 -32.25,-11.36 -13.97,0 -24.82,3.85 -32.26,11.44 -7.44,7.59 -11.43,17.47 -12.08,29.46 -0.19,4.48 -0.3,8.45 -0.3,11.8 0,4.42 0.11,9.33 0.3,14.6 0.6,12 4.67,21.87 12.08,29.39 7.41,7.52 18.29,11.36 32.26,11.36 13.97,0 24.81,-3.82 32.25,-11.36 7.44,-7.54 11.48,-17.41 12.09,-29.41 0.19,-5.34 0.29,-10.24 0.29,-14.58 0,-3.32 -0.1,-7.18 -0.3,-11.81 -0.6,-12.08 -4.66,-22 -12.08,-29.54"
       class="cls-2" />
    <path
       style="fill:#ffffff"
       id="path26"
       d="m 656.21,116.61 a 4.94,4.94 0 0 0 -3.62,-1.51 h -11.75 a 4.91,4.91 0 0 0 -3.6,1.51 5,5 0 0 0 -1.52,3.62 v 59.47 c 0,7.36 -1.9,12.8 -5.64,16.17 -3.74,3.37 -9.08,5.13 -15.66,5.13 -6.58,0 -11.84,-1.73 -15.51,-5.13 -3.67,-3.4 -5.51,-8.82 -5.51,-16.18 v -59.46 a 5.16,5.16 0 0 0 -5.12,-5.13 h -11.9 a 5.17,5.17 0 0 0 -5.13,5.13 v 60.2 c 0,12.7 3.72,22.86 11.06,30.2 7.34,7.34 18.14,11.06 32.11,11.06 13.97,0 24.65,-3.75 32.1,-11.14 7.45,-7.39 11.21,-17.52 11.21,-30.12 v -60.2 a 4.93,4.93 0 0 0 -1.52,-3.61 z"
       class="cls-2" />
    <path
       style="fill:#ffffff"
       id="path28"
       d="m 785.39,116.61 a 4.93,4.93 0 0 0 -3.61,-1.51 h -10 a 6.6,6.6 0 0 0 -4.51,1.39 20.05,20.05 0 0 0 -2.73,3 l -27,46.83 -27,-46.83 a 20.38,20.38 0 0 0 -2.72,-3 6.63,6.63 0 0 0 -4.52,-1.39 h -10 a 4.91,4.91 0 0 0 -3.6,1.51 5,5 0 0 0 -1.52,3.62 v 94.86 a 5.17,5.17 0 0 0 5.12,5.13 h 11.9 a 5.19,5.19 0 0 0 5.13,-5.13 V 162 l 17,29.32 c 1.78,2.79 3.94,4.21 6.4,4.21 h 7.65 c 2.46,0 4.62,-1.42 6.43,-4.25 L 764.76,162 v 53.07 a 5.17,5.17 0 0 0 5.13,5.13 h 11.89 a 5.19,5.19 0 0 0 5.13,-5.13 v -94.84 a 5,5 0 0 0 -1.52,-3.62"
       class="cls-2" />
    <path
       style="fill:#ffffff"
       id="path30"
       d="m 267.91,44 c 2,-2 4.82,-3.08 8.49,-3.08 3.67,0 6.48,0.77 8.41,2.29 a 8.83,8.83 0 0 1 3.46,5.51 3.1,3.1 0 0 0 1.18,2 3.19,3.19 0 0 0 2,0.73 h 6.43 a 3,3 0 0 0 2.14,-0.82 2.62,2.62 0 0 0 0.82,-2.2 20.09,20.09 0 0 0 -3,-9.17 19.62,19.62 0 0 0 -8.1,-7.17 29.25,29.25 0 0 0 -13.33,-2.74 c -7.29,0 -13.08,2.09 -17.24,6.22 -4.16,4.13 -6.47,9.65 -6.9,16.45 q -0.16,4 -0.16,6.7 0,2.7 0.16,6.71 c 0.43,6.78 2.76,12.31 6.9,16.43 4.14,4.12 9.95,6.23 17.24,6.23 a 29.18,29.18 0 0 0 13.33,-2.75 19.67,19.67 0 0 0 8.1,-7.16 20,20 0 0 0 3,-9.16 2.61,2.61 0 0 0 -0.8,-2.22 3.07,3.07 0 0 0 -2.15,-0.82 h -6.43 a 3,3 0 0 0 -2,0.75 3.15,3.15 0 0 0 -1.12,2 8.72,8.72 0 0 1 -3.5,5.52 c -2,1.52 -4.8,2.29 -8.45,2.29 -3.65,0 -6.52,-1 -8.49,-3.08 a 12.4,12.4 0 0 1 -3.3,-8.11 c -0.11,-2.63 -0.16,-4.83 -0.16,-6.62 0,-1.79 0.05,-4 0.16,-6.62 a 12.41,12.41 0 0 1 3.3,-8.12"
       class="cls-2" />
    <path
       style="fill:#ffffff"
       id="path32"
       d="m 330.51,30.18 h -6.43 a 2.9,2.9 0 0 0 -2.09,0.88 2.83,2.83 0 0 0 -0.87,2.08 v 51.23 a 3,3 0 0 0 3,3 h 6.43 a 3,3 0 0 0 3,-3 V 33.14 a 3,3 0 0 0 -3,-3"
       class="cls-2" />
    <path
       style="fill:#ffffff"
       id="path34"
       d="m 395,30.18 h -39.27 a 3,3 0 0 0 -3,3 v 5.63 a 3,3 0 0 0 3,3 h 13.45 v 42.56 a 3,3 0 0 0 3,3 h 6.42 a 2.86,2.86 0 0 0 2.09,-0.87 2.83,2.83 0 0 0 0.88,-2.09 V 41.73 H 395 a 3,3 0 0 0 3,-3 v -5.59 a 2.83,2.83 0 0 0 -0.87,-2.08 2.86,2.86 0 0 0 -2.09,-0.88"
       class="cls-2" />
    <path
       style="fill:#ffffff"
       id="path36"
       d="m 462.42,30.18 h -5.94 a 4.23,4.23 0 0 0 -2.71,0.86 4.9,4.9 0 0 0 -1.34,1.54 L 440.3,53.77 428.19,32.61 a 5,5 0 0 0 -1.37,-1.61 4.18,4.18 0 0 0 -2.7,-0.86 h -5.94 a 3,3 0 0 0 -3,3 2.45,2.45 0 0 0 0.26,1.12 l 18.69,32.88 v 17.23 a 3,3 0 0 0 3,3 h 6.34 a 2.86,2.86 0 0 0 2.09,-0.87 2.91,2.91 0 0 0 0.87,-2.09 V 67.14 l 18.72,-32.92 a 2.41,2.41 0 0 0 0.24,-1.08 2.8,2.8 0 0 0 -0.88,-2.08 2.86,2.86 0 0 0 -2.09,-0.88"
       class="cls-2" />
    <path
       style="fill:#ffffff"
       id="path38"
       d="m 550.66,69.86 a 5.39,5.39 0 0 1 -1.81,4.3 c -1.24,1.07 -3.18,1.62 -5.77,1.62 H 529.23 V 63.86 h 13.85 a 8.53,8.53 0 0 1 5.69,1.67 5.35,5.35 0 0 1 1.89,4.33 M 529.23,52.3 V 41.73 h 13.22 c 2.49,0 4.34,0.45 5.48,1.34 a 4.66,4.66 0 0 1 1.63,4 4.66,4.66 0 0 1 -1.63,3.93 c -1.14,0.88 -3,1.33 -5.48,1.33 z M 557,57.39 a 16.18,16.18 0 0 0 2.94,-3.45 12.93,12.93 0 0 0 2,-7.32 16.6,16.6 0 0 0 -1.87,-7.5 15.8,15.8 0 0 0 -6.09,-6.36 20.28,20.28 0 0 0 -10.7,-2.58 h -23.43 a 3,3 0 0 0 -3,3 v 51.19 a 3,3 0 0 0 3,3 h 25.21 a 17.91,17.91 0 0 0 9.64,-2.54 17.07,17.07 0 0 0 6.2,-6.58 17.85,17.85 0 0 0 2.1,-8.39 15.17,15.17 0 0 0 -2,-7.86 16.76,16.76 0 0 0 -4,-4.63"
       class="cls-2" />
    <path
       style="fill:#ffffff"
       id="path40"
       d="m 593.28,30.18 h -6.43 a 2.9,2.9 0 0 0 -2.09,0.88 2.83,2.83 0 0 0 -0.87,2.08 v 51.23 a 3,3 0 0 0 3,3 h 6.43 a 3,3 0 0 0 3,-3 V 33.14 a 3,3 0 0 0 -3,-3"
       class="cls-2" />
    <path
       style="fill:#ffffff"
       id="path42"
       d="m 653.27,69.86 a 5.39,5.39 0 0 1 -1.82,4.3 c -1.24,1.07 -3.18,1.62 -5.76,1.62 H 631.84 V 63.86 h 13.85 a 8.58,8.58 0 0 1 5.69,1.67 5.35,5.35 0 0 1 1.89,4.33 M 631.84,52.3 V 41.73 h 13.21 c 2.49,0 4.34,0.45 5.48,1.34 a 4.63,4.63 0 0 1 1.63,4 4.63,4.63 0 0 1 -1.63,3.93 c -1.14,0.88 -3,1.33 -5.48,1.33 z m 27.76,5.09 a 16.18,16.18 0 0 0 2.94,-3.45 12.94,12.94 0 0 0 2,-7.32 16.87,16.87 0 0 0 -1.87,-7.5 15.9,15.9 0 0 0 -6.1,-6.36 20.27,20.27 0 0 0 -10.69,-2.58 h -23.4 a 2.88,2.88 0 0 0 -2.09,0.88 2.83,2.83 0 0 0 -0.87,2.08 v 51.23 a 3,3 0 0 0 3,3 h 25.22 a 17.9,17.9 0 0 0 9.63,-2.54 17.07,17.07 0 0 0 6.2,-6.58 17.74,17.74 0 0 0 2.12,-8.35 15.17,15.17 0 0 0 -2,-7.84 16.76,16.76 0 0 0 -4,-4.63"
       class="cls-2" />
    <path
       style="fill:#ffffff"
       id="path44"
       d="M 724.18,75.78 H 698.84 V 33.14 a 3,3 0 0 0 -3,-3 h -6.43 a 2.9,2.9 0 0 0 -2.09,0.88 2.83,2.83 0 0 0 -0.87,2.08 v 51.27 a 3,3 0 0 0 3,3 h 34.73 a 2.86,2.86 0 0 0 2.09,-0.87 2.83,2.83 0 0 0 0.88,-2.09 v -5.67 a 3,3 0 0 0 -3,-3"
       class="cls-2" />
    <path
       style="fill:#ffffff"
       id="path46"
       d="m 786.16,76.65 v 0 a 2.86,2.86 0 0 0 -2.09,-0.87 H 758.64 V 64.26 h 23.05 a 3,3 0 0 0 3,-3 v -5.6 a 3,3 0 0 0 -3,-3 h -23.05 v -11 h 24.8 a 3,3 0 0 0 3,-3 v -5.52 a 3,3 0 0 0 -3,-3 h -34.18 a 2.91,2.91 0 0 0 -2.09,0.87 2.87,2.87 0 0 0 -0.87,2.09 v 51.27 a 3,3 0 0 0 3,3 h 34.81 a 3,3 0 0 0 3,-3 v -5.63 a 2.88,2.88 0 0 0 -0.88,-2.09"
       class="cls-2" />
    <path
       style="fill:#ffffff"
       id="path48"
       d="m 546.35,213.64 -18.6,-33.3 a 1.93,1.93 0 0 1 0.83,-2.69 29.86,29.86 0 0 0 11.85,-10.31 c 3.44,-5.21 5.19,-11.57 5.19,-18.92 0,-10.38 -3.39,-18.63 -10.09,-24.52 -6.7,-5.89 -16.25,-8.8 -28.52,-8.8 h -37.89 a 5.17,5.17 0 0 0 -5.13,5.13 V 215 a 5,5 0 0 0 1,3.07 5.1,5.1 0 0 0 4.14,2.11 H 481 a 5.19,5.19 0 0 0 5.13,-5.13 v -77.32 a 2,2 0 0 1 2,-1.95 h 18.17 c 5.81,0 10.22,0.95 13.1,2.82 2.88,1.87 4.1,5 4.1,9.82 0,4.82 -1.37,8.08 -4.19,10 a 19.21,19.21 0 0 1 -8.56,2.73 12.93,12.93 0 0 0 -7.95,3.85 10.45,10.45 0 0 0 -1.6,12.4 l 21.52,38.27 a 7.82,7.82 0 0 0 7.34,4.59 h 12.49 a 4.44,4.44 0 0 0 4.39,-4.39 4.84,4.84 0 0 0 -0.59,-2.19"
       class="cls-2" />
  </g>
</svg>
