<svg xmlns="http://www.w3.org/2000/svg" xmlns:xlink="http://www.w3.org/1999/xlink" viewBox="0 0 877.31 249.15"><defs><style>.cls-1{fill:none;}.cls-2{clip-path:url(#clip-path);}.cls-3{fill:#1c9cd6;}.cls-4{fill:#0f2e38;}</style><clipPath id="clip-path"><rect class="cls-1" width="877.31" height="249.15"/></clipPath></defs><title>CBF+</title><g id="City_Bible_Forum" data-name="City Bible Forum"><g class="cls-2"><path class="cls-3" d="M187,188.16a22.34,22.34,0,0,0-34.51-20.94,50.37,50.37,0,0,1-76.13-29.33,7.31,7.31,0,1,0-14.13,3.72,65,65,0,0,0,98.24,37.85,7.72,7.72,0,0,1,12,7.22,7.5,7.5,0,0,1-3.37,5.58,80.79,80.79,0,0,1-90.51-1.63,7.3,7.3,0,0,0-8.46,11.91,95.48,95.48,0,0,0,107,1.93A22.11,22.11,0,0,0,187,188.16"/><path class="cls-3" d="M111.6,107.75a21.87,21.87,0,0,1,26.85,0,7.31,7.31,0,0,0,9-11.55,36.54,36.54,0,1,0-27,65.12,38.61,38.61,0,0,0,4.66.29,36.23,36.23,0,0,0,22.31-7.67,7.3,7.3,0,1,0-8.95-11.54,21.92,21.92,0,0,1-26.86-34.64"/><path class="cls-3" d="M156.38,85.57A50.1,50.1,0,0,1,163.12,92a7.3,7.3,0,1,0,11-9.55,65,65,0,0,0-67.36-19.78l-.35.1c-.75.22-1.48.45-2.21.7l-.82.28c-.57.2-1.14.41-1.7.63s-.91.35-1.36.54l-1.12.47c-.66.28-1.31.58-2,.88l-.51.24a64.88,64.88,0,0,0-34.66,42.13,7.31,7.31,0,0,0,5.24,8.91,7.86,7.86,0,0,0,1.84.23,7.31,7.31,0,0,0,7.07-5.47,50,50,0,0,1,3.22-8.85c.13-.2.25-.39.36-.6a50.23,50.23,0,0,1,25.37-24.14l.43-.18c.49-.21,1-.4,1.48-.59l.94-.35,1-.34c.46-.16.93-.31,1.41-.44l.54-.17,1.81-.49.19,0a50.25,50.25,0,0,1,42.71,9,5.4,5.4,0,0,0,.65.4"/><path class="cls-3" d="M111.43,45.81A7.31,7.31,0,0,0,109,31.4,95,95,0,0,0,47.63,180.13a7.28,7.28,0,0,0,5.94,3.07,7.19,7.19,0,0,0,4.24-1.37,7.28,7.28,0,0,0,1.7-10.18A80.38,80.38,0,0,1,111.43,45.81"/><path class="cls-3" d="M111.43,234.6a109.33,109.33,0,0,1-64.37-31.38A110.47,110.47,0,0,1,37.7,57.42a7.31,7.31,0,0,0-11.54-9,125.09,125.09,0,0,0,10.58,165.1,123.77,123.77,0,0,0,72.91,35.54,6.92,6.92,0,0,0,.9.06,7.31,7.31,0,0,0,.88-14.56"/><path class="cls-3" d="M201.25,215A7.29,7.29,0,0,0,191,213.52a110.17,110.17,0,0,1-52.2,21,7.31,7.31,0,0,0,.89,14.56,7,7,0,0,0,.92-.06,124.87,124.87,0,0,0,59.14-23.84A7.31,7.31,0,0,0,201.25,215"/><path class="cls-3" d="M57,38A110.43,110.43,0,0,1,184.2,31.82a7.64,7.64,0,0,1,3.52,5.63,7.38,7.38,0,0,1-2.14,6.12l-.25.25a7.65,7.65,0,0,1-9.58.91,94.12,94.12,0,0,0-35.13-13.39,7.3,7.3,0,1,0-2.4,14.41,79.58,79.58,0,0,1,29.71,11.33,22.71,22.71,0,0,0,12.13,3.55,22,22,0,0,0,15.63-6.5l.24-.25a22,22,0,0,0,6.32-18A22.24,22.24,0,0,0,192,19.49a125,125,0,0,0-144,7A7.3,7.3,0,0,0,57,38"/><path class="cls-4" d="M325.06,117a5,5,0,0,0-3.62-1.52H258.5a5.19,5.19,0,0,0-5.15,5.15v95.22A5.21,5.21,0,0,0,258.5,221h11.94a5,5,0,0,0,3.62-1.53,4.9,4.9,0,0,0,1.52-3.62V183.3h42.91a5.21,5.21,0,0,0,5.15-5.14V167.69a5.21,5.21,0,0,0-5.15-5.15H275.58V136.29h45.86a5.21,5.21,0,0,0,5.14-5.16V120.67a5,5,0,0,0-1.52-3.62Z"/><path class="cls-4" d="M370.87,156c.38-6.64,2.56-11.88,6.49-15.58s9.25-5.58,15.78-5.58,11.85,1.88,15.78,5.58,6.12,8.94,6.5,15.6c.19,2.45.29,6.58.29,12.29s-.1,10-.3,12.46c-.37,6.64-2.56,11.85-6.48,15.5s-9.25,5.51-15.79,5.51-11.85-1.85-15.79-5.51-6.1-8.86-6.47-15.48c-.2-4.85-.3-9.06-.3-12.48s.1-7.47.29-12.31m54.65-30.52h0c-7.47-7.56-18.36-11.4-32.38-11.4s-24.91,3.86-32.38,11.48-11.52,17.54-12.12,29.58c-.2,4.5-.3,8.48-.3,11.85,0,4.43.1,9.36.3,14.64.6,12,4.68,22,12.13,29.51s18.35,11.4,32.37,11.4,24.91-3.84,32.38-11.4,11.52-17.48,12.12-29.52c.2-5.36.3-10.28.3-14.63,0-3.34-.1-7.22-.3-11.85C437,143,433,133,425.52,125.45"/><path class="cls-4" d="M658.64,117a5,5,0,0,0-3.62-1.52H643.23a5.19,5.19,0,0,0-5.15,5.15v59.69c0,7.39-1.9,12.85-5.66,16.24s-9.08,5.15-15.73,5.15-11.87-1.73-15.56-5.14-5.53-8.85-5.53-16.25V120.67a5.19,5.19,0,0,0-5.14-5.15H578.52a5.19,5.19,0,0,0-5.15,5.15v60.44c0,12.74,3.74,22.93,11.11,30.3s18.2,11.1,32.21,11.1,24.76-3.76,32.22-11.17,11.25-17.59,11.25-30.23V120.67a4.93,4.93,0,0,0-1.52-3.62Z"/><path class="cls-4" d="M788.31,117a5,5,0,0,0-3.63-1.52h-10a6.62,6.62,0,0,0-4.53,1.4,19.67,19.67,0,0,0-2.74,3l-27.08,47-27.07-47a20.54,20.54,0,0,0-2.74-3,6.66,6.66,0,0,0-4.53-1.4H696a5.19,5.19,0,0,0-5.15,5.15v95.22A5.21,5.21,0,0,0,696,221h11.94a5,5,0,0,0,3.63-1.53,4.93,4.93,0,0,0,1.52-3.62V162.61l17,29.44c1.79,2.8,4,4.22,6.44,4.22h7.67c2.47,0,4.64-1.42,6.46-4.27l17-29.39v53.28a5.21,5.21,0,0,0,5.15,5.15h11.94a5,5,0,0,0,3.63-1.53,4.93,4.93,0,0,0,1.52-3.62V120.67a5,5,0,0,0-1.52-3.63"/><path class="cls-4" d="M268.9,44.19c2-2.06,4.84-3.1,8.52-3.1s6.51.78,8.44,2.3a8.79,8.79,0,0,1,3.48,5.53,3.14,3.14,0,0,0,1.18,2,3.28,3.28,0,0,0,2,.73H299a3.07,3.07,0,0,0,2.16-.82,2.66,2.66,0,0,0,.81-2.21,20.24,20.24,0,0,0-3-9.21,20,20,0,0,0-8.13-7.19,29.34,29.34,0,0,0-13.39-2.76c-7.3,0-13.12,2.11-17.3,6.25s-6.49,9.68-6.93,16.52c-.1,2.66-.16,4.9-.16,6.71s.06,4.05.16,6.74c.44,6.81,2.77,12.36,6.93,16.49s10,6.25,17.3,6.25a29.19,29.19,0,0,0,13.39-2.76,19.86,19.86,0,0,0,8.13-7.18,20.28,20.28,0,0,0,3-9.2,2.7,2.7,0,0,0-.81-2.23,3.07,3.07,0,0,0-2.16-.81h-6.45a3.08,3.08,0,0,0-2,.74,3.2,3.2,0,0,0-1.12,2,8.8,8.8,0,0,1-3.51,5.54c-2,1.52-4.82,2.29-8.49,2.29s-6.54-1-8.52-3.09a12.4,12.4,0,0,1-3.31-8.14q-.16-3.95-.16-6.65c0-1.79.05-4,.16-6.63a12.4,12.4,0,0,1,3.31-8.15"/><path class="cls-4" d="M331.73,30.29h-6.45a3,3,0,0,0-3,3V84.69a3,3,0,0,0,3,3h6.45a3,3,0,0,0,3-3V33.26a3,3,0,0,0-3-3"/><path class="cls-4" d="M396.45,30.29h-39.4a3,3,0,0,0-3,3v5.66a3,3,0,0,0,3,3h13.5v42.8a3,3,0,0,0,3,3H380a2.92,2.92,0,0,0,2.1-.88,2.87,2.87,0,0,0,.87-2.09V41.89h13.51a3,3,0,0,0,3-3V33.26a2.84,2.84,0,0,0-.88-2.09,2.88,2.88,0,0,0-2.09-.88"/><path class="cls-4" d="M464.14,30.29h-6a4.21,4.21,0,0,0-2.71.86,4.84,4.84,0,0,0-1.35,1.55L441.94,54,429.78,32.73a4.9,4.9,0,0,0-1.38-1.58,4.21,4.21,0,0,0-2.71-.86h-6a3,3,0,0,0-3,3,2.38,2.38,0,0,0,.27,1.13l18.75,33v17.3a3,3,0,0,0,3,3h6.37a3,3,0,0,0,3-3V67.39l18.78-33a2.46,2.46,0,0,0,.25-1.09,3,3,0,0,0-3-3"/><path class="cls-4" d="M552.71,70.11a5.38,5.38,0,0,1-1.83,4.32c-1.24,1.08-3.19,1.63-5.78,1.63H531.2v-12h13.9a8.61,8.61,0,0,1,5.71,1.68,5.36,5.36,0,0,1,1.9,4.34M531.2,52.5V41.89h13.26c2.5,0,4.35.45,5.5,1.34a4.65,4.65,0,0,1,1.63,4,4.67,4.67,0,0,1-1.63,4c-1.15.88-3,1.34-5.5,1.34Zm27.87,5.11A16.92,16.92,0,0,0,562,54.14a13,13,0,0,0,2-7.34,16.78,16.78,0,0,0-1.88-7.54A15.87,15.87,0,0,0,556,32.88a20.3,20.3,0,0,0-10.73-2.59H521.78a2.9,2.9,0,0,0-2.1.88,2.86,2.86,0,0,0-.88,2.09V84.68a3,3,0,0,0,3,3h25.3a18,18,0,0,0,9.67-2.55A17.08,17.08,0,0,0,563,78.5a17.89,17.89,0,0,0,2.12-8.39,15.17,15.17,0,0,0-2-7.86,16.7,16.7,0,0,0-4-4.64"/><path class="cls-4" d="M595.48,30.29H589a2.92,2.92,0,0,0-2.1.88,2.87,2.87,0,0,0-.87,2.09V84.69a3,3,0,0,0,3,3h6.45a2.92,2.92,0,0,0,2.1-.88,2.87,2.87,0,0,0,.87-2.09V33.26a2.87,2.87,0,0,0-.87-2.09,2.92,2.92,0,0,0-2.1-.88"/><path class="cls-4" d="M655.69,70.11a5.38,5.38,0,0,1-1.82,4.32c-1.25,1.08-3.2,1.63-5.79,1.63h-13.9v-12h13.9a8.61,8.61,0,0,1,5.71,1.68,5.36,5.36,0,0,1,1.9,4.34M634.18,52.5V41.89h13.26c2.5,0,4.36.45,5.51,1.34a4.68,4.68,0,0,1,1.63,4,4.7,4.7,0,0,1-1.63,4c-1.15.88-3,1.34-5.51,1.34Zm27.87,5.11a16.61,16.61,0,0,0,3-3.47,13,13,0,0,0,2-7.34,16.78,16.78,0,0,0-1.88-7.54A15.9,15.9,0,0,0,659,32.88a20.36,20.36,0,0,0-10.74-2.59H624.76a2.9,2.9,0,0,0-2.1.88,2.86,2.86,0,0,0-.88,2.09V84.68a3,3,0,0,0,3,3h25.31a18,18,0,0,0,9.67-2.55A17.13,17.13,0,0,0,666,78.5a17.9,17.9,0,0,0,2.13-8.39,15.17,15.17,0,0,0-2-7.86,16.7,16.7,0,0,0-4.05-4.64"/><path class="cls-4" d="M726.87,76.06H701.43V33.26a3,3,0,0,0-3-3H692a2.92,2.92,0,0,0-2.1.88,2.87,2.87,0,0,0-.87,2.09V84.68a3,3,0,0,0,3,3h34.86a3,3,0,0,0,3-3V79a2.92,2.92,0,0,0-.88-2.1,2.88,2.88,0,0,0-2.1-.87"/><path class="cls-4" d="M789.08,76.93h0a2.89,2.89,0,0,0-2.1-.87H761.46V64.5H784.6a3,3,0,0,0,3-3V55.87a3,3,0,0,0-3-3H761.46v-11h24.89a2.88,2.88,0,0,0,2.09-.88,2.85,2.85,0,0,0,.88-2.1V33.27a3,3,0,0,0-3-3H752a2.92,2.92,0,0,0-2.1.88,2.88,2.88,0,0,0-.87,2.1V84.68a3,3,0,0,0,3,3H787a3,3,0,0,0,3-3V79a2.92,2.92,0,0,0-.88-2.1"/><path class="cls-4" d="M548.38,214.43,529.71,181a1.94,1.94,0,0,1,.83-2.7A30,30,0,0,0,542.44,168c3.45-5.23,5.21-11.62,5.21-19,0-10.42-3.41-18.7-10.13-24.6h0c-6.68-5.86-16.31-8.84-28.63-8.84h-38a5.19,5.19,0,0,0-5.14,5.15v95.17a5,5,0,0,0,1,3.08,5.11,5.11,0,0,0,4.15,2.12H482.8a5.19,5.19,0,0,0,5.15-5.15V138.24a2,2,0,0,1,2-2h18.25c5.83,0,10.25,1,13.14,2.84s4.11,5,4.11,9.85-1.37,8.11-4.2,10a19.09,19.09,0,0,1-8.59,2.74,13,13,0,0,0-8,3.85,10.5,10.5,0,0,0-1.6,12.45l21.6,38.41A7.84,7.84,0,0,0,532,221h12.53a4.44,4.44,0,0,0,4.41-4.41,4.91,4.91,0,0,0-.59-2.2"/><path class="cls-3" d="M851.07,180.93a3.52,3.52,0,0,1-3.46,3.46h-9.73a3.37,3.37,0,0,1-2.44-1,3.32,3.32,0,0,1-1-2.43v-23.3H811.5a3.52,3.52,0,0,1-3.46-3.46v-8.45a3.33,3.33,0,0,1,1-2.43,3.29,3.29,0,0,1,2.43-1h22.92V119.08a3.48,3.48,0,0,1,3.46-3.45h9.73a3.5,3.5,0,0,1,3.46,3.45v23.18h22.79a3.5,3.5,0,0,1,3.45,3.46v8.45a3.32,3.32,0,0,1-1,2.43,3.36,3.36,0,0,1-2.43,1H851.07Z"/></g></g></svg>