<?xml version="1.0" encoding="UTF-8" standalone="no"?>
<!-- Created with Inkscape (http://www.inkscape.org/) -->

<svg
   xmlns:dc="http://purl.org/dc/elements/1.1/"
   xmlns:cc="http://creativecommons.org/ns#"
   xmlns:rdf="http://www.w3.org/1999/02/22-rdf-syntax-ns#"
   xmlns:svg="http://www.w3.org/2000/svg"
   xmlns="http://www.w3.org/2000/svg"
   xmlns:sodipodi="http://sodipodi.sourceforge.net/DTD/sodipodi-0.dtd"
   xmlns:inkscape="http://www.inkscape.org/namespaces/inkscape"
   id="svg2"
   version="1.1"
   inkscape:version="0.91 r13725"
   xml:space="preserve"
   width="320"
   height="320"
   viewBox="0 0 320 320"
   sodipodi:docname="cbf-favicon.svg"><metadata
     id="metadata8"><rdf:RDF><cc:Work
         rdf:about=""><dc:format>image/svg+xml</dc:format><dc:type
           rdf:resource="http://purl.org/dc/dcmitype/StillImage" /><dc:title></dc:title></cc:Work></rdf:RDF></metadata><defs
     id="defs6"><clipPath
       clipPathUnits="userSpaceOnUse"
       id="clipPath16"><path
         d="m 0,248.233 787.036,0 L 787.036,0 0,0 0,248.233 Z"
         id="path18"
         inkscape:connector-curvature="0" /></clipPath></defs><sodipodi:namedview
     pagecolor="#ffffff"
     bordercolor="#666666"
     borderopacity="1"
     objecttolerance="10"
     gridtolerance="10"
     guidetolerance="10"
     inkscape:pageopacity="0"
     inkscape:pageshadow="2"
     inkscape:window-width="1325"
     inkscape:window-height="744"
     id="namedview4"
     showgrid="false"
     fit-margin-top="4.8545"
     fit-margin-left="33.774"
     fit-margin-right="33.774"
     fit-margin-bottom="4.8545"
     inkscape:zoom="1"
     inkscape:cx="235.07629"
     inkscape:cy="159.99965"
     inkscape:window-x="41"
     inkscape:window-y="24"
     inkscape:window-maximized="1"
     inkscape:current-layer="g10" /><g
     id="g10"
     inkscape:groupmode="layer"
     inkscape:label="CBF"
     transform="matrix(1.25,0,0,-1.25,33.774065,315.146)"><g
       id="g4345"
       transform="scale(1.0000017,1.0000017)"><path
         d="m 186.2661,60.7719 c 0.678,6.713 -1.666,13.291 -6.444,18.05 -7.386,7.366 -19.136,8.548 -27.939,2.807 -19.685,-12.842 -46.078,-10.099 -62.755,6.524 -6.309,6.289 -10.833,14.139 -13.087,22.702 -1.027,3.89 -5.007,6.214 -8.892,5.187 -3.89,-1.023 -6.21,-5.002 -5.187,-8.893 2.912,-11.057 8.753,-21.19 16.887,-29.305 21.52,-21.446 55.579,-24.987 80.989,-8.409 3.122,2.04 7.117,1.666 9.71,-0.923 1.656,-1.65 2.474,-3.934 2.235,-6.268 -0.135,-1.342 -0.753,-3.851 -3.352,-5.556 -27.305,-17.939 -63.543,-17.286 -90.181,1.625 -3.276,2.324 -7.82,1.557 -10.149,-1.72 -2.329,-3.277 -1.556,-7.82 1.721,-10.149 16.234,-11.526 35.475,-17.312 54.736,-17.312 18.104,0 36.228,5.113 51.868,15.386 5.576,3.666 9.162,9.591 9.84,16.254"
         style="fill:#1c9cd6;fill-opacity:1;fill-rule:nonzero;stroke:none"
         id="path22"
         inkscape:connector-curvature="0" /><path
         d="m 111.1839,140.8803 c 7.89,6.114 18.892,6.124 26.762,0.015 3.177,-2.464 7.745,-1.896 10.214,1.282 2.464,3.177 1.885,7.75 -1.287,10.214 -13.126,10.188 -31.47,10.188 -44.611,-0.005 -15.855,-12.299 -18.753,-35.201 -6.459,-51.061 5.96,-7.68 14.548,-12.588 24.199,-13.804 1.551,-0.195 3.097,-0.295 4.638,-0.295 8.024,0 15.78,2.638 22.228,7.64 3.177,2.464 3.756,7.037 1.292,10.215 -2.464,3.172 -7.037,3.755 -10.214,1.286 -4.608,-3.57 -10.319,-5.146 -16.119,-4.403 -5.785,0.728 -10.947,3.67 -14.518,8.283 -7.376,9.512 -5.636,23.257 3.875,30.633"
         style="fill:#1c9cd6;fill-opacity:1;fill-rule:nonzero;stroke:none"
         id="path26"
         inkscape:connector-curvature="0" /><path
         d="m 155.7996,162.976 c 2.399,-1.905 4.653,-4.055 6.718,-6.443 2.633,-3.043 7.222,-3.382 10.264,-0.753 3.042,2.628 3.381,7.226 0.753,10.268 -16.887,19.535 -43.365,26.653 -67.12,19.71 -0.114,-0.035 -0.234,-0.07 -0.349,-0.104 -0.738,-0.22 -1.476,-0.454 -2.204,-0.699 -0.269,-0.094 -0.539,-0.184 -0.813,-0.279 -0.564,-0.205 -1.132,-0.409 -1.696,-0.624 -0.454,-0.174 -0.902,-0.353 -1.351,-0.538 -0.374,-0.155 -0.748,-0.309 -1.122,-0.469 -0.649,-0.284 -1.297,-0.579 -1.945,-0.882 -0.165,-0.081 -0.335,-0.156 -0.499,-0.235 -6.434,-3.098 -12.449,-7.287 -17.73,-12.583 -8.12,-8.149 -13.93,-18.308 -16.802,-29.39 -1.008,-3.891 1.326,-7.866 5.221,-8.873 0.614,-0.16 1.227,-0.234 1.831,-0.234 3.236,0 6.189,2.174 7.042,5.456 0.788,3.037 1.875,5.985 3.217,8.813 0.114,0.194 0.239,0.383 0.344,0.598 3.885,7.959 9.855,14.782 17.286,19.72 2.568,1.71 5.246,3.151 7.999,4.334 0.145,0.06 0.285,0.114 0.429,0.175 0.489,0.204 0.978,0.398 1.472,0.588 0.309,0.115 0.623,0.234 0.937,0.344 0.324,0.115 0.654,0.229 0.983,0.339 0.468,0.155 0.932,0.304 1.406,0.444 0.18,0.054 0.359,0.11 0.539,0.165 0.603,0.169 1.207,0.339 1.81,0.488 0.06,0.016 0.12,0.025 0.18,0.045 14.403,3.512 30.133,0.624 42.552,-8.977 0.204,-0.16 0.434,-0.269 0.648,-0.404"
         style="fill:#1c9cd6;fill-opacity:1;fill-rule:nonzero;stroke:none"
         id="path30"
         inkscape:connector-curvature="0" /><path
         d="m 111.0133,202.5893 c 3.96,0.679 6.628,4.434 5.95,8.398 -0.668,3.965 -4.434,6.623 -8.394,5.956 -19.44,-3.312 -37.096,-12.468 -51.06,-26.473 -32.732,-32.842 -36.966,-84.027 -10.064,-121.706 1.421,-1.989 3.66,-3.052 5.929,-3.052 1.467,0 2.943,0.439 4.225,1.356 3.271,2.334 4.029,6.883 1.695,10.155 -22.757,31.874 -19.171,75.178 8.529,102.968 11.815,11.855 26.752,19.6 43.19,22.398"
         style="fill:#1c9cd6;fill-opacity:1;fill-rule:nonzero;stroke:none"
         id="path34"
         inkscape:connector-curvature="0" /><path
         d="m 111.0229,14.5034 c -24.463,3.007 -46.642,13.819 -64.142,31.266 -39.245,39.12 -43.25,101.561 -9.321,145.255 2.468,3.172 1.89,7.746 -1.282,10.209 -3.172,2.464 -7.75,1.891 -10.214,-1.282 -38.433,-49.483 -33.899,-120.199 10.538,-164.497 19.815,-19.749 44.936,-31.993 72.645,-35.399 0.3,-0.04 0.599,-0.055 0.898,-0.055 3.621,0 6.758,2.703 7.217,6.389 0.489,3.989 -2.349,7.625 -6.339,8.114"
         style="fill:#1c9cd6;fill-opacity:1;fill-rule:nonzero;stroke:none"
         id="path38"
         inkscape:connector-curvature="0" /><path
         d="m 200.51,34.0366 c -2.409,3.218 -6.967,3.876 -10.189,1.467 -15.167,-11.352 -33.151,-18.598 -52.008,-20.967 -3.99,-0.499 -6.818,-4.14 -6.319,-8.129 0.464,-3.681 3.596,-6.369 7.212,-6.369 0.304,0 0.613,0.015 0.917,0.055 21.361,2.678 41.734,10.892 58.921,23.755 3.216,2.409 3.875,6.966 1.466,10.188"
         style="fill:#1c9cd6;fill-opacity:1;fill-rule:nonzero;stroke:none"
         id="path42"
         inkscape:connector-curvature="0" /><path
         d="m 56.8295,210.3706 c 36.582,28.637 87.498,31.11 126.688,6.159 1.975,-1.257 3.257,-3.302 3.511,-5.611 0.145,-1.326 0.065,-3.885 -2.139,-6.1 l -0.245,-0.244 c -2.503,-2.509 -6.428,-2.883 -9.55,-0.907 -10.688,6.772 -22.468,11.261 -35.001,13.341 -3.951,0.653 -7.716,-2.02 -8.369,-5.991 -0.659,-3.964 2.02,-7.714 5.99,-8.373 10.598,-1.755 20.552,-5.55 29.594,-11.276 3.756,-2.379 7.945,-3.541 12.085,-3.541 5.7,0 11.306,2.204 15.57,6.479 l 0.245,0.249 c 4.732,4.748 7.027,11.296 6.288,17.96 -0.743,6.717 -4.443,12.657 -10.164,16.297 -44.397,28.264 -102.05,25.456 -143.475,-6.982 -3.167,-2.479 -3.721,-7.052 -1.242,-10.219 2.479,-3.167 7.052,-3.72 10.214,-1.241"
         style="fill:#1c9cd6;fill-opacity:1;fill-rule:nonzero;stroke:none"
         id="path46"
         inkscape:connector-curvature="0" /></g></g></svg>