<?xml version="1.0" encoding="UTF-8" standalone="no"?>
<svg
   xmlns:dc="http://purl.org/dc/elements/1.1/"
   xmlns:cc="http://creativecommons.org/ns#"
   xmlns:rdf="http://www.w3.org/1999/02/22-rdf-syntax-ns#"
   xmlns:svg="http://www.w3.org/2000/svg"
   xmlns="http://www.w3.org/2000/svg"
   xmlns:xlink="http://www.w3.org/1999/xlink"
   id="svg2"
   version="1.1"
   viewBox="0 0 300 43.251971"
   preserveAspectRatio="xMidYMid meet"
   xml:space="preserve"
   width="300"
   height="43.251972"><metadata
     id="metadata8"><rdf:RDF><cc:Work
         rdf:about=""><dc:format>image/svg+xml</dc:format><dc:type
           rdf:resource="http://purl.org/dc/dcmitype/StillImage" /><dc:title></dc:title></cc:Work></rdf:RDF></metadata><defs
     id="defs6"><linearGradient
       id="linearGradient3812"><stop
         style="stop-color:#499ddc;stop-opacity:1;"
         offset="0"
         id="stop3814" /><stop
         style="stop-color:#1c3e64;stop-opacity:1;"
         offset="1"
         id="stop3816" /></linearGradient><linearGradient
       id="linearGradient3804"><stop
         style="stop-color:#1c3e64;stop-opacity:1;"
         offset="0"
         id="stop3806" /><stop
         style="stop-color:#499ddc;stop-opacity:1;"
         offset="1"
         id="stop3808" /></linearGradient><clipPath
       clipPathUnits="userSpaceOnUse"
       id="clipPath18"><path
         d="M 1739.78,908.18 C 1610.7,838.789 1432.71,795.891 1236.16,795.891 c -394.203,0 -713.762,172.504 -713.762,385.309 l 0,-317.669 c 0,-212.801 319.559,-385.301 713.762,-385.301 196.55,0 374.54,42.899 503.62,112.29 l 0,317.66 z"
         id="path20" /></clipPath><linearGradient
       x1="0"
       y1="0"
       x2="1"
       y2="0"
       gradientUnits="userSpaceOnUse"
       gradientTransform="matrix(121.738,0,0,-121.738,52.2399,47.823)"
       spreadMethod="pad"
       id="linearGradient22"><stop
         style="stop-opacity:1;stop-color:#1b3e6e"
         offset="0"
         id="stop24" /><stop
         style="stop-opacity:1;stop-color:#499ddc"
         offset="1"
         id="stop26" /></linearGradient><clipPath
       clipPathUnits="userSpaceOnUse"
       id="clipPath34"><path
         d="m 1438.19,971.805 c -53.44,27.754 -122.66,44.585 -198.46,44.585 -117.63,0 -219.7,-40.367 -270.937,-99.538 -11.23,16.378 -17.367,34.07 -17.367,52.531 0,84.187 127.474,152.437 284.734,152.437 78.44,0 150.21,-17.46 201.69,-44.94 l 100.68,54.78 c -77.35,41.97 -184.41,68.3 -302.37,68.3 -202.74,0 -372.406,-76.67 -416.484,-179.56 -7.285,17.02 -11.258,34.73 -11.258,52.96 0,128.38 191.09,232.45 426.812,232.45 118.23,0 225.17,-26.2 302.44,-68.5 l 101.72,55.03 c -114.87,59.38 -249.92,89.87 -403.6,89.87 -336.985,0 -527.97,-143.85 -561.185,-251.19 -0.234,-0.75 -0.195,-0.57 -0.421,-1.34 -5.215,16.76 -7.973,33.96 -7.973,51.52 0,170 254.73,306.86 568.959,306.86 158.12,0 301.16,-33.95 404.27,-90.29 l 100.8,54.94 -302.05,-480.905 z"
         id="path36" /></clipPath><linearGradient
       x1="0"
       y1="0"
       x2="1"
       y2="0"
       gradientUnits="userSpaceOnUse"
       gradientTransform="matrix(-106.732,0,0,106.732,174.109,121.925)"
       spreadMethod="pad"
       id="linearGradient38"><stop
         style="stop-opacity:1;stop-color:#1b3e6e"
         offset="0"
         id="stop40" /><stop
         style="stop-opacity:1;stop-color:#499ddc"
         offset="1"
         id="stop42" /></linearGradient><linearGradient
       xlink:href="#linearGradient3804"
       id="linearGradient3810"
       x1="522.39801"
       y1="829.71503"
       x2="1739.78"
       y2="829.71503"
       gradientUnits="userSpaceOnUse" /><linearGradient
       xlink:href="#linearGradient3812"
       id="linearGradient3818"
       x1="666.211"
       y1="1202.4561"
       x2="1740.24"
       y2="1202.4561"
       gradientUnits="userSpaceOnUse" /><linearGradient
       xlink:href="#linearGradient3804"
       id="linearGradient4437"
       gradientUnits="userSpaceOnUse"
       x1="522.39801"
       y1="829.71503"
       x2="1739.78"
       y2="829.71503" /><linearGradient
       xlink:href="#linearGradient3804"
       id="linearGradient4439"
       gradientUnits="userSpaceOnUse"
       x1="522.39801"
       y1="829.71503"
       x2="1739.78"
       y2="829.71503" /><linearGradient
       xlink:href="#linearGradient3812"
       id="linearGradient4441"
       gradientUnits="userSpaceOnUse"
       x1="666.211"
       y1="1202.4561"
       x2="1740.24"
       y2="1202.4561" /><linearGradient
       xlink:href="#linearGradient3812"
       id="linearGradient4443"
       gradientUnits="userSpaceOnUse"
       x1="666.211"
       y1="1202.4561"
       x2="1740.24"
       y2="1202.4561" /></defs><g
     id="g10"
     transform="matrix(0.42830943,0,0,-0.42830943,-22.374799,63.735013)"><g
       id="g14"
       transform="scale(0.1,0.1)"
       style="fill:url(#linearGradient3810);fill-opacity:1"><g
         clip-path="url(#clipPath18)"
         id="g16"
         style="fill:url(#linearGradient4439);fill-opacity:1"><path
           id="path28"
           style="fill:url(#linearGradient4437);fill-opacity:1;fill-rule:nonzero;stroke:none"
           d="M 1739.78,908.18 C 1610.7,838.789 1432.71,795.891 1236.16,795.891 c -394.203,0 -713.762,172.504 -713.762,385.309 l 0,-317.669 c 0,-212.801 319.559,-385.301 713.762,-385.301 196.55,0 374.54,42.899 503.62,112.29 l 0,317.66" /></g></g><g
       id="g30"
       transform="scale(0.1,0.1)"
       style="fill:url(#linearGradient3818);fill-opacity:1"><g
         clip-path="url(#clipPath34)"
         id="g32"
         style="fill:url(#linearGradient4443);fill-opacity:1"><path
           id="path44"
           style="fill:url(#linearGradient4441);fill-opacity:1;fill-rule:nonzero;stroke:none"
           d="m 1438.19,971.805 c -53.44,27.754 -122.66,44.585 -198.46,44.585 -117.63,0 -219.7,-40.367 -270.937,-99.538 -11.23,16.378 -17.367,34.07 -17.367,52.531 0,84.187 127.474,152.437 284.734,152.437 78.44,0 150.21,-17.46 201.69,-44.94 l 100.68,54.78 c -77.35,41.97 -184.41,68.3 -302.37,68.3 -202.74,0 -372.406,-76.67 -416.484,-179.56 -7.285,17.02 -11.258,34.73 -11.258,52.96 0,128.38 191.09,232.45 426.812,232.45 118.23,0 225.17,-26.2 302.44,-68.5 l 101.72,55.03 c -114.87,59.38 -249.92,89.87 -403.6,89.87 -336.985,0 -527.97,-143.85 -561.185,-251.19 -0.234,-0.75 -0.195,-0.57 -0.421,-1.34 -5.215,16.76 -7.973,33.96 -7.973,51.52 0,170 254.73,306.86 568.959,306.86 158.12,0 301.16,-33.95 404.27,-90.29 l 100.8,54.94 -302.05,-480.905" /></g></g><path
       id="path46"
       style="fill:#1c3e64;fill-opacity:1;fill-rule:nonzero;stroke:none"
       d="m 466.816,65.2578 2.494,0 -2.699,20.7094 -2.553,0 -11.722,-20.7094 2.772,0 3.595,6.5871 7.277,0 0.836,-6.5871 z m -6.881,8.7961 c 2.015,3.6551 3.235,5.893 3.661,6.7141 0.425,0.8218 0.819,1.648 1.181,2.4789 0.049,-1.6149 0.191,-3.2668 0.425,-4.9578 l 0.514,-4.2352 -5.781,0 z m 21.1,-2.8109 c -0.225,0.4672 -0.565,0.9039 -1.02,1.3101 -0.454,0.4059 -1.205,0.8918 -2.252,1.459 -1.085,0.5949 -1.802,1.0809 -2.149,1.459 -0.347,0.3769 -0.521,0.8309 -0.521,1.3598 0,0.6511 0.259,1.182 0.778,1.5929 0.518,0.4114 1.232,0.616 2.142,0.616 1.164,0 2.239,-0.2027 3.227,-0.6089 l 0.822,-0.3539 0.792,1.941 c -1.555,0.698 -3.169,1.048 -4.841,1.048 -1.614,0 -2.915,-0.3988 -3.903,-1.1969 -0.988,-0.798 -1.482,-1.8492 -1.482,-3.1519 0,-0.9063 0.265,-1.6902 0.793,-2.3512 0.528,-0.6609 1.428,-1.3359 2.699,-2.0262 1.135,-0.6418 1.873,-1.1468 2.216,-1.5148 0.342,-0.368 0.513,-0.8219 0.513,-1.3602 0,-0.7367 -0.313,-1.341 -0.939,-1.8128 -0.626,-0.4719 -1.555,-0.7079 -2.787,-0.7079 -0.675,0 -1.409,0.1079 -2.201,0.3258 -0.792,0.2172 -1.531,0.5242 -2.215,0.9199 l 0,-2.2378 c 1.33,-0.6508 2.821,-0.977 4.474,-0.977 1.966,0 3.489,0.4129 4.57,1.2391 1.081,0.8257 1.621,1.9757 1.621,3.4488 0,0.5859 -0.112,1.1121 -0.337,1.5801 z m 5.936,1.9332 c 0.44,1.2179 0.939,3.0828 1.496,5.5949 0.558,2.5117 1.189,5.3539 1.893,8.5269 l -2.494,0 -4.842,-22.0402 2.494,0 1.203,5.6801 2.23,1.7422 3.448,-7.4223 2.744,0 -4.328,8.9102 6.88,6.614 -2.949,0 -7.717,-7.6058 -0.058,0 z m 20.783,-5.8364 c -0.284,0.284 -0.425,0.6903 -0.425,1.218 0,0.4254 0.088,1.0492 0.264,1.8703 l 1.892,8.5559 4.005,0 0.382,1.798 -4.02,0 0.807,3.57 -1.438,0 -1.834,-3.2301 -2.714,-1.1039 -0.205,-1.034 2.523,0 -1.863,-8.527 c -0.176,-0.7941 -0.264,-1.5019 -0.264,-2.125 0,-1.1148 0.325,-1.9531 0.975,-2.514 0.651,-0.5621 1.587,-0.843 2.81,-0.843 0.293,0 0.684,0.0469 1.174,0.1422 0.489,0.0937 0.899,0.2066 1.232,0.3387 l 0,1.8281 c -0.871,-0.2461 -1.575,-0.3692 -2.113,-0.3692 -0.508,0 -0.904,0.1422 -1.188,0.425 z m 17.502,-2.082 c 1.036,4.5231 1.746,7.6961 2.127,9.5192 0.225,0.982 0.338,1.7652 0.338,2.3511 0,1.2457 -0.35,2.2098 -1.049,2.8899 -0.7,0.6789 -1.69,1.0191 -2.971,1.0191 -0.979,0 -1.915,-0.25 -2.81,-0.75 -0.895,-0.5012 -1.802,-1.332 -2.721,-2.493 l -0.162,0 c 0.264,0.9629 0.496,1.8547 0.697,2.677 0.2,0.8211 0.386,1.607 0.558,2.3578 0.171,0.7512 0.337,1.4902 0.498,2.2172 0.162,0.7269 0.33,1.4777 0.507,2.2519 l -2.465,0 -4.842,-22.0402 2.465,0 1.482,6.7 c 0.323,1.5012 0.799,2.7832 1.43,3.8461 0.631,1.0621 1.36,1.8723 2.186,2.4293 0.827,0.5566 1.675,0.8359 2.546,0.8359 1.438,0 2.156,-0.6992 2.156,-2.0972 0,-0.3867 -0.088,-1.025 -0.264,-1.9117 l -2.171,-9.8024 2.465,0 z m 12.71,-0.0348 c 0.705,0.1649 1.516,0.4551 2.436,0.8711 l 0,2.068 c -0.968,-0.4531 -1.778,-0.7652 -2.428,-0.9351 -0.651,-0.17 -1.284,-0.2551 -1.9,-0.2551 -1.262,0 -2.193,0.3472 -2.795,1.041 -0.602,0.6941 -0.902,1.6601 -0.902,2.8973 l 0.058,1.1328 0.485,0 c 3.022,0 5.345,0.484 6.968,1.4519 1.624,0.968 2.436,2.302 2.436,4.0012 0,1.1238 -0.377,2 -1.13,2.6277 -0.753,0.6282 -1.878,0.9422 -3.374,0.9422 -1.448,0 -2.773,-0.4539 -3.976,-1.3601 -1.203,-0.9071 -2.169,-2.1739 -2.898,-3.8028 -0.728,-1.6293 -1.093,-3.3312 -1.093,-5.107 0,-1.8223 0.514,-3.2481 1.541,-4.277 1.027,-1.03 2.44,-1.5441 4.24,-1.5441 0.851,0 1.628,0.0828 2.332,0.248 z m 1.387,13.3211 c 0.357,-0.33 0.535,-0.7461 0.535,-1.2461 0,-1.0671 -0.594,-1.882 -1.782,-2.4429 -1.189,-0.5621 -2.898,-0.843 -5.128,-0.843 l -0.176,0 c 0.47,1.577 1.147,2.809 2.032,3.6969 0.885,0.8871 1.832,1.3308 2.839,1.3308 0.763,0 1.323,-0.1648 1.68,-0.4957 z M 561.589,66.384 c 1.198,0.9398 2.132,2.248 2.802,3.9238 0.67,1.6762 1.005,3.5012 1.005,5.4742 0,1.634 -0.387,2.918 -1.159,3.8532 -0.773,0.9347 -1.849,1.4019 -3.228,1.4019 -0.939,0 -1.851,-0.2621 -2.736,-0.7859 -0.885,-0.5242 -1.783,-1.3434 -2.692,-2.4571 l -0.132,0 c 0.469,1.6239 0.838,3.043 1.107,4.2559 0.269,1.2129 0.653,2.9629 1.152,5.248 l -2.465,0 -4.841,-22.0402 1.834,0 1.027,2.4082 0.146,0 c 0.362,-0.8308 0.903,-1.4871 1.622,-1.9691 0.719,-0.4809 1.552,-0.7219 2.501,-0.7219 1.506,0 2.858,0.4699 4.057,1.409 z m 1.283,9.4691 c 0,-1.5859 -0.254,-3.0851 -0.763,-4.4972 -0.508,-1.4118 -1.181,-2.5 -2.017,-3.2649 -0.836,-0.7648 -1.738,-1.1469 -2.707,-1.1469 -1.027,0 -1.812,0.2758 -2.354,0.8278 -0.543,0.5531 -0.815,1.348 -0.815,2.3871 0,1.4262 0.286,2.8191 0.859,4.1789 0.572,1.359 1.344,2.4883 2.318,3.3851 0.973,0.8969 1.929,1.3461 2.868,1.3461 1.741,0 2.611,-1.0722 2.611,-3.216 l 0,0 z m 9.817,4.9289 -2.465,0 -3.433,-15.5242 2.465,0 3.433,15.5242 z m -1.394,2.9821 c 0.254,-0.2313 0.577,-0.3469 0.968,-0.3469 0.43,0 0.809,0.1789 1.137,0.5379 0.328,0.359 0.492,0.798 0.492,1.3179 0,0.8489 -0.431,1.2739 -1.291,1.2739 -0.499,0 -0.905,-0.1668 -1.218,-0.502 -0.313,-0.3359 -0.47,-0.7679 -0.47,-1.2969 0,-0.4242 0.127,-0.7531 0.382,-0.9839 z m 12.089,-2.9821 c -0.743,0.1891 -1.496,0.284 -2.259,0.284 -1.819,0 -3.314,-0.5859 -4.482,-1.757 -1.169,-1.1711 -1.753,-2.6719 -1.753,-4.5039 0,-0.784 0.195,-1.4711 0.586,-2.061 0.391,-0.5902 0.895,-1.0363 1.512,-1.3382 -0.891,-0.4071 -1.585,-0.843 -2.084,-1.311 -0.499,-0.4668 -0.748,-1.0269 -0.748,-1.6777 0,-0.7563 0.381,-1.3274 1.144,-1.7141 -1.575,-0.5101 -2.714,-1.1293 -3.418,-1.8562 -0.704,-0.727 -1.056,-1.586 -1.056,-2.5778 0,-1.2652 0.538,-2.2453 1.613,-2.939 1.076,-0.6942 2.563,-1.041 4.461,-1.041 2.591,0 4.601,0.4769 6.029,1.4308 1.428,0.9539 2.142,2.2992 2.142,4.0371 0,1.209 -0.398,2.1239 -1.195,2.7481 -0.798,0.623 -2.081,1.0379 -3.852,1.2461 l -1.716,0.1976 c -0.616,0.0762 -1.086,0.1774 -1.408,0.3051 -0.323,0.127 -0.485,0.3852 -0.485,0.7723 0,0.7359 0.68,1.3547 2.04,1.8547 0.283,-0.075 0.694,-0.1129 1.232,-0.1129 1.907,0 3.431,0.5359 4.57,1.6082 1.139,1.0707 1.709,2.509 1.709,4.3129 0,0.9058 -0.2,1.6519 -0.601,2.2379 l 3.095,0.3402 0.367,1.5148 -5.443,0 z m -9.243,-16.1332 c 0.626,0.5953 1.526,1.0102 2.7,1.2473 l 2.333,-0.227 c 1.271,-0.132 2.171,-0.3679 2.699,-0.7082 0.528,-0.3398 0.792,-0.8027 0.792,-1.3879 0,-1.096 -0.501,-1.9429 -1.504,-2.5429 -1.002,-0.6 -2.393,-0.8992 -4.173,-0.8992 -1.253,0 -2.196,0.2121 -2.832,0.6371 -0.636,0.425 -0.954,1.0011 -0.954,1.7281 0,0.841 0.313,1.5578 0.939,2.1527 z m 3.617,12.4723 c 0.318,0.684 0.763,1.218 1.335,1.6 0.572,0.3828 1.24,0.5738 2.003,0.5738 0.801,0 1.418,-0.2027 1.848,-0.609 0.43,-0.4058 0.646,-0.9961 0.646,-1.7699 0,-0.8129 -0.154,-1.566 -0.463,-2.2601 -0.308,-0.6938 -0.75,-1.2387 -1.327,-1.636 -0.578,-0.3961 -1.252,-0.5949 -2.025,-0.5949 -0.783,0 -1.394,0.2102 -1.834,0.6309 -0.44,0.4203 -0.66,1.0312 -0.66,1.8339 0,0.8024 0.159,1.5461 0.477,2.2313 z m 20.82,3.6609 c -0.743,0.1891 -1.496,0.284 -2.259,0.284 -1.819,0 -3.314,-0.5859 -4.482,-1.757 -1.169,-1.1711 -1.754,-2.6719 -1.754,-4.5039 0,-0.784 0.196,-1.4711 0.587,-2.061 0.391,-0.5902 0.895,-1.0363 1.511,-1.3382 -0.89,-0.4071 -1.584,-0.843 -2.083,-1.311 -0.499,-0.4668 -0.748,-1.0269 -0.748,-1.6777 0,-0.7563 0.381,-1.3274 1.144,-1.7141 -1.575,-0.5101 -2.714,-1.1293 -3.418,-1.8562 -0.704,-0.727 -1.056,-1.586 -1.056,-2.5778 0,-1.2652 0.538,-2.2453 1.613,-2.939 1.076,-0.6942 2.563,-1.041 4.46,-1.041 2.592,0 4.602,0.4769 6.03,1.4308 1.428,0.9539 2.142,2.2992 2.142,4.0371 0,1.209 -0.398,2.1239 -1.195,2.7481 -0.798,0.623 -2.081,1.0379 -3.852,1.2461 l -1.716,0.1976 c -0.616,0.0762 -1.086,0.1774 -1.409,0.3051 -0.322,0.127 -0.484,0.3852 -0.484,0.7723 0,0.7359 0.68,1.3547 2.04,1.8547 0.283,-0.075 0.694,-0.1129 1.232,-0.1129 1.907,0 3.431,0.5359 4.57,1.6082 1.139,1.0707 1.709,2.509 1.709,4.3129 0,0.9058 -0.2,1.6519 -0.601,2.2379 l 3.095,0.3402 0.367,1.5148 -5.443,0 z m -9.243,-16.1332 c 0.626,0.5953 1.526,1.0102 2.7,1.2473 l 2.332,-0.227 c 1.272,-0.132 2.172,-0.3679 2.7,-0.7082 0.528,-0.3398 0.792,-0.8027 0.792,-1.3879 0,-1.096 -0.501,-1.9429 -1.504,-2.5429 -1.002,-0.6 -2.394,-0.8992 -4.174,-0.8992 -1.252,0 -2.195,0.2121 -2.831,0.6371 -0.636,0.425 -0.954,1.0011 -0.954,1.7281 0,0.841 0.313,1.5578 0.939,2.1527 z m 3.617,12.4723 c 0.317,0.684 0.763,1.218 1.335,1.6 0.572,0.3828 1.239,0.5738 2.002,0.5738 0.802,0 1.419,-0.2027 1.849,-0.609 0.43,-0.4058 0.646,-0.9961 0.646,-1.7699 0,-0.8129 -0.154,-1.566 -0.463,-2.2601 -0.308,-0.6938 -0.75,-1.2387 -1.327,-1.636 -0.578,-0.3961 -1.252,-0.5949 -2.025,-0.5949 -0.783,0 -1.394,0.2102 -1.834,0.6309 -0.44,0.4203 -0.66,1.0312 -0.66,1.8339 0,0.8024 0.159,1.5461 0.477,2.2313 z M 611.273,65.223 c 0.704,0.1649 1.516,0.4551 2.435,0.8711 l 0,2.068 c -0.968,-0.4531 -1.778,-0.7652 -2.428,-0.9351 -0.651,-0.17 -1.284,-0.2551 -1.9,-0.2551 -1.262,0 -2.193,0.3472 -2.795,1.041 -0.601,0.6941 -0.902,1.6601 -0.902,2.8973 l 0.059,1.1328 0.484,0 c 3.022,0 5.345,0.484 6.969,1.4519 1.623,0.968 2.435,2.302 2.435,4.0012 0,1.1238 -0.377,2 -1.13,2.6277 -0.753,0.6282 -1.878,0.9422 -3.374,0.9422 -1.448,0 -2.773,-0.4539 -3.976,-1.3601 -1.203,-0.9071 -2.169,-2.1739 -2.898,-3.8028 -0.728,-1.6293 -1.093,-3.3312 -1.093,-5.107 0,-1.8223 0.514,-3.2481 1.541,-4.277 1.027,-1.03 2.44,-1.5441 4.24,-1.5441 0.851,0 1.628,0.0828 2.333,0.248 z m 1.386,13.3211 c 0.357,-0.33 0.536,-0.7461 0.536,-1.2461 0,-1.0671 -0.595,-1.882 -1.783,-2.4429 -1.188,-0.5621 -2.898,-0.843 -5.128,-0.843 l -0.176,0 c 0.47,1.577 1.147,2.809 2.032,3.6969 0.885,0.8871 1.832,1.3308 2.839,1.3308 0.763,0 1.323,-0.1648 1.68,-0.4957 z m 12.188,2.2028 c -0.504,-0.2117 -0.986,-0.5149 -1.445,-0.9071 -0.46,-0.391 -1.042,-1.0359 -1.746,-1.9328 l -0.147,0 0.323,2.875 -2.039,0 -3.433,-15.5242 2.464,0 1.57,7.1113 c 0.274,1.227 0.702,2.3438 1.284,3.35 0.582,1.0047 1.262,1.7911 2.039,2.3579 0.778,0.5671 1.611,0.85 2.502,0.85 0.508,0 1.022,-0.0622 1.54,-0.184 l 0.528,2.1242 c -0.499,0.1328 -1.085,0.1988 -1.76,0.1988 -0.616,0 -1.176,-0.107 -1.68,-0.3191 z m 14.225,-1.0547 c -1.208,-0.916 -2.166,-2.2242 -2.875,-3.9242 -0.71,-1.7 -1.064,-3.55 -1.064,-5.552 0,-1.6531 0.389,-2.939 1.166,-3.8601 0.778,-0.9207 1.851,-1.3809 3.221,-1.3809 0.939,0 1.848,0.2551 2.728,0.7648 0.881,0.5102 1.785,1.3364 2.715,2.4793 l 0.117,0 c -0.469,-1.6632 -0.748,-2.7062 -0.836,-3.1312 l -1.482,-6.7988 2.435,0 4.93,22.4929 -1.834,0 -0.983,-2.4359 -0.191,0 c -0.362,0.859 -0.892,1.5269 -1.592,2.0039 -0.699,0.477 -1.508,0.716 -2.428,0.716 -1.477,0 -2.819,-0.4578 -4.027,-1.3738 z m -1.416,-9.5332 c 0,1.539 0.255,3.0101 0.763,4.4121 0.509,1.4027 1.193,2.5027 2.054,3.3008 0.861,0.7972 1.785,1.1972 2.773,1.1972 0.959,0 1.704,-0.289 2.237,-0.8652 0.533,-0.5758 0.8,-1.359 0.8,-2.3508 0,-1.464 -0.296,-2.8801 -0.888,-4.2492 -0.591,-1.3687 -1.366,-2.4879 -2.325,-3.357 -0.959,-0.8688 -1.888,-1.3028 -2.788,-1.3028 -1.75,0 -2.626,1.0707 -2.626,3.2149 l 0,0 z m 16.427,10.623 -2.142,-9.575 c -0.215,-1.039 -0.322,-1.8511 -0.322,-2.4359 0,-1.218 0.357,-2.1551 1.071,-2.8121 0.714,-0.6559 1.697,-0.984 2.949,-0.984 0.929,0 1.828,0.2309 2.699,0.6941 0.871,0.4618 1.785,1.284 2.744,2.4649 l 0.176,0 -0.323,-2.8762 2.039,0 3.389,15.5242 -2.435,0 -1.467,-6.7281 c -0.333,-1.4918 -0.817,-2.7668 -1.453,-3.8238 -0.636,-1.0582 -1.369,-1.8699 -2.2,-2.436 -0.832,-0.5671 -1.678,-0.85 -2.539,-0.85 -1.437,0 -2.156,0.675 -2.156,2.025 0,0.4719 0.088,1.1289 0.264,1.9688 l 2.201,9.8441 -2.495,0 z M 675.79,65.223 c 0.704,0.1649 1.516,0.4551 2.435,0.8711 l 0,2.068 c -0.968,-0.4531 -1.778,-0.7652 -2.428,-0.9351 -0.651,-0.17 -1.284,-0.2551 -1.9,-0.2551 -1.262,0 -2.193,0.3472 -2.795,1.041 -0.601,0.6941 -0.902,1.6601 -0.902,2.8973 l 0.059,1.1328 0.484,0 c 3.022,0 5.345,0.484 6.969,1.4519 1.623,0.968 2.435,2.302 2.435,4.0012 0,1.1238 -0.377,2 -1.13,2.6277 -0.753,0.6282 -1.878,0.9422 -3.374,0.9422 -1.448,0 -2.773,-0.4539 -3.976,-1.3601 -1.203,-0.9071 -2.169,-2.1739 -2.898,-3.8028 -0.728,-1.6293 -1.093,-3.3312 -1.093,-5.107 0,-1.8223 0.514,-3.2481 1.541,-4.277 1.027,-1.03 2.44,-1.5441 4.24,-1.5441 0.851,0 1.628,0.0828 2.333,0.248 z m 1.386,13.3211 c 0.357,-0.33 0.536,-0.7461 0.536,-1.2461 0,-1.0671 -0.595,-1.882 -1.783,-2.4429 -1.188,-0.5621 -2.898,-0.843 -5.128,-0.843 l -0.176,0 c 0.47,1.577 1.147,2.809 2.032,3.6969 0.885,0.8871 1.832,1.3308 2.839,1.3308 0.763,0 1.323,-0.1648 1.68,-0.4957 z m 13.455,-7.3011 c -0.225,0.4672 -0.565,0.9039 -1.019,1.3101 -0.455,0.4059 -1.206,0.8918 -2.253,1.459 -1.085,0.5949 -1.802,1.0809 -2.149,1.459 -0.347,0.3769 -0.521,0.8309 -0.521,1.3598 0,0.6511 0.259,1.182 0.778,1.5929 0.518,0.4114 1.232,0.616 2.142,0.616 1.164,0 2.24,-0.2027 3.228,-0.6089 l 0.821,-0.3539 0.792,1.941 c -1.555,0.698 -3.169,1.048 -4.841,1.048 -1.614,0 -2.915,-0.3988 -3.903,-1.1969 -0.988,-0.798 -1.482,-1.8492 -1.482,-3.1519 0,-0.9063 0.265,-1.6902 0.793,-2.3512 0.528,-0.6609 1.428,-1.3359 2.699,-2.0262 1.135,-0.6418 1.873,-1.1468 2.216,-1.5148 0.342,-0.368 0.513,-0.8219 0.513,-1.3602 0,-0.7367 -0.313,-1.341 -0.939,-1.8128 -0.626,-0.4719 -1.555,-0.7079 -2.787,-0.7079 -0.675,0 -1.409,0.1079 -2.201,0.3258 -0.792,0.2172 -1.531,0.5242 -2.215,0.9199 l 0,-2.2378 c 1.33,-0.6508 2.821,-0.977 4.474,-0.977 1.966,0 3.49,0.4129 4.57,1.2391 1.081,0.8257 1.622,1.9757 1.622,3.4488 0,0.5859 -0.113,1.1121 -0.338,1.5801 z m 6.571,-3.9032 c -0.284,0.284 -0.426,0.6903 -0.426,1.218 0,0.4254 0.089,1.0492 0.265,1.8703 l 1.892,8.5559 4.005,0 0.382,1.798 -4.02,0 0.807,3.57 -1.438,0 -1.834,-3.2301 -2.714,-1.1039 -0.205,-1.034 2.523,0 -1.863,-8.527 c -0.176,-0.7941 -0.264,-1.5019 -0.264,-2.125 0,-1.1148 0.325,-1.9531 0.975,-2.514 0.651,-0.5621 1.587,-0.843 2.81,-0.843 0.293,0 0.684,0.0469 1.174,0.1422 0.489,0.0937 0.899,0.2066 1.232,0.3387 l 0,1.8281 c -0.871,-0.2461 -1.575,-0.3692 -2.113,-0.3692 -0.508,0 -0.904,0.1422 -1.188,0.425 z m 11.105,13.4422 -2.465,0 -3.433,-15.5242 2.465,0 3.433,15.5242 z m -1.394,2.9821 c 0.255,-0.2313 0.577,-0.3469 0.969,-0.3469 0.43,0 0.809,0.1789 1.137,0.5379 0.327,0.359 0.491,0.798 0.491,1.3179 0,0.8489 -0.43,1.2739 -1.291,1.2739 -0.499,0 -0.905,-0.1668 -1.218,-0.502 -0.313,-0.3359 -0.469,-0.7679 -0.469,-1.2969 0,-0.4242 0.127,-0.7531 0.381,-0.9839 z m 6.652,-4.0512 c -1.213,-0.8449 -2.176,-2.059 -2.89,-3.6399 -0.714,-1.582 -1.071,-3.2699 -1.071,-5.064 0,-1.8512 0.533,-3.3102 1.599,-4.377 1.066,-1.0672 2.538,-1.6 4.416,-1.6 1.516,0 2.876,0.4289 4.079,1.2879 1.203,0.8602 2.156,2.0781 2.861,3.6551 0.704,1.577 1.056,3.2531 1.056,5.0281 0,1.8598 -0.538,3.3219 -1.614,4.384 -1.076,1.0629 -2.543,1.5938 -4.401,1.5938 -1.477,0 -2.822,-0.4231 -4.035,-1.268 z m 6.815,-8.7391 c -0.455,-1.2707 -1.088,-2.25 -1.9,-2.9398 C 717.668,67.3449 716.754,67 715.737,67 c -1.165,0 -2.057,0.3379 -2.678,1.0129 -0.621,0.675 -0.932,1.6312 -0.932,2.868 0,1.5211 0.233,2.9019 0.697,4.1441 0.465,1.241 1.12,2.2109 1.966,2.9102 0.846,0.6988 1.802,1.0488 2.868,1.0488 1.047,0 1.876,-0.3379 2.487,-1.0129 0.611,-0.675 0.917,-1.5563 0.917,-2.6422 0,-1.634 -0.227,-3.0859 -0.682,-4.3551 z m 16.832,-5.716 2.098,9.5192 c 0.225,0.9531 0.338,1.8031 0.338,2.5492 0,1.1808 -0.36,2.0988 -1.079,2.7547 -0.718,0.6562 -1.699,0.9851 -2.941,0.9851 -0.939,0 -1.846,-0.239 -2.722,-0.716 -0.875,-0.477 -1.782,-1.291 -2.721,-2.443 l -0.147,0 0.323,2.875 -2.039,0 -3.434,-15.5242 2.465,0 1.482,6.7281 c 0.323,1.4922 0.8,2.7621 1.431,3.811 0.63,1.048 1.359,1.8551 2.186,2.4222 0.826,0.5661 1.674,0.85 2.545,0.85 0.763,0 1.318,-0.18 1.665,-0.539 0.347,-0.359 0.521,-0.8352 0.521,-1.4301 0,-0.3781 -0.098,-1.0578 -0.293,-2.0398 l -2.172,-9.8024 2.494,0 z m 13.637,5.9852 c -0.225,0.4672 -0.565,0.9039 -1.02,1.3101 -0.455,0.4059 -1.206,0.8918 -2.252,1.459 -1.086,0.5949 -1.802,1.0809 -2.149,1.459 -0.348,0.3769 -0.521,0.8309 -0.521,1.3598 0,0.6511 0.259,1.182 0.777,1.5929 0.519,0.4114 1.233,0.616 2.142,0.616 1.164,0 2.24,-0.2027 3.228,-0.6089 l 0.822,-0.3539 0.792,1.941 c -1.555,0.698 -3.169,1.048 -4.842,1.048 -1.613,0 -2.914,-0.3988 -3.902,-1.1969 -0.988,-0.798 -1.482,-1.8492 -1.482,-3.1519 0,-0.9063 0.264,-1.6902 0.792,-2.3512 0.529,-0.6609 1.428,-1.3359 2.7,-2.0262 1.134,-0.6418 1.873,-1.1468 2.215,-1.5148 0.342,-0.368 0.514,-0.8219 0.514,-1.3602 0,-0.7367 -0.313,-1.341 -0.939,-1.8128 -0.626,-0.4719 -1.555,-0.7079 -2.788,-0.7079 -0.675,0 -1.408,0.1079 -2.201,0.3258 -0.792,0.2172 -1.53,0.5242 -2.215,0.9199 l 0,-2.2378 c 1.33,-0.6508 2.822,-0.977 4.475,-0.977 1.966,0 3.489,0.4129 4.57,1.2391 1.081,0.8257 1.621,1.9757 1.621,3.4488 0,0.5859 -0.112,1.1121 -0.337,1.5801" /><path
       id="path48"
       style="fill:#1c3e64;fill-opacity:1;fill-rule:nonzero;stroke:none"
       d="m 217.862,135.655 c 1.769,-0.594 3.529,-1.29 5.277,-2.088 l 3.198,7.738 c -4.584,2.109 -9.147,3.163 -13.688,3.163 -4.457,0 -8.343,-0.936 -11.658,-2.809 -3.316,-1.874 -5.859,-4.566 -7.628,-8.077 -1.77,-3.511 -2.655,-7.6 -2.655,-12.268 0,-7.41 1.802,-13.096 5.405,-17.057 3.603,-3.962 8.806,-5.9425 15.608,-5.9425 4.734,0 9.019,0.7679 12.857,2.3035 l 0,7.984 c -4.669,-1.577 -8.646,-2.365 -11.929,-2.365 -7.826,0 -11.738,5.006 -11.738,15.016 0,4.811 1.023,8.562 3.07,11.254 2.047,2.692 4.936,4.039 8.668,4.039 1.705,0 3.443,-0.298 5.213,-0.891 z m 23.978,-36.7261 0,44.8941 -9.915,0 0,-44.8941 9.915,0 z m 27.692,36.9721 12.698,0 0,7.922 -35.31,0 0,-7.922 12.698,0 0,-36.9721 9.914,0 0,36.9721 z m 25.732,7.922 -10.747,0 15.512,-27.729 0,-17.1651 9.851,0 0,17.4731 15.512,27.421 -10.683,0 -9.755,-18.485 -9.69,18.485 z m 247.162,-27.145 15.864,0 0,7.769 -15.864,0 0,11.576 17.047,0 0,7.8 -26.802,0 0,-44.8941 9.755,0 0,17.7491 z m 60.235,21.894 c -3.806,3.972 -9.302,5.958 -16.487,5.958 -7.186,0 -12.703,-1.971 -16.551,-5.912 -3.849,-3.941 -5.773,-9.647 -5.773,-17.119 0,-7.472 1.919,-13.204 5.757,-17.196 3.838,-3.992 9.339,-5.9885 16.503,-5.9885 7.164,0 12.666,1.9965 16.504,5.9885 3.838,3.992 5.756,9.703 5.756,17.135 0,7.451 -1.902,13.162 -5.709,17.134 z m -25.41,-5.788 c 2.004,2.548 4.978,3.823 8.923,3.823 7.868,0 11.802,-5.057 11.802,-15.169 0,-10.093 -3.956,-15.14 -11.866,-15.14 -3.945,0 -6.908,1.27 -8.891,3.808 -1.983,2.539 -2.975,6.315 -2.975,11.332 0,5.015 1.002,8.797 3.007,11.346 z m 48.295,3.239 3.007,0 c 3.198,0 5.559,-0.45 7.084,-1.351 1.524,-0.901 2.287,-2.415 2.287,-4.544 0,-2.15 -0.747,-3.726 -2.239,-4.729 -1.493,-1.004 -3.806,-1.505 -6.94,-1.505 l -3.199,0 0,12.129 z m 5.277,-19.867 11.163,-17.2271 11.002,0 c -2.133,2.9481 -6.717,9.4681 -13.753,19.5601 2.772,1.167 4.914,2.779 6.429,4.837 1.513,2.058 2.271,4.406 2.271,7.047 0,4.524 -1.525,7.897 -4.574,10.118 -3.05,2.222 -7.751,3.332 -14.105,3.332 l -13.625,0 0,-44.8941 9.915,0 0,17.2271 5.277,0 z m 53.005,27.667 0,-27.421 c 0,-3.481 -0.731,-6.034 -2.191,-7.662 -1.461,-1.627 -3.812,-2.442 -7.053,-2.442 -3.347,0 -5.746,0.809 -7.196,2.427 -1.45,1.616 -2.175,4.155 -2.175,7.615 l 0,27.483 -9.883,0 0,-28.926 c 0,-5.139 1.663,-9.187 4.99,-12.145 3.326,-2.9586 7.996,-4.4375 14.008,-4.4375 3.987,0 7.442,0.6652 10.363,1.9965 2.921,1.33 5.154,3.244 6.701,5.742 1.545,2.497 2.318,5.404 2.318,8.721 l 0,29.049 -9.882,0 z m 47.731,-44.8941 12.058,35.1601 0.287,0 c -0.255,-5.65 -0.399,-9.131 -0.431,-10.441 -0.032,-1.31 -0.048,-2.467 -0.048,-3.469 l 0,-21.2501 9.243,0 0,44.8941 -13.497,0 -11.738,-34.331 -0.192,0 -11.066,34.331 -13.497,0 0,-44.8941 8.859,0 0,20.8811 c 0,2.395 -0.203,7.175 -0.607,14.34 l 0.287,0 11.259,-35.2211 9.083,0" /><path
       id="path50"
       style="fill:#499ddc;fill-opacity:1;fill-rule:nonzero;stroke:none"
       d="m 345.017,98.9289 17.495,0 c 5.287,0 9.472,1.1461 12.553,3.4391 3.081,2.293 4.622,5.486 4.622,9.581 0,2.886 -0.656,5.199 -1.967,6.94 -1.311,1.74 -3.449,2.927 -6.413,3.562 l 0,0.307 c 2.175,0.348 3.918,1.382 5.229,3.101 1.312,1.72 1.967,3.92 1.967,6.602 0,3.951 -1.498,6.833 -4.493,8.644 -2.996,1.813 -7.81,2.718 -14.441,2.718 l -14.552,0 0,-44.8941 z m 9.915,37.0941 5.213,0 c 2.835,0 4.909,-0.373 6.221,-1.12 1.311,-0.748 1.967,-1.981 1.967,-3.701 0,-1.842 -0.603,-3.163 -1.807,-3.961 -1.205,-0.798 -3.151,-1.197 -5.837,-1.197 l -5.757,0 0,9.979 z m 6.14,-17.534 c 5.544,0 8.316,-1.862 8.316,-5.588 0,-2.068 -0.65,-3.604 -1.951,-4.606 -1.301,-1.004 -3.316,-1.505 -6.045,-1.505 l -6.46,0 0,11.699 6.14,0 z m 35.727,-19.5601 0,44.8941 -9.915,0 0,-44.8941 9.915,0 z m 9.241,0 17.495,0 c 5.288,0 9.472,1.1461 12.554,3.4391 3.081,2.293 4.621,5.486 4.621,9.581 0,2.886 -0.655,5.199 -1.967,6.94 -1.311,1.74 -3.449,2.927 -6.412,3.562 l 0,0.307 c 2.175,0.348 3.918,1.382 5.229,3.101 1.311,1.72 1.967,3.92 1.967,6.602 0,3.951 -1.498,6.833 -4.494,8.644 -2.996,1.813 -7.809,2.718 -14.44,2.718 l -14.553,0 0,-44.8941 z m 9.915,37.0941 5.214,0 c 2.835,0 4.909,-0.373 6.22,-1.12 1.312,-0.748 1.967,-1.981 1.967,-3.701 0,-1.842 -0.602,-3.163 -1.807,-3.961 -1.205,-0.798 -3.15,-1.197 -5.837,-1.197 l -5.757,0 0,9.979 z m 6.141,-17.534 c 5.544,0 8.316,-1.862 8.316,-5.588 0,-2.068 -0.651,-3.604 -1.951,-4.606 -1.301,-1.004 -3.316,-1.505 -6.045,-1.505 l -6.461,0 0,11.699 6.141,0 z m 54.614,-19.5601 0,7.8611 -18.966,0 0,37.033 -9.915,0 0,-44.8941 28.881,0 z m 32.466,7.8611 -17.015,0 0,11.577 15.832,0 0,7.799 -15.832,0 0,9.857 17.015,0 0,7.8 -26.93,0 0,-44.8941 26.93,0 0,7.8611" /></g></svg>