<?xml version="1.0" encoding="UTF-8" standalone="no"?>
<svg
   xmlns:dc="http://purl.org/dc/elements/1.1/"
   xmlns:cc="http://creativecommons.org/ns#"
   xmlns:rdf="http://www.w3.org/1999/02/22-rdf-syntax-ns#"
   xmlns:svg="http://www.w3.org/2000/svg"
   xmlns="http://www.w3.org/2000/svg"
   xmlns:sodipodi="http://sodipodi.sourceforge.net/DTD/sodipodi-0.dtd"
   xmlns:inkscape="http://www.inkscape.org/namespaces/inkscape"
   height="614.39972"
   width="460.80002"
   version="1.1"
   id="svg2"
   viewBox="0 0 460.80002 614.39972"
   inkscape:version="0.91 r13725"
   sodipodi:docname="map-marker.svg"
   inkscape:export-filename="/var/www/test/sites/all/themes/cbf2019/map-marker.png"
   inkscape:export-xdpi="7.3242221"
   inkscape:export-ydpi="7.3242221">
  <sodipodi:namedview
     pagecolor="#ffffff"
     bordercolor="#666666"
     borderopacity="1"
     objecttolerance="10"
     gridtolerance="10"
     guidetolerance="10"
     inkscape:pageopacity="0"
     inkscape:pageshadow="2"
     inkscape:window-width="1325"
     inkscape:window-height="744"
     id="namedview15"
     showgrid="false"
     inkscape:zoom="0.38411476"
     inkscape:cx="230.40001"
     inkscape:cy="307.19986"
     inkscape:window-x="41"
     inkscape:window-y="24"
     inkscape:window-maximized="1"
     inkscape:current-layer="svg2" />
  <metadata
     id="metadata10">
    <rdf:RDF>
      <cc:Work
         rdf:about="">
        <dc:format>image/svg+xml</dc:format>
        <dc:type
           rdf:resource="http://purl.org/dc/dcmitype/StillImage" />
        <dc:title />
      </cc:Work>
    </rdf:RDF>
  </metadata>
  <defs
     id="defs8">
    <filter
       id="filter4365"
       style="color-interpolation-filters:sRGB">
      <feFlood
         id="feFlood4367"
         result="flood"
         flood-color="rgb(0,0,0)"
         flood-opacity="0.498039" />
      <feComposite
         id="feComposite4369"
         result="composite1"
         operator="in"
         in2="SourceGraphic"
         in="flood" />
      <feGaussianBlur
         id="feGaussianBlur4371"
         result="blur"
         stdDeviation="10"
         in="composite1" />
      <feOffset
         id="feOffset4373"
         result="offset"
         dy="10"
         dx="10" />
      <feComposite
         id="feComposite4375"
         result="composite2"
         operator="over"
         in2="offset"
         in="SourceGraphic" />
    </filter>
    <filter
       style="color-interpolation-filters:sRGB;"
       inkscape:label="Drop Shadow"
       id="filter4181">
      <feFlood
         flood-opacity="0.498039"
         flood-color="rgb(0,0,0)"
         result="flood"
         id="feFlood4183" />
      <feComposite
         in="flood"
         in2="SourceGraphic"
         operator="in"
         result="composite1"
         id="feComposite4185" />
      <feGaussianBlur
         in="composite1"
         stdDeviation="20"
         result="blur"
         id="feGaussianBlur4187" />
      <feOffset
         dx="20"
         dy="20"
         result="offset"
         id="feOffset4189" />
      <feComposite
         in="SourceGraphic"
         in2="offset"
         operator="over"
         result="composite2"
         id="feComposite4191" />
    </filter>
  </defs>
  <g
     id="g4175"
     style="filter:url(#filter4181)">
    <g
       style="fill:#a4d7ef;fill-opacity:1"
       id="g4171">
      <path
         inkscape:connector-curvature="0"
         id="path4238"
         d="M 229.31525,548.01353 55.755934,298.522 53.586443,218.25082 83.959324,144.48811 153.38305,79.403364 l 97.62712,-10.847458 0,93.288134 -62.91525,6.50847 -30.37289,43.38983 -6.50847,67.25424 47.72881,43.38983 52.0678,0 z"
         style="fill:#a4d7ef;fill-opacity:1;fill-rule:evenodd;stroke:none;stroke-width:1px;stroke-linecap:butt;stroke-linejoin:miter;stroke-opacity:1" />
      <path
         inkscape:connector-curvature="0"
         id="path4238-3"
         d="m 230.42385,546.50629 173.55932,-249.49153 2.16949,-80.27118 -30.37288,-73.7627 -69.42373,-65.084754 -97.62712,-10.84746 0,93.288134 62.91525,6.50847 30.37289,43.38983 6.50847,67.25424 -47.72881,43.38983 -52.0678,0 z"
         style="fill:#a4d7ef;fill-opacity:1;fill-rule:evenodd;stroke:none;stroke-width:1px;stroke-linecap:butt;stroke-linejoin:miter;stroke-opacity:1" />
    </g>
    <path
       d="m 230.4,147.19997 c -52.935,0 -96,43.065 -96,96 0,52.935 43.065,96 96,96 52.935,0 96,-43.065 96,-96 0,-52.935 -43.065,-96 -96,-96 z m 0,160 c -35.29,0 -64,-28.71 -64,-64 0,-35.29 28.71,-64 64,-64 35.29,0 64,28.71 64,64 0,35.29 -28.71,64 -64,64 z m 0,-255.999996 c -106.039,0 -191.999998,85.960996 -191.999998,191.999996 0,77.413 26.97,99.031 172.267998,309.67 9.534,13.772 29.929,13.774 39.465,0 145.297,-210.639 172.267,-232.257 172.267,-309.67 0,-106.039 -85.961,-191.999996 -192,-191.999996 z m 0,473.930996 C 91.105002,323.68797 70.400002,307.69397 70.400002,243.19997 c 0,-42.738 16.643,-82.917 46.862998,-113.137 30.22,-30.219996 70.399,-46.862996 113.137,-46.862996 42.738,0 82.917,16.643 113.137,46.862996 30.22,30.22 46.863,70.399 46.863,113.137 0,64.49 -20.692,80.47 -160,281.931 z"
       id="path4"
       style="fill:#1c9cd6;fill-opacity:1"
       inkscape:connector-curvature="0" />
  </g>
</svg>
