<?xml version="1.0" encoding="UTF-8" standalone="no"?>
<svg
   xmlns:dc="http://purl.org/dc/elements/1.1/"
   xmlns:cc="http://creativecommons.org/ns#"
   xmlns:rdf="http://www.w3.org/1999/02/22-rdf-syntax-ns#"
   xmlns:svg="http://www.w3.org/2000/svg"
   xmlns="http://www.w3.org/2000/svg"
   height="614.39972"
   width="460.80002"
   version="1.1"
   id="svg2"
   viewBox="0 0 460.80002 614.39972">
  <metadata
     id="metadata10">
    <rdf:RDF>
      <cc:Work
         rdf:about="">
        <dc:format>image/svg+xml</dc:format>
        <dc:type
           rdf:resource="http://purl.org/dc/dcmitype/StillImage" />
        <dc:title></dc:title>
      </cc:Work>
    </rdf:RDF>
  </metadata>
  <defs
     id="defs8">
    <filter
       id="filter4365"
       style="color-interpolation-filters:sRGB">
      <feFlood
         id="feFlood4367"
         result="flood"
         flood-color="rgb(0,0,0)"
         flood-opacity="0.498039" />
      <feComposite
         id="feComposite4369"
         result="composite1"
         operator="in"
         in2="SourceGraphic"
         in="flood" />
      <feGaussianBlur
         id="feGaussianBlur4371"
         result="blur"
         stdDeviation="10"
         in="composite1" />
      <feOffset
         id="feOffset4373"
         result="offset"
         dy="10"
         dx="10" />
      <feComposite
         id="feComposite4375"
         result="composite2"
         operator="over"
         in2="offset"
         in="SourceGraphic" />
    </filter>
  </defs>
  <g
     transform="translate(38.400002,51.199974)"
     style="filter:url(#filter4365)"
     id="g4276">
    <path
       style="fill:#ffffff;fill-opacity:1;fill-rule:evenodd;stroke:none;stroke-width:1px;stroke-linecap:butt;stroke-linejoin:miter;stroke-opacity:1"
       d="M 190.91525,496.81356 17.355932,247.32203 15.186441,167.05085 45.559322,93.288136 114.98305,28.20339 l 97.62712,-10.847458 0,93.288138 -62.91525,6.50847 -30.37289,43.38983 -6.50847,67.25424 47.72881,43.38983 52.0678,0 z"
       id="path4238" />
    <path
       style="fill:#ffffff;fill-opacity:1;fill-rule:evenodd;stroke:none;stroke-width:1px;stroke-linecap:butt;stroke-linejoin:miter;stroke-opacity:1"
       d="m 192.02385,495.30632 173.55932,-249.49153 2.16949,-80.27118 -30.37288,-73.762708 -69.42373,-65.08475 -97.62712,-10.84746 0,93.288138 62.91525,6.50847 30.37289,43.38983 6.50847,67.25424 -47.72881,43.38983 -52.0678,0 z"
       id="path4238-3" />
    <path
       d="m 192,96 c -52.935,0 -96,43.065 -96,96 0,52.935 43.065,96 96,96 52.935,0 96,-43.065 96,-96 0,-52.935 -43.065,-96 -96,-96 z m 0,160 c -35.29,0 -64,-28.71 -64,-64 0,-35.29 28.71,-64 64,-64 35.29,0 64,28.71 64,64 0,35.29 -28.71,64 -64,64 z M 192,0 C 85.961,0 0,85.961 0,192 c 0,77.413 26.97,99.031 172.268,309.67 9.534,13.772 29.929,13.774 39.465,0 C 357.03,291.031 384,269.413 384,192 384,85.961 298.039,0 192,0 Z m 0,473.931 C 52.705,272.488 32,256.494 32,192 32,149.262 48.643,109.083 78.863,78.863 109.083,48.643 149.262,32 192,32 234.738,32 274.917,48.643 305.137,78.863 335.357,109.083 352,149.262 352,192 c 0,64.49 -20.692,80.47 -160,281.931 z"
       id="path4"
       style="fill:#1c9cd6;fill-opacity:1" />
  </g>
</svg>
