<svg xmlns="http://www.w3.org/2000/svg" viewBox="0 0 787.04 248.23"><defs><style>.cls-1{fill:#1c9cd6;}.cls-2{fill:#0f2e38;}</style></defs><title>CBF</title><g id="City_Bible_Forum" data-name="City Bible Forum"><path class="cls-1" d="M186.27,187.46a22.26,22.26,0,0,0-34.39-20.86A50.17,50.17,0,0,1,76,137.38,7.28,7.28,0,1,0,62,141.08a64.73,64.73,0,0,0,97.88,37.72A7.69,7.69,0,0,1,171.78,186a7.44,7.44,0,0,1-3.35,5.56,80.5,80.5,0,0,1-90.18-1.63,7.28,7.28,0,0,0-8.43,11.87,95.16,95.16,0,0,0,106.61,1.92,22,22,0,0,0,9.84-16.25"/><path class="cls-1" d="M111.18,107.35a21.84,21.84,0,0,1,26.77,0,7.28,7.28,0,1,0,8.92-11.5,36.41,36.41,0,1,0,0,57.53,7.28,7.28,0,1,0-8.92-11.5,21.84,21.84,0,0,1-26.77-34.52"/><path class="cls-1" d="M155.8,85.26a49.71,49.71,0,0,1,6.72,6.44,7.28,7.28,0,1,0,11-9.52,64.78,64.78,0,0,0-67.11-19.71l-.35.11c-.74.22-1.48.45-2.21.7l-.81.28-1.7.62q-.67.25-1.35.54l-1.12.47c-.65.28-1.3.58-1.95.88l-.49.24a64.61,64.61,0,0,0-34.54,42A7.28,7.28,0,1,0,76,111.93a49.61,49.61,0,0,1,3.21-8.81c.12-.2.24-.39.35-.6A50,50,0,0,1,96.84,82.8a51,51,0,0,1,8-4.34l.43-.17,1.47-.59.94-.34,1-.34q.7-.24,1.41-.45l.54-.16c.6-.17,1.21-.34,1.81-.49l.18,0a50.06,50.06,0,0,1,42.55,9c.21.16.44.27.65.41"/><path class="cls-1" d="M111,45.64a7.28,7.28,0,0,0-2.44-14.35A94.64,94.64,0,0,0,47.44,179.47a7.3,7.3,0,0,0,5.93,3.05A7.28,7.28,0,0,0,59.29,171,80.09,80.09,0,0,1,111,45.64"/><path class="cls-1" d="M111,233.73a108.89,108.89,0,0,1-64.14-31.27A110.07,110.07,0,0,1,37.56,57.21a7.28,7.28,0,0,0-11.5-8.93A124.65,124.65,0,0,0,36.6,212.78a123.38,123.38,0,0,0,72.65,35.4,6.79,6.79,0,0,0,.9,0,7.28,7.28,0,0,0,.87-14.5"/><path class="cls-1" d="M200.51,214.2a7.28,7.28,0,0,0-10.19-1.47,109.8,109.8,0,0,1-52,21,7.27,7.27,0,0,0,.9,14.49,6.94,6.94,0,0,0,.91-.05A124.22,124.22,0,0,0,199,224.38a7.27,7.27,0,0,0,1.47-10.18"/><path class="cls-1" d="M56.83,37.86A110,110,0,0,1,183.52,31.7,7.67,7.67,0,0,1,187,37.31a7.4,7.4,0,0,1-2.14,6.1l-.25.25a7.63,7.63,0,0,1-9.55.91,93.49,93.49,0,0,0-35-13.35,7.28,7.28,0,0,0-2.38,14.37,79.2,79.2,0,0,1,29.6,11.27,22.52,22.52,0,0,0,12.08,3.55A21.93,21.93,0,0,0,195,53.93l.25-.25a22.1,22.1,0,0,0-3.88-34.26,124.56,124.56,0,0,0-143.47,7,7.28,7.28,0,0,0,9,11.46"/><path class="cls-2" d="M323.86,116.61a4.93,4.93,0,0,0-3.61-1.51H257.54a4.93,4.93,0,0,0-3.61,1.51,5,5,0,0,0-1.51,3.62v94.86a5.17,5.17,0,0,0,5.12,5.13h11.9a5.19,5.19,0,0,0,5.13-5.13V182.63h42.74a5.19,5.19,0,0,0,5.13-5.13V167.07a5.19,5.19,0,0,0-5.13-5.13H274.57V135.78h45.68a5.17,5.17,0,0,0,5.13-5.13V120.23a4.93,4.93,0,0,0-1.52-3.61Z"/><path class="cls-2" d="M369.5,155.39c.37-6.61,2.55-11.83,6.47-15.52s9.21-5.55,15.72-5.55,11.8,1.87,15.73,5.55,6.09,8.91,6.46,15.55c.19,2.43.29,6.55.29,12.24s-.1,10-.3,12.41c-.36,6.61-2.54,11.81-6.45,15.44s-9.22,5.5-15.73,5.5-11.81-1.85-15.73-5.5-6.09-8.83-6.46-15.42c-.19-4.83-.29-9-.29-12.43s.1-7.45.29-12.27M423.94,125h0c-7.44-7.54-18.28-11.36-32.25-11.36s-24.82,3.85-32.26,11.44S348,142.55,347.35,154.54c-.19,4.48-.3,8.45-.3,11.8,0,4.42.11,9.33.3,14.6.6,12,4.67,21.87,12.08,29.39s18.29,11.36,32.26,11.36,24.81-3.82,32.25-11.36,11.48-17.41,12.09-29.41c.19-5.34.29-10.24.29-14.58,0-3.32-.1-7.18-.3-11.81-.6-12.08-4.66-22-12.08-29.54"/><path class="cls-2" d="M656.21,116.61a4.94,4.94,0,0,0-3.62-1.51H640.84a4.91,4.91,0,0,0-3.6,1.51,5,5,0,0,0-1.52,3.62V179.7c0,7.36-1.9,12.8-5.64,16.17S621,201,614.42,201s-11.84-1.73-15.51-5.13-5.51-8.82-5.51-16.18V120.23a5.16,5.16,0,0,0-5.12-5.13h-11.9a5.17,5.17,0,0,0-5.13,5.13v60.2c0,12.7,3.72,22.86,11.06,30.2s18.14,11.06,32.11,11.06,24.65-3.75,32.1-11.14,11.21-17.52,11.21-30.12v-60.2a4.93,4.93,0,0,0-1.52-3.61Z"/><path class="cls-2" d="M785.39,116.61a4.93,4.93,0,0,0-3.61-1.51h-10a6.6,6.6,0,0,0-4.51,1.39,20.05,20.05,0,0,0-2.73,3l-27,46.83-27-46.83a20.38,20.38,0,0,0-2.72-3,6.63,6.63,0,0,0-4.52-1.39h-10a4.91,4.91,0,0,0-3.6,1.51,5,5,0,0,0-1.52,3.62v94.86a5.17,5.17,0,0,0,5.12,5.13h11.9a5.19,5.19,0,0,0,5.13-5.13V162l17,29.32c1.78,2.79,3.94,4.21,6.4,4.21h7.65c2.46,0,4.62-1.42,6.43-4.25L764.76,162v53.07a5.17,5.17,0,0,0,5.13,5.13h11.89a5.19,5.19,0,0,0,5.13-5.13V120.23a5,5,0,0,0-1.52-3.62"/><path class="cls-2" d="M267.91,44c2-2,4.82-3.08,8.49-3.08s6.48.77,8.41,2.29a8.83,8.83,0,0,1,3.46,5.51,3.1,3.1,0,0,0,1.18,2,3.19,3.19,0,0,0,2,.73h6.43a3,3,0,0,0,2.14-.82,2.62,2.62,0,0,0,.82-2.2,20.09,20.09,0,0,0-3-9.17,19.62,19.62,0,0,0-8.1-7.17,29.25,29.25,0,0,0-13.33-2.74c-7.29,0-13.08,2.09-17.24,6.22s-6.47,9.65-6.9,16.45q-.16,4-.16,6.7t.16,6.71c.43,6.78,2.76,12.31,6.9,16.43s9.95,6.23,17.24,6.23a29.18,29.18,0,0,0,13.33-2.75,19.67,19.67,0,0,0,8.1-7.16,20,20,0,0,0,3-9.16,2.61,2.61,0,0,0-.8-2.22,3.07,3.07,0,0,0-2.15-.82h-6.43a3,3,0,0,0-2,.75,3.15,3.15,0,0,0-1.12,2,8.72,8.72,0,0,1-3.5,5.52c-2,1.52-4.8,2.29-8.45,2.29s-6.52-1-8.49-3.08a12.4,12.4,0,0,1-3.3-8.11c-.11-2.63-.16-4.83-.16-6.62s.05-4,.16-6.62a12.41,12.41,0,0,1,3.3-8.12"/><path class="cls-2" d="M330.51,30.18h-6.43a2.9,2.9,0,0,0-2.09.88,2.83,2.83,0,0,0-.87,2.08V84.37a3,3,0,0,0,3,3h6.43a3,3,0,0,0,3-3V33.14a3,3,0,0,0-3-3"/><path class="cls-2" d="M395,30.18H355.73a3,3,0,0,0-3,3v5.63a3,3,0,0,0,3,3h13.45V84.37a3,3,0,0,0,3,3h6.42a2.86,2.86,0,0,0,2.09-.87,2.83,2.83,0,0,0,.88-2.09V41.73H395a3,3,0,0,0,3-3V33.14a2.83,2.83,0,0,0-.87-2.08,2.86,2.86,0,0,0-2.09-.88"/><path class="cls-2" d="M462.42,30.18h-5.94a4.23,4.23,0,0,0-2.71.86,4.9,4.9,0,0,0-1.34,1.54L440.3,53.77,428.19,32.61A5,5,0,0,0,426.82,31a4.18,4.18,0,0,0-2.7-.86h-5.94a3,3,0,0,0-3,3,2.45,2.45,0,0,0,.26,1.12l18.69,32.88V84.37a3,3,0,0,0,3,3h6.34a2.86,2.86,0,0,0,2.09-.87,2.91,2.91,0,0,0,.87-2.09V67.14l18.72-32.92a2.41,2.41,0,0,0,.24-1.08,2.8,2.8,0,0,0-.88-2.08,2.86,2.86,0,0,0-2.09-.88"/><path class="cls-2" d="M550.66,69.86a5.39,5.39,0,0,1-1.81,4.3c-1.24,1.07-3.18,1.62-5.77,1.62H529.23V63.86h13.85a8.53,8.53,0,0,1,5.69,1.67,5.35,5.35,0,0,1,1.89,4.33M529.23,52.3V41.73h13.22c2.49,0,4.34.45,5.48,1.34a4.66,4.66,0,0,1,1.63,4A4.66,4.66,0,0,1,547.93,51c-1.14.88-3,1.33-5.48,1.33ZM557,57.39a16.18,16.18,0,0,0,2.94-3.45,12.93,12.93,0,0,0,2-7.32,16.6,16.6,0,0,0-1.87-7.5,15.8,15.8,0,0,0-6.09-6.36,20.28,20.28,0,0,0-10.7-2.58H519.85a3,3,0,0,0-3,3V84.37a3,3,0,0,0,3,3h25.21a17.91,17.91,0,0,0,9.64-2.54,17.07,17.07,0,0,0,6.2-6.58A17.85,17.85,0,0,0,563,69.86,15.17,15.17,0,0,0,561,62a16.76,16.76,0,0,0-4-4.63"/><path class="cls-2" d="M593.28,30.18h-6.43a2.9,2.9,0,0,0-2.09.88,2.83,2.83,0,0,0-.87,2.08V84.37a3,3,0,0,0,3,3h6.43a3,3,0,0,0,3-3V33.14a3,3,0,0,0-3-3"/><path class="cls-2" d="M653.27,69.86a5.39,5.39,0,0,1-1.82,4.3c-1.24,1.07-3.18,1.62-5.76,1.62H631.84V63.86h13.85a8.58,8.58,0,0,1,5.69,1.67,5.35,5.35,0,0,1,1.89,4.33M631.84,52.3V41.73h13.21c2.49,0,4.34.45,5.48,1.34a4.63,4.63,0,0,1,1.63,4A4.63,4.63,0,0,1,650.53,51c-1.14.88-3,1.33-5.48,1.33Zm27.76,5.09a16.18,16.18,0,0,0,2.94-3.45,12.94,12.94,0,0,0,2-7.32,16.87,16.87,0,0,0-1.87-7.5,15.9,15.9,0,0,0-6.1-6.36,20.27,20.27,0,0,0-10.69-2.58h-23.4a2.88,2.88,0,0,0-2.09.88,2.83,2.83,0,0,0-.87,2.08V84.37a3,3,0,0,0,3,3h25.22a17.9,17.9,0,0,0,9.63-2.54,17.07,17.07,0,0,0,6.2-6.58,17.74,17.74,0,0,0,2.12-8.35,15.17,15.17,0,0,0-2-7.84,16.76,16.76,0,0,0-4-4.63"/><path class="cls-2" d="M724.18,75.78H698.84V33.14a3,3,0,0,0-3-3h-6.43a2.9,2.9,0,0,0-2.09.88,2.83,2.83,0,0,0-.87,2.08V84.37a3,3,0,0,0,3,3h34.73a2.86,2.86,0,0,0,2.09-.87,2.83,2.83,0,0,0,.88-2.09V78.74a3,3,0,0,0-3-3"/><path class="cls-2" d="M786.16,76.65h0a2.86,2.86,0,0,0-2.09-.87H758.64V64.26h23.05a3,3,0,0,0,3-3V55.66a3,3,0,0,0-3-3H758.64v-11h24.8a3,3,0,0,0,3-3V33.14a3,3,0,0,0-3-3H749.26a2.91,2.91,0,0,0-2.09.87,2.87,2.87,0,0,0-.87,2.09V84.37a3,3,0,0,0,3,3h34.81a3,3,0,0,0,3-3V78.74a2.88,2.88,0,0,0-.88-2.09"/><path class="cls-2" d="M546.35,213.64l-18.6-33.3a1.93,1.93,0,0,1,.83-2.69,29.86,29.86,0,0,0,11.85-10.31c3.44-5.21,5.19-11.57,5.19-18.92,0-10.38-3.39-18.63-10.09-24.52s-16.25-8.8-28.52-8.8H469.12a5.17,5.17,0,0,0-5.13,5.13V215a5,5,0,0,0,1,3.07,5.1,5.1,0,0,0,4.14,2.11H481a5.19,5.19,0,0,0,5.13-5.13V137.73a2,2,0,0,1,2-1.95h18.17c5.81,0,10.22.95,13.1,2.82s4.1,5,4.1,9.82-1.37,8.08-4.19,10a19.21,19.21,0,0,1-8.56,2.73A12.93,12.93,0,0,0,502.8,165a10.45,10.45,0,0,0-1.6,12.4l21.52,38.27a7.82,7.82,0,0,0,7.34,4.59h12.49a4.44,4.44,0,0,0,4.39-4.39,4.84,4.84,0,0,0-.59-2.19"/></g></svg>