<svg xmlns="http://www.w3.org/2000/svg" viewBox="0 0 877.31 249.15"><defs><style>.cls-1{fill:#fff;}</style></defs><title>CBF+ mono white</title><g id="City_Bible_Forum" data-name="City Bible Forum"><path class="cls-1" d="M187,188.15a22.34,22.34,0,0,0-34.51-20.93,50.36,50.36,0,0,1-76.13-29.34,7.31,7.31,0,0,0-14.13,3.72,65,65,0,0,0,98.24,37.86,7.72,7.72,0,0,1,12,7.22,7.5,7.5,0,0,1-3.37,5.58,80.79,80.79,0,0,1-90.51-1.64,7.31,7.31,0,0,0-8.46,11.92,95.53,95.53,0,0,0,107,1.93A22.12,22.12,0,0,0,187,188.15"/><path class="cls-1" d="M111.6,107.75a21.89,21.89,0,0,1,26.85,0,7.31,7.31,0,0,0,9-11.54,36.54,36.54,0,1,0-27,65.12,38.61,38.61,0,0,0,4.66.29,36.23,36.23,0,0,0,22.31-7.67,7.3,7.3,0,1,0-8.95-11.54,21.92,21.92,0,0,1-26.86-34.64"/><path class="cls-1" d="M156.38,85.57A50.1,50.1,0,0,1,163.12,92a7.31,7.31,0,1,0,11-9.56A65,65,0,0,0,106.81,62.7l-.35.11c-.75.22-1.48.45-2.21.7l-.82.28c-.57.2-1.14.41-1.7.63s-.91.35-1.36.54l-1.12.47c-.66.28-1.31.58-2,.88l-.51.24a64.89,64.89,0,0,0-34.66,42.12,7.31,7.31,0,0,0,5.24,8.91,7.28,7.28,0,0,0,8.91-5.24,49.94,49.94,0,0,1,3.22-8.84c.13-.2.25-.39.36-.6A50.21,50.21,0,0,1,97.2,83.1a49.64,49.64,0,0,1,8-4.34l.43-.18c.49-.21,1-.4,1.48-.59l.94-.35,1-.34c.47-.16.93-.31,1.41-.45l.54-.16c.61-.17,1.21-.34,1.81-.49l.19,0a50.25,50.25,0,0,1,42.71,9,7.06,7.06,0,0,0,.65.4"/><path class="cls-1" d="M111.43,45.81A7.31,7.31,0,0,0,109,31.4,95,95,0,0,0,47.63,180.13a7.3,7.3,0,1,0,11.88-8.49A80.38,80.38,0,0,1,111.43,45.81"/><path class="cls-1" d="M111.44,234.59a109.21,109.21,0,0,1-64.38-31.38A110.47,110.47,0,0,1,37.7,57.42a7.31,7.31,0,0,0-11.54-9,125.09,125.09,0,0,0,10.58,165.1,123.77,123.77,0,0,0,72.91,35.54c.3,0,.61.05.9.05a7.31,7.31,0,0,0,.89-14.56"/><path class="cls-1" d="M201.25,215A7.29,7.29,0,0,0,191,213.52a110.27,110.27,0,0,1-52.2,21,7.3,7.3,0,0,0,.89,14.55,7,7,0,0,0,.92-.05,124.79,124.79,0,0,0,59.14-23.85A7.29,7.29,0,0,0,201.25,215"/><path class="cls-1" d="M57,38A110.43,110.43,0,0,1,184.2,31.82a7.62,7.62,0,0,1,3.52,5.63,7.38,7.38,0,0,1-2.14,6.12l-.25.25a7.65,7.65,0,0,1-9.58.91,94,94,0,0,0-35.13-13.39,7.3,7.3,0,1,0-2.4,14.41,79.73,79.73,0,0,1,29.71,11.32,22.64,22.64,0,0,0,12.13,3.56,22,22,0,0,0,15.63-6.5l.24-.25A22.18,22.18,0,0,0,192,19.49a125,125,0,0,0-144,7A7.3,7.3,0,0,0,57,38"/><path class="cls-1" d="M325.06,117a5,5,0,0,0-3.62-1.52H258.5a5.19,5.19,0,0,0-5.15,5.15v95.22A5.19,5.19,0,0,0,258.5,221h11.94a5.19,5.19,0,0,0,5.14-5.14V183.3h42.91a5.21,5.21,0,0,0,5.15-5.15V167.69a5.21,5.21,0,0,0-5.15-5.15H275.58V136.28h45.86a5.19,5.19,0,0,0,5.14-5.15V120.67a5,5,0,0,0-1.52-3.63Z"/><path class="cls-1" d="M370.87,156c.38-6.63,2.56-11.88,6.49-15.58s9.25-5.57,15.78-5.57,11.85,1.88,15.78,5.57,6.12,9,6.5,15.61c.19,2.44.29,6.58.29,12.29s-.1,10-.3,12.46c-.37,6.63-2.56,11.85-6.48,15.5s-9.25,5.51-15.79,5.51-11.85-1.85-15.79-5.51-6.1-8.87-6.47-15.48c-.2-4.86-.3-9.06-.3-12.48s.1-7.48.29-12.32m54.65-30.51h0c-7.47-7.56-18.36-11.4-32.38-11.4s-24.91,3.86-32.38,11.48-11.52,17.54-12.12,29.58c-.2,4.5-.3,8.48-.3,11.84,0,4.44.1,9.36.3,14.65.6,12,4.68,22,12.13,29.51s18.35,11.4,32.37,11.4,24.91-3.84,32.38-11.4,11.52-17.48,12.12-29.52c.2-5.36.3-10.28.3-14.64,0-3.33-.1-7.21-.3-11.84C437,143,433,133,425.52,125.45"/><path class="cls-1" d="M658.64,117a5,5,0,0,0-3.62-1.52H643.23a5.19,5.19,0,0,0-5.15,5.15v59.69c0,7.39-1.9,12.85-5.66,16.23s-9.08,5.16-15.73,5.16-11.87-1.74-15.56-5.15-5.53-8.84-5.53-16.24V120.67a5.19,5.19,0,0,0-5.14-5.15H578.52a5.19,5.19,0,0,0-5.15,5.15V181.1c0,12.74,3.74,22.94,11.11,30.31s18.2,11.09,32.21,11.09,24.76-3.75,32.22-11.17,11.25-17.58,11.25-30.23V120.67a5,5,0,0,0-1.52-3.63Z"/><path class="cls-1" d="M788.31,117a5,5,0,0,0-3.63-1.52h-10a6.62,6.62,0,0,0-4.53,1.4,19.67,19.67,0,0,0-2.74,3l-27.08,47-27.07-47a20.54,20.54,0,0,0-2.74-3,6.66,6.66,0,0,0-4.53-1.4H696a5.19,5.19,0,0,0-5.15,5.15v95.22A5.19,5.19,0,0,0,696,221h11.94a5.19,5.19,0,0,0,5.15-5.14V162.61l17,29.44c1.79,2.8,4,4.22,6.44,4.22h7.67c2.47,0,4.64-1.42,6.46-4.27l17-29.39v53.28a5.19,5.19,0,0,0,5.15,5.14h11.94a5.19,5.19,0,0,0,5.15-5.14V120.67a5,5,0,0,0-1.52-3.63"/><path class="cls-1" d="M268.9,44.18c2-2,4.84-3.09,8.52-3.09s6.51.77,8.44,2.29a8.84,8.84,0,0,1,3.48,5.54,3.16,3.16,0,0,0,1.18,2,3.27,3.27,0,0,0,2,.72H299a3.07,3.07,0,0,0,2.16-.81,2.66,2.66,0,0,0,.81-2.21,20.24,20.24,0,0,0-3-9.21,20,20,0,0,0-8.13-7.19,29.34,29.34,0,0,0-13.39-2.76c-7.3,0-13.12,2.1-17.3,6.25s-6.49,9.68-6.93,16.51c-.1,2.67-.16,4.91-.16,6.72s.06,4.05.16,6.74c.44,6.81,2.77,12.36,6.93,16.49s10,6.25,17.3,6.25a29.19,29.19,0,0,0,13.39-2.76,19.88,19.88,0,0,0,8.13-7.19,20.2,20.2,0,0,0,3-9.19,2.68,2.68,0,0,0-.81-2.23,3.07,3.07,0,0,0-2.16-.82h-6.45a3.09,3.09,0,0,0-2,.75,3.2,3.2,0,0,0-1.12,2,8.78,8.78,0,0,1-3.51,5.54c-2,1.53-4.82,2.3-8.49,2.3s-6.54-1-8.52-3.09a12.42,12.42,0,0,1-3.31-8.14c-.11-2.64-.16-4.85-.16-6.65s.05-4,.16-6.64a12.42,12.42,0,0,1,3.31-8.15"/><path class="cls-1" d="M331.73,30.29h-6.45a3,3,0,0,0-3,3V84.68a2.86,2.86,0,0,0,.88,2.09,2.84,2.84,0,0,0,2.09.89h6.45a3,3,0,0,0,3-3V33.26a3,3,0,0,0-3-3"/><path class="cls-1" d="M396.45,30.29h-39.4a3,3,0,0,0-3,3v5.65A2.9,2.9,0,0,0,355,41a2.87,2.87,0,0,0,2.1.88h13.5V84.68a2.86,2.86,0,0,0,.88,2.09,2.84,2.84,0,0,0,2.09.89H380a2.89,2.89,0,0,0,2.1-.89,2.86,2.86,0,0,0,.87-2.09V41.89h13.51a3,3,0,0,0,3-3V33.26a2.84,2.84,0,0,0-.88-2.09,2.88,2.88,0,0,0-2.09-.88"/><path class="cls-1" d="M464.14,30.29h-6a4.15,4.15,0,0,0-2.71.86,4.82,4.82,0,0,0-1.35,1.54L441.94,54,429.78,32.73a4.9,4.9,0,0,0-1.38-1.58,4.15,4.15,0,0,0-2.71-.86h-6a3,3,0,0,0-3,3,2.41,2.41,0,0,0,.27,1.13l18.75,33V84.68a3,3,0,0,0,3,3h6.37a2.84,2.84,0,0,0,2.09-.89,2.86,2.86,0,0,0,.88-2.09V67.39l18.78-33a2.49,2.49,0,0,0,.25-1.09,2.84,2.84,0,0,0-.89-2.09,2.86,2.86,0,0,0-2.09-.88"/><path class="cls-1" d="M552.71,70.11a5.38,5.38,0,0,1-1.83,4.32c-1.24,1.08-3.19,1.62-5.78,1.62H531.2v-12h13.9a8.61,8.61,0,0,1,5.71,1.68,5.36,5.36,0,0,1,1.9,4.34M531.2,52.5V41.88h13.26c2.5,0,4.35.46,5.5,1.35a4.64,4.64,0,0,1,1.63,4,4.67,4.67,0,0,1-1.63,4c-1.15.88-3,1.34-5.5,1.34Zm27.87,5.1A16.57,16.57,0,0,0,562,54.14a13,13,0,0,0,2-7.35,16.74,16.74,0,0,0-1.88-7.53A15.87,15.87,0,0,0,556,32.88a20.3,20.3,0,0,0-10.73-2.59H521.78a2.9,2.9,0,0,0-2.1.88,2.86,2.86,0,0,0-.88,2.09V84.68a3,3,0,0,0,3,3h25.3a17.93,17.93,0,0,0,9.67-2.55A17.06,17.06,0,0,0,563,78.5a17.92,17.92,0,0,0,2.12-8.39,15.15,15.15,0,0,0-2-7.86,16.88,16.88,0,0,0-4-4.65"/><path class="cls-1" d="M595.48,30.29H589a2.92,2.92,0,0,0-2.1.88,2.87,2.87,0,0,0-.87,2.09V84.68a3,3,0,0,0,3,3h6.45a2.89,2.89,0,0,0,2.1-.89,2.86,2.86,0,0,0,.87-2.09V33.26a3,3,0,0,0-3-3"/><path class="cls-1" d="M655.69,70.11a5.38,5.38,0,0,1-1.82,4.32c-1.25,1.08-3.2,1.62-5.79,1.62h-13.9v-12h13.9a8.61,8.61,0,0,1,5.71,1.68,5.36,5.36,0,0,1,1.9,4.34M634.18,52.5V41.88h13.26c2.5,0,4.36.46,5.51,1.35a4.67,4.67,0,0,1,1.63,4,4.7,4.7,0,0,1-1.63,4c-1.15.88-3,1.34-5.51,1.34Zm27.87,5.1a16.28,16.28,0,0,0,3-3.46,13,13,0,0,0,2-7.35,16.74,16.74,0,0,0-1.88-7.53A15.9,15.9,0,0,0,659,32.88a20.36,20.36,0,0,0-10.74-2.59H624.76a2.9,2.9,0,0,0-2.1.88,2.86,2.86,0,0,0-.88,2.09V84.68a3,3,0,0,0,3,3h25.31a18,18,0,0,0,9.67-2.55A17.1,17.1,0,0,0,666,78.5a17.93,17.93,0,0,0,2.13-8.39,15.15,15.15,0,0,0-2-7.86,16.88,16.88,0,0,0-4.05-4.65"/><path class="cls-1" d="M726.87,76.05H701.43V33.26a3,3,0,0,0-3-3H692a2.93,2.93,0,0,0-2.1.89,2.86,2.86,0,0,0-.87,2.09V84.68a3,3,0,0,0,3,3h34.86a3,3,0,0,0,3-3V79a3,3,0,0,0-3-3"/><path class="cls-1" d="M789.08,76.93h0a2.9,2.9,0,0,0-2.1-.88H761.46V64.49H784.6a2.87,2.87,0,0,0,2.09-.87,2.93,2.93,0,0,0,.88-2.11V55.87a3,3,0,0,0-3-3H761.46v-11h24.89a3,3,0,0,0,3-3V33.26a3,3,0,0,0-3-3H752a2.92,2.92,0,0,0-2.1.88,2.86,2.86,0,0,0-.87,2.09V84.68a3,3,0,0,0,3,3H787a3,3,0,0,0,3-3V79a2.9,2.9,0,0,0-.88-2.1"/><path class="cls-1" d="M548.38,214.43,529.71,181a1.93,1.93,0,0,1,.83-2.7A30,30,0,0,0,542.44,168c3.45-5.23,5.21-11.62,5.21-19,0-10.42-3.41-18.7-10.13-24.61h0c-6.68-5.87-16.31-8.84-28.63-8.84h-38a5.19,5.19,0,0,0-5.14,5.15v95.17a5,5,0,0,0,1,3.08,5.11,5.11,0,0,0,4.15,2.12H482.8a5.21,5.21,0,0,0,5.15-5.15V138.24a2,2,0,0,1,2-2h18.25c5.83,0,10.25,1,13.14,2.83s4.11,5,4.11,9.86-1.37,8.11-4.2,10a19.22,19.22,0,0,1-8.59,2.74,13,13,0,0,0-8,3.85,10.48,10.48,0,0,0-1.6,12.44l21.6,38.41A7.83,7.83,0,0,0,532,221h12.53a4.46,4.46,0,0,0,4.41-4.42,4.9,4.9,0,0,0-.59-2.19"/><path class="cls-1" d="M851.07,180.93a3.5,3.5,0,0,1-3.46,3.45h-9.73a3.36,3.36,0,0,1-2.44-1,3.32,3.32,0,0,1-1-2.43V157.62H811.5a3.5,3.5,0,0,1-3.46-3.45v-8.45a3.5,3.5,0,0,1,3.46-3.46h22.92V119.08a3.48,3.48,0,0,1,3.46-3.45h9.73a3.5,3.5,0,0,1,3.46,3.45v23.18h22.79a3.48,3.48,0,0,1,3.45,3.46v8.45a3.48,3.48,0,0,1-3.45,3.45H851.07Z"/></g></svg>