<svg xmlns="http://www.w3.org/2000/svg" viewBox="0 0 419.63 519.48"><defs><style>.cls-1{fill:#cf2e4f;}.cls-2{fill:#102d39;}</style></defs><title>Third Spacethird space stacked</title><g id="bible_shots" data-name="bible shots"><path class="cls-1" d="M209.63,262.87a130.94,130.94,0,0,1-92.87-38.4c-51.21-51.22-51.21-134.54,0-185.75s134.53-51.21,185.74,0,51.21,134.53,0,185.75A130.94,130.94,0,0,1,209.63,262.87Zm0-242.36A111.09,111.09,0,1,0,288.21,53,110.75,110.75,0,0,0,209.63,20.51Z"/><path class="cls-1" d="M240.62,211H178.54a10.1,10.1,0,0,1-10-11.16l3.68-34.65a10.1,10.1,0,1,1,20.09,2.14l-2.49,23.47H229l-10.83-77.58a10.1,10.1,0,0,1,4.3-9.74,22.8,22.8,0,1,0-35.65-18.83,10.1,10.1,0,0,1-20.2,0A43,43,0,1,1,239,116.12l11.65,83.42a10.11,10.11,0,0,1-10,11.5Z"/><path class="cls-2" d="M48.26,466.11h0c-7-1.51-12.19-2.74-15.3-3.66a16.88,16.88,0,0,1-6.66-3.35,7,7,0,0,1-2-5.44c0-2.92,1.43-5.19,4.39-7A21.75,21.75,0,0,1,39.88,444c4.52,0,8.13.7,10.74,2.08a15.11,15.11,0,0,1,6,5.47,7.35,7.35,0,0,0,2.22,2.49,6.22,6.22,0,0,0,3.52.86h8.88a4.2,4.2,0,0,0,3-1.11,3.49,3.49,0,0,0,1.08-3,21.2,21.2,0,0,0-4.56-11,31,31,0,0,0-12.1-9.26,44.29,44.29,0,0,0-18.71-3.67,42.44,42.44,0,0,0-17.24,3.41,29.87,29.87,0,0,0-12.24,9.52,22.88,22.88,0,0,0-4.5,13.82c0,7.49,2.05,13.28,6.09,17.19S22.55,477.8,31.48,480c3.35.84,6.14,1.48,8.26,1.9,5.28,1.26,9.28,2.3,11.88,3.1a16.41,16.41,0,0,1,5.86,2.92,5.45,5.45,0,0,1,1.94,4.41c0,3.32-1.71,5.75-5.22,7.43a32,32,0,0,1-13.69,2.6c-5.61,0-9.79-.8-12.42-2.39a15.76,15.76,0,0,1-6-6.4,6.22,6.22,0,0,0-2.19-2.53,6.64,6.64,0,0,0-3.57-.86H7.41a4.19,4.19,0,0,0-3,1.12,3.48,3.48,0,0,0-1.09,3A21.11,21.11,0,0,0,9,507.53a33.53,33.53,0,0,0,13.56,8.86,51.86,51.86,0,0,0,18,3.08A51.79,51.79,0,0,0,60.22,516a29.93,29.93,0,0,0,13-9.66,23.06,23.06,0,0,0,4.56-14c0-7.09-2.38-12.75-7.06-16.83S58.54,468.32,48.26,466.11Z"/><path class="cls-2" d="M155.24,435.62c-5.76-4.94-13.92-7.45-24.25-7.45H97a4.1,4.1,0,0,0-4,4.05v81.93a4.1,4.1,0,0,0,4,4.05h10.27a4.1,4.1,0,0,0,4-4.05V486.49H131c10.33,0,18.49-2.55,24.25-7.57S164,466.57,164,457.21,161,440.58,155.24,435.62Zm-9.66,21.59c0,4.33-1.3,7.47-3.86,9.32s-6.45,2.86-11.37,2.86h-19V445.28h19c5,0,8.86.92,11.44,2.74S145.58,452.88,145.58,457.21Z"/><path class="cls-2" d="M221.14,432.9a8.68,8.68,0,0,0-2-3.54,4.78,4.78,0,0,0-3.41-1.19H201.78a4.8,4.8,0,0,0-3.41,1.19,8.52,8.52,0,0,0-2,3.53L165.3,513.06a3.33,3.33,0,0,0-.16,1.09,4.1,4.1,0,0,0,4.05,4.05h9.13c2.81,0,4.68-1.21,5.53-3.57l5.3-13.68h39.22l5.29,13.67c.85,2.37,2.72,3.58,5.53,3.58h9.14a4.1,4.1,0,0,0,4-4.05,3.27,3.27,0,0,0-.17-1.11Zm.66,51H195.72l13-33.79Z"/><path class="cls-2" d="M284,449.14c3.28-3.41,8-5.13,14.07-5.13s10.67,1.27,13.88,3.8a15,15,0,0,1,5.8,9.24,4.33,4.33,0,0,0,1.62,2.81,4.54,4.54,0,0,0,2.8,1h10.27a4.16,4.16,0,0,0,3-1.13,3.46,3.46,0,0,0,1.08-3,31.57,31.57,0,0,0-4.71-14.37,31,31,0,0,0-12.68-11.19c-5.6-2.87-12.67-4.32-21-4.32-11.45,0-20.56,3.28-27.07,9.75s-10.16,15.16-10.84,25.85c-.17,4.22-.25,7.81-.25,10.68s.08,6.46.25,10.69c.68,10.68,4.33,19.36,10.84,25.83s15.62,9.76,27.07,9.76c8.35,0,15.42-1.46,21-4.32A31,31,0,0,0,331.75,504a31.49,31.49,0,0,0,4.71-14.35,3.49,3.49,0,0,0-1.08-3,4.19,4.19,0,0,0-3-1.12H322.15a4.26,4.26,0,0,0-2.75,1,4.5,4.5,0,0,0-1.55,2.78,14.81,14.81,0,0,1-5.85,9.26c-3.26,2.52-7.95,3.8-13.95,3.8s-10.79-1.73-14.07-5.14a20.42,20.42,0,0,1-5.47-13.41c-.17-4.21-.26-7.78-.26-10.63s.09-6.43.26-10.62A20.5,20.5,0,0,1,284,449.14Z"/><path class="cls-2" d="M414.64,502.3a3.87,3.87,0,0,0-2.84-1.2H370.44V481.3H408a4.1,4.1,0,0,0,4.05-4.05v-9a3.88,3.88,0,0,0-1.2-2.85,4,4,0,0,0-2.85-1.2H370.44V445.28h40.34a4.1,4.1,0,0,0,4.05-4v-9a4.1,4.1,0,0,0-4.05-4.05H356.12a4.1,4.1,0,0,0-4.05,4.05v81.93a4.1,4.1,0,0,0,4.05,4.05H411.8a4.1,4.1,0,0,0,4-4.05v-9A3.88,3.88,0,0,0,414.64,502.3Z"/><path class="cls-2" d="M106,342.93v40a2.63,2.63,0,0,0,2.6,2.6h6a2.63,2.63,0,0,0,2.6-2.6v-40h12.74a2.61,2.61,0,0,0,2.61-2.6v-5.26a2.61,2.61,0,0,0-2.61-2.6H93.21a2.63,2.63,0,0,0-2.6,2.6v5.26a2.52,2.52,0,0,0,.77,1.84,2.49,2.49,0,0,0,1.83.76Z"/><path class="cls-2" d="M185.26,384.8A2.51,2.51,0,0,0,186,383v-47.9a2.59,2.59,0,0,0-2.59-2.6h-6a2.61,2.61,0,0,0-2.6,2.6v18.46H153.63V335.07a2.52,2.52,0,0,0-.77-1.83,2.49,2.49,0,0,0-1.84-.77h-6a2.63,2.63,0,0,0-2.6,2.6V383a2.46,2.46,0,0,0,.78,1.88,2.57,2.57,0,0,0,1.82.72h6a2.63,2.63,0,0,0,2.61-2.6V364h21.19v19a2.61,2.61,0,0,0,2.6,2.6h6A2.52,2.52,0,0,0,185.26,384.8Z"/><path class="cls-2" d="M202.23,385.57h6a2.49,2.49,0,0,0,1.83-.77,2.52,2.52,0,0,0,.77-1.83v-47.9a2.52,2.52,0,0,0-.77-1.83,2.48,2.48,0,0,0-1.83-.77h-6a2.63,2.63,0,0,0-2.6,2.6V383a2.63,2.63,0,0,0,2.6,2.6Z"/><path class="cls-2" d="M279.78,385.57h18.69c7,0,12.51-1.87,16.22-5.55s5.77-8.89,6.17-15.47c.1-1.23.15-3,.15-5.53s-.05-4.3-.15-5.53c-.4-6.59-2.5-11.8-6.25-15.47s-9.32-5.55-16.51-5.55H279.78a2.63,2.63,0,0,0-2.6,2.6V383a2.63,2.63,0,0,0,2.6,2.6Zm8.61-10.47V342.93h9.34c3.86,0,6.8,1,8.73,2.87a11.46,11.46,0,0,1,3.2,7.78c.09,1.2.14,3,.14,5.44s-.05,4.24-.14,5.45a11.62,11.62,0,0,1-3.13,7.77c-1.87,1.9-4.71,2.86-8.43,2.86Z"/><path class="cls-2" d="M256.85,365.11a.57.57,0,0,1-.05-.46.65.65,0,0,1,.33-.38,15.3,15.3,0,0,0,6-5.24,17.17,17.17,0,0,0,2.64-9.62c0-5.27-1.73-9.47-5.14-12.47s-8.24-4.47-14.44-4.47H227.36a2.94,2.94,0,0,0-2.91,2.91v47.08a3,3,0,0,0,.63,1.92,2.88,2.88,0,0,0,2.28,1.11h5.92a2.94,2.94,0,0,0,2.92-2.91V344.09a.61.61,0,0,1,.6-.61h9c2.82,0,4.94.46,6.32,1.35s1.87,2.32,1.87,4.58-.63,3.79-1.92,4.66a9.36,9.36,0,0,1-4.27,1.32,6.5,6.5,0,0,0-4,2A5.61,5.61,0,0,0,243,364l10.7,19a4.22,4.22,0,0,0,4,2.48h6.21a2.56,2.56,0,0,0,2.54-2.54,2.66,2.66,0,0,0-.33-1.25Z"/></g></svg>