<?xml version="1.0" encoding="UTF-8" standalone="no"?>
<!-- Created with Inkscape (http://www.inkscape.org/) -->

<svg
   xmlns:dc="http://purl.org/dc/elements/1.1/"
   xmlns:cc="http://creativecommons.org/ns#"
   xmlns:rdf="http://www.w3.org/1999/02/22-rdf-syntax-ns#"
   xmlns:svg="http://www.w3.org/2000/svg"
   xmlns="http://www.w3.org/2000/svg"
   xmlns:sodipodi="http://sodipodi.sourceforge.net/DTD/sodipodi-0.dtd"
   xmlns:inkscape="http://www.inkscape.org/namespaces/inkscape"
   id="svg2"
   version="1.1"
   inkscape:version="0.91 r13725"
   xml:space="preserve"
   width="700"
   height="700"
   viewBox="0 0 700.00001 700.00001"
   sodipodi:docname="tmp-logo.svg"><metadata
     id="metadata8"><rdf:RDF><cc:Work
         rdf:about=""><dc:format>image/svg+xml</dc:format><dc:type
           rdf:resource="http://purl.org/dc/dcmitype/StillImage" /><dc:title></dc:title></cc:Work></rdf:RDF></metadata><defs
     id="defs6"><clipPath
       clipPathUnits="userSpaceOnUse"
       id="clipPath16"><path
         d="m 0,519.48 419.632,0 L 419.632,0 0,0 0,519.48 Z"
         id="path18"
         inkscape:connector-curvature="0" /></clipPath></defs><sodipodi:namedview
     pagecolor="#ffffff"
     bordercolor="#666666"
     borderopacity="1"
     objecttolerance="10"
     gridtolerance="10"
     guidetolerance="10"
     inkscape:pageopacity="0"
     inkscape:pageshadow="2"
     inkscape:window-width="1879"
     inkscape:window-height="1056"
     id="namedview4"
     showgrid="false"
     fit-margin-top="10"
     fit-margin-left="10"
     fit-margin-right="10"
     fit-margin-bottom="10"
     inkscape:zoom="1.0279646"
     inkscape:cx="174.33399"
     inkscape:cy="13.914775"
     inkscape:window-x="1407"
     inkscape:window-y="24"
     inkscape:window-maximized="1"
     inkscape:current-layer="g10" /><g
     id="g10"
     inkscape:groupmode="layer"
     inkscape:label="Third Spacethird space stacked inverted"
     transform="matrix(1.25,0,0,-1.25,-87.936001,1010.7602)"><g
       id="g4243"
       transform="matrix(2.0718916,0,0,2.0718955,-83.98142,-275.05718)"><g
         transform="translate(209.6293,498.9712)"
         id="g20"><path
           inkscape:connector-curvature="0"
           id="path22"
           style="fill:#cf2e4f;fill-opacity:1;fill-rule:nonzero;stroke:none"
           d="m 0,0 c -28.462,0 -56.917,-10.83 -78.584,-32.498 -43.333,-43.331 -43.333,-113.838 0,-157.17 43.331,-43.331 113.837,-43.331 157.169,0 43.332,43.332 43.332,113.839 0,157.17 C 56.922,-10.834 28.456,0 0,0 m 0,-242.363 c -33.634,0 -67.268,12.801 -92.873,38.406 -51.21,51.212 -51.21,134.537 0,185.748 51.211,51.21 134.535,51.21 185.747,0 51.21,-51.211 51.21,-134.536 0,-185.748 C 67.268,-229.562 33.634,-242.363 0,-242.363" /></g><g
         transform="translate(240.6225,308.4351)"
         id="g24"><path
           inkscape:connector-curvature="0"
           id="path26"
           style="fill:#cf2e4f;fill-opacity:1;fill-rule:nonzero;stroke:none"
           d="m 0,0 -62.081,0 c -2.865,0 -5.596,1.217 -7.512,3.347 -1.916,2.131 -2.837,4.974 -2.535,7.822 l 3.675,34.642 c 0.589,5.546 5.574,9.558 11.113,8.98 5.549,-0.59 9.57,-5.564 8.982,-11.113 l -2.491,-23.471 39.237,0 -10.831,77.58 c -0.531,3.798 1.134,7.568 4.299,9.734 6.23,4.263 9.948,11.303 9.948,18.835 0,12.57 -10.227,22.797 -22.797,22.797 -12.57,0 -22.797,-10.227 -22.797,-22.797 0,-5.58 -4.523,-10.103 -10.104,-10.103 -5.58,0 -10.103,4.523 -10.103,10.103 0,23.712 19.291,43.003 43.004,43.003 23.713,0 43.004,-19.291 43.004,-43.003 0,-12.011 -5.01,-23.357 -13.653,-31.43 L 10.006,11.5 C 10.41,8.604 9.541,5.677 7.622,3.472 5.703,1.267 2.924,0 0,0" /></g></g></g></svg>