<?xml version="1.0" encoding="UTF-8" standalone="no"?>
<svg
   xmlns:dc="http://purl.org/dc/elements/1.1/"
   xmlns:cc="http://creativecommons.org/ns#"
   xmlns:rdf="http://www.w3.org/1999/02/22-rdf-syntax-ns#"
   xmlns:svg="http://www.w3.org/2000/svg"
   xmlns="http://www.w3.org/2000/svg"
   id="svg33"
   version="1.1"
   viewBox="0 0 614.97 186">
  <metadata
     id="metadata37">
    <rdf:RDF>
      <cc:Work
         rdf:about="">
        <dc:format>image/svg+xml</dc:format>
        <dc:type
           rdf:resource="http://purl.org/dc/dcmitype/StillImage" />
        <dc:title>Third Spacethird space</dc:title>
      </cc:Work>
    </rdf:RDF>
  </metadata>
  <defs
     id="defs4">
    <style
       id="style2">.cls-1{fill:#102d39;}.cls-2{fill:#cf2e4f;}</style>
  </defs>
  <title
     id="title6">Third Spacethird space</title>
  <g
     id="g63">
    <path
       style="fill:#ffffff"
       id="path8"
       d="m 231.7,25.43 v 39.2 a 2.46,2.46 0 0 0 0.75,1.79 2.43,2.43 0 0 0 1.8,0.76 h 5.88 a 2.45,2.45 0 0 0 1.79,-0.75 2.48,2.48 0 0 0 0.76,-1.8 v -39.2 h 12.48 a 2.45,2.45 0 0 0 1.79,-0.75 2.48,2.48 0 0 0 0.76,-1.79 v -5.16 a 2.58,2.58 0 0 0 -2.55,-2.55 h -35.94 a 2.6,2.6 0 0 0 -2.55,2.55 v 5.16 a 2.46,2.46 0 0 0 0.76,1.79 2.43,2.43 0 0 0 1.79,0.75 z"
       class="cls-1" />
    <path
       style="fill:#ffffff"
       id="path10"
       d="m 309.35,66.43 a 2.47,2.47 0 0 0 0.75,-1.8 v -46.9 a 2.56,2.56 0 0 0 -2.54,-2.55 h -5.89 a 2.58,2.58 0 0 0 -2.54,2.55 V 35.8 H 278.38 V 17.73 a 2.6,2.6 0 0 0 -2.55,-2.55 H 270 a 2.48,2.48 0 0 0 -1.8,0.76 2.45,2.45 0 0 0 -0.75,1.79 v 46.9 a 2.44,2.44 0 0 0 0.77,1.85 2.53,2.53 0 0 0 1.78,0.7 h 5.88 a 2.43,2.43 0 0 0 1.79,-0.75 2.48,2.48 0 0 0 0.76,-1.8 V 46.05 h 20.75 v 18.58 a 2.43,2.43 0 0 0 0.75,1.79 2.4,2.4 0 0 0 1.79,0.76 h 5.89 a 2.45,2.45 0 0 0 1.74,-0.75 z"
       class="cls-1" />
    <path
       style="fill:#ffffff"
       id="path12"
       d="m 326,67.18 h 5.88 a 2.56,2.56 0 0 0 2.55,-2.55 v -46.9 a 2.58,2.58 0 0 0 -2.55,-2.55 H 326 a 2.6,2.6 0 0 0 -2.55,2.55 v 46.9 a 2.43,2.43 0 0 0 0.76,1.79 2.39,2.39 0 0 0 1.79,0.76 z"
       class="cls-1" />
    <path
       style="fill:#ffffff"
       id="path14"
       d="m 401.9,67.18 h 18.3 c 6.91,0 12.25,-1.83 15.88,-5.43 3.63,-3.6 5.66,-8.7 6.05,-15.15 0.1,-1.2 0.15,-3 0.15,-5.42 0,-2.42 0,-4.21 -0.15,-5.41 -0.39,-6.45 -2.45,-11.55 -6.12,-15.15 -3.67,-3.6 -9.12,-5.44 -16.17,-5.44 H 401.9 a 2.48,2.48 0 0 0 -1.79,0.76 2.45,2.45 0 0 0 -0.75,1.79 v 46.9 a 2.58,2.58 0 0 0 2.54,2.55 z m 8.44,-10.25 v -31.5 h 9.14 c 3.78,0 6.66,0.95 8.55,2.81 a 11.22,11.22 0 0 1 3.13,7.62 c 0.1,1.17 0.14,2.91 0.14,5.32 0,2.41 0,4.15 -0.14,5.34 a 11.35,11.35 0 0 1 -3.06,7.61 c -1.84,1.86 -4.62,2.8 -8.26,2.8 z"
       class="cls-1" />
    <path
       style="fill:#ffffff"
       id="path16"
       d="m 257.08,122.64 v 0 c -6.77,-1.45 -11.72,-2.63 -14.7,-3.52 a 15.93,15.93 0 0 1 -6.39,-3.21 6.75,6.75 0 0 1 -2,-5.23 c 0,-2.81 1.38,-5 4.22,-6.67 a 20.76,20.76 0 0 1 10.78,-2.6 c 4.33,0 7.81,0.67 10.31,2 a 14.57,14.57 0 0 1 5.74,5.25 7.21,7.21 0 0 0 2.13,2.4 6.06,6.06 0 0 0 3.38,0.83 h 8.53 a 4,4 0 0 0 2.85,-1.08 3.38,3.38 0 0 0 1,-2.85 A 20.49,20.49 0 0 0 278.55,97.4 29.92,29.92 0 0 0 267,88.51 42.69,42.69 0 0 0 249,85 a 40.71,40.71 0 0 0 -16.57,3.28 28.58,28.58 0 0 0 -11.76,9.15 22,22 0 0 0 -4.32,13.27 c 0,7.2 2,12.76 5.85,16.51 3.85,3.75 10.15,6.68 18.73,8.8 3.22,0.81 5.89,1.43 7.93,1.83 5.08,1.21 8.92,2.21 11.41,3 a 15.77,15.77 0 0 1 5.64,2.81 5.24,5.24 0 0 1 1.86,4.23 c 0,3.19 -1.64,5.52 -5,7.14 a 30.78,30.78 0 0 1 -13.15,2.5 c -5.38,0 -9.4,-0.77 -11.93,-2.29 a 15.24,15.24 0 0 1 -5.8,-6.15 6.06,6.06 0 0 0 -2.11,-2.44 6.36,6.36 0 0 0 -3.43,-0.82 h -8.53 a 4,4 0 0 0 -2.84,1.07 3.36,3.36 0 0 0 -0.98,2.81 20.35,20.35 0 0 0 5.4,12.74 32.15,32.15 0 0 0 13,8.5 53.69,53.69 0 0 0 36.2,-0.37 28.67,28.67 0 0 0 12.5,-9.28 22.23,22.23 0 0 0 4.38,-13.45 c 0,-6.81 -2.29,-12.25 -6.79,-16.17 -4.5,-3.92 -11.69,-6.9 -21.61,-9.03 z"
       class="cls-1" />
    <path
       style="fill:#ffffff"
       id="path18"
       d="M 359.86,93.35 C 354.33,88.6 346.49,86.2 336.57,86.2 H 303.91 A 3.93,3.93 0 0 0 300,90.09 v 78.71 a 3.93,3.93 0 0 0 3.88,3.89 h 9.87 a 3.94,3.94 0 0 0 3.89,-3.89 v -26.58 h 18.9 c 9.93,0 17.77,-2.44 23.3,-7.27 5.53,-4.83 8.36,-11.87 8.36,-20.86 0,-8.99 -2.78,-15.97 -8.34,-20.74 z m -9.27,20.74 c 0,4.17 -1.25,7.18 -3.71,9 -2.46,1.82 -6.2,2.75 -10.92,2.75 H 317.67 V 102.63 H 336 c 4.8,0 8.5,0.88 11,2.63 2.5,1.75 3.59,4.67 3.59,8.83 z"
       class="cls-1" />
    <path
       style="fill:#ffffff"
       id="path20"
       d="M 423.18,90.74 A 8.43,8.43 0 0 0 421.26,87.33 4.65,4.65 0 0 0 418,86.2 h -13.4 a 4.57,4.57 0 0 0 -3.27,1.14 8.09,8.09 0 0 0 -1.92,3.39 l -29.86,77 a 3.32,3.32 0 0 0 -0.15,1.05 3.94,3.94 0 0 0 3.89,3.89 H 382 c 2.7,0 4.49,-1.16 5.31,-3.43 l 5.09,-13.15 h 37.68 l 5.09,13.13 c 0.82,2.29 2.6,3.45 5.31,3.45 h 8.78 a 3.93,3.93 0 0 0 3.88,-3.89 3.25,3.25 0 0 0 -0.16,-1.07 z m 0.63,49 h -25.06 l 12.53,-32.46 z"
       class="cls-1" />
    <path
       style="fill:#ffffff"
       id="path22"
       d="m 483.55,106.34 c 3.15,-3.27 7.7,-4.93 13.51,-4.93 5.81,0 10.26,1.23 13.34,3.65 a 14.32,14.32 0 0 1 5.57,8.88 4.18,4.18 0 0 0 1.56,2.7 4.31,4.31 0 0 0 2.68,1 h 9.88 a 4,4 0 0 0 2.84,-1.07 3.33,3.33 0 0 0 1,-2.86 30.18,30.18 0 0 0 -4.53,-13.79 29.78,29.78 0 0 0 -12.18,-10.76 c -5.38,-2.75 -12.17,-4.15 -20.2,-4.15 -11,0 -19.74,3.15 -26,9.37 -6.26,6.22 -9.75,14.57 -10.4,24.83 -0.17,4.06 -0.25,7.51 -0.25,10.26 0,2.75 0.08,6.21 0.25,10.28 0.65,10.25 4.15,18.6 10.41,24.81 6.26,6.21 15,9.37 26,9.37 8,0 14.82,-1.39 20.2,-4.14 A 29.92,29.92 0 0 0 529.44,159 30.26,30.26 0 0 0 534,145.21 a 3.33,3.33 0 0 0 -1,-2.86 4,4 0 0 0 -2.84,-1.08 h -9.88 a 4.1,4.1 0 0 0 -2.63,1 4.28,4.28 0 0 0 -1.49,2.67 14.26,14.26 0 0 1 -5.63,8.9 c -3.12,2.42 -7.63,3.65 -13.4,3.65 -5.77,0 -10.36,-1.66 -13.51,-4.94 a 19.6,19.6 0 0 1 -5.26,-12.88 c -0.16,-4 -0.24,-7.48 -0.24,-10.22 0,-2.74 0.08,-6.17 0.24,-10.2 a 19.66,19.66 0 0 1 5.19,-12.91 z"
       class="cls-1" />
    <path
       style="fill:#ffffff"
       id="path24"
       d="m 609.08,157.41 a 3.72,3.72 0 0 0 -2.74,-1.15 h -39.73 v -19 h 36.08 a 3.93,3.93 0 0 0 3.89,-3.89 v -8.65 a 3.93,3.93 0 0 0 -3.89,-3.89 h -36.08 v -18.2 h 38.76 a 3.93,3.93 0 0 0 3.88,-3.89 V 90.09 A 3.93,3.93 0 0 0 605.37,86.2 H 552.85 A 3.93,3.93 0 0 0 549,90.09 v 78.71 a 3.94,3.94 0 0 0 3.88,3.89 h 53.49 a 3.93,3.93 0 0 0 3.89,-3.89 v -8.65 a 3.76,3.76 0 0 0 -1.18,-2.74 z"
       class="cls-1" />
    <path
       style="fill:#ffffff"
       id="path26"
       d="m 379.45,47.15 a 0.59,0.59 0 0 1 -0.05,-0.45 0.65,0.65 0 0 1 0.33,-0.38 15,15 0 0 0 5.89,-5.13 16.84,16.84 0 0 0 2.58,-9.42 c 0,-5.16 -1.69,-9.27 -5,-12.21 -3.31,-2.94 -8.06,-4.38 -14.13,-4.38 H 350.58 A 2.89,2.89 0 0 0 347.73,18 v 46.1 a 2.93,2.93 0 0 0 0.62,1.88 2.83,2.83 0 0 0 2.23,1.09 h 5.79 a 2.77,2.77 0 0 0 2,-0.85 2.73,2.73 0 0 0 0.84,-2 V 26.56 a 0.6,0.6 0 0 1 0.59,-0.59 h 8.86 c 2.76,0 4.84,0.44 6.19,1.32 1.35,0.88 1.83,2.27 1.83,4.48 0,2.21 -0.61,3.72 -1.88,4.57 a 9.17,9.17 0 0 1 -4.18,1.29 6.38,6.38 0 0 0 -3.91,1.95 5.49,5.49 0 0 0 -0.83,6.47 l 10.47,18.63 a 4.16,4.16 0 0 0 3.9,2.43 h 6.08 a 2.53,2.53 0 0 0 2.5,-2.5 2.67,2.67 0 0 0 -0.33,-1.22 z"
       class="cls-1" />
    <path
       style="fill:#cf2e4f"
       id="path28"
       d="m 93.08,185.74 a 92.8,92.8 0 1 1 65.65,-27.15 92.56,92.56 0 0 1 -65.65,27.15 z m 0,-171.31 a 78.52,78.52 0 1 0 55.55,23 78.3,78.3 0 0 0 -55.55,-23 z"
       class="cls-2" />
    <path
       style="fill:#cf2e4f"
       id="path30"
       d="M 115,149.11 H 71.11 A 7.16,7.16 0 0 1 64,141.21 l 2.6,-24.48 a 7.1444751,7.1444751 0 0 1 14.21,1.5 l -1.76,16.59 h 27.73 L 99.12,80 a 7.16,7.16 0 0 1 3,-6.88 A 16.11,16.11 0 1 0 77,59.79 7.15,7.15 0 0 1 62.71,59.79 30.4,30.4 0 1 1 113.83,82 l 8.23,59 a 7.14,7.14 0 0 1 -7.07,8.13 z"
       class="cls-2" />
  </g>
</svg>
