<svg xmlns="http://www.w3.org/2000/svg" viewBox="0 0 614.97 186"><title>Third Spacethird space mono black</title><g id="bible_shots" data-name="bible shots"><path d="M231.7,25.43v39.2a2.46,2.46,0,0,0,.75,1.79,2.43,2.43,0,0,0,1.8.76h5.88a2.45,2.45,0,0,0,1.79-.75,2.48,2.48,0,0,0,.76-1.8V25.43h12.48a2.45,2.45,0,0,0,1.79-.75,2.48,2.48,0,0,0,.76-1.79V17.73a2.58,2.58,0,0,0-2.55-2.55H219.22a2.6,2.6,0,0,0-2.55,2.55v5.16a2.46,2.46,0,0,0,.76,1.79,2.43,2.43,0,0,0,1.79.75Z"/><path d="M309.35,66.43a2.47,2.47,0,0,0,.75-1.8V17.73a2.56,2.56,0,0,0-2.54-2.55h-5.89a2.58,2.58,0,0,0-2.54,2.55V35.8H278.38V17.73a2.6,2.6,0,0,0-2.55-2.55H270a2.48,2.48,0,0,0-1.8.76,2.45,2.45,0,0,0-.75,1.79v46.9a2.44,2.44,0,0,0,.77,1.85,2.53,2.53,0,0,0,1.78.7h5.88a2.43,2.43,0,0,0,1.79-.75,2.48,2.48,0,0,0,.76-1.8V46.05h20.75V64.63a2.43,2.43,0,0,0,.75,1.79,2.4,2.4,0,0,0,1.79.76h5.89A2.45,2.45,0,0,0,309.35,66.43Z"/><path d="M326,67.18h5.88a2.56,2.56,0,0,0,2.55-2.55V17.73a2.58,2.58,0,0,0-2.55-2.55H326a2.6,2.6,0,0,0-2.55,2.55v46.9a2.43,2.43,0,0,0,.76,1.79A2.39,2.39,0,0,0,326,67.18Z"/><path d="M401.9,67.18h18.3c6.91,0,12.25-1.83,15.88-5.43s5.66-8.7,6.05-15.15c.1-1.2.15-3,.15-5.42s0-4.21-.15-5.41c-.39-6.45-2.45-11.55-6.12-15.15s-9.12-5.44-16.17-5.44H401.9a2.48,2.48,0,0,0-1.79.76,2.45,2.45,0,0,0-.75,1.79v46.9a2.58,2.58,0,0,0,2.54,2.55Zm8.44-10.25V25.43h9.14c3.78,0,6.66.95,8.55,2.81a11.22,11.22,0,0,1,3.13,7.62c.1,1.17.14,2.91.14,5.32s0,4.15-.14,5.34a11.35,11.35,0,0,1-3.06,7.61c-1.84,1.86-4.62,2.8-8.26,2.8Z"/><path d="M257.08,122.64h0c-6.77-1.45-11.72-2.63-14.7-3.52a15.93,15.93,0,0,1-6.39-3.21,6.75,6.75,0,0,1-2-5.23c0-2.81,1.38-5,4.22-6.67a20.76,20.76,0,0,1,10.78-2.6c4.33,0,7.81.67,10.31,2a14.57,14.57,0,0,1,5.74,5.25,7.21,7.21,0,0,0,2.13,2.4,6.06,6.06,0,0,0,3.38.83h8.53a4,4,0,0,0,2.85-1.08,3.38,3.38,0,0,0,1-2.85,20.49,20.49,0,0,0-4.38-10.56A29.92,29.92,0,0,0,267,88.51,42.69,42.69,0,0,0,249,85a40.71,40.71,0,0,0-16.57,3.28,28.58,28.58,0,0,0-11.76,9.15,22,22,0,0,0-4.32,13.27c0,7.2,2,12.76,5.85,16.51s10.15,6.68,18.73,8.8c3.22.81,5.89,1.43,7.93,1.83,5.08,1.21,8.92,2.21,11.41,3a15.77,15.77,0,0,1,5.64,2.81,5.24,5.24,0,0,1,1.86,4.23c0,3.19-1.64,5.52-5,7.14a30.78,30.78,0,0,1-13.15,2.5c-5.38,0-9.4-.77-11.93-2.29a15.24,15.24,0,0,1-5.8-6.15,6.06,6.06,0,0,0-2.11-2.44,6.36,6.36,0,0,0-3.43-.82h-8.53a4,4,0,0,0-2.84,1.07A3.36,3.36,0,0,0,214,149.7a20.35,20.35,0,0,0,5.4,12.74,32.15,32.15,0,0,0,13,8.5,53.69,53.69,0,0,0,36.2-.37,28.67,28.67,0,0,0,12.5-9.28,22.23,22.23,0,0,0,4.38-13.45c0-6.81-2.29-12.25-6.79-16.17S267,124.77,257.08,122.64Z"/><path d="M359.86,93.35c-5.53-4.75-13.37-7.15-23.29-7.15H303.91A3.93,3.93,0,0,0,300,90.09V168.8a3.93,3.93,0,0,0,3.88,3.89h9.87a3.94,3.94,0,0,0,3.89-3.89V142.22h18.9c9.93,0,17.77-2.44,23.3-7.27s8.36-11.87,8.36-20.86S365.42,98.12,359.86,93.35Zm-9.27,20.74c0,4.17-1.25,7.18-3.71,9s-6.2,2.75-10.92,2.75H317.67V102.63H336c4.8,0,8.5.88,11,2.63S350.59,109.93,350.59,114.09Z"/><path d="M423.18,90.74a8.43,8.43,0,0,0-1.92-3.41A4.65,4.65,0,0,0,418,86.2h-13.4a4.57,4.57,0,0,0-3.27,1.14,8.09,8.09,0,0,0-1.92,3.39l-29.86,77a3.32,3.32,0,0,0-.15,1.05,3.94,3.94,0,0,0,3.89,3.89H382c2.7,0,4.49-1.16,5.31-3.43l5.09-13.15h37.68l5.09,13.13c.82,2.29,2.6,3.45,5.31,3.45h8.78a3.93,3.93,0,0,0,3.88-3.89,3.25,3.25,0,0,0-.16-1.07Zm.63,49H398.75l12.53-32.46Z"/><path d="M483.55,106.34c3.15-3.27,7.7-4.93,13.51-4.93s10.26,1.23,13.34,3.65a14.32,14.32,0,0,1,5.57,8.88,4.18,4.18,0,0,0,1.56,2.7,4.31,4.31,0,0,0,2.68,1h9.88a4,4,0,0,0,2.84-1.07,3.33,3.33,0,0,0,1-2.86,30.18,30.18,0,0,0-4.53-13.79,29.78,29.78,0,0,0-12.18-10.76c-5.38-2.75-12.17-4.15-20.2-4.15-11,0-19.74,3.15-26,9.37s-9.75,14.57-10.4,24.83c-.17,4.06-.25,7.51-.25,10.26s.08,6.21.25,10.28c.65,10.25,4.15,18.6,10.41,24.81s15,9.37,26,9.37c8,0,14.82-1.39,20.2-4.14A29.92,29.92,0,0,0,529.44,159,30.26,30.26,0,0,0,534,145.21a3.33,3.33,0,0,0-1-2.86,4,4,0,0,0-2.84-1.08h-9.88a4.1,4.1,0,0,0-2.63,1,4.28,4.28,0,0,0-1.49,2.67,14.26,14.26,0,0,1-5.63,8.9c-3.12,2.42-7.63,3.65-13.4,3.65s-10.36-1.66-13.51-4.94a19.6,19.6,0,0,1-5.26-12.88c-.16-4-.24-7.48-.24-10.22s.08-6.17.24-10.2A19.66,19.66,0,0,1,483.55,106.34Z"/><path d="M609.08,157.41a3.72,3.72,0,0,0-2.74-1.15H566.61v-19h36.08a3.93,3.93,0,0,0,3.89-3.89v-8.65a3.93,3.93,0,0,0-3.89-3.89H566.61V102.63h38.76a3.93,3.93,0,0,0,3.88-3.89V90.09a3.93,3.93,0,0,0-3.88-3.89H552.85A3.93,3.93,0,0,0,549,90.09V168.8a3.94,3.94,0,0,0,3.88,3.89h53.49a3.93,3.93,0,0,0,3.89-3.89v-8.65A3.76,3.76,0,0,0,609.08,157.41Z"/><path d="M379.45,47.15a.59.59,0,0,1-.05-.45.65.65,0,0,1,.33-.38,15,15,0,0,0,5.89-5.13,16.84,16.84,0,0,0,2.58-9.42c0-5.16-1.69-9.27-5-12.21s-8.06-4.38-14.13-4.38H350.58A2.89,2.89,0,0,0,347.73,18v46.1a2.93,2.93,0,0,0,.62,1.88,2.83,2.83,0,0,0,2.23,1.09h5.79a2.77,2.77,0,0,0,2-.85,2.73,2.73,0,0,0,.84-2V26.56a.6.6,0,0,1,.59-.59h8.86c2.76,0,4.84.44,6.19,1.32s1.83,2.27,1.83,4.48-.61,3.72-1.88,4.57a9.17,9.17,0,0,1-4.18,1.29,6.38,6.38,0,0,0-3.91,1.95,5.49,5.49,0,0,0-.83,6.47l10.47,18.63a4.16,4.16,0,0,0,3.9,2.43h6.08a2.53,2.53,0,0,0,2.5-2.5,2.67,2.67,0,0,0-.33-1.22Z"/><path d="M93.08,185.74a92.8,92.8,0,1,1,65.65-27.15A92.56,92.56,0,0,1,93.08,185.74Zm0-171.31a78.52,78.52,0,1,0,55.55,23A78.3,78.3,0,0,0,93.08,14.43Z"/><path d="M115,149.11H71.11a7.16,7.16,0,0,1-7.11-7.9l2.6-24.48a7.14,7.14,0,0,1,14.21,1.5l-1.76,16.59h27.73L99.12,80a7.16,7.16,0,0,1,3-6.88A16.11,16.11,0,1,0,77,59.79a7.15,7.15,0,0,1-14.29,0A30.4,30.4,0,1,1,113.83,82l8.23,59a7.14,7.14,0,0,1-7.07,8.13Z"/></g></svg>