<?xml version="1.0" standalone="no"?>
<!DOCTYPE svg PUBLIC "-//W3C//DTD SVG 20010904//EN"
 "http://www.w3.org/TR/2001/REC-SVG-20010904/DTD/svg10.dtd">
<svg version="1.0" xmlns="http://www.w3.org/2000/svg"
 width="700.000000pt" height="700.000000pt" viewBox="0 0 700.000000 700.000000"
 preserveAspectRatio="xMidYMid meet">
<metadata>
Created by potrace 1.11, written by Peter Selinger 2001-2013
</metadata>
<g transform="translate(0.000000,700.000000) scale(0.100000,-0.100000)"
fill="#000000" stroke="none">
<path d="M3810 6876 c-532 -58 -1011 -218 -1445 -485 -177 -108 -335 -227
-364 -274 -80 -129 16 -297 169 -297 62 0 86 12 215 105 429 311 947 506 1482
556 179 17 562 6 723 -20 403 -65 747 -188 1086 -387 140 -82 174 -126 174
-224 0 -115 -97 -210 -215 -210 -33 0 -106 32 -175 75 -75 48 -290 151 -395
190 -191 71 -440 135 -529 135 -156 0 -254 -190 -159 -307 48 -60 72 -71 218
-104 237 -53 423 -122 611 -229 169 -96 248 -131 335 -146 220 -40 424 39 575
221 167 200 178 498 28 718 -73 107 -153 167 -398 299 -333 180 -698 300
-1111 364 -202 31 -623 41 -825 20z"/>
<path d="M3595 6015 c-667 -148 -1234 -537 -1608 -1102 -286 -432 -429 -910
-428 -1433 0 -406 83 -762 261 -1125 130 -264 246 -425 318 -441 15 -3 33 -7
40 -10 29 -9 115 19 148 48 49 43 67 84 67 148 0 61 -11 88 -83 195 -174 260
-297 594 -341 925 -16 122 -16 408 0 530 67 511 289 953 657 1310 296 287 647
476 1055 565 143 32 165 41 207 89 86 98 56 248 -60 305 -55 26 -102 25 -233
-4z"/>
<path d="M1549 5640 c-49 -14 -79 -43 -149 -137 -309 -419 -523 -922 -609
-1428 -66 -386 -66 -793 -1 -1167 229 -1315 1207 -2381 2490 -2714 156 -41
399 -84 471 -84 204 0 271 277 90 369 -20 10 -85 26 -146 36 -267 41 -548 123
-784 229 -911 410 -1565 1257 -1730 2241 -31 181 -41 309 -41 505 0 353 52
663 166 991 102 294 222 516 448 835 64 91 69 163 16 249 -39 62 -144 99 -221
75z"/>
<path d="M4050 5253 c-567 -32 -1088 -335 -1393 -808 -122 -189 -227 -454
-227 -571 0 -144 167 -235 294 -160 56 33 69 54 117 193 128 372 361 639 706
812 274 137 602 172 918 99 240 -55 473 -187 660 -372 108 -107 140 -126 210
-126 137 0 234 147 181 275 -8 18 -50 70 -93 116 -253 265 -586 446 -949 514
-78 15 -307 36 -349 33 -11 -1 -45 -3 -75 -5z"/>
<path d="M3950 4461 c-117 -26 -171 -46 -267 -96 -347 -183 -556 -556 -529
-942 32 -456 362 -829 809 -914 100 -19 299 -17 392 5 212 49 414 165 457 264
41 92 5 202 -80 249 -84 46 -143 38 -254 -34 -115 -74 -191 -97 -328 -97 -144
-1 -230 24 -340 99 -260 177 -336 524 -175 801 48 83 149 174 245 221 110 54
173 67 296 61 119 -6 185 -27 304 -100 103 -63 169 -74 236 -40 96 49 134 139
102 244 -26 87 -239 221 -428 269 -121 31 -324 36 -440 10z"/>
<path d="M2582 3280 c-87 -20 -152 -102 -152 -193 0 -62 58 -235 124 -371 209
-429 583 -756 1036 -905 222 -73 480 -103 702 -83 289 26 493 94 818 273 70
38 79 41 133 36 111 -10 192 -97 192 -207 -1 -111 -59 -169 -285 -284 -446
-227 -933 -298 -1420 -205 -272 52 -547 162 -776 310 -52 34 -113 68 -136 76
-142 49 -283 -88 -244 -238 16 -62 39 -87 146 -159 636 -428 1484 -541 2230
-298 292 95 615 269 726 390 60 66 116 170 138 254 21 80 21 228 0 308 -53
204 -229 379 -435 432 -36 9 -104 16 -159 16 -114 1 -216 -29 -325 -93 -255
-150 -437 -206 -700 -216 -125 -4 -170 -2 -273 16 -305 52 -568 192 -775 411
-144 153 -237 309 -306 516 -47 137 -58 156 -113 187 -49 28 -99 37 -146 27z"/>
<path d="M6010 1108 c-19 -5 -82 -42 -140 -82 -394 -271 -822 -442 -1277 -511
-136 -21 -188 -48 -222 -117 -23 -48 -28 -119 -10 -165 25 -66 109 -123 181
-123 162 1 591 107 863 215 109 43 366 169 463 226 111 66 322 211 344 236 66
73 61 194 -11 270 -45 48 -127 70 -191 51z"/>
</g>
</svg>
